%TF.GenerationSoftware,KiCad,Pcbnew,(5.1.7)-1*%
%TF.CreationDate,2020-10-20T01:21:36+09:00*%
%TF.ProjectId,UARTtoBluetoothSerial,55415254-746f-4426-9c75-65746f6f7468,rev?*%
%TF.SameCoordinates,Original*%
%TF.FileFunction,Legend,Top*%
%TF.FilePolarity,Positive*%
%FSLAX46Y46*%
G04 Gerber Fmt 4.6, Leading zero omitted, Abs format (unit mm)*
G04 Created by KiCad (PCBNEW (5.1.7)-1) date 2020-10-20 01:21:36*
%MOMM*%
%LPD*%
G01*
G04 APERTURE LIST*
%ADD10C,0.150000*%
%ADD11C,0.120000*%
%ADD12C,0.127000*%
%ADD13C,0.200000*%
G04 APERTURE END LIST*
D10*
X120212190Y-94341904D02*
X119755047Y-94341904D01*
X119983619Y-94341904D02*
X119983619Y-93541904D01*
X119907428Y-93656190D01*
X119831238Y-93732380D01*
X119755047Y-93770476D01*
X120974095Y-94341904D02*
X120516952Y-94341904D01*
X120745523Y-94341904D02*
X120745523Y-93541904D01*
X120669333Y-93656190D01*
X120593142Y-93732380D01*
X120516952Y-93770476D01*
X121697904Y-93541904D02*
X121316952Y-93541904D01*
X121278857Y-93922857D01*
X121316952Y-93884761D01*
X121393142Y-93846666D01*
X121583619Y-93846666D01*
X121659809Y-93884761D01*
X121697904Y-93922857D01*
X121736000Y-93999047D01*
X121736000Y-94189523D01*
X121697904Y-94265714D01*
X121659809Y-94303809D01*
X121583619Y-94341904D01*
X121393142Y-94341904D01*
X121316952Y-94303809D01*
X121278857Y-94265714D01*
X122040761Y-93618095D02*
X122078857Y-93580000D01*
X122155047Y-93541904D01*
X122345523Y-93541904D01*
X122421714Y-93580000D01*
X122459809Y-93618095D01*
X122497904Y-93694285D01*
X122497904Y-93770476D01*
X122459809Y-93884761D01*
X122002666Y-94341904D01*
X122497904Y-94341904D01*
X122993142Y-93541904D02*
X123069333Y-93541904D01*
X123145523Y-93580000D01*
X123183619Y-93618095D01*
X123221714Y-93694285D01*
X123259809Y-93846666D01*
X123259809Y-94037142D01*
X123221714Y-94189523D01*
X123183619Y-94265714D01*
X123145523Y-94303809D01*
X123069333Y-94341904D01*
X122993142Y-94341904D01*
X122916952Y-94303809D01*
X122878857Y-94265714D01*
X122840761Y-94189523D01*
X122802666Y-94037142D01*
X122802666Y-93846666D01*
X122840761Y-93694285D01*
X122878857Y-93618095D01*
X122916952Y-93580000D01*
X122993142Y-93541904D01*
X123755047Y-93541904D02*
X123831238Y-93541904D01*
X123907428Y-93580000D01*
X123945523Y-93618095D01*
X123983619Y-93694285D01*
X124021714Y-93846666D01*
X124021714Y-94037142D01*
X123983619Y-94189523D01*
X123945523Y-94265714D01*
X123907428Y-94303809D01*
X123831238Y-94341904D01*
X123755047Y-94341904D01*
X123678857Y-94303809D01*
X123640761Y-94265714D01*
X123602666Y-94189523D01*
X123564571Y-94037142D01*
X123564571Y-93846666D01*
X123602666Y-93694285D01*
X123640761Y-93618095D01*
X123678857Y-93580000D01*
X123755047Y-93541904D01*
X124364571Y-94341904D02*
X124364571Y-93541904D01*
X124364571Y-93846666D02*
X124440761Y-93808571D01*
X124593142Y-93808571D01*
X124669333Y-93846666D01*
X124707428Y-93884761D01*
X124745523Y-93960952D01*
X124745523Y-94189523D01*
X124707428Y-94265714D01*
X124669333Y-94303809D01*
X124593142Y-94341904D01*
X124440761Y-94341904D01*
X124364571Y-94303809D01*
X125088380Y-93808571D02*
X125088380Y-94608571D01*
X125088380Y-93846666D02*
X125164571Y-93808571D01*
X125316952Y-93808571D01*
X125393142Y-93846666D01*
X125431238Y-93884761D01*
X125469333Y-93960952D01*
X125469333Y-94189523D01*
X125431238Y-94265714D01*
X125393142Y-94303809D01*
X125316952Y-94341904D01*
X125164571Y-94341904D01*
X125088380Y-94303809D01*
X125774095Y-94303809D02*
X125850285Y-94341904D01*
X126002666Y-94341904D01*
X126078857Y-94303809D01*
X126116952Y-94227619D01*
X126116952Y-94189523D01*
X126078857Y-94113333D01*
X126002666Y-94075238D01*
X125888380Y-94075238D01*
X125812190Y-94037142D01*
X125774095Y-93960952D01*
X125774095Y-93922857D01*
X125812190Y-93846666D01*
X125888380Y-93808571D01*
X126002666Y-93808571D01*
X126078857Y-93846666D01*
X120593142Y-86467904D02*
X120745523Y-86467904D01*
X120821714Y-86429809D01*
X120859809Y-86391714D01*
X120936000Y-86277428D01*
X120974095Y-86125047D01*
X120974095Y-85820285D01*
X120936000Y-85744095D01*
X120897904Y-85706000D01*
X120821714Y-85667904D01*
X120669333Y-85667904D01*
X120593142Y-85706000D01*
X120555047Y-85744095D01*
X120516952Y-85820285D01*
X120516952Y-86010761D01*
X120555047Y-86086952D01*
X120593142Y-86125047D01*
X120669333Y-86163142D01*
X120821714Y-86163142D01*
X120897904Y-86125047D01*
X120936000Y-86086952D01*
X120974095Y-86010761D01*
X121659809Y-85667904D02*
X121507428Y-85667904D01*
X121431238Y-85706000D01*
X121393142Y-85744095D01*
X121316952Y-85858380D01*
X121278857Y-86010761D01*
X121278857Y-86315523D01*
X121316952Y-86391714D01*
X121355047Y-86429809D01*
X121431238Y-86467904D01*
X121583619Y-86467904D01*
X121659809Y-86429809D01*
X121697904Y-86391714D01*
X121736000Y-86315523D01*
X121736000Y-86125047D01*
X121697904Y-86048857D01*
X121659809Y-86010761D01*
X121583619Y-85972666D01*
X121431238Y-85972666D01*
X121355047Y-86010761D01*
X121316952Y-86048857D01*
X121278857Y-86125047D01*
X122231238Y-85667904D02*
X122307428Y-85667904D01*
X122383619Y-85706000D01*
X122421714Y-85744095D01*
X122459809Y-85820285D01*
X122497904Y-85972666D01*
X122497904Y-86163142D01*
X122459809Y-86315523D01*
X122421714Y-86391714D01*
X122383619Y-86429809D01*
X122307428Y-86467904D01*
X122231238Y-86467904D01*
X122155047Y-86429809D01*
X122116952Y-86391714D01*
X122078857Y-86315523D01*
X122040761Y-86163142D01*
X122040761Y-85972666D01*
X122078857Y-85820285D01*
X122116952Y-85744095D01*
X122155047Y-85706000D01*
X122231238Y-85667904D01*
X122993142Y-85667904D02*
X123069333Y-85667904D01*
X123145523Y-85706000D01*
X123183619Y-85744095D01*
X123221714Y-85820285D01*
X123259809Y-85972666D01*
X123259809Y-86163142D01*
X123221714Y-86315523D01*
X123183619Y-86391714D01*
X123145523Y-86429809D01*
X123069333Y-86467904D01*
X122993142Y-86467904D01*
X122916952Y-86429809D01*
X122878857Y-86391714D01*
X122840761Y-86315523D01*
X122802666Y-86163142D01*
X122802666Y-85972666D01*
X122840761Y-85820285D01*
X122878857Y-85744095D01*
X122916952Y-85706000D01*
X122993142Y-85667904D01*
X123602666Y-86467904D02*
X123602666Y-85667904D01*
X123602666Y-85972666D02*
X123678857Y-85934571D01*
X123831238Y-85934571D01*
X123907428Y-85972666D01*
X123945523Y-86010761D01*
X123983619Y-86086952D01*
X123983619Y-86315523D01*
X123945523Y-86391714D01*
X123907428Y-86429809D01*
X123831238Y-86467904D01*
X123678857Y-86467904D01*
X123602666Y-86429809D01*
X124326476Y-85934571D02*
X124326476Y-86734571D01*
X124326476Y-85972666D02*
X124402666Y-85934571D01*
X124555047Y-85934571D01*
X124631238Y-85972666D01*
X124669333Y-86010761D01*
X124707428Y-86086952D01*
X124707428Y-86315523D01*
X124669333Y-86391714D01*
X124631238Y-86429809D01*
X124555047Y-86467904D01*
X124402666Y-86467904D01*
X124326476Y-86429809D01*
X125012190Y-86429809D02*
X125088380Y-86467904D01*
X125240761Y-86467904D01*
X125316952Y-86429809D01*
X125355047Y-86353619D01*
X125355047Y-86315523D01*
X125316952Y-86239333D01*
X125240761Y-86201238D01*
X125126476Y-86201238D01*
X125050285Y-86163142D01*
X125012190Y-86086952D01*
X125012190Y-86048857D01*
X125050285Y-85972666D01*
X125126476Y-85934571D01*
X125240761Y-85934571D01*
X125316952Y-85972666D01*
X125672857Y-99129714D02*
X125710952Y-99015428D01*
X125749047Y-98977333D01*
X125825238Y-98939238D01*
X125939523Y-98939238D01*
X126015714Y-98977333D01*
X126053809Y-99015428D01*
X126091904Y-99091619D01*
X126091904Y-99396380D01*
X125291904Y-99396380D01*
X125291904Y-99129714D01*
X125330000Y-99053523D01*
X125368095Y-99015428D01*
X125444285Y-98977333D01*
X125520476Y-98977333D01*
X125596666Y-99015428D01*
X125634761Y-99053523D01*
X125672857Y-99129714D01*
X125672857Y-99396380D01*
X125291904Y-98444000D02*
X125291904Y-98291619D01*
X125330000Y-98215428D01*
X125406190Y-98139238D01*
X125558571Y-98101142D01*
X125825238Y-98101142D01*
X125977619Y-98139238D01*
X126053809Y-98215428D01*
X126091904Y-98291619D01*
X126091904Y-98444000D01*
X126053809Y-98520190D01*
X125977619Y-98596380D01*
X125825238Y-98634476D01*
X125558571Y-98634476D01*
X125406190Y-98596380D01*
X125330000Y-98520190D01*
X125291904Y-98444000D01*
X125291904Y-97605904D02*
X125291904Y-97453523D01*
X125330000Y-97377333D01*
X125406190Y-97301142D01*
X125558571Y-97263047D01*
X125825238Y-97263047D01*
X125977619Y-97301142D01*
X126053809Y-97377333D01*
X126091904Y-97453523D01*
X126091904Y-97605904D01*
X126053809Y-97682095D01*
X125977619Y-97758285D01*
X125825238Y-97796380D01*
X125558571Y-97796380D01*
X125406190Y-97758285D01*
X125330000Y-97682095D01*
X125291904Y-97605904D01*
X125291904Y-97034476D02*
X125291904Y-96577333D01*
X126091904Y-96805904D02*
X125291904Y-96805904D01*
X106025904Y-98951904D02*
X105644952Y-99218571D01*
X106025904Y-99409047D02*
X105225904Y-99409047D01*
X105225904Y-99104285D01*
X105264000Y-99028095D01*
X105302095Y-98990000D01*
X105378285Y-98951904D01*
X105492571Y-98951904D01*
X105568761Y-98990000D01*
X105606857Y-99028095D01*
X105644952Y-99104285D01*
X105644952Y-99409047D01*
X105606857Y-98609047D02*
X105606857Y-98342380D01*
X106025904Y-98228095D02*
X106025904Y-98609047D01*
X105225904Y-98609047D01*
X105225904Y-98228095D01*
X105987809Y-97923333D02*
X106025904Y-97809047D01*
X106025904Y-97618571D01*
X105987809Y-97542380D01*
X105949714Y-97504285D01*
X105873523Y-97466190D01*
X105797333Y-97466190D01*
X105721142Y-97504285D01*
X105683047Y-97542380D01*
X105644952Y-97618571D01*
X105606857Y-97770952D01*
X105568761Y-97847142D01*
X105530666Y-97885238D01*
X105454476Y-97923333D01*
X105378285Y-97923333D01*
X105302095Y-97885238D01*
X105264000Y-97847142D01*
X105225904Y-97770952D01*
X105225904Y-97580476D01*
X105264000Y-97466190D01*
X105606857Y-97123333D02*
X105606857Y-96856666D01*
X106025904Y-96742380D02*
X106025904Y-97123333D01*
X105225904Y-97123333D01*
X105225904Y-96742380D01*
X105225904Y-96513809D02*
X105225904Y-96056666D01*
X106025904Y-96285238D02*
X105225904Y-96285238D01*
D11*
%TO.C,J1*%
X113030000Y-101660000D02*
X113030000Y-99000000D01*
X113030000Y-101660000D02*
X120710000Y-101660000D01*
X120710000Y-101660000D02*
X120710000Y-99000000D01*
X113030000Y-99000000D02*
X120710000Y-99000000D01*
X110430000Y-99000000D02*
X111760000Y-99000000D01*
X110430000Y-100330000D02*
X110430000Y-99000000D01*
%TO.C,U1*%
X106434000Y-84030000D02*
X106434000Y-84810000D01*
X106434000Y-84810000D02*
X107434000Y-84810000D01*
X124674000Y-84030000D02*
X124674000Y-84810000D01*
X124674000Y-84810000D02*
X123674000Y-84810000D01*
X106434000Y-59065000D02*
X124674000Y-59065000D01*
X124674000Y-59065000D02*
X124674000Y-65485000D01*
X106434000Y-59065000D02*
X106434000Y-65485000D01*
X106434000Y-65485000D02*
X106054000Y-65485000D01*
%TO.C,D1*%
X107415000Y-92722500D02*
X107415000Y-90437500D01*
X107415000Y-90437500D02*
X105945000Y-90437500D01*
X105945000Y-90437500D02*
X105945000Y-92722500D01*
D12*
%TO.C,S3*%
X109550000Y-96540000D02*
X109550000Y-99040000D01*
X108450000Y-99890000D02*
X107450000Y-99890000D01*
X106350000Y-96540000D02*
X106350000Y-99040000D01*
X108450000Y-95690000D02*
X107450000Y-95690000D01*
X109211803Y-94890000D02*
G75*
G03*
X109211803Y-94890000I-111803J0D01*
G01*
X109150000Y-94940000D02*
G75*
G03*
X109150000Y-94940000I-50000J0D01*
G01*
%TO.C,S2*%
X124800000Y-96540000D02*
X124800000Y-99040000D01*
X123700000Y-99890000D02*
X122700000Y-99890000D01*
X121600000Y-96540000D02*
X121600000Y-99040000D01*
X123700000Y-95690000D02*
X122700000Y-95690000D01*
X124461803Y-94890000D02*
G75*
G03*
X124461803Y-94890000I-111803J0D01*
G01*
X124400000Y-94940000D02*
G75*
G03*
X124400000Y-94940000I-50000J0D01*
G01*
D11*
%TO.C,R4*%
X112282500Y-93297742D02*
X112282500Y-93772258D01*
X111237500Y-93297742D02*
X111237500Y-93772258D01*
%TO.C,R3*%
X119522500Y-93297742D02*
X119522500Y-93772258D01*
X118477500Y-93297742D02*
X118477500Y-93772258D01*
%TO.C,R2*%
X114539500Y-90407258D02*
X114539500Y-89932742D01*
X115584500Y-90407258D02*
X115584500Y-89932742D01*
%TO.C,R1*%
X108982742Y-92187500D02*
X109457258Y-92187500D01*
X108982742Y-93232500D02*
X109457258Y-93232500D01*
D13*
%TO.C,IC1*%
X113866000Y-95850000D02*
X113866000Y-94650000D01*
X113866000Y-94650000D02*
X116766000Y-94650000D01*
X116766000Y-94650000D02*
X116766000Y-95850000D01*
X116766000Y-95850000D02*
X113866000Y-95850000D01*
X113816000Y-97100000D02*
X113816000Y-96200000D01*
D11*
%TO.C,C4*%
X112270000Y-96379420D02*
X112270000Y-96660580D01*
X111250000Y-96379420D02*
X111250000Y-96660580D01*
%TO.C,C3*%
X119510000Y-96379420D02*
X119510000Y-96660580D01*
X118490000Y-96379420D02*
X118490000Y-96660580D01*
%TO.C,C2*%
X112266000Y-90310580D02*
X112266000Y-90029420D01*
X113286000Y-90310580D02*
X113286000Y-90029420D01*
%TO.C,C1*%
X118366000Y-90310580D02*
X118366000Y-90029420D01*
X117346000Y-90310580D02*
X117346000Y-90029420D01*
%TO.C,J1*%
D10*
X120129333Y-97605904D02*
X120129333Y-98177333D01*
X120091238Y-98291619D01*
X120015047Y-98367809D01*
X119900761Y-98405904D01*
X119824571Y-98405904D01*
X120929333Y-98405904D02*
X120472190Y-98405904D01*
X120700761Y-98405904D02*
X120700761Y-97605904D01*
X120624571Y-97720190D01*
X120548380Y-97796380D01*
X120472190Y-97834476D01*
%TO.C,U1*%
X107340476Y-85921904D02*
X107340476Y-86569523D01*
X107378571Y-86645714D01*
X107416666Y-86683809D01*
X107492857Y-86721904D01*
X107645238Y-86721904D01*
X107721428Y-86683809D01*
X107759523Y-86645714D01*
X107797619Y-86569523D01*
X107797619Y-85921904D01*
X108597619Y-86721904D02*
X108140476Y-86721904D01*
X108369047Y-86721904D02*
X108369047Y-85921904D01*
X108292857Y-86036190D01*
X108216666Y-86112380D01*
X108140476Y-86150476D01*
%TO.C,D1*%
X108565904Y-91522476D02*
X107765904Y-91522476D01*
X107765904Y-91332000D01*
X107804000Y-91217714D01*
X107880190Y-91141523D01*
X107956380Y-91103428D01*
X108108761Y-91065333D01*
X108223047Y-91065333D01*
X108375428Y-91103428D01*
X108451619Y-91141523D01*
X108527809Y-91217714D01*
X108565904Y-91332000D01*
X108565904Y-91522476D01*
X108565904Y-90303428D02*
X108565904Y-90760571D01*
X108565904Y-90532000D02*
X107765904Y-90532000D01*
X107880190Y-90608190D01*
X107956380Y-90684380D01*
X107994476Y-90760571D01*
%TO.C,SW1*%
X119703809Y-90728666D02*
X119741904Y-90614380D01*
X119741904Y-90423904D01*
X119703809Y-90347714D01*
X119665714Y-90309619D01*
X119589523Y-90271523D01*
X119513333Y-90271523D01*
X119437142Y-90309619D01*
X119399047Y-90347714D01*
X119360952Y-90423904D01*
X119322857Y-90576285D01*
X119284761Y-90652476D01*
X119246666Y-90690571D01*
X119170476Y-90728666D01*
X119094285Y-90728666D01*
X119018095Y-90690571D01*
X118980000Y-90652476D01*
X118941904Y-90576285D01*
X118941904Y-90385809D01*
X118980000Y-90271523D01*
X118941904Y-90004857D02*
X119741904Y-89814380D01*
X119170476Y-89662000D01*
X119741904Y-89509619D01*
X118941904Y-89319142D01*
X119741904Y-88595333D02*
X119741904Y-89052476D01*
X119741904Y-88823904D02*
X118941904Y-88823904D01*
X119056190Y-88900095D01*
X119132380Y-88976285D01*
X119170476Y-89052476D01*
%TO.C,S3*%
X105987809Y-101701523D02*
X106025904Y-101587238D01*
X106025904Y-101396761D01*
X105987809Y-101320571D01*
X105949714Y-101282476D01*
X105873523Y-101244380D01*
X105797333Y-101244380D01*
X105721142Y-101282476D01*
X105683047Y-101320571D01*
X105644952Y-101396761D01*
X105606857Y-101549142D01*
X105568761Y-101625333D01*
X105530666Y-101663428D01*
X105454476Y-101701523D01*
X105378285Y-101701523D01*
X105302095Y-101663428D01*
X105264000Y-101625333D01*
X105225904Y-101549142D01*
X105225904Y-101358666D01*
X105264000Y-101244380D01*
X105225904Y-100977714D02*
X105225904Y-100482476D01*
X105530666Y-100749142D01*
X105530666Y-100634857D01*
X105568761Y-100558666D01*
X105606857Y-100520571D01*
X105683047Y-100482476D01*
X105873523Y-100482476D01*
X105949714Y-100520571D01*
X105987809Y-100558666D01*
X106025904Y-100634857D01*
X106025904Y-100863428D01*
X105987809Y-100939619D01*
X105949714Y-100977714D01*
%TO.C,S2*%
X125799809Y-101701523D02*
X125837904Y-101587238D01*
X125837904Y-101396761D01*
X125799809Y-101320571D01*
X125761714Y-101282476D01*
X125685523Y-101244380D01*
X125609333Y-101244380D01*
X125533142Y-101282476D01*
X125495047Y-101320571D01*
X125456952Y-101396761D01*
X125418857Y-101549142D01*
X125380761Y-101625333D01*
X125342666Y-101663428D01*
X125266476Y-101701523D01*
X125190285Y-101701523D01*
X125114095Y-101663428D01*
X125076000Y-101625333D01*
X125037904Y-101549142D01*
X125037904Y-101358666D01*
X125076000Y-101244380D01*
X125114095Y-100939619D02*
X125076000Y-100901523D01*
X125037904Y-100825333D01*
X125037904Y-100634857D01*
X125076000Y-100558666D01*
X125114095Y-100520571D01*
X125190285Y-100482476D01*
X125266476Y-100482476D01*
X125380761Y-100520571D01*
X125837904Y-100977714D01*
X125837904Y-100482476D01*
%TO.C,R4*%
X113391904Y-93859333D02*
X113010952Y-94126000D01*
X113391904Y-94316476D02*
X112591904Y-94316476D01*
X112591904Y-94011714D01*
X112630000Y-93935523D01*
X112668095Y-93897428D01*
X112744285Y-93859333D01*
X112858571Y-93859333D01*
X112934761Y-93897428D01*
X112972857Y-93935523D01*
X113010952Y-94011714D01*
X113010952Y-94316476D01*
X112858571Y-93173619D02*
X113391904Y-93173619D01*
X112553809Y-93364095D02*
X113125238Y-93554571D01*
X113125238Y-93059333D01*
%TO.C,R3*%
X118217904Y-93859333D02*
X117836952Y-94126000D01*
X118217904Y-94316476D02*
X117417904Y-94316476D01*
X117417904Y-94011714D01*
X117456000Y-93935523D01*
X117494095Y-93897428D01*
X117570285Y-93859333D01*
X117684571Y-93859333D01*
X117760761Y-93897428D01*
X117798857Y-93935523D01*
X117836952Y-94011714D01*
X117836952Y-94316476D01*
X117417904Y-93592666D02*
X117417904Y-93097428D01*
X117722666Y-93364095D01*
X117722666Y-93249809D01*
X117760761Y-93173619D01*
X117798857Y-93135523D01*
X117875047Y-93097428D01*
X118065523Y-93097428D01*
X118141714Y-93135523D01*
X118179809Y-93173619D01*
X118217904Y-93249809D01*
X118217904Y-93478380D01*
X118179809Y-93554571D01*
X118141714Y-93592666D01*
%TO.C,R2*%
X114407904Y-90303333D02*
X114026952Y-90570000D01*
X114407904Y-90760476D02*
X113607904Y-90760476D01*
X113607904Y-90455714D01*
X113646000Y-90379523D01*
X113684095Y-90341428D01*
X113760285Y-90303333D01*
X113874571Y-90303333D01*
X113950761Y-90341428D01*
X113988857Y-90379523D01*
X114026952Y-90455714D01*
X114026952Y-90760476D01*
X113684095Y-89998571D02*
X113646000Y-89960476D01*
X113607904Y-89884285D01*
X113607904Y-89693809D01*
X113646000Y-89617619D01*
X113684095Y-89579523D01*
X113760285Y-89541428D01*
X113836476Y-89541428D01*
X113950761Y-89579523D01*
X114407904Y-90036666D01*
X114407904Y-89541428D01*
%TO.C,R1*%
X109086666Y-94341904D02*
X108820000Y-93960952D01*
X108629523Y-94341904D02*
X108629523Y-93541904D01*
X108934285Y-93541904D01*
X109010476Y-93580000D01*
X109048571Y-93618095D01*
X109086666Y-93694285D01*
X109086666Y-93808571D01*
X109048571Y-93884761D01*
X109010476Y-93922857D01*
X108934285Y-93960952D01*
X108629523Y-93960952D01*
X109848571Y-94341904D02*
X109391428Y-94341904D01*
X109620000Y-94341904D02*
X109620000Y-93541904D01*
X109543809Y-93656190D01*
X109467619Y-93732380D01*
X109391428Y-93770476D01*
%TO.C,IC1*%
X114535047Y-92817904D02*
X114535047Y-92017904D01*
X115373142Y-92741714D02*
X115335047Y-92779809D01*
X115220761Y-92817904D01*
X115144571Y-92817904D01*
X115030285Y-92779809D01*
X114954095Y-92703619D01*
X114916000Y-92627428D01*
X114877904Y-92475047D01*
X114877904Y-92360761D01*
X114916000Y-92208380D01*
X114954095Y-92132190D01*
X115030285Y-92056000D01*
X115144571Y-92017904D01*
X115220761Y-92017904D01*
X115335047Y-92056000D01*
X115373142Y-92094095D01*
X116135047Y-92817904D02*
X115677904Y-92817904D01*
X115906476Y-92817904D02*
X115906476Y-92017904D01*
X115830285Y-92132190D01*
X115754095Y-92208380D01*
X115677904Y-92246476D01*
%TO.C,C4*%
X113315714Y-96653333D02*
X113353809Y-96691428D01*
X113391904Y-96805714D01*
X113391904Y-96881904D01*
X113353809Y-96996190D01*
X113277619Y-97072380D01*
X113201428Y-97110476D01*
X113049047Y-97148571D01*
X112934761Y-97148571D01*
X112782380Y-97110476D01*
X112706190Y-97072380D01*
X112630000Y-96996190D01*
X112591904Y-96881904D01*
X112591904Y-96805714D01*
X112630000Y-96691428D01*
X112668095Y-96653333D01*
X112858571Y-95967619D02*
X113391904Y-95967619D01*
X112553809Y-96158095D02*
X113125238Y-96348571D01*
X113125238Y-95853333D01*
%TO.C,C3*%
X118141714Y-96399333D02*
X118179809Y-96437428D01*
X118217904Y-96551714D01*
X118217904Y-96627904D01*
X118179809Y-96742190D01*
X118103619Y-96818380D01*
X118027428Y-96856476D01*
X117875047Y-96894571D01*
X117760761Y-96894571D01*
X117608380Y-96856476D01*
X117532190Y-96818380D01*
X117456000Y-96742190D01*
X117417904Y-96627904D01*
X117417904Y-96551714D01*
X117456000Y-96437428D01*
X117494095Y-96399333D01*
X117417904Y-96132666D02*
X117417904Y-95637428D01*
X117722666Y-95904095D01*
X117722666Y-95789809D01*
X117760761Y-95713619D01*
X117798857Y-95675523D01*
X117875047Y-95637428D01*
X118065523Y-95637428D01*
X118141714Y-95675523D01*
X118179809Y-95713619D01*
X118217904Y-95789809D01*
X118217904Y-96018380D01*
X118179809Y-96094571D01*
X118141714Y-96132666D01*
%TO.C,C2*%
X111631714Y-90303333D02*
X111669809Y-90341428D01*
X111707904Y-90455714D01*
X111707904Y-90531904D01*
X111669809Y-90646190D01*
X111593619Y-90722380D01*
X111517428Y-90760476D01*
X111365047Y-90798571D01*
X111250761Y-90798571D01*
X111098380Y-90760476D01*
X111022190Y-90722380D01*
X110946000Y-90646190D01*
X110907904Y-90531904D01*
X110907904Y-90455714D01*
X110946000Y-90341428D01*
X110984095Y-90303333D01*
X110984095Y-89998571D02*
X110946000Y-89960476D01*
X110907904Y-89884285D01*
X110907904Y-89693809D01*
X110946000Y-89617619D01*
X110984095Y-89579523D01*
X111060285Y-89541428D01*
X111136476Y-89541428D01*
X111250761Y-89579523D01*
X111707904Y-90036666D01*
X111707904Y-89541428D01*
%TO.C,C1*%
X116711714Y-90303333D02*
X116749809Y-90341428D01*
X116787904Y-90455714D01*
X116787904Y-90531904D01*
X116749809Y-90646190D01*
X116673619Y-90722380D01*
X116597428Y-90760476D01*
X116445047Y-90798571D01*
X116330761Y-90798571D01*
X116178380Y-90760476D01*
X116102190Y-90722380D01*
X116026000Y-90646190D01*
X115987904Y-90531904D01*
X115987904Y-90455714D01*
X116026000Y-90341428D01*
X116064095Y-90303333D01*
X116787904Y-89541428D02*
X116787904Y-89998571D01*
X116787904Y-89770000D02*
X115987904Y-89770000D01*
X116102190Y-89846190D01*
X116178380Y-89922380D01*
X116216476Y-89998571D01*
%TD*%
M02*
