%TF.GenerationSoftware,KiCad,Pcbnew,(5.1.7)-1*%
%TF.CreationDate,2020-10-20T01:21:36+09:00*%
%TF.ProjectId,UARTtoBluetoothSerial,55415254-746f-4426-9c75-65746f6f7468,rev?*%
%TF.SameCoordinates,Original*%
%TF.FileFunction,Legend,Bot*%
%TF.FilePolarity,Positive*%
%FSLAX46Y46*%
G04 Gerber Fmt 4.6, Leading zero omitted, Abs format (unit mm)*
G04 Created by KiCad (PCBNEW (5.1.7)-1) date 2020-10-20 01:21:36*
%MOMM*%
%LPD*%
G01*
G04 APERTURE LIST*
%ADD10C,0.300000*%
%ADD11C,0.200000*%
G04 APERTURE END LIST*
D10*
X106575428Y-60059571D02*
X106575428Y-60659571D01*
X107518285Y-60916714D02*
X107518285Y-60059571D01*
X105718285Y-60059571D01*
X105718285Y-60916714D01*
X107432571Y-61602428D02*
X107518285Y-61859571D01*
X107518285Y-62288142D01*
X107432571Y-62459571D01*
X107346857Y-62545285D01*
X107175428Y-62631000D01*
X107004000Y-62631000D01*
X106832571Y-62545285D01*
X106746857Y-62459571D01*
X106661142Y-62288142D01*
X106575428Y-61945285D01*
X106489714Y-61773857D01*
X106404000Y-61688142D01*
X106232571Y-61602428D01*
X106061142Y-61602428D01*
X105889714Y-61688142D01*
X105804000Y-61773857D01*
X105718285Y-61945285D01*
X105718285Y-62373857D01*
X105804000Y-62631000D01*
X107518285Y-63402428D02*
X105718285Y-63402428D01*
X105718285Y-64088142D01*
X105804000Y-64259571D01*
X105889714Y-64345285D01*
X106061142Y-64431000D01*
X106318285Y-64431000D01*
X106489714Y-64345285D01*
X106575428Y-64259571D01*
X106661142Y-64088142D01*
X106661142Y-63402428D01*
X105718285Y-65031000D02*
X105718285Y-66145285D01*
X106404000Y-65545285D01*
X106404000Y-65802428D01*
X106489714Y-65973857D01*
X106575428Y-66059571D01*
X106746857Y-66145285D01*
X107175428Y-66145285D01*
X107346857Y-66059571D01*
X107432571Y-65973857D01*
X107518285Y-65802428D01*
X107518285Y-65288142D01*
X107432571Y-65116714D01*
X107346857Y-65031000D01*
X105889714Y-66831000D02*
X105804000Y-66916714D01*
X105718285Y-67088142D01*
X105718285Y-67516714D01*
X105804000Y-67688142D01*
X105889714Y-67773857D01*
X106061142Y-67859571D01*
X106232571Y-67859571D01*
X106489714Y-67773857D01*
X107518285Y-66745285D01*
X107518285Y-67859571D01*
X106832571Y-68631000D02*
X106832571Y-70002428D01*
X105718285Y-70688142D02*
X107518285Y-71116714D01*
X106232571Y-71459571D01*
X107518285Y-71802428D01*
X105718285Y-72231000D01*
X107518285Y-73945285D02*
X106661142Y-73345285D01*
X107518285Y-72916714D02*
X105718285Y-72916714D01*
X105718285Y-73602428D01*
X105804000Y-73773857D01*
X105889714Y-73859571D01*
X106061142Y-73945285D01*
X106318285Y-73945285D01*
X106489714Y-73859571D01*
X106575428Y-73773857D01*
X106661142Y-73602428D01*
X106661142Y-72916714D01*
X105718285Y-75059571D02*
X105718285Y-75402428D01*
X105804000Y-75573857D01*
X105975428Y-75745285D01*
X106318285Y-75830999D01*
X106918285Y-75830999D01*
X107261142Y-75745285D01*
X107432571Y-75573857D01*
X107518285Y-75402428D01*
X107518285Y-75059571D01*
X107432571Y-74888142D01*
X107261142Y-74716714D01*
X106918285Y-74631000D01*
X106318285Y-74631000D01*
X105975428Y-74716714D01*
X105804000Y-74888142D01*
X105718285Y-75059571D01*
X105718285Y-76945285D02*
X105718285Y-77288142D01*
X105804000Y-77459571D01*
X105975428Y-77630999D01*
X106318285Y-77716714D01*
X106918285Y-77716714D01*
X107261142Y-77630999D01*
X107432571Y-77459571D01*
X107518285Y-77288142D01*
X107518285Y-76945285D01*
X107432571Y-76773857D01*
X107261142Y-76602428D01*
X106918285Y-76516714D01*
X106318285Y-76516714D01*
X105975428Y-76602428D01*
X105804000Y-76773857D01*
X105718285Y-76945285D01*
X107518285Y-78488142D02*
X105718285Y-78488142D01*
X107004000Y-79088142D01*
X105718285Y-79688142D01*
X107518285Y-79688142D01*
X106832571Y-80545285D02*
X106832571Y-81916714D01*
X105718285Y-82602428D02*
X105718285Y-83716714D01*
X106404000Y-83116714D01*
X106404000Y-83373857D01*
X106489714Y-83545285D01*
X106575428Y-83630999D01*
X106746857Y-83716714D01*
X107175428Y-83716714D01*
X107346857Y-83630999D01*
X107432571Y-83545285D01*
X107518285Y-83373857D01*
X107518285Y-82859571D01*
X107432571Y-82688142D01*
X107346857Y-82602428D01*
X105889714Y-84402428D02*
X105804000Y-84488142D01*
X105718285Y-84659571D01*
X105718285Y-85088142D01*
X105804000Y-85259571D01*
X105889714Y-85345285D01*
X106061142Y-85430999D01*
X106232571Y-85430999D01*
X106489714Y-85345285D01*
X107518285Y-84316714D01*
X107518285Y-85430999D01*
X108718285Y-60059571D02*
X110175428Y-60059571D01*
X110346857Y-60145285D01*
X110432571Y-60231000D01*
X110518285Y-60402428D01*
X110518285Y-60745285D01*
X110432571Y-60916714D01*
X110346857Y-61002428D01*
X110175428Y-61088142D01*
X108718285Y-61088142D01*
X110004000Y-61859571D02*
X110004000Y-62716714D01*
X110518285Y-61688142D02*
X108718285Y-62288142D01*
X110518285Y-62888142D01*
X110518285Y-64516714D02*
X109661142Y-63916714D01*
X110518285Y-63488142D02*
X108718285Y-63488142D01*
X108718285Y-64173857D01*
X108804000Y-64345285D01*
X108889714Y-64431000D01*
X109061142Y-64516714D01*
X109318285Y-64516714D01*
X109489714Y-64431000D01*
X109575428Y-64345285D01*
X109661142Y-64173857D01*
X109661142Y-63488142D01*
X108718285Y-65031000D02*
X108718285Y-66059571D01*
X110518285Y-65545285D02*
X108718285Y-65545285D01*
X109575428Y-68631000D02*
X109661142Y-68888142D01*
X109746857Y-68973857D01*
X109918285Y-69059571D01*
X110175428Y-69059571D01*
X110346857Y-68973857D01*
X110432571Y-68888142D01*
X110518285Y-68716714D01*
X110518285Y-68031000D01*
X108718285Y-68031000D01*
X108718285Y-68631000D01*
X108804000Y-68802428D01*
X108889714Y-68888142D01*
X109061142Y-68973857D01*
X109232571Y-68973857D01*
X109404000Y-68888142D01*
X109489714Y-68802428D01*
X109575428Y-68631000D01*
X109575428Y-68031000D01*
X110518285Y-70088142D02*
X110432571Y-69916714D01*
X110261142Y-69831000D01*
X108718285Y-69831000D01*
X109318285Y-71545285D02*
X110518285Y-71545285D01*
X109318285Y-70773857D02*
X110261142Y-70773857D01*
X110432571Y-70859571D01*
X110518285Y-71031000D01*
X110518285Y-71288142D01*
X110432571Y-71459571D01*
X110346857Y-71545285D01*
X110432571Y-73088142D02*
X110518285Y-72916714D01*
X110518285Y-72573857D01*
X110432571Y-72402428D01*
X110261142Y-72316714D01*
X109575428Y-72316714D01*
X109404000Y-72402428D01*
X109318285Y-72573857D01*
X109318285Y-72916714D01*
X109404000Y-73088142D01*
X109575428Y-73173857D01*
X109746857Y-73173857D01*
X109918285Y-72316714D01*
X109318285Y-73688142D02*
X109318285Y-74373857D01*
X108718285Y-73945285D02*
X110261142Y-73945285D01*
X110432571Y-74031000D01*
X110518285Y-74202428D01*
X110518285Y-74373857D01*
X110518285Y-75231000D02*
X110432571Y-75059571D01*
X110346857Y-74973857D01*
X110175428Y-74888142D01*
X109661142Y-74888142D01*
X109489714Y-74973857D01*
X109404000Y-75059571D01*
X109318285Y-75231000D01*
X109318285Y-75488142D01*
X109404000Y-75659571D01*
X109489714Y-75745285D01*
X109661142Y-75831000D01*
X110175428Y-75831000D01*
X110346857Y-75745285D01*
X110432571Y-75659571D01*
X110518285Y-75488142D01*
X110518285Y-75231000D01*
X110518285Y-76859571D02*
X110432571Y-76688142D01*
X110346857Y-76602428D01*
X110175428Y-76516714D01*
X109661142Y-76516714D01*
X109489714Y-76602428D01*
X109404000Y-76688142D01*
X109318285Y-76859571D01*
X109318285Y-77116714D01*
X109404000Y-77288142D01*
X109489714Y-77373857D01*
X109661142Y-77459571D01*
X110175428Y-77459571D01*
X110346857Y-77373857D01*
X110432571Y-77288142D01*
X110518285Y-77116714D01*
X110518285Y-76859571D01*
X109318285Y-77973857D02*
X109318285Y-78659571D01*
X108718285Y-78231000D02*
X110261142Y-78231000D01*
X110432571Y-78316714D01*
X110518285Y-78488142D01*
X110518285Y-78659571D01*
X110518285Y-79259571D02*
X108718285Y-79259571D01*
X110518285Y-80031000D02*
X109575428Y-80031000D01*
X109404000Y-79945285D01*
X109318285Y-79773857D01*
X109318285Y-79516714D01*
X109404000Y-79345285D01*
X109489714Y-79259571D01*
X110346857Y-83288142D02*
X110432571Y-83202428D01*
X110518285Y-82945285D01*
X110518285Y-82773857D01*
X110432571Y-82516714D01*
X110261142Y-82345285D01*
X110089714Y-82259571D01*
X109746857Y-82173857D01*
X109489714Y-82173857D01*
X109146857Y-82259571D01*
X108975428Y-82345285D01*
X108804000Y-82516714D01*
X108718285Y-82773857D01*
X108718285Y-82945285D01*
X108804000Y-83202428D01*
X108889714Y-83288142D01*
X110518285Y-84316714D02*
X110432571Y-84145285D01*
X110346857Y-84059571D01*
X110175428Y-83973857D01*
X109661142Y-83973857D01*
X109489714Y-84059571D01*
X109404000Y-84145285D01*
X109318285Y-84316714D01*
X109318285Y-84573857D01*
X109404000Y-84745285D01*
X109489714Y-84831000D01*
X109661142Y-84916714D01*
X110175428Y-84916714D01*
X110346857Y-84831000D01*
X110432571Y-84745285D01*
X110518285Y-84573857D01*
X110518285Y-84316714D01*
X109318285Y-85688142D02*
X110518285Y-85688142D01*
X109489714Y-85688142D02*
X109404000Y-85773857D01*
X109318285Y-85945285D01*
X109318285Y-86202428D01*
X109404000Y-86373857D01*
X109575428Y-86459571D01*
X110518285Y-86459571D01*
X109318285Y-87145285D02*
X110518285Y-87573857D01*
X109318285Y-88002428D01*
X110432571Y-89373857D02*
X110518285Y-89202428D01*
X110518285Y-88859571D01*
X110432571Y-88688142D01*
X110261142Y-88602428D01*
X109575428Y-88602428D01*
X109404000Y-88688142D01*
X109318285Y-88859571D01*
X109318285Y-89202428D01*
X109404000Y-89373857D01*
X109575428Y-89459571D01*
X109746857Y-89459571D01*
X109918285Y-88602428D01*
X110518285Y-90231000D02*
X109318285Y-90231000D01*
X109661142Y-90231000D02*
X109489714Y-90316714D01*
X109404000Y-90402428D01*
X109318285Y-90573857D01*
X109318285Y-90745285D01*
X109318285Y-91088142D02*
X109318285Y-91773857D01*
X108718285Y-91345285D02*
X110261142Y-91345285D01*
X110432571Y-91431000D01*
X110518285Y-91602428D01*
X110518285Y-91773857D01*
X110432571Y-93059571D02*
X110518285Y-92888142D01*
X110518285Y-92545285D01*
X110432571Y-92373857D01*
X110261142Y-92288142D01*
X109575428Y-92288142D01*
X109404000Y-92373857D01*
X109318285Y-92545285D01*
X109318285Y-92888142D01*
X109404000Y-93059571D01*
X109575428Y-93145285D01*
X109746857Y-93145285D01*
X109918285Y-92288142D01*
X110518285Y-93916714D02*
X109318285Y-93916714D01*
X109661142Y-93916714D02*
X109489714Y-94002428D01*
X109404000Y-94088142D01*
X109318285Y-94259571D01*
X109318285Y-94431000D01*
D11*
X112438571Y-95774000D02*
X111724285Y-95274000D01*
X112438571Y-94916857D02*
X110938571Y-94916857D01*
X110938571Y-95488285D01*
X111010000Y-95631142D01*
X111081428Y-95702571D01*
X111224285Y-95774000D01*
X111438571Y-95774000D01*
X111581428Y-95702571D01*
X111652857Y-95631142D01*
X111724285Y-95488285D01*
X111724285Y-94916857D01*
X110938571Y-96274000D02*
X112438571Y-97274000D01*
X110938571Y-97274000D02*
X112438571Y-96274000D01*
X112438571Y-97845428D02*
X110938571Y-97845428D01*
X110938571Y-98202571D01*
X111010000Y-98416857D01*
X111152857Y-98559714D01*
X111295714Y-98631142D01*
X111581428Y-98702571D01*
X111795714Y-98702571D01*
X112081428Y-98631142D01*
X112224285Y-98559714D01*
X112367142Y-98416857D01*
X112438571Y-98202571D01*
X112438571Y-97845428D01*
X113478571Y-95135142D02*
X113478571Y-95992285D01*
X114978571Y-95563714D02*
X113478571Y-95563714D01*
X113478571Y-96349428D02*
X114978571Y-97349428D01*
X113478571Y-97349428D02*
X114978571Y-96349428D01*
X114978571Y-97920857D02*
X113478571Y-97920857D01*
X113478571Y-98278000D01*
X113550000Y-98492285D01*
X113692857Y-98635142D01*
X113835714Y-98706571D01*
X114121428Y-98778000D01*
X114335714Y-98778000D01*
X114621428Y-98706571D01*
X114764285Y-98635142D01*
X114907142Y-98492285D01*
X114978571Y-98278000D01*
X114978571Y-97920857D01*
X116090000Y-95631142D02*
X116018571Y-95488285D01*
X116018571Y-95274000D01*
X116090000Y-95059714D01*
X116232857Y-94916857D01*
X116375714Y-94845428D01*
X116661428Y-94774000D01*
X116875714Y-94774000D01*
X117161428Y-94845428D01*
X117304285Y-94916857D01*
X117447142Y-95059714D01*
X117518571Y-95274000D01*
X117518571Y-95416857D01*
X117447142Y-95631142D01*
X117375714Y-95702571D01*
X116875714Y-95702571D01*
X116875714Y-95416857D01*
X117518571Y-96345428D02*
X116018571Y-96345428D01*
X117518571Y-97202571D01*
X116018571Y-97202571D01*
X117518571Y-97916857D02*
X116018571Y-97916857D01*
X116018571Y-98274000D01*
X116090000Y-98488285D01*
X116232857Y-98631142D01*
X116375714Y-98702571D01*
X116661428Y-98774000D01*
X116875714Y-98774000D01*
X117161428Y-98702571D01*
X117304285Y-98631142D01*
X117447142Y-98488285D01*
X117518571Y-98274000D01*
X117518571Y-97916857D01*
X118558571Y-91138857D02*
X118558571Y-92067428D01*
X119130000Y-91567428D01*
X119130000Y-91781714D01*
X119201428Y-91924571D01*
X119272857Y-91996000D01*
X119415714Y-92067428D01*
X119772857Y-92067428D01*
X119915714Y-91996000D01*
X119987142Y-91924571D01*
X120058571Y-91781714D01*
X120058571Y-91353142D01*
X119987142Y-91210285D01*
X119915714Y-91138857D01*
X119915714Y-92710285D02*
X119987142Y-92781714D01*
X120058571Y-92710285D01*
X119987142Y-92638857D01*
X119915714Y-92710285D01*
X120058571Y-92710285D01*
X118558571Y-93281714D02*
X118558571Y-94210285D01*
X119130000Y-93710285D01*
X119130000Y-93924571D01*
X119201428Y-94067428D01*
X119272857Y-94138857D01*
X119415714Y-94210285D01*
X119772857Y-94210285D01*
X119915714Y-94138857D01*
X119987142Y-94067428D01*
X120058571Y-93924571D01*
X120058571Y-93496000D01*
X119987142Y-93353142D01*
X119915714Y-93281714D01*
X119487142Y-94853142D02*
X119487142Y-95996000D01*
X118558571Y-97353142D02*
X118558571Y-97067428D01*
X118630000Y-96924571D01*
X118701428Y-96853142D01*
X118915714Y-96710285D01*
X119201428Y-96638857D01*
X119772857Y-96638857D01*
X119915714Y-96710285D01*
X119987142Y-96781714D01*
X120058571Y-96924571D01*
X120058571Y-97210285D01*
X119987142Y-97353142D01*
X119915714Y-97424571D01*
X119772857Y-97496000D01*
X119415714Y-97496000D01*
X119272857Y-97424571D01*
X119201428Y-97353142D01*
X119130000Y-97210285D01*
X119130000Y-96924571D01*
X119201428Y-96781714D01*
X119272857Y-96710285D01*
X119415714Y-96638857D01*
X118558571Y-97924571D02*
X120058571Y-98424571D01*
X118558571Y-98924571D01*
M02*
