%TF.GenerationSoftware,KiCad,Pcbnew,(5.1.7)-1*%
%TF.CreationDate,2020-10-20T01:21:36+09:00*%
%TF.ProjectId,UARTtoBluetoothSerial,55415254-746f-4426-9c75-65746f6f7468,rev?*%
%TF.SameCoordinates,Original*%
%TF.FileFunction,Copper,L2,Bot*%
%TF.FilePolarity,Positive*%
%FSLAX46Y46*%
G04 Gerber Fmt 4.6, Leading zero omitted, Abs format (unit mm)*
G04 Created by KiCad (PCBNEW (5.1.7)-1) date 2020-10-20 01:21:36*
%MOMM*%
%LPD*%
G01*
G04 APERTURE LIST*
%TA.AperFunction,ComponentPad*%
%ADD10O,1.700000X1.700000*%
%TD*%
%TA.AperFunction,ComponentPad*%
%ADD11R,1.700000X1.700000*%
%TD*%
%TA.AperFunction,ViaPad*%
%ADD12C,0.800000*%
%TD*%
%TA.AperFunction,Conductor*%
%ADD13C,0.250000*%
%TD*%
%TA.AperFunction,Conductor*%
%ADD14C,0.254000*%
%TD*%
%TA.AperFunction,Conductor*%
%ADD15C,0.100000*%
%TD*%
G04 APERTURE END LIST*
D10*
%TO.P,J1,4*%
%TO.N,+5V*%
X119380000Y-100330000D03*
%TO.P,J1,3*%
%TO.N,GND*%
X116840000Y-100330000D03*
%TO.P,J1,2*%
%TO.N,TXD*%
X114300000Y-100330000D03*
D11*
%TO.P,J1,1*%
%TO.N,RXD*%
X111760000Y-100330000D03*
%TD*%
D12*
%TO.N,BOOT*%
X122728700Y-86989700D03*
X121183700Y-94864700D03*
%TO.N,TXD*%
X120656500Y-80644600D03*
%TO.N,RXD*%
X121920000Y-72390000D03*
%TD*%
D13*
%TO.N,BOOT*%
X122728700Y-86989700D02*
X122728700Y-93319700D01*
X122728700Y-93319700D02*
X121183700Y-94864700D01*
%TO.N,TXD*%
X120656500Y-80644600D02*
X120656500Y-92798200D01*
X120656500Y-92798200D02*
X114300000Y-99154700D01*
X114300000Y-100330000D02*
X114300000Y-99154700D01*
%TO.N,RXD*%
X111760000Y-100330000D02*
X111760000Y-82550000D01*
X111760000Y-82550000D02*
X121920000Y-72390000D01*
X121920000Y-72390000D02*
X121920000Y-72390000D01*
%TD*%
D14*
%TO.N,GND*%
X125578000Y-101702000D02*
X119948190Y-101702000D01*
X120083411Y-101645990D01*
X120326632Y-101483475D01*
X120533475Y-101276632D01*
X120695990Y-101033411D01*
X120807932Y-100763158D01*
X120865000Y-100476260D01*
X120865000Y-100183740D01*
X120807932Y-99896842D01*
X120695990Y-99626589D01*
X120533475Y-99383368D01*
X120326632Y-99176525D01*
X120083411Y-99014010D01*
X119813158Y-98902068D01*
X119526260Y-98845000D01*
X119233740Y-98845000D01*
X118946842Y-98902068D01*
X118676589Y-99014010D01*
X118433368Y-99176525D01*
X118226525Y-99383368D01*
X118104805Y-99565534D01*
X118035178Y-99448645D01*
X117840269Y-99232412D01*
X117606920Y-99058359D01*
X117344099Y-98933175D01*
X117196890Y-98888524D01*
X116967000Y-99009845D01*
X116967000Y-100203000D01*
X116987000Y-100203000D01*
X116987000Y-100457000D01*
X116967000Y-100457000D01*
X116967000Y-100477000D01*
X116713000Y-100477000D01*
X116713000Y-100457000D01*
X116693000Y-100457000D01*
X116693000Y-100203000D01*
X116713000Y-100203000D01*
X116713000Y-99009845D01*
X116483110Y-98888524D01*
X116335901Y-98933175D01*
X116073080Y-99058359D01*
X115839731Y-99232412D01*
X115644822Y-99448645D01*
X115575195Y-99565534D01*
X115453475Y-99383368D01*
X115299804Y-99229697D01*
X119766740Y-94762761D01*
X120148700Y-94762761D01*
X120148700Y-94966639D01*
X120188474Y-95166598D01*
X120266495Y-95354956D01*
X120379763Y-95524474D01*
X120523926Y-95668637D01*
X120693444Y-95781905D01*
X120881802Y-95859926D01*
X121081761Y-95899700D01*
X121285639Y-95899700D01*
X121485598Y-95859926D01*
X121673956Y-95781905D01*
X121843474Y-95668637D01*
X121987637Y-95524474D01*
X122100905Y-95354956D01*
X122178926Y-95166598D01*
X122218700Y-94966639D01*
X122218700Y-94904501D01*
X123239703Y-93883499D01*
X123268701Y-93859701D01*
X123295032Y-93827617D01*
X123363674Y-93743977D01*
X123434246Y-93611947D01*
X123449434Y-93561877D01*
X123477703Y-93468686D01*
X123488700Y-93357033D01*
X123488700Y-93357023D01*
X123492376Y-93319700D01*
X123488700Y-93282377D01*
X123488700Y-87693411D01*
X123532637Y-87649474D01*
X123645905Y-87479956D01*
X123723926Y-87291598D01*
X123763700Y-87091639D01*
X123763700Y-86887761D01*
X123723926Y-86687802D01*
X123645905Y-86499444D01*
X123532637Y-86329926D01*
X123388474Y-86185763D01*
X123218956Y-86072495D01*
X123030598Y-85994474D01*
X122830639Y-85954700D01*
X122626761Y-85954700D01*
X122426802Y-85994474D01*
X122238444Y-86072495D01*
X122068926Y-86185763D01*
X121924763Y-86329926D01*
X121811495Y-86499444D01*
X121733474Y-86687802D01*
X121693700Y-86887761D01*
X121693700Y-87091639D01*
X121733474Y-87291598D01*
X121811495Y-87479956D01*
X121924763Y-87649474D01*
X121968700Y-87693411D01*
X121968701Y-93004897D01*
X121143899Y-93829700D01*
X121081761Y-93829700D01*
X120881802Y-93869474D01*
X120693444Y-93947495D01*
X120523926Y-94060763D01*
X120379763Y-94204926D01*
X120266495Y-94374444D01*
X120188474Y-94562802D01*
X120148700Y-94762761D01*
X119766740Y-94762761D01*
X121167503Y-93361999D01*
X121196501Y-93338201D01*
X121291474Y-93222476D01*
X121362046Y-93090447D01*
X121405503Y-92947186D01*
X121416500Y-92835533D01*
X121420177Y-92798200D01*
X121416500Y-92760867D01*
X121416500Y-81348311D01*
X121460437Y-81304374D01*
X121573705Y-81134856D01*
X121651726Y-80946498D01*
X121691500Y-80746539D01*
X121691500Y-80542661D01*
X121651726Y-80342702D01*
X121573705Y-80154344D01*
X121460437Y-79984826D01*
X121316274Y-79840663D01*
X121146756Y-79727395D01*
X120958398Y-79649374D01*
X120758439Y-79609600D01*
X120554561Y-79609600D01*
X120354602Y-79649374D01*
X120166244Y-79727395D01*
X119996726Y-79840663D01*
X119852563Y-79984826D01*
X119739295Y-80154344D01*
X119661274Y-80342702D01*
X119621500Y-80542661D01*
X119621500Y-80746539D01*
X119661274Y-80946498D01*
X119739295Y-81134856D01*
X119852563Y-81304374D01*
X119896500Y-81348311D01*
X119896501Y-92483397D01*
X113788998Y-98590901D01*
X113760000Y-98614699D01*
X113736202Y-98643697D01*
X113736201Y-98643698D01*
X113665026Y-98730424D01*
X113594454Y-98862454D01*
X113550998Y-99005715D01*
X113546912Y-99047203D01*
X113353368Y-99176525D01*
X113221513Y-99308380D01*
X113199502Y-99235820D01*
X113140537Y-99125506D01*
X113061185Y-99028815D01*
X112964494Y-98949463D01*
X112854180Y-98890498D01*
X112734482Y-98854188D01*
X112610000Y-98841928D01*
X112520000Y-98841928D01*
X112520000Y-82864801D01*
X121959802Y-73425000D01*
X122021939Y-73425000D01*
X122221898Y-73385226D01*
X122410256Y-73307205D01*
X122579774Y-73193937D01*
X122723937Y-73049774D01*
X122837205Y-72880256D01*
X122915226Y-72691898D01*
X122955000Y-72491939D01*
X122955000Y-72288061D01*
X122915226Y-72088102D01*
X122837205Y-71899744D01*
X122723937Y-71730226D01*
X122579774Y-71586063D01*
X122410256Y-71472795D01*
X122221898Y-71394774D01*
X122021939Y-71355000D01*
X121818061Y-71355000D01*
X121618102Y-71394774D01*
X121429744Y-71472795D01*
X121260226Y-71586063D01*
X121116063Y-71730226D01*
X121002795Y-71899744D01*
X120924774Y-72088102D01*
X120885000Y-72288061D01*
X120885000Y-72350198D01*
X111248998Y-81986201D01*
X111220000Y-82009999D01*
X111196202Y-82038997D01*
X111196201Y-82038998D01*
X111125026Y-82125724D01*
X111054454Y-82257754D01*
X111010998Y-82401015D01*
X110996324Y-82550000D01*
X111000001Y-82587333D01*
X111000000Y-98841928D01*
X110910000Y-98841928D01*
X110785518Y-98854188D01*
X110665820Y-98890498D01*
X110555506Y-98949463D01*
X110458815Y-99028815D01*
X110379463Y-99125506D01*
X110320498Y-99235820D01*
X110284188Y-99355518D01*
X110271928Y-99480000D01*
X110271928Y-101180000D01*
X110284188Y-101304482D01*
X110320498Y-101424180D01*
X110379463Y-101534494D01*
X110458815Y-101631185D01*
X110545104Y-101702000D01*
X105562000Y-101702000D01*
X105562000Y-65913000D01*
X125578001Y-65913000D01*
X125578000Y-101702000D01*
%TA.AperFunction,Conductor*%
D15*
G36*
X125578000Y-101702000D02*
G01*
X119948190Y-101702000D01*
X120083411Y-101645990D01*
X120326632Y-101483475D01*
X120533475Y-101276632D01*
X120695990Y-101033411D01*
X120807932Y-100763158D01*
X120865000Y-100476260D01*
X120865000Y-100183740D01*
X120807932Y-99896842D01*
X120695990Y-99626589D01*
X120533475Y-99383368D01*
X120326632Y-99176525D01*
X120083411Y-99014010D01*
X119813158Y-98902068D01*
X119526260Y-98845000D01*
X119233740Y-98845000D01*
X118946842Y-98902068D01*
X118676589Y-99014010D01*
X118433368Y-99176525D01*
X118226525Y-99383368D01*
X118104805Y-99565534D01*
X118035178Y-99448645D01*
X117840269Y-99232412D01*
X117606920Y-99058359D01*
X117344099Y-98933175D01*
X117196890Y-98888524D01*
X116967000Y-99009845D01*
X116967000Y-100203000D01*
X116987000Y-100203000D01*
X116987000Y-100457000D01*
X116967000Y-100457000D01*
X116967000Y-100477000D01*
X116713000Y-100477000D01*
X116713000Y-100457000D01*
X116693000Y-100457000D01*
X116693000Y-100203000D01*
X116713000Y-100203000D01*
X116713000Y-99009845D01*
X116483110Y-98888524D01*
X116335901Y-98933175D01*
X116073080Y-99058359D01*
X115839731Y-99232412D01*
X115644822Y-99448645D01*
X115575195Y-99565534D01*
X115453475Y-99383368D01*
X115299804Y-99229697D01*
X119766740Y-94762761D01*
X120148700Y-94762761D01*
X120148700Y-94966639D01*
X120188474Y-95166598D01*
X120266495Y-95354956D01*
X120379763Y-95524474D01*
X120523926Y-95668637D01*
X120693444Y-95781905D01*
X120881802Y-95859926D01*
X121081761Y-95899700D01*
X121285639Y-95899700D01*
X121485598Y-95859926D01*
X121673956Y-95781905D01*
X121843474Y-95668637D01*
X121987637Y-95524474D01*
X122100905Y-95354956D01*
X122178926Y-95166598D01*
X122218700Y-94966639D01*
X122218700Y-94904501D01*
X123239703Y-93883499D01*
X123268701Y-93859701D01*
X123295032Y-93827617D01*
X123363674Y-93743977D01*
X123434246Y-93611947D01*
X123449434Y-93561877D01*
X123477703Y-93468686D01*
X123488700Y-93357033D01*
X123488700Y-93357023D01*
X123492376Y-93319700D01*
X123488700Y-93282377D01*
X123488700Y-87693411D01*
X123532637Y-87649474D01*
X123645905Y-87479956D01*
X123723926Y-87291598D01*
X123763700Y-87091639D01*
X123763700Y-86887761D01*
X123723926Y-86687802D01*
X123645905Y-86499444D01*
X123532637Y-86329926D01*
X123388474Y-86185763D01*
X123218956Y-86072495D01*
X123030598Y-85994474D01*
X122830639Y-85954700D01*
X122626761Y-85954700D01*
X122426802Y-85994474D01*
X122238444Y-86072495D01*
X122068926Y-86185763D01*
X121924763Y-86329926D01*
X121811495Y-86499444D01*
X121733474Y-86687802D01*
X121693700Y-86887761D01*
X121693700Y-87091639D01*
X121733474Y-87291598D01*
X121811495Y-87479956D01*
X121924763Y-87649474D01*
X121968700Y-87693411D01*
X121968701Y-93004897D01*
X121143899Y-93829700D01*
X121081761Y-93829700D01*
X120881802Y-93869474D01*
X120693444Y-93947495D01*
X120523926Y-94060763D01*
X120379763Y-94204926D01*
X120266495Y-94374444D01*
X120188474Y-94562802D01*
X120148700Y-94762761D01*
X119766740Y-94762761D01*
X121167503Y-93361999D01*
X121196501Y-93338201D01*
X121291474Y-93222476D01*
X121362046Y-93090447D01*
X121405503Y-92947186D01*
X121416500Y-92835533D01*
X121420177Y-92798200D01*
X121416500Y-92760867D01*
X121416500Y-81348311D01*
X121460437Y-81304374D01*
X121573705Y-81134856D01*
X121651726Y-80946498D01*
X121691500Y-80746539D01*
X121691500Y-80542661D01*
X121651726Y-80342702D01*
X121573705Y-80154344D01*
X121460437Y-79984826D01*
X121316274Y-79840663D01*
X121146756Y-79727395D01*
X120958398Y-79649374D01*
X120758439Y-79609600D01*
X120554561Y-79609600D01*
X120354602Y-79649374D01*
X120166244Y-79727395D01*
X119996726Y-79840663D01*
X119852563Y-79984826D01*
X119739295Y-80154344D01*
X119661274Y-80342702D01*
X119621500Y-80542661D01*
X119621500Y-80746539D01*
X119661274Y-80946498D01*
X119739295Y-81134856D01*
X119852563Y-81304374D01*
X119896500Y-81348311D01*
X119896501Y-92483397D01*
X113788998Y-98590901D01*
X113760000Y-98614699D01*
X113736202Y-98643697D01*
X113736201Y-98643698D01*
X113665026Y-98730424D01*
X113594454Y-98862454D01*
X113550998Y-99005715D01*
X113546912Y-99047203D01*
X113353368Y-99176525D01*
X113221513Y-99308380D01*
X113199502Y-99235820D01*
X113140537Y-99125506D01*
X113061185Y-99028815D01*
X112964494Y-98949463D01*
X112854180Y-98890498D01*
X112734482Y-98854188D01*
X112610000Y-98841928D01*
X112520000Y-98841928D01*
X112520000Y-82864801D01*
X121959802Y-73425000D01*
X122021939Y-73425000D01*
X122221898Y-73385226D01*
X122410256Y-73307205D01*
X122579774Y-73193937D01*
X122723937Y-73049774D01*
X122837205Y-72880256D01*
X122915226Y-72691898D01*
X122955000Y-72491939D01*
X122955000Y-72288061D01*
X122915226Y-72088102D01*
X122837205Y-71899744D01*
X122723937Y-71730226D01*
X122579774Y-71586063D01*
X122410256Y-71472795D01*
X122221898Y-71394774D01*
X122021939Y-71355000D01*
X121818061Y-71355000D01*
X121618102Y-71394774D01*
X121429744Y-71472795D01*
X121260226Y-71586063D01*
X121116063Y-71730226D01*
X121002795Y-71899744D01*
X120924774Y-72088102D01*
X120885000Y-72288061D01*
X120885000Y-72350198D01*
X111248998Y-81986201D01*
X111220000Y-82009999D01*
X111196202Y-82038997D01*
X111196201Y-82038998D01*
X111125026Y-82125724D01*
X111054454Y-82257754D01*
X111010998Y-82401015D01*
X110996324Y-82550000D01*
X111000001Y-82587333D01*
X111000000Y-98841928D01*
X110910000Y-98841928D01*
X110785518Y-98854188D01*
X110665820Y-98890498D01*
X110555506Y-98949463D01*
X110458815Y-99028815D01*
X110379463Y-99125506D01*
X110320498Y-99235820D01*
X110284188Y-99355518D01*
X110271928Y-99480000D01*
X110271928Y-101180000D01*
X110284188Y-101304482D01*
X110320498Y-101424180D01*
X110379463Y-101534494D01*
X110458815Y-101631185D01*
X110545104Y-101702000D01*
X105562000Y-101702000D01*
X105562000Y-65913000D01*
X125578001Y-65913000D01*
X125578000Y-101702000D01*
G37*
%TD.AperFunction*%
%TD*%
M02*
