%TF.GenerationSoftware,KiCad,Pcbnew,(5.1.7)-1*%
%TF.CreationDate,2020-10-20T02:58:57+09:00*%
%TF.ProjectId,UARTtoBluetooth_array,55415254-746f-4426-9c75-65746f6f7468,rev?*%
%TF.SameCoordinates,Original*%
%TF.FileFunction,Copper,L2,Bot*%
%TF.FilePolarity,Positive*%
%FSLAX46Y46*%
G04 Gerber Fmt 4.6, Leading zero omitted, Abs format (unit mm)*
G04 Created by KiCad (PCBNEW (5.1.7)-1) date 2020-10-20 02:58:57*
%MOMM*%
%LPD*%
G01*
G04 APERTURE LIST*
%TA.AperFunction,ComponentPad*%
%ADD10R,1.700000X1.700000*%
%TD*%
%TA.AperFunction,ComponentPad*%
%ADD11O,1.700000X1.700000*%
%TD*%
%TA.AperFunction,ViaPad*%
%ADD12C,0.800000*%
%TD*%
%TA.AperFunction,Conductor*%
%ADD13C,0.250000*%
%TD*%
G04 APERTURE END LIST*
D10*
%TO.P,J1,1*%
%TO.N,RXD*%
X188720000Y-152525000D03*
D11*
%TO.P,J1,2*%
%TO.N,TXD*%
X191260000Y-152525000D03*
%TO.P,J1,3*%
%TO.N,GND*%
X193800000Y-152525000D03*
%TO.P,J1,4*%
%TO.N,+5V*%
X196340000Y-152525000D03*
%TD*%
D10*
%TO.P,J1,1*%
%TO.N,RXD*%
X166720000Y-152525000D03*
D11*
%TO.P,J1,2*%
%TO.N,TXD*%
X169260000Y-152525000D03*
%TO.P,J1,3*%
%TO.N,GND*%
X171800000Y-152525000D03*
%TO.P,J1,4*%
%TO.N,+5V*%
X174340000Y-152525000D03*
%TD*%
D10*
%TO.P,J1,1*%
%TO.N,RXD*%
X144720000Y-152525000D03*
D11*
%TO.P,J1,2*%
%TO.N,TXD*%
X147260000Y-152525000D03*
%TO.P,J1,3*%
%TO.N,GND*%
X149800000Y-152525000D03*
%TO.P,J1,4*%
%TO.N,+5V*%
X152340000Y-152525000D03*
%TD*%
D10*
%TO.P,J1,1*%
%TO.N,RXD*%
X122720000Y-152525000D03*
D11*
%TO.P,J1,2*%
%TO.N,TXD*%
X125260000Y-152525000D03*
%TO.P,J1,3*%
%TO.N,GND*%
X127800000Y-152525000D03*
%TO.P,J1,4*%
%TO.N,+5V*%
X130340000Y-152525000D03*
%TD*%
D10*
%TO.P,J1,1*%
%TO.N,RXD*%
X188720000Y-108525000D03*
D11*
%TO.P,J1,2*%
%TO.N,TXD*%
X191260000Y-108525000D03*
%TO.P,J1,3*%
%TO.N,GND*%
X193800000Y-108525000D03*
%TO.P,J1,4*%
%TO.N,+5V*%
X196340000Y-108525000D03*
%TD*%
D10*
%TO.P,J1,1*%
%TO.N,RXD*%
X166720000Y-108525000D03*
D11*
%TO.P,J1,2*%
%TO.N,TXD*%
X169260000Y-108525000D03*
%TO.P,J1,3*%
%TO.N,GND*%
X171800000Y-108525000D03*
%TO.P,J1,4*%
%TO.N,+5V*%
X174340000Y-108525000D03*
%TD*%
D10*
%TO.P,J1,1*%
%TO.N,RXD*%
X144720000Y-108525000D03*
D11*
%TO.P,J1,2*%
%TO.N,TXD*%
X147260000Y-108525000D03*
%TO.P,J1,3*%
%TO.N,GND*%
X149800000Y-108525000D03*
%TO.P,J1,4*%
%TO.N,+5V*%
X152340000Y-108525000D03*
%TD*%
%TO.P,J1,4*%
%TO.N,+5V*%
X130340000Y-108525000D03*
%TO.P,J1,3*%
%TO.N,GND*%
X127800000Y-108525000D03*
%TO.P,J1,2*%
%TO.N,TXD*%
X125260000Y-108525000D03*
D10*
%TO.P,J1,1*%
%TO.N,RXD*%
X122720000Y-108525000D03*
%TD*%
D12*
%TO.N,BOOT*%
X133678700Y-95009700D03*
X132133700Y-102884700D03*
X154133700Y-102884700D03*
X176133700Y-102884700D03*
X198133700Y-102884700D03*
X132133700Y-146884700D03*
X154133700Y-146884700D03*
X176133700Y-146884700D03*
X198133700Y-146884700D03*
X155678700Y-95009700D03*
X177678700Y-95009700D03*
X199678700Y-95009700D03*
X133678700Y-139009700D03*
X155678700Y-139009700D03*
X177678700Y-139009700D03*
X199678700Y-139009700D03*
%TO.N,RESET*%
X118834700Y-102884700D03*
X120550000Y-78600000D03*
X140834700Y-102884700D03*
X162834700Y-102884700D03*
X184834700Y-102884700D03*
X118834700Y-146884700D03*
X140834700Y-146884700D03*
X162834700Y-146884700D03*
X184834700Y-146884700D03*
X142550000Y-78600000D03*
X164550000Y-78600000D03*
X186550000Y-78600000D03*
X120550000Y-122600000D03*
X142550000Y-122600000D03*
X164550000Y-122600000D03*
X186550000Y-122600000D03*
%TO.N,TXD*%
X131606500Y-88664600D03*
X153606500Y-88664600D03*
X175606500Y-88664600D03*
X197606500Y-88664600D03*
X131606500Y-132664600D03*
X153606500Y-132664600D03*
X175606500Y-132664600D03*
X197606500Y-132664600D03*
%TO.N,RXD*%
X132870000Y-80410000D03*
X154870000Y-80410000D03*
X176870000Y-80410000D03*
X198870000Y-80410000D03*
X132870000Y-124410000D03*
X154870000Y-124410000D03*
X176870000Y-124410000D03*
X198870000Y-124410000D03*
%TD*%
D13*
%TO.N,BOOT*%
X133608700Y-95089700D02*
X133608700Y-101419700D01*
X133608700Y-101419700D02*
X132063700Y-102964700D01*
X155608700Y-95089700D02*
X155608700Y-101419700D01*
X177608700Y-95089700D02*
X177608700Y-101419700D01*
X199608700Y-95089700D02*
X199608700Y-101419700D01*
X133608700Y-139089700D02*
X133608700Y-145419700D01*
X155608700Y-139089700D02*
X155608700Y-145419700D01*
X177608700Y-139089700D02*
X177608700Y-145419700D01*
X199608700Y-139089700D02*
X199608700Y-145419700D01*
X155608700Y-101419700D02*
X154063700Y-102964700D01*
X177608700Y-101419700D02*
X176063700Y-102964700D01*
X199608700Y-101419700D02*
X198063700Y-102964700D01*
X133608700Y-145419700D02*
X132063700Y-146964700D01*
X155608700Y-145419700D02*
X154063700Y-146964700D01*
X177608700Y-145419700D02*
X176063700Y-146964700D01*
X199608700Y-145419700D02*
X198063700Y-146964700D01*
%TO.N,RESET*%
X118834700Y-102884700D02*
X118834700Y-80315300D01*
X118834700Y-80315300D02*
X120550000Y-78600000D01*
X120550000Y-78600000D02*
X120550000Y-78600000D01*
X140834700Y-102884700D02*
X140834700Y-80315300D01*
X162834700Y-102884700D02*
X162834700Y-80315300D01*
X184834700Y-102884700D02*
X184834700Y-80315300D01*
X118834700Y-146884700D02*
X118834700Y-124315300D01*
X140834700Y-146884700D02*
X140834700Y-124315300D01*
X162834700Y-146884700D02*
X162834700Y-124315300D01*
X184834700Y-146884700D02*
X184834700Y-124315300D01*
X140834700Y-80315300D02*
X142550000Y-78600000D01*
X162834700Y-80315300D02*
X164550000Y-78600000D01*
X184834700Y-80315300D02*
X186550000Y-78600000D01*
X118834700Y-124315300D02*
X120550000Y-122600000D01*
X140834700Y-124315300D02*
X142550000Y-122600000D01*
X162834700Y-124315300D02*
X164550000Y-122600000D01*
X184834700Y-124315300D02*
X186550000Y-122600000D01*
X142550000Y-78600000D02*
X142550000Y-78600000D01*
X164550000Y-78600000D02*
X164550000Y-78600000D01*
X186550000Y-78600000D02*
X186550000Y-78600000D01*
X120550000Y-122600000D02*
X120550000Y-122600000D01*
X142550000Y-122600000D02*
X142550000Y-122600000D01*
X164550000Y-122600000D02*
X164550000Y-122600000D01*
X186550000Y-122600000D02*
X186550000Y-122600000D01*
%TO.N,TXD*%
X131536500Y-88744600D02*
X131536500Y-100898200D01*
X131536500Y-100898200D02*
X125180000Y-107254700D01*
X125180000Y-108430000D02*
X125180000Y-107254700D01*
X153536500Y-100898200D02*
X147180000Y-107254700D01*
X175536500Y-100898200D02*
X169180000Y-107254700D01*
X197536500Y-100898200D02*
X191180000Y-107254700D01*
X131536500Y-144898200D02*
X125180000Y-151254700D01*
X153536500Y-144898200D02*
X147180000Y-151254700D01*
X175536500Y-144898200D02*
X169180000Y-151254700D01*
X197536500Y-144898200D02*
X191180000Y-151254700D01*
X153536500Y-88744600D02*
X153536500Y-100898200D01*
X175536500Y-88744600D02*
X175536500Y-100898200D01*
X197536500Y-88744600D02*
X197536500Y-100898200D01*
X131536500Y-132744600D02*
X131536500Y-144898200D01*
X153536500Y-132744600D02*
X153536500Y-144898200D01*
X175536500Y-132744600D02*
X175536500Y-144898200D01*
X197536500Y-132744600D02*
X197536500Y-144898200D01*
X147180000Y-108430000D02*
X147180000Y-107254700D01*
X169180000Y-108430000D02*
X169180000Y-107254700D01*
X191180000Y-108430000D02*
X191180000Y-107254700D01*
X125180000Y-152430000D02*
X125180000Y-151254700D01*
X147180000Y-152430000D02*
X147180000Y-151254700D01*
X169180000Y-152430000D02*
X169180000Y-151254700D01*
X191180000Y-152430000D02*
X191180000Y-151254700D01*
%TO.N,RXD*%
X122640000Y-108430000D02*
X122640000Y-90650000D01*
X122640000Y-90650000D02*
X132800000Y-80490000D01*
X132800000Y-80490000D02*
X132800000Y-80490000D01*
X144640000Y-90650000D02*
X154800000Y-80490000D01*
X166640000Y-90650000D02*
X176800000Y-80490000D01*
X188640000Y-90650000D02*
X198800000Y-80490000D01*
X122640000Y-134650000D02*
X132800000Y-124490000D01*
X144640000Y-134650000D02*
X154800000Y-124490000D01*
X166640000Y-134650000D02*
X176800000Y-124490000D01*
X188640000Y-134650000D02*
X198800000Y-124490000D01*
X154800000Y-80490000D02*
X154800000Y-80490000D01*
X176800000Y-80490000D02*
X176800000Y-80490000D01*
X198800000Y-80490000D02*
X198800000Y-80490000D01*
X132800000Y-124490000D02*
X132800000Y-124490000D01*
X154800000Y-124490000D02*
X154800000Y-124490000D01*
X176800000Y-124490000D02*
X176800000Y-124490000D01*
X198800000Y-124490000D02*
X198800000Y-124490000D01*
X144640000Y-108430000D02*
X144640000Y-90650000D01*
X166640000Y-108430000D02*
X166640000Y-90650000D01*
X188640000Y-108430000D02*
X188640000Y-90650000D01*
X122640000Y-152430000D02*
X122640000Y-134650000D01*
X144640000Y-152430000D02*
X144640000Y-134650000D01*
X166640000Y-152430000D02*
X166640000Y-134650000D01*
X188640000Y-152430000D02*
X188640000Y-134650000D01*
%TD*%
M02*
