%TF.GenerationSoftware,KiCad,Pcbnew,(5.1.7)-1*%
%TF.CreationDate,2020-10-21T06:22:45+09:00*%
%TF.ProjectId,UARTtoBluetooth_array,55415254-746f-4426-9c75-65746f6f7468,rev?*%
%TF.SameCoordinates,Original*%
%TF.FileFunction,Legend,Bot*%
%TF.FilePolarity,Positive*%
%FSLAX46Y46*%
G04 Gerber Fmt 4.6, Leading zero omitted, Abs format (unit mm)*
G04 Created by KiCad (PCBNEW (5.1.7)-1) date 2020-10-21 06:22:45*
%MOMM*%
%LPD*%
G01*
G04 APERTURE LIST*
%ADD10C,0.300000*%
%ADD11C,0.200000*%
G04 APERTURE END LIST*
D10*
X125775428Y-94859571D02*
X125775428Y-95459571D01*
X126718285Y-95716714D02*
X126718285Y-94859571D01*
X124918285Y-94859571D01*
X124918285Y-95716714D01*
X126632571Y-96402428D02*
X126718285Y-96659571D01*
X126718285Y-97088142D01*
X126632571Y-97259571D01*
X126546857Y-97345285D01*
X126375428Y-97431000D01*
X126204000Y-97431000D01*
X126032571Y-97345285D01*
X125946857Y-97259571D01*
X125861142Y-97088142D01*
X125775428Y-96745285D01*
X125689714Y-96573857D01*
X125604000Y-96488142D01*
X125432571Y-96402428D01*
X125261142Y-96402428D01*
X125089714Y-96488142D01*
X125004000Y-96573857D01*
X124918285Y-96745285D01*
X124918285Y-97173857D01*
X125004000Y-97431000D01*
X126718285Y-98202428D02*
X124918285Y-98202428D01*
X124918285Y-98888142D01*
X125004000Y-99059571D01*
X125089714Y-99145285D01*
X125261142Y-99231000D01*
X125518285Y-99231000D01*
X125689714Y-99145285D01*
X125775428Y-99059571D01*
X125861142Y-98888142D01*
X125861142Y-98202428D01*
X124918285Y-99831000D02*
X124918285Y-100945285D01*
X125604000Y-100345285D01*
X125604000Y-100602428D01*
X125689714Y-100773857D01*
X125775428Y-100859571D01*
X125946857Y-100945285D01*
X126375428Y-100945285D01*
X126546857Y-100859571D01*
X126632571Y-100773857D01*
X126718285Y-100602428D01*
X126718285Y-100088142D01*
X126632571Y-99916714D01*
X126546857Y-99831000D01*
X125089714Y-101631000D02*
X125004000Y-101716714D01*
X124918285Y-101888142D01*
X124918285Y-102316714D01*
X125004000Y-102488142D01*
X125089714Y-102573857D01*
X125261142Y-102659571D01*
X125432571Y-102659571D01*
X125689714Y-102573857D01*
X126718285Y-101545285D01*
X126718285Y-102659571D01*
X126032571Y-103431000D02*
X126032571Y-104802428D01*
X124918285Y-105488142D02*
X126718285Y-105916714D01*
X125432571Y-106259571D01*
X126718285Y-106602428D01*
X124918285Y-107031000D01*
X126718285Y-108745285D02*
X125861142Y-108145285D01*
X126718285Y-107716714D02*
X124918285Y-107716714D01*
X124918285Y-108402428D01*
X125004000Y-108573857D01*
X125089714Y-108659571D01*
X125261142Y-108745285D01*
X125518285Y-108745285D01*
X125689714Y-108659571D01*
X125775428Y-108573857D01*
X125861142Y-108402428D01*
X125861142Y-107716714D01*
X124918285Y-109859571D02*
X124918285Y-110202428D01*
X125004000Y-110373857D01*
X125175428Y-110545285D01*
X125518285Y-110630999D01*
X126118285Y-110630999D01*
X126461142Y-110545285D01*
X126632571Y-110373857D01*
X126718285Y-110202428D01*
X126718285Y-109859571D01*
X126632571Y-109688142D01*
X126461142Y-109516714D01*
X126118285Y-109431000D01*
X125518285Y-109431000D01*
X125175428Y-109516714D01*
X125004000Y-109688142D01*
X124918285Y-109859571D01*
X124918285Y-111745285D02*
X124918285Y-112088142D01*
X125004000Y-112259571D01*
X125175428Y-112430999D01*
X125518285Y-112516714D01*
X126118285Y-112516714D01*
X126461142Y-112430999D01*
X126632571Y-112259571D01*
X126718285Y-112088142D01*
X126718285Y-111745285D01*
X126632571Y-111573857D01*
X126461142Y-111402428D01*
X126118285Y-111316714D01*
X125518285Y-111316714D01*
X125175428Y-111402428D01*
X125004000Y-111573857D01*
X124918285Y-111745285D01*
X126718285Y-113288142D02*
X124918285Y-113288142D01*
X126204000Y-113888142D01*
X124918285Y-114488142D01*
X126718285Y-114488142D01*
X126032571Y-115345285D02*
X126032571Y-116716714D01*
X124918285Y-117402428D02*
X124918285Y-118516714D01*
X125604000Y-117916714D01*
X125604000Y-118173857D01*
X125689714Y-118345285D01*
X125775428Y-118430999D01*
X125946857Y-118516714D01*
X126375428Y-118516714D01*
X126546857Y-118430999D01*
X126632571Y-118345285D01*
X126718285Y-118173857D01*
X126718285Y-117659571D01*
X126632571Y-117488142D01*
X126546857Y-117402428D01*
X125089714Y-119202428D02*
X125004000Y-119288142D01*
X124918285Y-119459571D01*
X124918285Y-119888142D01*
X125004000Y-120059571D01*
X125089714Y-120145285D01*
X125261142Y-120230999D01*
X125432571Y-120230999D01*
X125689714Y-120145285D01*
X126718285Y-119116714D01*
X126718285Y-120230999D01*
X127918285Y-94859571D02*
X129375428Y-94859571D01*
X129546857Y-94945285D01*
X129632571Y-95031000D01*
X129718285Y-95202428D01*
X129718285Y-95545285D01*
X129632571Y-95716714D01*
X129546857Y-95802428D01*
X129375428Y-95888142D01*
X127918285Y-95888142D01*
X129204000Y-96659571D02*
X129204000Y-97516714D01*
X129718285Y-96488142D02*
X127918285Y-97088142D01*
X129718285Y-97688142D01*
X129718285Y-99316714D02*
X128861142Y-98716714D01*
X129718285Y-98288142D02*
X127918285Y-98288142D01*
X127918285Y-98973857D01*
X128004000Y-99145285D01*
X128089714Y-99231000D01*
X128261142Y-99316714D01*
X128518285Y-99316714D01*
X128689714Y-99231000D01*
X128775428Y-99145285D01*
X128861142Y-98973857D01*
X128861142Y-98288142D01*
X127918285Y-99831000D02*
X127918285Y-100859571D01*
X129718285Y-100345285D02*
X127918285Y-100345285D01*
X128775428Y-103431000D02*
X128861142Y-103688142D01*
X128946857Y-103773857D01*
X129118285Y-103859571D01*
X129375428Y-103859571D01*
X129546857Y-103773857D01*
X129632571Y-103688142D01*
X129718285Y-103516714D01*
X129718285Y-102831000D01*
X127918285Y-102831000D01*
X127918285Y-103431000D01*
X128004000Y-103602428D01*
X128089714Y-103688142D01*
X128261142Y-103773857D01*
X128432571Y-103773857D01*
X128604000Y-103688142D01*
X128689714Y-103602428D01*
X128775428Y-103431000D01*
X128775428Y-102831000D01*
X129718285Y-104888142D02*
X129632571Y-104716714D01*
X129461142Y-104631000D01*
X127918285Y-104631000D01*
X128518285Y-106345285D02*
X129718285Y-106345285D01*
X128518285Y-105573857D02*
X129461142Y-105573857D01*
X129632571Y-105659571D01*
X129718285Y-105831000D01*
X129718285Y-106088142D01*
X129632571Y-106259571D01*
X129546857Y-106345285D01*
X129632571Y-107888142D02*
X129718285Y-107716714D01*
X129718285Y-107373857D01*
X129632571Y-107202428D01*
X129461142Y-107116714D01*
X128775428Y-107116714D01*
X128604000Y-107202428D01*
X128518285Y-107373857D01*
X128518285Y-107716714D01*
X128604000Y-107888142D01*
X128775428Y-107973857D01*
X128946857Y-107973857D01*
X129118285Y-107116714D01*
X128518285Y-108488142D02*
X128518285Y-109173857D01*
X127918285Y-108745285D02*
X129461142Y-108745285D01*
X129632571Y-108831000D01*
X129718285Y-109002428D01*
X129718285Y-109173857D01*
X129718285Y-110031000D02*
X129632571Y-109859571D01*
X129546857Y-109773857D01*
X129375428Y-109688142D01*
X128861142Y-109688142D01*
X128689714Y-109773857D01*
X128604000Y-109859571D01*
X128518285Y-110031000D01*
X128518285Y-110288142D01*
X128604000Y-110459571D01*
X128689714Y-110545285D01*
X128861142Y-110631000D01*
X129375428Y-110631000D01*
X129546857Y-110545285D01*
X129632571Y-110459571D01*
X129718285Y-110288142D01*
X129718285Y-110031000D01*
X129718285Y-111659571D02*
X129632571Y-111488142D01*
X129546857Y-111402428D01*
X129375428Y-111316714D01*
X128861142Y-111316714D01*
X128689714Y-111402428D01*
X128604000Y-111488142D01*
X128518285Y-111659571D01*
X128518285Y-111916714D01*
X128604000Y-112088142D01*
X128689714Y-112173857D01*
X128861142Y-112259571D01*
X129375428Y-112259571D01*
X129546857Y-112173857D01*
X129632571Y-112088142D01*
X129718285Y-111916714D01*
X129718285Y-111659571D01*
X128518285Y-112773857D02*
X128518285Y-113459571D01*
X127918285Y-113031000D02*
X129461142Y-113031000D01*
X129632571Y-113116714D01*
X129718285Y-113288142D01*
X129718285Y-113459571D01*
X129718285Y-114059571D02*
X127918285Y-114059571D01*
X129718285Y-114831000D02*
X128775428Y-114831000D01*
X128604000Y-114745285D01*
X128518285Y-114573857D01*
X128518285Y-114316714D01*
X128604000Y-114145285D01*
X128689714Y-114059571D01*
X129546857Y-118088142D02*
X129632571Y-118002428D01*
X129718285Y-117745285D01*
X129718285Y-117573857D01*
X129632571Y-117316714D01*
X129461142Y-117145285D01*
X129289714Y-117059571D01*
X128946857Y-116973857D01*
X128689714Y-116973857D01*
X128346857Y-117059571D01*
X128175428Y-117145285D01*
X128004000Y-117316714D01*
X127918285Y-117573857D01*
X127918285Y-117745285D01*
X128004000Y-118002428D01*
X128089714Y-118088142D01*
X129718285Y-119116714D02*
X129632571Y-118945285D01*
X129546857Y-118859571D01*
X129375428Y-118773857D01*
X128861142Y-118773857D01*
X128689714Y-118859571D01*
X128604000Y-118945285D01*
X128518285Y-119116714D01*
X128518285Y-119373857D01*
X128604000Y-119545285D01*
X128689714Y-119631000D01*
X128861142Y-119716714D01*
X129375428Y-119716714D01*
X129546857Y-119631000D01*
X129632571Y-119545285D01*
X129718285Y-119373857D01*
X129718285Y-119116714D01*
X128518285Y-120488142D02*
X129718285Y-120488142D01*
X128689714Y-120488142D02*
X128604000Y-120573857D01*
X128518285Y-120745285D01*
X128518285Y-121002428D01*
X128604000Y-121173857D01*
X128775428Y-121259571D01*
X129718285Y-121259571D01*
X128518285Y-121945285D02*
X129718285Y-122373857D01*
X128518285Y-122802428D01*
X129632571Y-124173857D02*
X129718285Y-124002428D01*
X129718285Y-123659571D01*
X129632571Y-123488142D01*
X129461142Y-123402428D01*
X128775428Y-123402428D01*
X128604000Y-123488142D01*
X128518285Y-123659571D01*
X128518285Y-124002428D01*
X128604000Y-124173857D01*
X128775428Y-124259571D01*
X128946857Y-124259571D01*
X129118285Y-123402428D01*
X129718285Y-125031000D02*
X128518285Y-125031000D01*
X128861142Y-125031000D02*
X128689714Y-125116714D01*
X128604000Y-125202428D01*
X128518285Y-125373857D01*
X128518285Y-125545285D01*
X128518285Y-125888142D02*
X128518285Y-126573857D01*
X127918285Y-126145285D02*
X129461142Y-126145285D01*
X129632571Y-126231000D01*
X129718285Y-126402428D01*
X129718285Y-126573857D01*
X129632571Y-127859571D02*
X129718285Y-127688142D01*
X129718285Y-127345285D01*
X129632571Y-127173857D01*
X129461142Y-127088142D01*
X128775428Y-127088142D01*
X128604000Y-127173857D01*
X128518285Y-127345285D01*
X128518285Y-127688142D01*
X128604000Y-127859571D01*
X128775428Y-127945285D01*
X128946857Y-127945285D01*
X129118285Y-127088142D01*
X129718285Y-128716714D02*
X128518285Y-128716714D01*
X128861142Y-128716714D02*
X128689714Y-128802428D01*
X128604000Y-128888142D01*
X128518285Y-129059571D01*
X128518285Y-129231000D01*
D11*
X175988571Y-128994000D02*
X175274285Y-128494000D01*
X175988571Y-128136857D02*
X174488571Y-128136857D01*
X174488571Y-128708285D01*
X174560000Y-128851142D01*
X174631428Y-128922571D01*
X174774285Y-128994000D01*
X174988571Y-128994000D01*
X175131428Y-128922571D01*
X175202857Y-128851142D01*
X175274285Y-128708285D01*
X175274285Y-128136857D01*
X174488571Y-129494000D02*
X175988571Y-130494000D01*
X174488571Y-130494000D02*
X175988571Y-129494000D01*
X175988571Y-131065428D02*
X174488571Y-131065428D01*
X174488571Y-131422571D01*
X174560000Y-131636857D01*
X174702857Y-131779714D01*
X174845714Y-131851142D01*
X175131428Y-131922571D01*
X175345714Y-131922571D01*
X175631428Y-131851142D01*
X175774285Y-131779714D01*
X175917142Y-131636857D01*
X175988571Y-131422571D01*
X175988571Y-131065428D01*
X153988571Y-128994000D02*
X153274285Y-128494000D01*
X153988571Y-128136857D02*
X152488571Y-128136857D01*
X152488571Y-128708285D01*
X152560000Y-128851142D01*
X152631428Y-128922571D01*
X152774285Y-128994000D01*
X152988571Y-128994000D01*
X153131428Y-128922571D01*
X153202857Y-128851142D01*
X153274285Y-128708285D01*
X153274285Y-128136857D01*
X152488571Y-129494000D02*
X153988571Y-130494000D01*
X152488571Y-130494000D02*
X153988571Y-129494000D01*
X153988571Y-131065428D02*
X152488571Y-131065428D01*
X152488571Y-131422571D01*
X152560000Y-131636857D01*
X152702857Y-131779714D01*
X152845714Y-131851142D01*
X153131428Y-131922571D01*
X153345714Y-131922571D01*
X153631428Y-131851142D01*
X153774285Y-131779714D01*
X153917142Y-131636857D01*
X153988571Y-131422571D01*
X153988571Y-131065428D01*
X131988571Y-128994000D02*
X131274285Y-128494000D01*
X131988571Y-128136857D02*
X130488571Y-128136857D01*
X130488571Y-128708285D01*
X130560000Y-128851142D01*
X130631428Y-128922571D01*
X130774285Y-128994000D01*
X130988571Y-128994000D01*
X131131428Y-128922571D01*
X131202857Y-128851142D01*
X131274285Y-128708285D01*
X131274285Y-128136857D01*
X130488571Y-129494000D02*
X131988571Y-130494000D01*
X130488571Y-130494000D02*
X131988571Y-129494000D01*
X131988571Y-131065428D02*
X130488571Y-131065428D01*
X130488571Y-131422571D01*
X130560000Y-131636857D01*
X130702857Y-131779714D01*
X130845714Y-131851142D01*
X131131428Y-131922571D01*
X131345714Y-131922571D01*
X131631428Y-131851142D01*
X131774285Y-131779714D01*
X131917142Y-131636857D01*
X131988571Y-131422571D01*
X131988571Y-131065428D01*
X109988571Y-128994000D02*
X109274285Y-128494000D01*
X109988571Y-128136857D02*
X108488571Y-128136857D01*
X108488571Y-128708285D01*
X108560000Y-128851142D01*
X108631428Y-128922571D01*
X108774285Y-128994000D01*
X108988571Y-128994000D01*
X109131428Y-128922571D01*
X109202857Y-128851142D01*
X109274285Y-128708285D01*
X109274285Y-128136857D01*
X108488571Y-129494000D02*
X109988571Y-130494000D01*
X108488571Y-130494000D02*
X109988571Y-129494000D01*
X109988571Y-131065428D02*
X108488571Y-131065428D01*
X108488571Y-131422571D01*
X108560000Y-131636857D01*
X108702857Y-131779714D01*
X108845714Y-131851142D01*
X109131428Y-131922571D01*
X109345714Y-131922571D01*
X109631428Y-131851142D01*
X109774285Y-131779714D01*
X109917142Y-131636857D01*
X109988571Y-131422571D01*
X109988571Y-131065428D01*
X175988571Y-84994000D02*
X175274285Y-84494000D01*
X175988571Y-84136857D02*
X174488571Y-84136857D01*
X174488571Y-84708285D01*
X174560000Y-84851142D01*
X174631428Y-84922571D01*
X174774285Y-84994000D01*
X174988571Y-84994000D01*
X175131428Y-84922571D01*
X175202857Y-84851142D01*
X175274285Y-84708285D01*
X175274285Y-84136857D01*
X174488571Y-85494000D02*
X175988571Y-86494000D01*
X174488571Y-86494000D02*
X175988571Y-85494000D01*
X175988571Y-87065428D02*
X174488571Y-87065428D01*
X174488571Y-87422571D01*
X174560000Y-87636857D01*
X174702857Y-87779714D01*
X174845714Y-87851142D01*
X175131428Y-87922571D01*
X175345714Y-87922571D01*
X175631428Y-87851142D01*
X175774285Y-87779714D01*
X175917142Y-87636857D01*
X175988571Y-87422571D01*
X175988571Y-87065428D01*
X153988571Y-84994000D02*
X153274285Y-84494000D01*
X153988571Y-84136857D02*
X152488571Y-84136857D01*
X152488571Y-84708285D01*
X152560000Y-84851142D01*
X152631428Y-84922571D01*
X152774285Y-84994000D01*
X152988571Y-84994000D01*
X153131428Y-84922571D01*
X153202857Y-84851142D01*
X153274285Y-84708285D01*
X153274285Y-84136857D01*
X152488571Y-85494000D02*
X153988571Y-86494000D01*
X152488571Y-86494000D02*
X153988571Y-85494000D01*
X153988571Y-87065428D02*
X152488571Y-87065428D01*
X152488571Y-87422571D01*
X152560000Y-87636857D01*
X152702857Y-87779714D01*
X152845714Y-87851142D01*
X153131428Y-87922571D01*
X153345714Y-87922571D01*
X153631428Y-87851142D01*
X153774285Y-87779714D01*
X153917142Y-87636857D01*
X153988571Y-87422571D01*
X153988571Y-87065428D01*
X131988571Y-84994000D02*
X131274285Y-84494000D01*
X131988571Y-84136857D02*
X130488571Y-84136857D01*
X130488571Y-84708285D01*
X130560000Y-84851142D01*
X130631428Y-84922571D01*
X130774285Y-84994000D01*
X130988571Y-84994000D01*
X131131428Y-84922571D01*
X131202857Y-84851142D01*
X131274285Y-84708285D01*
X131274285Y-84136857D01*
X130488571Y-85494000D02*
X131988571Y-86494000D01*
X130488571Y-86494000D02*
X131988571Y-85494000D01*
X131988571Y-87065428D02*
X130488571Y-87065428D01*
X130488571Y-87422571D01*
X130560000Y-87636857D01*
X130702857Y-87779714D01*
X130845714Y-87851142D01*
X131131428Y-87922571D01*
X131345714Y-87922571D01*
X131631428Y-87851142D01*
X131774285Y-87779714D01*
X131917142Y-87636857D01*
X131988571Y-87422571D01*
X131988571Y-87065428D01*
X182108571Y-124358857D02*
X182108571Y-125287428D01*
X182680000Y-124787428D01*
X182680000Y-125001714D01*
X182751428Y-125144571D01*
X182822857Y-125216000D01*
X182965714Y-125287428D01*
X183322857Y-125287428D01*
X183465714Y-125216000D01*
X183537142Y-125144571D01*
X183608571Y-125001714D01*
X183608571Y-124573142D01*
X183537142Y-124430285D01*
X183465714Y-124358857D01*
X183465714Y-125930285D02*
X183537142Y-126001714D01*
X183608571Y-125930285D01*
X183537142Y-125858857D01*
X183465714Y-125930285D01*
X183608571Y-125930285D01*
X182108571Y-126501714D02*
X182108571Y-127430285D01*
X182680000Y-126930285D01*
X182680000Y-127144571D01*
X182751428Y-127287428D01*
X182822857Y-127358857D01*
X182965714Y-127430285D01*
X183322857Y-127430285D01*
X183465714Y-127358857D01*
X183537142Y-127287428D01*
X183608571Y-127144571D01*
X183608571Y-126716000D01*
X183537142Y-126573142D01*
X183465714Y-126501714D01*
X183037142Y-128073142D02*
X183037142Y-129216000D01*
X182108571Y-130573142D02*
X182108571Y-130287428D01*
X182180000Y-130144571D01*
X182251428Y-130073142D01*
X182465714Y-129930285D01*
X182751428Y-129858857D01*
X183322857Y-129858857D01*
X183465714Y-129930285D01*
X183537142Y-130001714D01*
X183608571Y-130144571D01*
X183608571Y-130430285D01*
X183537142Y-130573142D01*
X183465714Y-130644571D01*
X183322857Y-130716000D01*
X182965714Y-130716000D01*
X182822857Y-130644571D01*
X182751428Y-130573142D01*
X182680000Y-130430285D01*
X182680000Y-130144571D01*
X182751428Y-130001714D01*
X182822857Y-129930285D01*
X182965714Y-129858857D01*
X182108571Y-131144571D02*
X183608571Y-131644571D01*
X182108571Y-132144571D01*
X160108571Y-124358857D02*
X160108571Y-125287428D01*
X160680000Y-124787428D01*
X160680000Y-125001714D01*
X160751428Y-125144571D01*
X160822857Y-125216000D01*
X160965714Y-125287428D01*
X161322857Y-125287428D01*
X161465714Y-125216000D01*
X161537142Y-125144571D01*
X161608571Y-125001714D01*
X161608571Y-124573142D01*
X161537142Y-124430285D01*
X161465714Y-124358857D01*
X161465714Y-125930285D02*
X161537142Y-126001714D01*
X161608571Y-125930285D01*
X161537142Y-125858857D01*
X161465714Y-125930285D01*
X161608571Y-125930285D01*
X160108571Y-126501714D02*
X160108571Y-127430285D01*
X160680000Y-126930285D01*
X160680000Y-127144571D01*
X160751428Y-127287428D01*
X160822857Y-127358857D01*
X160965714Y-127430285D01*
X161322857Y-127430285D01*
X161465714Y-127358857D01*
X161537142Y-127287428D01*
X161608571Y-127144571D01*
X161608571Y-126716000D01*
X161537142Y-126573142D01*
X161465714Y-126501714D01*
X161037142Y-128073142D02*
X161037142Y-129216000D01*
X160108571Y-130573142D02*
X160108571Y-130287428D01*
X160180000Y-130144571D01*
X160251428Y-130073142D01*
X160465714Y-129930285D01*
X160751428Y-129858857D01*
X161322857Y-129858857D01*
X161465714Y-129930285D01*
X161537142Y-130001714D01*
X161608571Y-130144571D01*
X161608571Y-130430285D01*
X161537142Y-130573142D01*
X161465714Y-130644571D01*
X161322857Y-130716000D01*
X160965714Y-130716000D01*
X160822857Y-130644571D01*
X160751428Y-130573142D01*
X160680000Y-130430285D01*
X160680000Y-130144571D01*
X160751428Y-130001714D01*
X160822857Y-129930285D01*
X160965714Y-129858857D01*
X160108571Y-131144571D02*
X161608571Y-131644571D01*
X160108571Y-132144571D01*
X138108571Y-124358857D02*
X138108571Y-125287428D01*
X138680000Y-124787428D01*
X138680000Y-125001714D01*
X138751428Y-125144571D01*
X138822857Y-125216000D01*
X138965714Y-125287428D01*
X139322857Y-125287428D01*
X139465714Y-125216000D01*
X139537142Y-125144571D01*
X139608571Y-125001714D01*
X139608571Y-124573142D01*
X139537142Y-124430285D01*
X139465714Y-124358857D01*
X139465714Y-125930285D02*
X139537142Y-126001714D01*
X139608571Y-125930285D01*
X139537142Y-125858857D01*
X139465714Y-125930285D01*
X139608571Y-125930285D01*
X138108571Y-126501714D02*
X138108571Y-127430285D01*
X138680000Y-126930285D01*
X138680000Y-127144571D01*
X138751428Y-127287428D01*
X138822857Y-127358857D01*
X138965714Y-127430285D01*
X139322857Y-127430285D01*
X139465714Y-127358857D01*
X139537142Y-127287428D01*
X139608571Y-127144571D01*
X139608571Y-126716000D01*
X139537142Y-126573142D01*
X139465714Y-126501714D01*
X139037142Y-128073142D02*
X139037142Y-129216000D01*
X138108571Y-130573142D02*
X138108571Y-130287428D01*
X138180000Y-130144571D01*
X138251428Y-130073142D01*
X138465714Y-129930285D01*
X138751428Y-129858857D01*
X139322857Y-129858857D01*
X139465714Y-129930285D01*
X139537142Y-130001714D01*
X139608571Y-130144571D01*
X139608571Y-130430285D01*
X139537142Y-130573142D01*
X139465714Y-130644571D01*
X139322857Y-130716000D01*
X138965714Y-130716000D01*
X138822857Y-130644571D01*
X138751428Y-130573142D01*
X138680000Y-130430285D01*
X138680000Y-130144571D01*
X138751428Y-130001714D01*
X138822857Y-129930285D01*
X138965714Y-129858857D01*
X138108571Y-131144571D02*
X139608571Y-131644571D01*
X138108571Y-132144571D01*
X116108571Y-124358857D02*
X116108571Y-125287428D01*
X116680000Y-124787428D01*
X116680000Y-125001714D01*
X116751428Y-125144571D01*
X116822857Y-125216000D01*
X116965714Y-125287428D01*
X117322857Y-125287428D01*
X117465714Y-125216000D01*
X117537142Y-125144571D01*
X117608571Y-125001714D01*
X117608571Y-124573142D01*
X117537142Y-124430285D01*
X117465714Y-124358857D01*
X117465714Y-125930285D02*
X117537142Y-126001714D01*
X117608571Y-125930285D01*
X117537142Y-125858857D01*
X117465714Y-125930285D01*
X117608571Y-125930285D01*
X116108571Y-126501714D02*
X116108571Y-127430285D01*
X116680000Y-126930285D01*
X116680000Y-127144571D01*
X116751428Y-127287428D01*
X116822857Y-127358857D01*
X116965714Y-127430285D01*
X117322857Y-127430285D01*
X117465714Y-127358857D01*
X117537142Y-127287428D01*
X117608571Y-127144571D01*
X117608571Y-126716000D01*
X117537142Y-126573142D01*
X117465714Y-126501714D01*
X117037142Y-128073142D02*
X117037142Y-129216000D01*
X116108571Y-130573142D02*
X116108571Y-130287428D01*
X116180000Y-130144571D01*
X116251428Y-130073142D01*
X116465714Y-129930285D01*
X116751428Y-129858857D01*
X117322857Y-129858857D01*
X117465714Y-129930285D01*
X117537142Y-130001714D01*
X117608571Y-130144571D01*
X117608571Y-130430285D01*
X117537142Y-130573142D01*
X117465714Y-130644571D01*
X117322857Y-130716000D01*
X116965714Y-130716000D01*
X116822857Y-130644571D01*
X116751428Y-130573142D01*
X116680000Y-130430285D01*
X116680000Y-130144571D01*
X116751428Y-130001714D01*
X116822857Y-129930285D01*
X116965714Y-129858857D01*
X116108571Y-131144571D02*
X117608571Y-131644571D01*
X116108571Y-132144571D01*
X182108571Y-80358857D02*
X182108571Y-81287428D01*
X182680000Y-80787428D01*
X182680000Y-81001714D01*
X182751428Y-81144571D01*
X182822857Y-81216000D01*
X182965714Y-81287428D01*
X183322857Y-81287428D01*
X183465714Y-81216000D01*
X183537142Y-81144571D01*
X183608571Y-81001714D01*
X183608571Y-80573142D01*
X183537142Y-80430285D01*
X183465714Y-80358857D01*
X183465714Y-81930285D02*
X183537142Y-82001714D01*
X183608571Y-81930285D01*
X183537142Y-81858857D01*
X183465714Y-81930285D01*
X183608571Y-81930285D01*
X182108571Y-82501714D02*
X182108571Y-83430285D01*
X182680000Y-82930285D01*
X182680000Y-83144571D01*
X182751428Y-83287428D01*
X182822857Y-83358857D01*
X182965714Y-83430285D01*
X183322857Y-83430285D01*
X183465714Y-83358857D01*
X183537142Y-83287428D01*
X183608571Y-83144571D01*
X183608571Y-82716000D01*
X183537142Y-82573142D01*
X183465714Y-82501714D01*
X183037142Y-84073142D02*
X183037142Y-85216000D01*
X182108571Y-86573142D02*
X182108571Y-86287428D01*
X182180000Y-86144571D01*
X182251428Y-86073142D01*
X182465714Y-85930285D01*
X182751428Y-85858857D01*
X183322857Y-85858857D01*
X183465714Y-85930285D01*
X183537142Y-86001714D01*
X183608571Y-86144571D01*
X183608571Y-86430285D01*
X183537142Y-86573142D01*
X183465714Y-86644571D01*
X183322857Y-86716000D01*
X182965714Y-86716000D01*
X182822857Y-86644571D01*
X182751428Y-86573142D01*
X182680000Y-86430285D01*
X182680000Y-86144571D01*
X182751428Y-86001714D01*
X182822857Y-85930285D01*
X182965714Y-85858857D01*
X182108571Y-87144571D02*
X183608571Y-87644571D01*
X182108571Y-88144571D01*
X160108571Y-80358857D02*
X160108571Y-81287428D01*
X160680000Y-80787428D01*
X160680000Y-81001714D01*
X160751428Y-81144571D01*
X160822857Y-81216000D01*
X160965714Y-81287428D01*
X161322857Y-81287428D01*
X161465714Y-81216000D01*
X161537142Y-81144571D01*
X161608571Y-81001714D01*
X161608571Y-80573142D01*
X161537142Y-80430285D01*
X161465714Y-80358857D01*
X161465714Y-81930285D02*
X161537142Y-82001714D01*
X161608571Y-81930285D01*
X161537142Y-81858857D01*
X161465714Y-81930285D01*
X161608571Y-81930285D01*
X160108571Y-82501714D02*
X160108571Y-83430285D01*
X160680000Y-82930285D01*
X160680000Y-83144571D01*
X160751428Y-83287428D01*
X160822857Y-83358857D01*
X160965714Y-83430285D01*
X161322857Y-83430285D01*
X161465714Y-83358857D01*
X161537142Y-83287428D01*
X161608571Y-83144571D01*
X161608571Y-82716000D01*
X161537142Y-82573142D01*
X161465714Y-82501714D01*
X161037142Y-84073142D02*
X161037142Y-85216000D01*
X160108571Y-86573142D02*
X160108571Y-86287428D01*
X160180000Y-86144571D01*
X160251428Y-86073142D01*
X160465714Y-85930285D01*
X160751428Y-85858857D01*
X161322857Y-85858857D01*
X161465714Y-85930285D01*
X161537142Y-86001714D01*
X161608571Y-86144571D01*
X161608571Y-86430285D01*
X161537142Y-86573142D01*
X161465714Y-86644571D01*
X161322857Y-86716000D01*
X160965714Y-86716000D01*
X160822857Y-86644571D01*
X160751428Y-86573142D01*
X160680000Y-86430285D01*
X160680000Y-86144571D01*
X160751428Y-86001714D01*
X160822857Y-85930285D01*
X160965714Y-85858857D01*
X160108571Y-87144571D02*
X161608571Y-87644571D01*
X160108571Y-88144571D01*
X138108571Y-80358857D02*
X138108571Y-81287428D01*
X138680000Y-80787428D01*
X138680000Y-81001714D01*
X138751428Y-81144571D01*
X138822857Y-81216000D01*
X138965714Y-81287428D01*
X139322857Y-81287428D01*
X139465714Y-81216000D01*
X139537142Y-81144571D01*
X139608571Y-81001714D01*
X139608571Y-80573142D01*
X139537142Y-80430285D01*
X139465714Y-80358857D01*
X139465714Y-81930285D02*
X139537142Y-82001714D01*
X139608571Y-81930285D01*
X139537142Y-81858857D01*
X139465714Y-81930285D01*
X139608571Y-81930285D01*
X138108571Y-82501714D02*
X138108571Y-83430285D01*
X138680000Y-82930285D01*
X138680000Y-83144571D01*
X138751428Y-83287428D01*
X138822857Y-83358857D01*
X138965714Y-83430285D01*
X139322857Y-83430285D01*
X139465714Y-83358857D01*
X139537142Y-83287428D01*
X139608571Y-83144571D01*
X139608571Y-82716000D01*
X139537142Y-82573142D01*
X139465714Y-82501714D01*
X139037142Y-84073142D02*
X139037142Y-85216000D01*
X138108571Y-86573142D02*
X138108571Y-86287428D01*
X138180000Y-86144571D01*
X138251428Y-86073142D01*
X138465714Y-85930285D01*
X138751428Y-85858857D01*
X139322857Y-85858857D01*
X139465714Y-85930285D01*
X139537142Y-86001714D01*
X139608571Y-86144571D01*
X139608571Y-86430285D01*
X139537142Y-86573142D01*
X139465714Y-86644571D01*
X139322857Y-86716000D01*
X138965714Y-86716000D01*
X138822857Y-86644571D01*
X138751428Y-86573142D01*
X138680000Y-86430285D01*
X138680000Y-86144571D01*
X138751428Y-86001714D01*
X138822857Y-85930285D01*
X138965714Y-85858857D01*
X138108571Y-87144571D02*
X139608571Y-87644571D01*
X138108571Y-88144571D01*
X179640000Y-128851142D02*
X179568571Y-128708285D01*
X179568571Y-128494000D01*
X179640000Y-128279714D01*
X179782857Y-128136857D01*
X179925714Y-128065428D01*
X180211428Y-127994000D01*
X180425714Y-127994000D01*
X180711428Y-128065428D01*
X180854285Y-128136857D01*
X180997142Y-128279714D01*
X181068571Y-128494000D01*
X181068571Y-128636857D01*
X180997142Y-128851142D01*
X180925714Y-128922571D01*
X180425714Y-128922571D01*
X180425714Y-128636857D01*
X181068571Y-129565428D02*
X179568571Y-129565428D01*
X181068571Y-130422571D01*
X179568571Y-130422571D01*
X181068571Y-131136857D02*
X179568571Y-131136857D01*
X179568571Y-131494000D01*
X179640000Y-131708285D01*
X179782857Y-131851142D01*
X179925714Y-131922571D01*
X180211428Y-131994000D01*
X180425714Y-131994000D01*
X180711428Y-131922571D01*
X180854285Y-131851142D01*
X180997142Y-131708285D01*
X181068571Y-131494000D01*
X181068571Y-131136857D01*
X157640000Y-128851142D02*
X157568571Y-128708285D01*
X157568571Y-128494000D01*
X157640000Y-128279714D01*
X157782857Y-128136857D01*
X157925714Y-128065428D01*
X158211428Y-127994000D01*
X158425714Y-127994000D01*
X158711428Y-128065428D01*
X158854285Y-128136857D01*
X158997142Y-128279714D01*
X159068571Y-128494000D01*
X159068571Y-128636857D01*
X158997142Y-128851142D01*
X158925714Y-128922571D01*
X158425714Y-128922571D01*
X158425714Y-128636857D01*
X159068571Y-129565428D02*
X157568571Y-129565428D01*
X159068571Y-130422571D01*
X157568571Y-130422571D01*
X159068571Y-131136857D02*
X157568571Y-131136857D01*
X157568571Y-131494000D01*
X157640000Y-131708285D01*
X157782857Y-131851142D01*
X157925714Y-131922571D01*
X158211428Y-131994000D01*
X158425714Y-131994000D01*
X158711428Y-131922571D01*
X158854285Y-131851142D01*
X158997142Y-131708285D01*
X159068571Y-131494000D01*
X159068571Y-131136857D01*
X135640000Y-128851142D02*
X135568571Y-128708285D01*
X135568571Y-128494000D01*
X135640000Y-128279714D01*
X135782857Y-128136857D01*
X135925714Y-128065428D01*
X136211428Y-127994000D01*
X136425714Y-127994000D01*
X136711428Y-128065428D01*
X136854285Y-128136857D01*
X136997142Y-128279714D01*
X137068571Y-128494000D01*
X137068571Y-128636857D01*
X136997142Y-128851142D01*
X136925714Y-128922571D01*
X136425714Y-128922571D01*
X136425714Y-128636857D01*
X137068571Y-129565428D02*
X135568571Y-129565428D01*
X137068571Y-130422571D01*
X135568571Y-130422571D01*
X137068571Y-131136857D02*
X135568571Y-131136857D01*
X135568571Y-131494000D01*
X135640000Y-131708285D01*
X135782857Y-131851142D01*
X135925714Y-131922571D01*
X136211428Y-131994000D01*
X136425714Y-131994000D01*
X136711428Y-131922571D01*
X136854285Y-131851142D01*
X136997142Y-131708285D01*
X137068571Y-131494000D01*
X137068571Y-131136857D01*
X113640000Y-128851142D02*
X113568571Y-128708285D01*
X113568571Y-128494000D01*
X113640000Y-128279714D01*
X113782857Y-128136857D01*
X113925714Y-128065428D01*
X114211428Y-127994000D01*
X114425714Y-127994000D01*
X114711428Y-128065428D01*
X114854285Y-128136857D01*
X114997142Y-128279714D01*
X115068571Y-128494000D01*
X115068571Y-128636857D01*
X114997142Y-128851142D01*
X114925714Y-128922571D01*
X114425714Y-128922571D01*
X114425714Y-128636857D01*
X115068571Y-129565428D02*
X113568571Y-129565428D01*
X115068571Y-130422571D01*
X113568571Y-130422571D01*
X115068571Y-131136857D02*
X113568571Y-131136857D01*
X113568571Y-131494000D01*
X113640000Y-131708285D01*
X113782857Y-131851142D01*
X113925714Y-131922571D01*
X114211428Y-131994000D01*
X114425714Y-131994000D01*
X114711428Y-131922571D01*
X114854285Y-131851142D01*
X114997142Y-131708285D01*
X115068571Y-131494000D01*
X115068571Y-131136857D01*
X179640000Y-84851142D02*
X179568571Y-84708285D01*
X179568571Y-84494000D01*
X179640000Y-84279714D01*
X179782857Y-84136857D01*
X179925714Y-84065428D01*
X180211428Y-83994000D01*
X180425714Y-83994000D01*
X180711428Y-84065428D01*
X180854285Y-84136857D01*
X180997142Y-84279714D01*
X181068571Y-84494000D01*
X181068571Y-84636857D01*
X180997142Y-84851142D01*
X180925714Y-84922571D01*
X180425714Y-84922571D01*
X180425714Y-84636857D01*
X181068571Y-85565428D02*
X179568571Y-85565428D01*
X181068571Y-86422571D01*
X179568571Y-86422571D01*
X181068571Y-87136857D02*
X179568571Y-87136857D01*
X179568571Y-87494000D01*
X179640000Y-87708285D01*
X179782857Y-87851142D01*
X179925714Y-87922571D01*
X180211428Y-87994000D01*
X180425714Y-87994000D01*
X180711428Y-87922571D01*
X180854285Y-87851142D01*
X180997142Y-87708285D01*
X181068571Y-87494000D01*
X181068571Y-87136857D01*
X157640000Y-84851142D02*
X157568571Y-84708285D01*
X157568571Y-84494000D01*
X157640000Y-84279714D01*
X157782857Y-84136857D01*
X157925714Y-84065428D01*
X158211428Y-83994000D01*
X158425714Y-83994000D01*
X158711428Y-84065428D01*
X158854285Y-84136857D01*
X158997142Y-84279714D01*
X159068571Y-84494000D01*
X159068571Y-84636857D01*
X158997142Y-84851142D01*
X158925714Y-84922571D01*
X158425714Y-84922571D01*
X158425714Y-84636857D01*
X159068571Y-85565428D02*
X157568571Y-85565428D01*
X159068571Y-86422571D01*
X157568571Y-86422571D01*
X159068571Y-87136857D02*
X157568571Y-87136857D01*
X157568571Y-87494000D01*
X157640000Y-87708285D01*
X157782857Y-87851142D01*
X157925714Y-87922571D01*
X158211428Y-87994000D01*
X158425714Y-87994000D01*
X158711428Y-87922571D01*
X158854285Y-87851142D01*
X158997142Y-87708285D01*
X159068571Y-87494000D01*
X159068571Y-87136857D01*
X135640000Y-84851142D02*
X135568571Y-84708285D01*
X135568571Y-84494000D01*
X135640000Y-84279714D01*
X135782857Y-84136857D01*
X135925714Y-84065428D01*
X136211428Y-83994000D01*
X136425714Y-83994000D01*
X136711428Y-84065428D01*
X136854285Y-84136857D01*
X136997142Y-84279714D01*
X137068571Y-84494000D01*
X137068571Y-84636857D01*
X136997142Y-84851142D01*
X136925714Y-84922571D01*
X136425714Y-84922571D01*
X136425714Y-84636857D01*
X137068571Y-85565428D02*
X135568571Y-85565428D01*
X137068571Y-86422571D01*
X135568571Y-86422571D01*
X137068571Y-87136857D02*
X135568571Y-87136857D01*
X135568571Y-87494000D01*
X135640000Y-87708285D01*
X135782857Y-87851142D01*
X135925714Y-87922571D01*
X136211428Y-87994000D01*
X136425714Y-87994000D01*
X136711428Y-87922571D01*
X136854285Y-87851142D01*
X136997142Y-87708285D01*
X137068571Y-87494000D01*
X137068571Y-87136857D01*
X177028571Y-128355142D02*
X177028571Y-129212285D01*
X178528571Y-128783714D02*
X177028571Y-128783714D01*
X177028571Y-129569428D02*
X178528571Y-130569428D01*
X177028571Y-130569428D02*
X178528571Y-129569428D01*
X178528571Y-131140857D02*
X177028571Y-131140857D01*
X177028571Y-131498000D01*
X177100000Y-131712285D01*
X177242857Y-131855142D01*
X177385714Y-131926571D01*
X177671428Y-131998000D01*
X177885714Y-131998000D01*
X178171428Y-131926571D01*
X178314285Y-131855142D01*
X178457142Y-131712285D01*
X178528571Y-131498000D01*
X178528571Y-131140857D01*
X155028571Y-128355142D02*
X155028571Y-129212285D01*
X156528571Y-128783714D02*
X155028571Y-128783714D01*
X155028571Y-129569428D02*
X156528571Y-130569428D01*
X155028571Y-130569428D02*
X156528571Y-129569428D01*
X156528571Y-131140857D02*
X155028571Y-131140857D01*
X155028571Y-131498000D01*
X155100000Y-131712285D01*
X155242857Y-131855142D01*
X155385714Y-131926571D01*
X155671428Y-131998000D01*
X155885714Y-131998000D01*
X156171428Y-131926571D01*
X156314285Y-131855142D01*
X156457142Y-131712285D01*
X156528571Y-131498000D01*
X156528571Y-131140857D01*
X133028571Y-128355142D02*
X133028571Y-129212285D01*
X134528571Y-128783714D02*
X133028571Y-128783714D01*
X133028571Y-129569428D02*
X134528571Y-130569428D01*
X133028571Y-130569428D02*
X134528571Y-129569428D01*
X134528571Y-131140857D02*
X133028571Y-131140857D01*
X133028571Y-131498000D01*
X133100000Y-131712285D01*
X133242857Y-131855142D01*
X133385714Y-131926571D01*
X133671428Y-131998000D01*
X133885714Y-131998000D01*
X134171428Y-131926571D01*
X134314285Y-131855142D01*
X134457142Y-131712285D01*
X134528571Y-131498000D01*
X134528571Y-131140857D01*
X111028571Y-128355142D02*
X111028571Y-129212285D01*
X112528571Y-128783714D02*
X111028571Y-128783714D01*
X111028571Y-129569428D02*
X112528571Y-130569428D01*
X111028571Y-130569428D02*
X112528571Y-129569428D01*
X112528571Y-131140857D02*
X111028571Y-131140857D01*
X111028571Y-131498000D01*
X111100000Y-131712285D01*
X111242857Y-131855142D01*
X111385714Y-131926571D01*
X111671428Y-131998000D01*
X111885714Y-131998000D01*
X112171428Y-131926571D01*
X112314285Y-131855142D01*
X112457142Y-131712285D01*
X112528571Y-131498000D01*
X112528571Y-131140857D01*
X177028571Y-84355142D02*
X177028571Y-85212285D01*
X178528571Y-84783714D02*
X177028571Y-84783714D01*
X177028571Y-85569428D02*
X178528571Y-86569428D01*
X177028571Y-86569428D02*
X178528571Y-85569428D01*
X178528571Y-87140857D02*
X177028571Y-87140857D01*
X177028571Y-87498000D01*
X177100000Y-87712285D01*
X177242857Y-87855142D01*
X177385714Y-87926571D01*
X177671428Y-87998000D01*
X177885714Y-87998000D01*
X178171428Y-87926571D01*
X178314285Y-87855142D01*
X178457142Y-87712285D01*
X178528571Y-87498000D01*
X178528571Y-87140857D01*
X155028571Y-84355142D02*
X155028571Y-85212285D01*
X156528571Y-84783714D02*
X155028571Y-84783714D01*
X155028571Y-85569428D02*
X156528571Y-86569428D01*
X155028571Y-86569428D02*
X156528571Y-85569428D01*
X156528571Y-87140857D02*
X155028571Y-87140857D01*
X155028571Y-87498000D01*
X155100000Y-87712285D01*
X155242857Y-87855142D01*
X155385714Y-87926571D01*
X155671428Y-87998000D01*
X155885714Y-87998000D01*
X156171428Y-87926571D01*
X156314285Y-87855142D01*
X156457142Y-87712285D01*
X156528571Y-87498000D01*
X156528571Y-87140857D01*
X133028571Y-84355142D02*
X133028571Y-85212285D01*
X134528571Y-84783714D02*
X133028571Y-84783714D01*
X133028571Y-85569428D02*
X134528571Y-86569428D01*
X133028571Y-86569428D02*
X134528571Y-85569428D01*
X134528571Y-87140857D02*
X133028571Y-87140857D01*
X133028571Y-87498000D01*
X133100000Y-87712285D01*
X133242857Y-87855142D01*
X133385714Y-87926571D01*
X133671428Y-87998000D01*
X133885714Y-87998000D01*
X134171428Y-87926571D01*
X134314285Y-87855142D01*
X134457142Y-87712285D01*
X134528571Y-87498000D01*
X134528571Y-87140857D01*
D10*
X169775428Y-94859571D02*
X169775428Y-95459571D01*
X170718285Y-95716714D02*
X170718285Y-94859571D01*
X168918285Y-94859571D01*
X168918285Y-95716714D01*
X170632571Y-96402428D02*
X170718285Y-96659571D01*
X170718285Y-97088142D01*
X170632571Y-97259571D01*
X170546857Y-97345285D01*
X170375428Y-97431000D01*
X170204000Y-97431000D01*
X170032571Y-97345285D01*
X169946857Y-97259571D01*
X169861142Y-97088142D01*
X169775428Y-96745285D01*
X169689714Y-96573857D01*
X169604000Y-96488142D01*
X169432571Y-96402428D01*
X169261142Y-96402428D01*
X169089714Y-96488142D01*
X169004000Y-96573857D01*
X168918285Y-96745285D01*
X168918285Y-97173857D01*
X169004000Y-97431000D01*
X170718285Y-98202428D02*
X168918285Y-98202428D01*
X168918285Y-98888142D01*
X169004000Y-99059571D01*
X169089714Y-99145285D01*
X169261142Y-99231000D01*
X169518285Y-99231000D01*
X169689714Y-99145285D01*
X169775428Y-99059571D01*
X169861142Y-98888142D01*
X169861142Y-98202428D01*
X168918285Y-99831000D02*
X168918285Y-100945285D01*
X169604000Y-100345285D01*
X169604000Y-100602428D01*
X169689714Y-100773857D01*
X169775428Y-100859571D01*
X169946857Y-100945285D01*
X170375428Y-100945285D01*
X170546857Y-100859571D01*
X170632571Y-100773857D01*
X170718285Y-100602428D01*
X170718285Y-100088142D01*
X170632571Y-99916714D01*
X170546857Y-99831000D01*
X169089714Y-101631000D02*
X169004000Y-101716714D01*
X168918285Y-101888142D01*
X168918285Y-102316714D01*
X169004000Y-102488142D01*
X169089714Y-102573857D01*
X169261142Y-102659571D01*
X169432571Y-102659571D01*
X169689714Y-102573857D01*
X170718285Y-101545285D01*
X170718285Y-102659571D01*
X170032571Y-103431000D02*
X170032571Y-104802428D01*
X168918285Y-105488142D02*
X170718285Y-105916714D01*
X169432571Y-106259571D01*
X170718285Y-106602428D01*
X168918285Y-107031000D01*
X170718285Y-108745285D02*
X169861142Y-108145285D01*
X170718285Y-107716714D02*
X168918285Y-107716714D01*
X168918285Y-108402428D01*
X169004000Y-108573857D01*
X169089714Y-108659571D01*
X169261142Y-108745285D01*
X169518285Y-108745285D01*
X169689714Y-108659571D01*
X169775428Y-108573857D01*
X169861142Y-108402428D01*
X169861142Y-107716714D01*
X168918285Y-109859571D02*
X168918285Y-110202428D01*
X169004000Y-110373857D01*
X169175428Y-110545285D01*
X169518285Y-110631000D01*
X170118285Y-110631000D01*
X170461142Y-110545285D01*
X170632571Y-110373857D01*
X170718285Y-110202428D01*
X170718285Y-109859571D01*
X170632571Y-109688142D01*
X170461142Y-109516714D01*
X170118285Y-109431000D01*
X169518285Y-109431000D01*
X169175428Y-109516714D01*
X169004000Y-109688142D01*
X168918285Y-109859571D01*
X168918285Y-111745285D02*
X168918285Y-112088142D01*
X169004000Y-112259571D01*
X169175428Y-112431000D01*
X169518285Y-112516714D01*
X170118285Y-112516714D01*
X170461142Y-112431000D01*
X170632571Y-112259571D01*
X170718285Y-112088142D01*
X170718285Y-111745285D01*
X170632571Y-111573857D01*
X170461142Y-111402428D01*
X170118285Y-111316714D01*
X169518285Y-111316714D01*
X169175428Y-111402428D01*
X169004000Y-111573857D01*
X168918285Y-111745285D01*
X170718285Y-113288142D02*
X168918285Y-113288142D01*
X170204000Y-113888142D01*
X168918285Y-114488142D01*
X170718285Y-114488142D01*
X170032571Y-115345285D02*
X170032571Y-116716714D01*
X168918285Y-117402428D02*
X168918285Y-118516714D01*
X169604000Y-117916714D01*
X169604000Y-118173857D01*
X169689714Y-118345285D01*
X169775428Y-118431000D01*
X169946857Y-118516714D01*
X170375428Y-118516714D01*
X170546857Y-118431000D01*
X170632571Y-118345285D01*
X170718285Y-118173857D01*
X170718285Y-117659571D01*
X170632571Y-117488142D01*
X170546857Y-117402428D01*
X169089714Y-119202428D02*
X169004000Y-119288142D01*
X168918285Y-119459571D01*
X168918285Y-119888142D01*
X169004000Y-120059571D01*
X169089714Y-120145285D01*
X169261142Y-120231000D01*
X169432571Y-120231000D01*
X169689714Y-120145285D01*
X170718285Y-119116714D01*
X170718285Y-120231000D01*
X171918285Y-94859571D02*
X173375428Y-94859571D01*
X173546857Y-94945285D01*
X173632571Y-95031000D01*
X173718285Y-95202428D01*
X173718285Y-95545285D01*
X173632571Y-95716714D01*
X173546857Y-95802428D01*
X173375428Y-95888142D01*
X171918285Y-95888142D01*
X173204000Y-96659571D02*
X173204000Y-97516714D01*
X173718285Y-96488142D02*
X171918285Y-97088142D01*
X173718285Y-97688142D01*
X173718285Y-99316714D02*
X172861142Y-98716714D01*
X173718285Y-98288142D02*
X171918285Y-98288142D01*
X171918285Y-98973857D01*
X172004000Y-99145285D01*
X172089714Y-99231000D01*
X172261142Y-99316714D01*
X172518285Y-99316714D01*
X172689714Y-99231000D01*
X172775428Y-99145285D01*
X172861142Y-98973857D01*
X172861142Y-98288142D01*
X171918285Y-99831000D02*
X171918285Y-100859571D01*
X173718285Y-100345285D02*
X171918285Y-100345285D01*
X172775428Y-103431000D02*
X172861142Y-103688142D01*
X172946857Y-103773857D01*
X173118285Y-103859571D01*
X173375428Y-103859571D01*
X173546857Y-103773857D01*
X173632571Y-103688142D01*
X173718285Y-103516714D01*
X173718285Y-102831000D01*
X171918285Y-102831000D01*
X171918285Y-103431000D01*
X172004000Y-103602428D01*
X172089714Y-103688142D01*
X172261142Y-103773857D01*
X172432571Y-103773857D01*
X172604000Y-103688142D01*
X172689714Y-103602428D01*
X172775428Y-103431000D01*
X172775428Y-102831000D01*
X173718285Y-104888142D02*
X173632571Y-104716714D01*
X173461142Y-104631000D01*
X171918285Y-104631000D01*
X172518285Y-106345285D02*
X173718285Y-106345285D01*
X172518285Y-105573857D02*
X173461142Y-105573857D01*
X173632571Y-105659571D01*
X173718285Y-105831000D01*
X173718285Y-106088142D01*
X173632571Y-106259571D01*
X173546857Y-106345285D01*
X173632571Y-107888142D02*
X173718285Y-107716714D01*
X173718285Y-107373857D01*
X173632571Y-107202428D01*
X173461142Y-107116714D01*
X172775428Y-107116714D01*
X172604000Y-107202428D01*
X172518285Y-107373857D01*
X172518285Y-107716714D01*
X172604000Y-107888142D01*
X172775428Y-107973857D01*
X172946857Y-107973857D01*
X173118285Y-107116714D01*
X172518285Y-108488142D02*
X172518285Y-109173857D01*
X171918285Y-108745285D02*
X173461142Y-108745285D01*
X173632571Y-108831000D01*
X173718285Y-109002428D01*
X173718285Y-109173857D01*
X173718285Y-110031000D02*
X173632571Y-109859571D01*
X173546857Y-109773857D01*
X173375428Y-109688142D01*
X172861142Y-109688142D01*
X172689714Y-109773857D01*
X172604000Y-109859571D01*
X172518285Y-110031000D01*
X172518285Y-110288142D01*
X172604000Y-110459571D01*
X172689714Y-110545285D01*
X172861142Y-110631000D01*
X173375428Y-110631000D01*
X173546857Y-110545285D01*
X173632571Y-110459571D01*
X173718285Y-110288142D01*
X173718285Y-110031000D01*
X173718285Y-111659571D02*
X173632571Y-111488142D01*
X173546857Y-111402428D01*
X173375428Y-111316714D01*
X172861142Y-111316714D01*
X172689714Y-111402428D01*
X172604000Y-111488142D01*
X172518285Y-111659571D01*
X172518285Y-111916714D01*
X172604000Y-112088142D01*
X172689714Y-112173857D01*
X172861142Y-112259571D01*
X173375428Y-112259571D01*
X173546857Y-112173857D01*
X173632571Y-112088142D01*
X173718285Y-111916714D01*
X173718285Y-111659571D01*
X172518285Y-112773857D02*
X172518285Y-113459571D01*
X171918285Y-113031000D02*
X173461142Y-113031000D01*
X173632571Y-113116714D01*
X173718285Y-113288142D01*
X173718285Y-113459571D01*
X173718285Y-114059571D02*
X171918285Y-114059571D01*
X173718285Y-114831000D02*
X172775428Y-114831000D01*
X172604000Y-114745285D01*
X172518285Y-114573857D01*
X172518285Y-114316714D01*
X172604000Y-114145285D01*
X172689714Y-114059571D01*
X173546857Y-118088142D02*
X173632571Y-118002428D01*
X173718285Y-117745285D01*
X173718285Y-117573857D01*
X173632571Y-117316714D01*
X173461142Y-117145285D01*
X173289714Y-117059571D01*
X172946857Y-116973857D01*
X172689714Y-116973857D01*
X172346857Y-117059571D01*
X172175428Y-117145285D01*
X172004000Y-117316714D01*
X171918285Y-117573857D01*
X171918285Y-117745285D01*
X172004000Y-118002428D01*
X172089714Y-118088142D01*
X173718285Y-119116714D02*
X173632571Y-118945285D01*
X173546857Y-118859571D01*
X173375428Y-118773857D01*
X172861142Y-118773857D01*
X172689714Y-118859571D01*
X172604000Y-118945285D01*
X172518285Y-119116714D01*
X172518285Y-119373857D01*
X172604000Y-119545285D01*
X172689714Y-119631000D01*
X172861142Y-119716714D01*
X173375428Y-119716714D01*
X173546857Y-119631000D01*
X173632571Y-119545285D01*
X173718285Y-119373857D01*
X173718285Y-119116714D01*
X172518285Y-120488142D02*
X173718285Y-120488142D01*
X172689714Y-120488142D02*
X172604000Y-120573857D01*
X172518285Y-120745285D01*
X172518285Y-121002428D01*
X172604000Y-121173857D01*
X172775428Y-121259571D01*
X173718285Y-121259571D01*
X172518285Y-121945285D02*
X173718285Y-122373857D01*
X172518285Y-122802428D01*
X173632571Y-124173857D02*
X173718285Y-124002428D01*
X173718285Y-123659571D01*
X173632571Y-123488142D01*
X173461142Y-123402428D01*
X172775428Y-123402428D01*
X172604000Y-123488142D01*
X172518285Y-123659571D01*
X172518285Y-124002428D01*
X172604000Y-124173857D01*
X172775428Y-124259571D01*
X172946857Y-124259571D01*
X173118285Y-123402428D01*
X173718285Y-125031000D02*
X172518285Y-125031000D01*
X172861142Y-125031000D02*
X172689714Y-125116714D01*
X172604000Y-125202428D01*
X172518285Y-125373857D01*
X172518285Y-125545285D01*
X172518285Y-125888142D02*
X172518285Y-126573857D01*
X171918285Y-126145285D02*
X173461142Y-126145285D01*
X173632571Y-126231000D01*
X173718285Y-126402428D01*
X173718285Y-126573857D01*
X173632571Y-127859571D02*
X173718285Y-127688142D01*
X173718285Y-127345285D01*
X173632571Y-127173857D01*
X173461142Y-127088142D01*
X172775428Y-127088142D01*
X172604000Y-127173857D01*
X172518285Y-127345285D01*
X172518285Y-127688142D01*
X172604000Y-127859571D01*
X172775428Y-127945285D01*
X172946857Y-127945285D01*
X173118285Y-127088142D01*
X173718285Y-128716714D02*
X172518285Y-128716714D01*
X172861142Y-128716714D02*
X172689714Y-128802428D01*
X172604000Y-128888142D01*
X172518285Y-129059571D01*
X172518285Y-129231000D01*
X147775428Y-94859571D02*
X147775428Y-95459571D01*
X148718285Y-95716714D02*
X148718285Y-94859571D01*
X146918285Y-94859571D01*
X146918285Y-95716714D01*
X148632571Y-96402428D02*
X148718285Y-96659571D01*
X148718285Y-97088142D01*
X148632571Y-97259571D01*
X148546857Y-97345285D01*
X148375428Y-97431000D01*
X148204000Y-97431000D01*
X148032571Y-97345285D01*
X147946857Y-97259571D01*
X147861142Y-97088142D01*
X147775428Y-96745285D01*
X147689714Y-96573857D01*
X147604000Y-96488142D01*
X147432571Y-96402428D01*
X147261142Y-96402428D01*
X147089714Y-96488142D01*
X147004000Y-96573857D01*
X146918285Y-96745285D01*
X146918285Y-97173857D01*
X147004000Y-97431000D01*
X148718285Y-98202428D02*
X146918285Y-98202428D01*
X146918285Y-98888142D01*
X147004000Y-99059571D01*
X147089714Y-99145285D01*
X147261142Y-99231000D01*
X147518285Y-99231000D01*
X147689714Y-99145285D01*
X147775428Y-99059571D01*
X147861142Y-98888142D01*
X147861142Y-98202428D01*
X146918285Y-99831000D02*
X146918285Y-100945285D01*
X147604000Y-100345285D01*
X147604000Y-100602428D01*
X147689714Y-100773857D01*
X147775428Y-100859571D01*
X147946857Y-100945285D01*
X148375428Y-100945285D01*
X148546857Y-100859571D01*
X148632571Y-100773857D01*
X148718285Y-100602428D01*
X148718285Y-100088142D01*
X148632571Y-99916714D01*
X148546857Y-99831000D01*
X147089714Y-101631000D02*
X147004000Y-101716714D01*
X146918285Y-101888142D01*
X146918285Y-102316714D01*
X147004000Y-102488142D01*
X147089714Y-102573857D01*
X147261142Y-102659571D01*
X147432571Y-102659571D01*
X147689714Y-102573857D01*
X148718285Y-101545285D01*
X148718285Y-102659571D01*
X148032571Y-103431000D02*
X148032571Y-104802428D01*
X146918285Y-105488142D02*
X148718285Y-105916714D01*
X147432571Y-106259571D01*
X148718285Y-106602428D01*
X146918285Y-107031000D01*
X148718285Y-108745285D02*
X147861142Y-108145285D01*
X148718285Y-107716714D02*
X146918285Y-107716714D01*
X146918285Y-108402428D01*
X147004000Y-108573857D01*
X147089714Y-108659571D01*
X147261142Y-108745285D01*
X147518285Y-108745285D01*
X147689714Y-108659571D01*
X147775428Y-108573857D01*
X147861142Y-108402428D01*
X147861142Y-107716714D01*
X146918285Y-109859571D02*
X146918285Y-110202428D01*
X147004000Y-110373857D01*
X147175428Y-110545285D01*
X147518285Y-110630999D01*
X148118285Y-110630999D01*
X148461142Y-110545285D01*
X148632571Y-110373857D01*
X148718285Y-110202428D01*
X148718285Y-109859571D01*
X148632571Y-109688142D01*
X148461142Y-109516714D01*
X148118285Y-109431000D01*
X147518285Y-109431000D01*
X147175428Y-109516714D01*
X147004000Y-109688142D01*
X146918285Y-109859571D01*
X146918285Y-111745285D02*
X146918285Y-112088142D01*
X147004000Y-112259571D01*
X147175428Y-112430999D01*
X147518285Y-112516714D01*
X148118285Y-112516714D01*
X148461142Y-112430999D01*
X148632571Y-112259571D01*
X148718285Y-112088142D01*
X148718285Y-111745285D01*
X148632571Y-111573857D01*
X148461142Y-111402428D01*
X148118285Y-111316714D01*
X147518285Y-111316714D01*
X147175428Y-111402428D01*
X147004000Y-111573857D01*
X146918285Y-111745285D01*
X148718285Y-113288142D02*
X146918285Y-113288142D01*
X148204000Y-113888142D01*
X146918285Y-114488142D01*
X148718285Y-114488142D01*
X148032571Y-115345285D02*
X148032571Y-116716714D01*
X146918285Y-117402428D02*
X146918285Y-118516714D01*
X147604000Y-117916714D01*
X147604000Y-118173857D01*
X147689714Y-118345285D01*
X147775428Y-118430999D01*
X147946857Y-118516714D01*
X148375428Y-118516714D01*
X148546857Y-118430999D01*
X148632571Y-118345285D01*
X148718285Y-118173857D01*
X148718285Y-117659571D01*
X148632571Y-117488142D01*
X148546857Y-117402428D01*
X147089714Y-119202428D02*
X147004000Y-119288142D01*
X146918285Y-119459571D01*
X146918285Y-119888142D01*
X147004000Y-120059571D01*
X147089714Y-120145285D01*
X147261142Y-120230999D01*
X147432571Y-120230999D01*
X147689714Y-120145285D01*
X148718285Y-119116714D01*
X148718285Y-120230999D01*
X149918285Y-94859571D02*
X151375428Y-94859571D01*
X151546857Y-94945285D01*
X151632571Y-95031000D01*
X151718285Y-95202428D01*
X151718285Y-95545285D01*
X151632571Y-95716714D01*
X151546857Y-95802428D01*
X151375428Y-95888142D01*
X149918285Y-95888142D01*
X151204000Y-96659571D02*
X151204000Y-97516714D01*
X151718285Y-96488142D02*
X149918285Y-97088142D01*
X151718285Y-97688142D01*
X151718285Y-99316714D02*
X150861142Y-98716714D01*
X151718285Y-98288142D02*
X149918285Y-98288142D01*
X149918285Y-98973857D01*
X150004000Y-99145285D01*
X150089714Y-99231000D01*
X150261142Y-99316714D01*
X150518285Y-99316714D01*
X150689714Y-99231000D01*
X150775428Y-99145285D01*
X150861142Y-98973857D01*
X150861142Y-98288142D01*
X149918285Y-99831000D02*
X149918285Y-100859571D01*
X151718285Y-100345285D02*
X149918285Y-100345285D01*
X150775428Y-103431000D02*
X150861142Y-103688142D01*
X150946857Y-103773857D01*
X151118285Y-103859571D01*
X151375428Y-103859571D01*
X151546857Y-103773857D01*
X151632571Y-103688142D01*
X151718285Y-103516714D01*
X151718285Y-102831000D01*
X149918285Y-102831000D01*
X149918285Y-103431000D01*
X150004000Y-103602428D01*
X150089714Y-103688142D01*
X150261142Y-103773857D01*
X150432571Y-103773857D01*
X150604000Y-103688142D01*
X150689714Y-103602428D01*
X150775428Y-103431000D01*
X150775428Y-102831000D01*
X151718285Y-104888142D02*
X151632571Y-104716714D01*
X151461142Y-104631000D01*
X149918285Y-104631000D01*
X150518285Y-106345285D02*
X151718285Y-106345285D01*
X150518285Y-105573857D02*
X151461142Y-105573857D01*
X151632571Y-105659571D01*
X151718285Y-105831000D01*
X151718285Y-106088142D01*
X151632571Y-106259571D01*
X151546857Y-106345285D01*
X151632571Y-107888142D02*
X151718285Y-107716714D01*
X151718285Y-107373857D01*
X151632571Y-107202428D01*
X151461142Y-107116714D01*
X150775428Y-107116714D01*
X150604000Y-107202428D01*
X150518285Y-107373857D01*
X150518285Y-107716714D01*
X150604000Y-107888142D01*
X150775428Y-107973857D01*
X150946857Y-107973857D01*
X151118285Y-107116714D01*
X150518285Y-108488142D02*
X150518285Y-109173857D01*
X149918285Y-108745285D02*
X151461142Y-108745285D01*
X151632571Y-108831000D01*
X151718285Y-109002428D01*
X151718285Y-109173857D01*
X151718285Y-110031000D02*
X151632571Y-109859571D01*
X151546857Y-109773857D01*
X151375428Y-109688142D01*
X150861142Y-109688142D01*
X150689714Y-109773857D01*
X150604000Y-109859571D01*
X150518285Y-110031000D01*
X150518285Y-110288142D01*
X150604000Y-110459571D01*
X150689714Y-110545285D01*
X150861142Y-110631000D01*
X151375428Y-110631000D01*
X151546857Y-110545285D01*
X151632571Y-110459571D01*
X151718285Y-110288142D01*
X151718285Y-110031000D01*
X151718285Y-111659571D02*
X151632571Y-111488142D01*
X151546857Y-111402428D01*
X151375428Y-111316714D01*
X150861142Y-111316714D01*
X150689714Y-111402428D01*
X150604000Y-111488142D01*
X150518285Y-111659571D01*
X150518285Y-111916714D01*
X150604000Y-112088142D01*
X150689714Y-112173857D01*
X150861142Y-112259571D01*
X151375428Y-112259571D01*
X151546857Y-112173857D01*
X151632571Y-112088142D01*
X151718285Y-111916714D01*
X151718285Y-111659571D01*
X150518285Y-112773857D02*
X150518285Y-113459571D01*
X149918285Y-113031000D02*
X151461142Y-113031000D01*
X151632571Y-113116714D01*
X151718285Y-113288142D01*
X151718285Y-113459571D01*
X151718285Y-114059571D02*
X149918285Y-114059571D01*
X151718285Y-114831000D02*
X150775428Y-114831000D01*
X150604000Y-114745285D01*
X150518285Y-114573857D01*
X150518285Y-114316714D01*
X150604000Y-114145285D01*
X150689714Y-114059571D01*
X151546857Y-118088142D02*
X151632571Y-118002428D01*
X151718285Y-117745285D01*
X151718285Y-117573857D01*
X151632571Y-117316714D01*
X151461142Y-117145285D01*
X151289714Y-117059571D01*
X150946857Y-116973857D01*
X150689714Y-116973857D01*
X150346857Y-117059571D01*
X150175428Y-117145285D01*
X150004000Y-117316714D01*
X149918285Y-117573857D01*
X149918285Y-117745285D01*
X150004000Y-118002428D01*
X150089714Y-118088142D01*
X151718285Y-119116714D02*
X151632571Y-118945285D01*
X151546857Y-118859571D01*
X151375428Y-118773857D01*
X150861142Y-118773857D01*
X150689714Y-118859571D01*
X150604000Y-118945285D01*
X150518285Y-119116714D01*
X150518285Y-119373857D01*
X150604000Y-119545285D01*
X150689714Y-119631000D01*
X150861142Y-119716714D01*
X151375428Y-119716714D01*
X151546857Y-119631000D01*
X151632571Y-119545285D01*
X151718285Y-119373857D01*
X151718285Y-119116714D01*
X150518285Y-120488142D02*
X151718285Y-120488142D01*
X150689714Y-120488142D02*
X150604000Y-120573857D01*
X150518285Y-120745285D01*
X150518285Y-121002428D01*
X150604000Y-121173857D01*
X150775428Y-121259571D01*
X151718285Y-121259571D01*
X150518285Y-121945285D02*
X151718285Y-122373857D01*
X150518285Y-122802428D01*
X151632571Y-124173857D02*
X151718285Y-124002428D01*
X151718285Y-123659571D01*
X151632571Y-123488142D01*
X151461142Y-123402428D01*
X150775428Y-123402428D01*
X150604000Y-123488142D01*
X150518285Y-123659571D01*
X150518285Y-124002428D01*
X150604000Y-124173857D01*
X150775428Y-124259571D01*
X150946857Y-124259571D01*
X151118285Y-123402428D01*
X151718285Y-125031000D02*
X150518285Y-125031000D01*
X150861142Y-125031000D02*
X150689714Y-125116714D01*
X150604000Y-125202428D01*
X150518285Y-125373857D01*
X150518285Y-125545285D01*
X150518285Y-125888142D02*
X150518285Y-126573857D01*
X149918285Y-126145285D02*
X151461142Y-126145285D01*
X151632571Y-126231000D01*
X151718285Y-126402428D01*
X151718285Y-126573857D01*
X151632571Y-127859571D02*
X151718285Y-127688142D01*
X151718285Y-127345285D01*
X151632571Y-127173857D01*
X151461142Y-127088142D01*
X150775428Y-127088142D01*
X150604000Y-127173857D01*
X150518285Y-127345285D01*
X150518285Y-127688142D01*
X150604000Y-127859571D01*
X150775428Y-127945285D01*
X150946857Y-127945285D01*
X151118285Y-127088142D01*
X151718285Y-128716714D02*
X150518285Y-128716714D01*
X150861142Y-128716714D02*
X150689714Y-128802428D01*
X150604000Y-128888142D01*
X150518285Y-129059571D01*
X150518285Y-129231000D01*
X103775428Y-94859571D02*
X103775428Y-95459571D01*
X104718285Y-95716714D02*
X104718285Y-94859571D01*
X102918285Y-94859571D01*
X102918285Y-95716714D01*
X104632571Y-96402428D02*
X104718285Y-96659571D01*
X104718285Y-97088142D01*
X104632571Y-97259571D01*
X104546857Y-97345285D01*
X104375428Y-97431000D01*
X104204000Y-97431000D01*
X104032571Y-97345285D01*
X103946857Y-97259571D01*
X103861142Y-97088142D01*
X103775428Y-96745285D01*
X103689714Y-96573857D01*
X103604000Y-96488142D01*
X103432571Y-96402428D01*
X103261142Y-96402428D01*
X103089714Y-96488142D01*
X103004000Y-96573857D01*
X102918285Y-96745285D01*
X102918285Y-97173857D01*
X103004000Y-97431000D01*
X104718285Y-98202428D02*
X102918285Y-98202428D01*
X102918285Y-98888142D01*
X103004000Y-99059571D01*
X103089714Y-99145285D01*
X103261142Y-99231000D01*
X103518285Y-99231000D01*
X103689714Y-99145285D01*
X103775428Y-99059571D01*
X103861142Y-98888142D01*
X103861142Y-98202428D01*
X102918285Y-99831000D02*
X102918285Y-100945285D01*
X103604000Y-100345285D01*
X103604000Y-100602428D01*
X103689714Y-100773857D01*
X103775428Y-100859571D01*
X103946857Y-100945285D01*
X104375428Y-100945285D01*
X104546857Y-100859571D01*
X104632571Y-100773857D01*
X104718285Y-100602428D01*
X104718285Y-100088142D01*
X104632571Y-99916714D01*
X104546857Y-99831000D01*
X103089714Y-101631000D02*
X103004000Y-101716714D01*
X102918285Y-101888142D01*
X102918285Y-102316714D01*
X103004000Y-102488142D01*
X103089714Y-102573857D01*
X103261142Y-102659571D01*
X103432571Y-102659571D01*
X103689714Y-102573857D01*
X104718285Y-101545285D01*
X104718285Y-102659571D01*
X104032571Y-103431000D02*
X104032571Y-104802428D01*
X102918285Y-105488142D02*
X104718285Y-105916714D01*
X103432571Y-106259571D01*
X104718285Y-106602428D01*
X102918285Y-107031000D01*
X104718285Y-108745285D02*
X103861142Y-108145285D01*
X104718285Y-107716714D02*
X102918285Y-107716714D01*
X102918285Y-108402428D01*
X103004000Y-108573857D01*
X103089714Y-108659571D01*
X103261142Y-108745285D01*
X103518285Y-108745285D01*
X103689714Y-108659571D01*
X103775428Y-108573857D01*
X103861142Y-108402428D01*
X103861142Y-107716714D01*
X102918285Y-109859571D02*
X102918285Y-110202428D01*
X103004000Y-110373857D01*
X103175428Y-110545285D01*
X103518285Y-110630999D01*
X104118285Y-110630999D01*
X104461142Y-110545285D01*
X104632571Y-110373857D01*
X104718285Y-110202428D01*
X104718285Y-109859571D01*
X104632571Y-109688142D01*
X104461142Y-109516714D01*
X104118285Y-109431000D01*
X103518285Y-109431000D01*
X103175428Y-109516714D01*
X103004000Y-109688142D01*
X102918285Y-109859571D01*
X102918285Y-111745285D02*
X102918285Y-112088142D01*
X103004000Y-112259571D01*
X103175428Y-112430999D01*
X103518285Y-112516714D01*
X104118285Y-112516714D01*
X104461142Y-112430999D01*
X104632571Y-112259571D01*
X104718285Y-112088142D01*
X104718285Y-111745285D01*
X104632571Y-111573857D01*
X104461142Y-111402428D01*
X104118285Y-111316714D01*
X103518285Y-111316714D01*
X103175428Y-111402428D01*
X103004000Y-111573857D01*
X102918285Y-111745285D01*
X104718285Y-113288142D02*
X102918285Y-113288142D01*
X104204000Y-113888142D01*
X102918285Y-114488142D01*
X104718285Y-114488142D01*
X104032571Y-115345285D02*
X104032571Y-116716714D01*
X102918285Y-117402428D02*
X102918285Y-118516714D01*
X103604000Y-117916714D01*
X103604000Y-118173857D01*
X103689714Y-118345285D01*
X103775428Y-118430999D01*
X103946857Y-118516714D01*
X104375428Y-118516714D01*
X104546857Y-118430999D01*
X104632571Y-118345285D01*
X104718285Y-118173857D01*
X104718285Y-117659571D01*
X104632571Y-117488142D01*
X104546857Y-117402428D01*
X103089714Y-119202428D02*
X103004000Y-119288142D01*
X102918285Y-119459571D01*
X102918285Y-119888142D01*
X103004000Y-120059571D01*
X103089714Y-120145285D01*
X103261142Y-120230999D01*
X103432571Y-120230999D01*
X103689714Y-120145285D01*
X104718285Y-119116714D01*
X104718285Y-120230999D01*
X105918285Y-94859571D02*
X107375428Y-94859571D01*
X107546857Y-94945285D01*
X107632571Y-95031000D01*
X107718285Y-95202428D01*
X107718285Y-95545285D01*
X107632571Y-95716714D01*
X107546857Y-95802428D01*
X107375428Y-95888142D01*
X105918285Y-95888142D01*
X107204000Y-96659571D02*
X107204000Y-97516714D01*
X107718285Y-96488142D02*
X105918285Y-97088142D01*
X107718285Y-97688142D01*
X107718285Y-99316714D02*
X106861142Y-98716714D01*
X107718285Y-98288142D02*
X105918285Y-98288142D01*
X105918285Y-98973857D01*
X106004000Y-99145285D01*
X106089714Y-99231000D01*
X106261142Y-99316714D01*
X106518285Y-99316714D01*
X106689714Y-99231000D01*
X106775428Y-99145285D01*
X106861142Y-98973857D01*
X106861142Y-98288142D01*
X105918285Y-99831000D02*
X105918285Y-100859571D01*
X107718285Y-100345285D02*
X105918285Y-100345285D01*
X106775428Y-103431000D02*
X106861142Y-103688142D01*
X106946857Y-103773857D01*
X107118285Y-103859571D01*
X107375428Y-103859571D01*
X107546857Y-103773857D01*
X107632571Y-103688142D01*
X107718285Y-103516714D01*
X107718285Y-102831000D01*
X105918285Y-102831000D01*
X105918285Y-103431000D01*
X106004000Y-103602428D01*
X106089714Y-103688142D01*
X106261142Y-103773857D01*
X106432571Y-103773857D01*
X106604000Y-103688142D01*
X106689714Y-103602428D01*
X106775428Y-103431000D01*
X106775428Y-102831000D01*
X107718285Y-104888142D02*
X107632571Y-104716714D01*
X107461142Y-104631000D01*
X105918285Y-104631000D01*
X106518285Y-106345285D02*
X107718285Y-106345285D01*
X106518285Y-105573857D02*
X107461142Y-105573857D01*
X107632571Y-105659571D01*
X107718285Y-105831000D01*
X107718285Y-106088142D01*
X107632571Y-106259571D01*
X107546857Y-106345285D01*
X107632571Y-107888142D02*
X107718285Y-107716714D01*
X107718285Y-107373857D01*
X107632571Y-107202428D01*
X107461142Y-107116714D01*
X106775428Y-107116714D01*
X106604000Y-107202428D01*
X106518285Y-107373857D01*
X106518285Y-107716714D01*
X106604000Y-107888142D01*
X106775428Y-107973857D01*
X106946857Y-107973857D01*
X107118285Y-107116714D01*
X106518285Y-108488142D02*
X106518285Y-109173857D01*
X105918285Y-108745285D02*
X107461142Y-108745285D01*
X107632571Y-108831000D01*
X107718285Y-109002428D01*
X107718285Y-109173857D01*
X107718285Y-110031000D02*
X107632571Y-109859571D01*
X107546857Y-109773857D01*
X107375428Y-109688142D01*
X106861142Y-109688142D01*
X106689714Y-109773857D01*
X106604000Y-109859571D01*
X106518285Y-110031000D01*
X106518285Y-110288142D01*
X106604000Y-110459571D01*
X106689714Y-110545285D01*
X106861142Y-110631000D01*
X107375428Y-110631000D01*
X107546857Y-110545285D01*
X107632571Y-110459571D01*
X107718285Y-110288142D01*
X107718285Y-110031000D01*
X107718285Y-111659571D02*
X107632571Y-111488142D01*
X107546857Y-111402428D01*
X107375428Y-111316714D01*
X106861142Y-111316714D01*
X106689714Y-111402428D01*
X106604000Y-111488142D01*
X106518285Y-111659571D01*
X106518285Y-111916714D01*
X106604000Y-112088142D01*
X106689714Y-112173857D01*
X106861142Y-112259571D01*
X107375428Y-112259571D01*
X107546857Y-112173857D01*
X107632571Y-112088142D01*
X107718285Y-111916714D01*
X107718285Y-111659571D01*
X106518285Y-112773857D02*
X106518285Y-113459571D01*
X105918285Y-113031000D02*
X107461142Y-113031000D01*
X107632571Y-113116714D01*
X107718285Y-113288142D01*
X107718285Y-113459571D01*
X107718285Y-114059571D02*
X105918285Y-114059571D01*
X107718285Y-114831000D02*
X106775428Y-114831000D01*
X106604000Y-114745285D01*
X106518285Y-114573857D01*
X106518285Y-114316714D01*
X106604000Y-114145285D01*
X106689714Y-114059571D01*
X107546857Y-118088142D02*
X107632571Y-118002428D01*
X107718285Y-117745285D01*
X107718285Y-117573857D01*
X107632571Y-117316714D01*
X107461142Y-117145285D01*
X107289714Y-117059571D01*
X106946857Y-116973857D01*
X106689714Y-116973857D01*
X106346857Y-117059571D01*
X106175428Y-117145285D01*
X106004000Y-117316714D01*
X105918285Y-117573857D01*
X105918285Y-117745285D01*
X106004000Y-118002428D01*
X106089714Y-118088142D01*
X107718285Y-119116714D02*
X107632571Y-118945285D01*
X107546857Y-118859571D01*
X107375428Y-118773857D01*
X106861142Y-118773857D01*
X106689714Y-118859571D01*
X106604000Y-118945285D01*
X106518285Y-119116714D01*
X106518285Y-119373857D01*
X106604000Y-119545285D01*
X106689714Y-119631000D01*
X106861142Y-119716714D01*
X107375428Y-119716714D01*
X107546857Y-119631000D01*
X107632571Y-119545285D01*
X107718285Y-119373857D01*
X107718285Y-119116714D01*
X106518285Y-120488142D02*
X107718285Y-120488142D01*
X106689714Y-120488142D02*
X106604000Y-120573857D01*
X106518285Y-120745285D01*
X106518285Y-121002428D01*
X106604000Y-121173857D01*
X106775428Y-121259571D01*
X107718285Y-121259571D01*
X106518285Y-121945285D02*
X107718285Y-122373857D01*
X106518285Y-122802428D01*
X107632571Y-124173857D02*
X107718285Y-124002428D01*
X107718285Y-123659571D01*
X107632571Y-123488142D01*
X107461142Y-123402428D01*
X106775428Y-123402428D01*
X106604000Y-123488142D01*
X106518285Y-123659571D01*
X106518285Y-124002428D01*
X106604000Y-124173857D01*
X106775428Y-124259571D01*
X106946857Y-124259571D01*
X107118285Y-123402428D01*
X107718285Y-125031000D02*
X106518285Y-125031000D01*
X106861142Y-125031000D02*
X106689714Y-125116714D01*
X106604000Y-125202428D01*
X106518285Y-125373857D01*
X106518285Y-125545285D01*
X106518285Y-125888142D02*
X106518285Y-126573857D01*
X105918285Y-126145285D02*
X107461142Y-126145285D01*
X107632571Y-126231000D01*
X107718285Y-126402428D01*
X107718285Y-126573857D01*
X107632571Y-127859571D02*
X107718285Y-127688142D01*
X107718285Y-127345285D01*
X107632571Y-127173857D01*
X107461142Y-127088142D01*
X106775428Y-127088142D01*
X106604000Y-127173857D01*
X106518285Y-127345285D01*
X106518285Y-127688142D01*
X106604000Y-127859571D01*
X106775428Y-127945285D01*
X106946857Y-127945285D01*
X107118285Y-127088142D01*
X107718285Y-128716714D02*
X106518285Y-128716714D01*
X106861142Y-128716714D02*
X106689714Y-128802428D01*
X106604000Y-128888142D01*
X106518285Y-129059571D01*
X106518285Y-129231000D01*
X169775428Y-50859571D02*
X169775428Y-51459571D01*
X170718285Y-51716714D02*
X170718285Y-50859571D01*
X168918285Y-50859571D01*
X168918285Y-51716714D01*
X170632571Y-52402428D02*
X170718285Y-52659571D01*
X170718285Y-53088142D01*
X170632571Y-53259571D01*
X170546857Y-53345285D01*
X170375428Y-53431000D01*
X170204000Y-53431000D01*
X170032571Y-53345285D01*
X169946857Y-53259571D01*
X169861142Y-53088142D01*
X169775428Y-52745285D01*
X169689714Y-52573857D01*
X169604000Y-52488142D01*
X169432571Y-52402428D01*
X169261142Y-52402428D01*
X169089714Y-52488142D01*
X169004000Y-52573857D01*
X168918285Y-52745285D01*
X168918285Y-53173857D01*
X169004000Y-53431000D01*
X170718285Y-54202428D02*
X168918285Y-54202428D01*
X168918285Y-54888142D01*
X169004000Y-55059571D01*
X169089714Y-55145285D01*
X169261142Y-55231000D01*
X169518285Y-55231000D01*
X169689714Y-55145285D01*
X169775428Y-55059571D01*
X169861142Y-54888142D01*
X169861142Y-54202428D01*
X168918285Y-55831000D02*
X168918285Y-56945285D01*
X169604000Y-56345285D01*
X169604000Y-56602428D01*
X169689714Y-56773857D01*
X169775428Y-56859571D01*
X169946857Y-56945285D01*
X170375428Y-56945285D01*
X170546857Y-56859571D01*
X170632571Y-56773857D01*
X170718285Y-56602428D01*
X170718285Y-56088142D01*
X170632571Y-55916714D01*
X170546857Y-55831000D01*
X169089714Y-57631000D02*
X169004000Y-57716714D01*
X168918285Y-57888142D01*
X168918285Y-58316714D01*
X169004000Y-58488142D01*
X169089714Y-58573857D01*
X169261142Y-58659571D01*
X169432571Y-58659571D01*
X169689714Y-58573857D01*
X170718285Y-57545285D01*
X170718285Y-58659571D01*
X170032571Y-59431000D02*
X170032571Y-60802428D01*
X168918285Y-61488142D02*
X170718285Y-61916714D01*
X169432571Y-62259571D01*
X170718285Y-62602428D01*
X168918285Y-63031000D01*
X170718285Y-64745285D02*
X169861142Y-64145285D01*
X170718285Y-63716714D02*
X168918285Y-63716714D01*
X168918285Y-64402428D01*
X169004000Y-64573857D01*
X169089714Y-64659571D01*
X169261142Y-64745285D01*
X169518285Y-64745285D01*
X169689714Y-64659571D01*
X169775428Y-64573857D01*
X169861142Y-64402428D01*
X169861142Y-63716714D01*
X168918285Y-65859571D02*
X168918285Y-66202428D01*
X169004000Y-66373857D01*
X169175428Y-66545285D01*
X169518285Y-66631000D01*
X170118285Y-66631000D01*
X170461142Y-66545285D01*
X170632571Y-66373857D01*
X170718285Y-66202428D01*
X170718285Y-65859571D01*
X170632571Y-65688142D01*
X170461142Y-65516714D01*
X170118285Y-65431000D01*
X169518285Y-65431000D01*
X169175428Y-65516714D01*
X169004000Y-65688142D01*
X168918285Y-65859571D01*
X168918285Y-67745285D02*
X168918285Y-68088142D01*
X169004000Y-68259571D01*
X169175428Y-68431000D01*
X169518285Y-68516714D01*
X170118285Y-68516714D01*
X170461142Y-68431000D01*
X170632571Y-68259571D01*
X170718285Y-68088142D01*
X170718285Y-67745285D01*
X170632571Y-67573857D01*
X170461142Y-67402428D01*
X170118285Y-67316714D01*
X169518285Y-67316714D01*
X169175428Y-67402428D01*
X169004000Y-67573857D01*
X168918285Y-67745285D01*
X170718285Y-69288142D02*
X168918285Y-69288142D01*
X170204000Y-69888142D01*
X168918285Y-70488142D01*
X170718285Y-70488142D01*
X170032571Y-71345285D02*
X170032571Y-72716714D01*
X168918285Y-73402428D02*
X168918285Y-74516714D01*
X169604000Y-73916714D01*
X169604000Y-74173857D01*
X169689714Y-74345285D01*
X169775428Y-74431000D01*
X169946857Y-74516714D01*
X170375428Y-74516714D01*
X170546857Y-74431000D01*
X170632571Y-74345285D01*
X170718285Y-74173857D01*
X170718285Y-73659571D01*
X170632571Y-73488142D01*
X170546857Y-73402428D01*
X169089714Y-75202428D02*
X169004000Y-75288142D01*
X168918285Y-75459571D01*
X168918285Y-75888142D01*
X169004000Y-76059571D01*
X169089714Y-76145285D01*
X169261142Y-76231000D01*
X169432571Y-76231000D01*
X169689714Y-76145285D01*
X170718285Y-75116714D01*
X170718285Y-76231000D01*
X171918285Y-50859571D02*
X173375428Y-50859571D01*
X173546857Y-50945285D01*
X173632571Y-51031000D01*
X173718285Y-51202428D01*
X173718285Y-51545285D01*
X173632571Y-51716714D01*
X173546857Y-51802428D01*
X173375428Y-51888142D01*
X171918285Y-51888142D01*
X173204000Y-52659571D02*
X173204000Y-53516714D01*
X173718285Y-52488142D02*
X171918285Y-53088142D01*
X173718285Y-53688142D01*
X173718285Y-55316714D02*
X172861142Y-54716714D01*
X173718285Y-54288142D02*
X171918285Y-54288142D01*
X171918285Y-54973857D01*
X172004000Y-55145285D01*
X172089714Y-55231000D01*
X172261142Y-55316714D01*
X172518285Y-55316714D01*
X172689714Y-55231000D01*
X172775428Y-55145285D01*
X172861142Y-54973857D01*
X172861142Y-54288142D01*
X171918285Y-55831000D02*
X171918285Y-56859571D01*
X173718285Y-56345285D02*
X171918285Y-56345285D01*
X172775428Y-59431000D02*
X172861142Y-59688142D01*
X172946857Y-59773857D01*
X173118285Y-59859571D01*
X173375428Y-59859571D01*
X173546857Y-59773857D01*
X173632571Y-59688142D01*
X173718285Y-59516714D01*
X173718285Y-58831000D01*
X171918285Y-58831000D01*
X171918285Y-59431000D01*
X172004000Y-59602428D01*
X172089714Y-59688142D01*
X172261142Y-59773857D01*
X172432571Y-59773857D01*
X172604000Y-59688142D01*
X172689714Y-59602428D01*
X172775428Y-59431000D01*
X172775428Y-58831000D01*
X173718285Y-60888142D02*
X173632571Y-60716714D01*
X173461142Y-60631000D01*
X171918285Y-60631000D01*
X172518285Y-62345285D02*
X173718285Y-62345285D01*
X172518285Y-61573857D02*
X173461142Y-61573857D01*
X173632571Y-61659571D01*
X173718285Y-61831000D01*
X173718285Y-62088142D01*
X173632571Y-62259571D01*
X173546857Y-62345285D01*
X173632571Y-63888142D02*
X173718285Y-63716714D01*
X173718285Y-63373857D01*
X173632571Y-63202428D01*
X173461142Y-63116714D01*
X172775428Y-63116714D01*
X172604000Y-63202428D01*
X172518285Y-63373857D01*
X172518285Y-63716714D01*
X172604000Y-63888142D01*
X172775428Y-63973857D01*
X172946857Y-63973857D01*
X173118285Y-63116714D01*
X172518285Y-64488142D02*
X172518285Y-65173857D01*
X171918285Y-64745285D02*
X173461142Y-64745285D01*
X173632571Y-64831000D01*
X173718285Y-65002428D01*
X173718285Y-65173857D01*
X173718285Y-66031000D02*
X173632571Y-65859571D01*
X173546857Y-65773857D01*
X173375428Y-65688142D01*
X172861142Y-65688142D01*
X172689714Y-65773857D01*
X172604000Y-65859571D01*
X172518285Y-66031000D01*
X172518285Y-66288142D01*
X172604000Y-66459571D01*
X172689714Y-66545285D01*
X172861142Y-66631000D01*
X173375428Y-66631000D01*
X173546857Y-66545285D01*
X173632571Y-66459571D01*
X173718285Y-66288142D01*
X173718285Y-66031000D01*
X173718285Y-67659571D02*
X173632571Y-67488142D01*
X173546857Y-67402428D01*
X173375428Y-67316714D01*
X172861142Y-67316714D01*
X172689714Y-67402428D01*
X172604000Y-67488142D01*
X172518285Y-67659571D01*
X172518285Y-67916714D01*
X172604000Y-68088142D01*
X172689714Y-68173857D01*
X172861142Y-68259571D01*
X173375428Y-68259571D01*
X173546857Y-68173857D01*
X173632571Y-68088142D01*
X173718285Y-67916714D01*
X173718285Y-67659571D01*
X172518285Y-68773857D02*
X172518285Y-69459571D01*
X171918285Y-69031000D02*
X173461142Y-69031000D01*
X173632571Y-69116714D01*
X173718285Y-69288142D01*
X173718285Y-69459571D01*
X173718285Y-70059571D02*
X171918285Y-70059571D01*
X173718285Y-70831000D02*
X172775428Y-70831000D01*
X172604000Y-70745285D01*
X172518285Y-70573857D01*
X172518285Y-70316714D01*
X172604000Y-70145285D01*
X172689714Y-70059571D01*
X173546857Y-74088142D02*
X173632571Y-74002428D01*
X173718285Y-73745285D01*
X173718285Y-73573857D01*
X173632571Y-73316714D01*
X173461142Y-73145285D01*
X173289714Y-73059571D01*
X172946857Y-72973857D01*
X172689714Y-72973857D01*
X172346857Y-73059571D01*
X172175428Y-73145285D01*
X172004000Y-73316714D01*
X171918285Y-73573857D01*
X171918285Y-73745285D01*
X172004000Y-74002428D01*
X172089714Y-74088142D01*
X173718285Y-75116714D02*
X173632571Y-74945285D01*
X173546857Y-74859571D01*
X173375428Y-74773857D01*
X172861142Y-74773857D01*
X172689714Y-74859571D01*
X172604000Y-74945285D01*
X172518285Y-75116714D01*
X172518285Y-75373857D01*
X172604000Y-75545285D01*
X172689714Y-75631000D01*
X172861142Y-75716714D01*
X173375428Y-75716714D01*
X173546857Y-75631000D01*
X173632571Y-75545285D01*
X173718285Y-75373857D01*
X173718285Y-75116714D01*
X172518285Y-76488142D02*
X173718285Y-76488142D01*
X172689714Y-76488142D02*
X172604000Y-76573857D01*
X172518285Y-76745285D01*
X172518285Y-77002428D01*
X172604000Y-77173857D01*
X172775428Y-77259571D01*
X173718285Y-77259571D01*
X172518285Y-77945285D02*
X173718285Y-78373857D01*
X172518285Y-78802428D01*
X173632571Y-80173857D02*
X173718285Y-80002428D01*
X173718285Y-79659571D01*
X173632571Y-79488142D01*
X173461142Y-79402428D01*
X172775428Y-79402428D01*
X172604000Y-79488142D01*
X172518285Y-79659571D01*
X172518285Y-80002428D01*
X172604000Y-80173857D01*
X172775428Y-80259571D01*
X172946857Y-80259571D01*
X173118285Y-79402428D01*
X173718285Y-81031000D02*
X172518285Y-81031000D01*
X172861142Y-81031000D02*
X172689714Y-81116714D01*
X172604000Y-81202428D01*
X172518285Y-81373857D01*
X172518285Y-81545285D01*
X172518285Y-81888142D02*
X172518285Y-82573857D01*
X171918285Y-82145285D02*
X173461142Y-82145285D01*
X173632571Y-82231000D01*
X173718285Y-82402428D01*
X173718285Y-82573857D01*
X173632571Y-83859571D02*
X173718285Y-83688142D01*
X173718285Y-83345285D01*
X173632571Y-83173857D01*
X173461142Y-83088142D01*
X172775428Y-83088142D01*
X172604000Y-83173857D01*
X172518285Y-83345285D01*
X172518285Y-83688142D01*
X172604000Y-83859571D01*
X172775428Y-83945285D01*
X172946857Y-83945285D01*
X173118285Y-83088142D01*
X173718285Y-84716714D02*
X172518285Y-84716714D01*
X172861142Y-84716714D02*
X172689714Y-84802428D01*
X172604000Y-84888142D01*
X172518285Y-85059571D01*
X172518285Y-85231000D01*
X147775428Y-50859571D02*
X147775428Y-51459571D01*
X148718285Y-51716714D02*
X148718285Y-50859571D01*
X146918285Y-50859571D01*
X146918285Y-51716714D01*
X148632571Y-52402428D02*
X148718285Y-52659571D01*
X148718285Y-53088142D01*
X148632571Y-53259571D01*
X148546857Y-53345285D01*
X148375428Y-53431000D01*
X148204000Y-53431000D01*
X148032571Y-53345285D01*
X147946857Y-53259571D01*
X147861142Y-53088142D01*
X147775428Y-52745285D01*
X147689714Y-52573857D01*
X147604000Y-52488142D01*
X147432571Y-52402428D01*
X147261142Y-52402428D01*
X147089714Y-52488142D01*
X147004000Y-52573857D01*
X146918285Y-52745285D01*
X146918285Y-53173857D01*
X147004000Y-53431000D01*
X148718285Y-54202428D02*
X146918285Y-54202428D01*
X146918285Y-54888142D01*
X147004000Y-55059571D01*
X147089714Y-55145285D01*
X147261142Y-55231000D01*
X147518285Y-55231000D01*
X147689714Y-55145285D01*
X147775428Y-55059571D01*
X147861142Y-54888142D01*
X147861142Y-54202428D01*
X146918285Y-55831000D02*
X146918285Y-56945285D01*
X147604000Y-56345285D01*
X147604000Y-56602428D01*
X147689714Y-56773857D01*
X147775428Y-56859571D01*
X147946857Y-56945285D01*
X148375428Y-56945285D01*
X148546857Y-56859571D01*
X148632571Y-56773857D01*
X148718285Y-56602428D01*
X148718285Y-56088142D01*
X148632571Y-55916714D01*
X148546857Y-55831000D01*
X147089714Y-57631000D02*
X147004000Y-57716714D01*
X146918285Y-57888142D01*
X146918285Y-58316714D01*
X147004000Y-58488142D01*
X147089714Y-58573857D01*
X147261142Y-58659571D01*
X147432571Y-58659571D01*
X147689714Y-58573857D01*
X148718285Y-57545285D01*
X148718285Y-58659571D01*
X148032571Y-59431000D02*
X148032571Y-60802428D01*
X146918285Y-61488142D02*
X148718285Y-61916714D01*
X147432571Y-62259571D01*
X148718285Y-62602428D01*
X146918285Y-63031000D01*
X148718285Y-64745285D02*
X147861142Y-64145285D01*
X148718285Y-63716714D02*
X146918285Y-63716714D01*
X146918285Y-64402428D01*
X147004000Y-64573857D01*
X147089714Y-64659571D01*
X147261142Y-64745285D01*
X147518285Y-64745285D01*
X147689714Y-64659571D01*
X147775428Y-64573857D01*
X147861142Y-64402428D01*
X147861142Y-63716714D01*
X146918285Y-65859571D02*
X146918285Y-66202428D01*
X147004000Y-66373857D01*
X147175428Y-66545285D01*
X147518285Y-66630999D01*
X148118285Y-66630999D01*
X148461142Y-66545285D01*
X148632571Y-66373857D01*
X148718285Y-66202428D01*
X148718285Y-65859571D01*
X148632571Y-65688142D01*
X148461142Y-65516714D01*
X148118285Y-65431000D01*
X147518285Y-65431000D01*
X147175428Y-65516714D01*
X147004000Y-65688142D01*
X146918285Y-65859571D01*
X146918285Y-67745285D02*
X146918285Y-68088142D01*
X147004000Y-68259571D01*
X147175428Y-68430999D01*
X147518285Y-68516714D01*
X148118285Y-68516714D01*
X148461142Y-68430999D01*
X148632571Y-68259571D01*
X148718285Y-68088142D01*
X148718285Y-67745285D01*
X148632571Y-67573857D01*
X148461142Y-67402428D01*
X148118285Y-67316714D01*
X147518285Y-67316714D01*
X147175428Y-67402428D01*
X147004000Y-67573857D01*
X146918285Y-67745285D01*
X148718285Y-69288142D02*
X146918285Y-69288142D01*
X148204000Y-69888142D01*
X146918285Y-70488142D01*
X148718285Y-70488142D01*
X148032571Y-71345285D02*
X148032571Y-72716714D01*
X146918285Y-73402428D02*
X146918285Y-74516714D01*
X147604000Y-73916714D01*
X147604000Y-74173857D01*
X147689714Y-74345285D01*
X147775428Y-74430999D01*
X147946857Y-74516714D01*
X148375428Y-74516714D01*
X148546857Y-74430999D01*
X148632571Y-74345285D01*
X148718285Y-74173857D01*
X148718285Y-73659571D01*
X148632571Y-73488142D01*
X148546857Y-73402428D01*
X147089714Y-75202428D02*
X147004000Y-75288142D01*
X146918285Y-75459571D01*
X146918285Y-75888142D01*
X147004000Y-76059571D01*
X147089714Y-76145285D01*
X147261142Y-76230999D01*
X147432571Y-76230999D01*
X147689714Y-76145285D01*
X148718285Y-75116714D01*
X148718285Y-76230999D01*
X149918285Y-50859571D02*
X151375428Y-50859571D01*
X151546857Y-50945285D01*
X151632571Y-51031000D01*
X151718285Y-51202428D01*
X151718285Y-51545285D01*
X151632571Y-51716714D01*
X151546857Y-51802428D01*
X151375428Y-51888142D01*
X149918285Y-51888142D01*
X151204000Y-52659571D02*
X151204000Y-53516714D01*
X151718285Y-52488142D02*
X149918285Y-53088142D01*
X151718285Y-53688142D01*
X151718285Y-55316714D02*
X150861142Y-54716714D01*
X151718285Y-54288142D02*
X149918285Y-54288142D01*
X149918285Y-54973857D01*
X150004000Y-55145285D01*
X150089714Y-55231000D01*
X150261142Y-55316714D01*
X150518285Y-55316714D01*
X150689714Y-55231000D01*
X150775428Y-55145285D01*
X150861142Y-54973857D01*
X150861142Y-54288142D01*
X149918285Y-55831000D02*
X149918285Y-56859571D01*
X151718285Y-56345285D02*
X149918285Y-56345285D01*
X150775428Y-59431000D02*
X150861142Y-59688142D01*
X150946857Y-59773857D01*
X151118285Y-59859571D01*
X151375428Y-59859571D01*
X151546857Y-59773857D01*
X151632571Y-59688142D01*
X151718285Y-59516714D01*
X151718285Y-58831000D01*
X149918285Y-58831000D01*
X149918285Y-59431000D01*
X150004000Y-59602428D01*
X150089714Y-59688142D01*
X150261142Y-59773857D01*
X150432571Y-59773857D01*
X150604000Y-59688142D01*
X150689714Y-59602428D01*
X150775428Y-59431000D01*
X150775428Y-58831000D01*
X151718285Y-60888142D02*
X151632571Y-60716714D01*
X151461142Y-60631000D01*
X149918285Y-60631000D01*
X150518285Y-62345285D02*
X151718285Y-62345285D01*
X150518285Y-61573857D02*
X151461142Y-61573857D01*
X151632571Y-61659571D01*
X151718285Y-61831000D01*
X151718285Y-62088142D01*
X151632571Y-62259571D01*
X151546857Y-62345285D01*
X151632571Y-63888142D02*
X151718285Y-63716714D01*
X151718285Y-63373857D01*
X151632571Y-63202428D01*
X151461142Y-63116714D01*
X150775428Y-63116714D01*
X150604000Y-63202428D01*
X150518285Y-63373857D01*
X150518285Y-63716714D01*
X150604000Y-63888142D01*
X150775428Y-63973857D01*
X150946857Y-63973857D01*
X151118285Y-63116714D01*
X150518285Y-64488142D02*
X150518285Y-65173857D01*
X149918285Y-64745285D02*
X151461142Y-64745285D01*
X151632571Y-64831000D01*
X151718285Y-65002428D01*
X151718285Y-65173857D01*
X151718285Y-66031000D02*
X151632571Y-65859571D01*
X151546857Y-65773857D01*
X151375428Y-65688142D01*
X150861142Y-65688142D01*
X150689714Y-65773857D01*
X150604000Y-65859571D01*
X150518285Y-66031000D01*
X150518285Y-66288142D01*
X150604000Y-66459571D01*
X150689714Y-66545285D01*
X150861142Y-66631000D01*
X151375428Y-66631000D01*
X151546857Y-66545285D01*
X151632571Y-66459571D01*
X151718285Y-66288142D01*
X151718285Y-66031000D01*
X151718285Y-67659571D02*
X151632571Y-67488142D01*
X151546857Y-67402428D01*
X151375428Y-67316714D01*
X150861142Y-67316714D01*
X150689714Y-67402428D01*
X150604000Y-67488142D01*
X150518285Y-67659571D01*
X150518285Y-67916714D01*
X150604000Y-68088142D01*
X150689714Y-68173857D01*
X150861142Y-68259571D01*
X151375428Y-68259571D01*
X151546857Y-68173857D01*
X151632571Y-68088142D01*
X151718285Y-67916714D01*
X151718285Y-67659571D01*
X150518285Y-68773857D02*
X150518285Y-69459571D01*
X149918285Y-69031000D02*
X151461142Y-69031000D01*
X151632571Y-69116714D01*
X151718285Y-69288142D01*
X151718285Y-69459571D01*
X151718285Y-70059571D02*
X149918285Y-70059571D01*
X151718285Y-70831000D02*
X150775428Y-70831000D01*
X150604000Y-70745285D01*
X150518285Y-70573857D01*
X150518285Y-70316714D01*
X150604000Y-70145285D01*
X150689714Y-70059571D01*
X151546857Y-74088142D02*
X151632571Y-74002428D01*
X151718285Y-73745285D01*
X151718285Y-73573857D01*
X151632571Y-73316714D01*
X151461142Y-73145285D01*
X151289714Y-73059571D01*
X150946857Y-72973857D01*
X150689714Y-72973857D01*
X150346857Y-73059571D01*
X150175428Y-73145285D01*
X150004000Y-73316714D01*
X149918285Y-73573857D01*
X149918285Y-73745285D01*
X150004000Y-74002428D01*
X150089714Y-74088142D01*
X151718285Y-75116714D02*
X151632571Y-74945285D01*
X151546857Y-74859571D01*
X151375428Y-74773857D01*
X150861142Y-74773857D01*
X150689714Y-74859571D01*
X150604000Y-74945285D01*
X150518285Y-75116714D01*
X150518285Y-75373857D01*
X150604000Y-75545285D01*
X150689714Y-75631000D01*
X150861142Y-75716714D01*
X151375428Y-75716714D01*
X151546857Y-75631000D01*
X151632571Y-75545285D01*
X151718285Y-75373857D01*
X151718285Y-75116714D01*
X150518285Y-76488142D02*
X151718285Y-76488142D01*
X150689714Y-76488142D02*
X150604000Y-76573857D01*
X150518285Y-76745285D01*
X150518285Y-77002428D01*
X150604000Y-77173857D01*
X150775428Y-77259571D01*
X151718285Y-77259571D01*
X150518285Y-77945285D02*
X151718285Y-78373857D01*
X150518285Y-78802428D01*
X151632571Y-80173857D02*
X151718285Y-80002428D01*
X151718285Y-79659571D01*
X151632571Y-79488142D01*
X151461142Y-79402428D01*
X150775428Y-79402428D01*
X150604000Y-79488142D01*
X150518285Y-79659571D01*
X150518285Y-80002428D01*
X150604000Y-80173857D01*
X150775428Y-80259571D01*
X150946857Y-80259571D01*
X151118285Y-79402428D01*
X151718285Y-81031000D02*
X150518285Y-81031000D01*
X150861142Y-81031000D02*
X150689714Y-81116714D01*
X150604000Y-81202428D01*
X150518285Y-81373857D01*
X150518285Y-81545285D01*
X150518285Y-81888142D02*
X150518285Y-82573857D01*
X149918285Y-82145285D02*
X151461142Y-82145285D01*
X151632571Y-82231000D01*
X151718285Y-82402428D01*
X151718285Y-82573857D01*
X151632571Y-83859571D02*
X151718285Y-83688142D01*
X151718285Y-83345285D01*
X151632571Y-83173857D01*
X151461142Y-83088142D01*
X150775428Y-83088142D01*
X150604000Y-83173857D01*
X150518285Y-83345285D01*
X150518285Y-83688142D01*
X150604000Y-83859571D01*
X150775428Y-83945285D01*
X150946857Y-83945285D01*
X151118285Y-83088142D01*
X151718285Y-84716714D02*
X150518285Y-84716714D01*
X150861142Y-84716714D02*
X150689714Y-84802428D01*
X150604000Y-84888142D01*
X150518285Y-85059571D01*
X150518285Y-85231000D01*
X125775428Y-50859571D02*
X125775428Y-51459571D01*
X126718285Y-51716714D02*
X126718285Y-50859571D01*
X124918285Y-50859571D01*
X124918285Y-51716714D01*
X126632571Y-52402428D02*
X126718285Y-52659571D01*
X126718285Y-53088142D01*
X126632571Y-53259571D01*
X126546857Y-53345285D01*
X126375428Y-53431000D01*
X126204000Y-53431000D01*
X126032571Y-53345285D01*
X125946857Y-53259571D01*
X125861142Y-53088142D01*
X125775428Y-52745285D01*
X125689714Y-52573857D01*
X125604000Y-52488142D01*
X125432571Y-52402428D01*
X125261142Y-52402428D01*
X125089714Y-52488142D01*
X125004000Y-52573857D01*
X124918285Y-52745285D01*
X124918285Y-53173857D01*
X125004000Y-53431000D01*
X126718285Y-54202428D02*
X124918285Y-54202428D01*
X124918285Y-54888142D01*
X125004000Y-55059571D01*
X125089714Y-55145285D01*
X125261142Y-55231000D01*
X125518285Y-55231000D01*
X125689714Y-55145285D01*
X125775428Y-55059571D01*
X125861142Y-54888142D01*
X125861142Y-54202428D01*
X124918285Y-55831000D02*
X124918285Y-56945285D01*
X125604000Y-56345285D01*
X125604000Y-56602428D01*
X125689714Y-56773857D01*
X125775428Y-56859571D01*
X125946857Y-56945285D01*
X126375428Y-56945285D01*
X126546857Y-56859571D01*
X126632571Y-56773857D01*
X126718285Y-56602428D01*
X126718285Y-56088142D01*
X126632571Y-55916714D01*
X126546857Y-55831000D01*
X125089714Y-57631000D02*
X125004000Y-57716714D01*
X124918285Y-57888142D01*
X124918285Y-58316714D01*
X125004000Y-58488142D01*
X125089714Y-58573857D01*
X125261142Y-58659571D01*
X125432571Y-58659571D01*
X125689714Y-58573857D01*
X126718285Y-57545285D01*
X126718285Y-58659571D01*
X126032571Y-59431000D02*
X126032571Y-60802428D01*
X124918285Y-61488142D02*
X126718285Y-61916714D01*
X125432571Y-62259571D01*
X126718285Y-62602428D01*
X124918285Y-63031000D01*
X126718285Y-64745285D02*
X125861142Y-64145285D01*
X126718285Y-63716714D02*
X124918285Y-63716714D01*
X124918285Y-64402428D01*
X125004000Y-64573857D01*
X125089714Y-64659571D01*
X125261142Y-64745285D01*
X125518285Y-64745285D01*
X125689714Y-64659571D01*
X125775428Y-64573857D01*
X125861142Y-64402428D01*
X125861142Y-63716714D01*
X124918285Y-65859571D02*
X124918285Y-66202428D01*
X125004000Y-66373857D01*
X125175428Y-66545285D01*
X125518285Y-66630999D01*
X126118285Y-66630999D01*
X126461142Y-66545285D01*
X126632571Y-66373857D01*
X126718285Y-66202428D01*
X126718285Y-65859571D01*
X126632571Y-65688142D01*
X126461142Y-65516714D01*
X126118285Y-65431000D01*
X125518285Y-65431000D01*
X125175428Y-65516714D01*
X125004000Y-65688142D01*
X124918285Y-65859571D01*
X124918285Y-67745285D02*
X124918285Y-68088142D01*
X125004000Y-68259571D01*
X125175428Y-68430999D01*
X125518285Y-68516714D01*
X126118285Y-68516714D01*
X126461142Y-68430999D01*
X126632571Y-68259571D01*
X126718285Y-68088142D01*
X126718285Y-67745285D01*
X126632571Y-67573857D01*
X126461142Y-67402428D01*
X126118285Y-67316714D01*
X125518285Y-67316714D01*
X125175428Y-67402428D01*
X125004000Y-67573857D01*
X124918285Y-67745285D01*
X126718285Y-69288142D02*
X124918285Y-69288142D01*
X126204000Y-69888142D01*
X124918285Y-70488142D01*
X126718285Y-70488142D01*
X126032571Y-71345285D02*
X126032571Y-72716714D01*
X124918285Y-73402428D02*
X124918285Y-74516714D01*
X125604000Y-73916714D01*
X125604000Y-74173857D01*
X125689714Y-74345285D01*
X125775428Y-74430999D01*
X125946857Y-74516714D01*
X126375428Y-74516714D01*
X126546857Y-74430999D01*
X126632571Y-74345285D01*
X126718285Y-74173857D01*
X126718285Y-73659571D01*
X126632571Y-73488142D01*
X126546857Y-73402428D01*
X125089714Y-75202428D02*
X125004000Y-75288142D01*
X124918285Y-75459571D01*
X124918285Y-75888142D01*
X125004000Y-76059571D01*
X125089714Y-76145285D01*
X125261142Y-76230999D01*
X125432571Y-76230999D01*
X125689714Y-76145285D01*
X126718285Y-75116714D01*
X126718285Y-76230999D01*
X127918285Y-50859571D02*
X129375428Y-50859571D01*
X129546857Y-50945285D01*
X129632571Y-51031000D01*
X129718285Y-51202428D01*
X129718285Y-51545285D01*
X129632571Y-51716714D01*
X129546857Y-51802428D01*
X129375428Y-51888142D01*
X127918285Y-51888142D01*
X129204000Y-52659571D02*
X129204000Y-53516714D01*
X129718285Y-52488142D02*
X127918285Y-53088142D01*
X129718285Y-53688142D01*
X129718285Y-55316714D02*
X128861142Y-54716714D01*
X129718285Y-54288142D02*
X127918285Y-54288142D01*
X127918285Y-54973857D01*
X128004000Y-55145285D01*
X128089714Y-55231000D01*
X128261142Y-55316714D01*
X128518285Y-55316714D01*
X128689714Y-55231000D01*
X128775428Y-55145285D01*
X128861142Y-54973857D01*
X128861142Y-54288142D01*
X127918285Y-55831000D02*
X127918285Y-56859571D01*
X129718285Y-56345285D02*
X127918285Y-56345285D01*
X128775428Y-59431000D02*
X128861142Y-59688142D01*
X128946857Y-59773857D01*
X129118285Y-59859571D01*
X129375428Y-59859571D01*
X129546857Y-59773857D01*
X129632571Y-59688142D01*
X129718285Y-59516714D01*
X129718285Y-58831000D01*
X127918285Y-58831000D01*
X127918285Y-59431000D01*
X128004000Y-59602428D01*
X128089714Y-59688142D01*
X128261142Y-59773857D01*
X128432571Y-59773857D01*
X128604000Y-59688142D01*
X128689714Y-59602428D01*
X128775428Y-59431000D01*
X128775428Y-58831000D01*
X129718285Y-60888142D02*
X129632571Y-60716714D01*
X129461142Y-60631000D01*
X127918285Y-60631000D01*
X128518285Y-62345285D02*
X129718285Y-62345285D01*
X128518285Y-61573857D02*
X129461142Y-61573857D01*
X129632571Y-61659571D01*
X129718285Y-61831000D01*
X129718285Y-62088142D01*
X129632571Y-62259571D01*
X129546857Y-62345285D01*
X129632571Y-63888142D02*
X129718285Y-63716714D01*
X129718285Y-63373857D01*
X129632571Y-63202428D01*
X129461142Y-63116714D01*
X128775428Y-63116714D01*
X128604000Y-63202428D01*
X128518285Y-63373857D01*
X128518285Y-63716714D01*
X128604000Y-63888142D01*
X128775428Y-63973857D01*
X128946857Y-63973857D01*
X129118285Y-63116714D01*
X128518285Y-64488142D02*
X128518285Y-65173857D01*
X127918285Y-64745285D02*
X129461142Y-64745285D01*
X129632571Y-64831000D01*
X129718285Y-65002428D01*
X129718285Y-65173857D01*
X129718285Y-66031000D02*
X129632571Y-65859571D01*
X129546857Y-65773857D01*
X129375428Y-65688142D01*
X128861142Y-65688142D01*
X128689714Y-65773857D01*
X128604000Y-65859571D01*
X128518285Y-66031000D01*
X128518285Y-66288142D01*
X128604000Y-66459571D01*
X128689714Y-66545285D01*
X128861142Y-66631000D01*
X129375428Y-66631000D01*
X129546857Y-66545285D01*
X129632571Y-66459571D01*
X129718285Y-66288142D01*
X129718285Y-66031000D01*
X129718285Y-67659571D02*
X129632571Y-67488142D01*
X129546857Y-67402428D01*
X129375428Y-67316714D01*
X128861142Y-67316714D01*
X128689714Y-67402428D01*
X128604000Y-67488142D01*
X128518285Y-67659571D01*
X128518285Y-67916714D01*
X128604000Y-68088142D01*
X128689714Y-68173857D01*
X128861142Y-68259571D01*
X129375428Y-68259571D01*
X129546857Y-68173857D01*
X129632571Y-68088142D01*
X129718285Y-67916714D01*
X129718285Y-67659571D01*
X128518285Y-68773857D02*
X128518285Y-69459571D01*
X127918285Y-69031000D02*
X129461142Y-69031000D01*
X129632571Y-69116714D01*
X129718285Y-69288142D01*
X129718285Y-69459571D01*
X129718285Y-70059571D02*
X127918285Y-70059571D01*
X129718285Y-70831000D02*
X128775428Y-70831000D01*
X128604000Y-70745285D01*
X128518285Y-70573857D01*
X128518285Y-70316714D01*
X128604000Y-70145285D01*
X128689714Y-70059571D01*
X129546857Y-74088142D02*
X129632571Y-74002428D01*
X129718285Y-73745285D01*
X129718285Y-73573857D01*
X129632571Y-73316714D01*
X129461142Y-73145285D01*
X129289714Y-73059571D01*
X128946857Y-72973857D01*
X128689714Y-72973857D01*
X128346857Y-73059571D01*
X128175428Y-73145285D01*
X128004000Y-73316714D01*
X127918285Y-73573857D01*
X127918285Y-73745285D01*
X128004000Y-74002428D01*
X128089714Y-74088142D01*
X129718285Y-75116714D02*
X129632571Y-74945285D01*
X129546857Y-74859571D01*
X129375428Y-74773857D01*
X128861142Y-74773857D01*
X128689714Y-74859571D01*
X128604000Y-74945285D01*
X128518285Y-75116714D01*
X128518285Y-75373857D01*
X128604000Y-75545285D01*
X128689714Y-75631000D01*
X128861142Y-75716714D01*
X129375428Y-75716714D01*
X129546857Y-75631000D01*
X129632571Y-75545285D01*
X129718285Y-75373857D01*
X129718285Y-75116714D01*
X128518285Y-76488142D02*
X129718285Y-76488142D01*
X128689714Y-76488142D02*
X128604000Y-76573857D01*
X128518285Y-76745285D01*
X128518285Y-77002428D01*
X128604000Y-77173857D01*
X128775428Y-77259571D01*
X129718285Y-77259571D01*
X128518285Y-77945285D02*
X129718285Y-78373857D01*
X128518285Y-78802428D01*
X129632571Y-80173857D02*
X129718285Y-80002428D01*
X129718285Y-79659571D01*
X129632571Y-79488142D01*
X129461142Y-79402428D01*
X128775428Y-79402428D01*
X128604000Y-79488142D01*
X128518285Y-79659571D01*
X128518285Y-80002428D01*
X128604000Y-80173857D01*
X128775428Y-80259571D01*
X128946857Y-80259571D01*
X129118285Y-79402428D01*
X129718285Y-81031000D02*
X128518285Y-81031000D01*
X128861142Y-81031000D02*
X128689714Y-81116714D01*
X128604000Y-81202428D01*
X128518285Y-81373857D01*
X128518285Y-81545285D01*
X128518285Y-81888142D02*
X128518285Y-82573857D01*
X127918285Y-82145285D02*
X129461142Y-82145285D01*
X129632571Y-82231000D01*
X129718285Y-82402428D01*
X129718285Y-82573857D01*
X129632571Y-83859571D02*
X129718285Y-83688142D01*
X129718285Y-83345285D01*
X129632571Y-83173857D01*
X129461142Y-83088142D01*
X128775428Y-83088142D01*
X128604000Y-83173857D01*
X128518285Y-83345285D01*
X128518285Y-83688142D01*
X128604000Y-83859571D01*
X128775428Y-83945285D01*
X128946857Y-83945285D01*
X129118285Y-83088142D01*
X129718285Y-84716714D02*
X128518285Y-84716714D01*
X128861142Y-84716714D02*
X128689714Y-84802428D01*
X128604000Y-84888142D01*
X128518285Y-85059571D01*
X128518285Y-85231000D01*
X103775428Y-50859571D02*
X103775428Y-51459571D01*
X104718285Y-51716714D02*
X104718285Y-50859571D01*
X102918285Y-50859571D01*
X102918285Y-51716714D01*
X104632571Y-52402428D02*
X104718285Y-52659571D01*
X104718285Y-53088142D01*
X104632571Y-53259571D01*
X104546857Y-53345285D01*
X104375428Y-53431000D01*
X104204000Y-53431000D01*
X104032571Y-53345285D01*
X103946857Y-53259571D01*
X103861142Y-53088142D01*
X103775428Y-52745285D01*
X103689714Y-52573857D01*
X103604000Y-52488142D01*
X103432571Y-52402428D01*
X103261142Y-52402428D01*
X103089714Y-52488142D01*
X103004000Y-52573857D01*
X102918285Y-52745285D01*
X102918285Y-53173857D01*
X103004000Y-53431000D01*
X104718285Y-54202428D02*
X102918285Y-54202428D01*
X102918285Y-54888142D01*
X103004000Y-55059571D01*
X103089714Y-55145285D01*
X103261142Y-55231000D01*
X103518285Y-55231000D01*
X103689714Y-55145285D01*
X103775428Y-55059571D01*
X103861142Y-54888142D01*
X103861142Y-54202428D01*
X102918285Y-55831000D02*
X102918285Y-56945285D01*
X103604000Y-56345285D01*
X103604000Y-56602428D01*
X103689714Y-56773857D01*
X103775428Y-56859571D01*
X103946857Y-56945285D01*
X104375428Y-56945285D01*
X104546857Y-56859571D01*
X104632571Y-56773857D01*
X104718285Y-56602428D01*
X104718285Y-56088142D01*
X104632571Y-55916714D01*
X104546857Y-55831000D01*
X103089714Y-57631000D02*
X103004000Y-57716714D01*
X102918285Y-57888142D01*
X102918285Y-58316714D01*
X103004000Y-58488142D01*
X103089714Y-58573857D01*
X103261142Y-58659571D01*
X103432571Y-58659571D01*
X103689714Y-58573857D01*
X104718285Y-57545285D01*
X104718285Y-58659571D01*
X104032571Y-59431000D02*
X104032571Y-60802428D01*
X102918285Y-61488142D02*
X104718285Y-61916714D01*
X103432571Y-62259571D01*
X104718285Y-62602428D01*
X102918285Y-63031000D01*
X104718285Y-64745285D02*
X103861142Y-64145285D01*
X104718285Y-63716714D02*
X102918285Y-63716714D01*
X102918285Y-64402428D01*
X103004000Y-64573857D01*
X103089714Y-64659571D01*
X103261142Y-64745285D01*
X103518285Y-64745285D01*
X103689714Y-64659571D01*
X103775428Y-64573857D01*
X103861142Y-64402428D01*
X103861142Y-63716714D01*
X102918285Y-65859571D02*
X102918285Y-66202428D01*
X103004000Y-66373857D01*
X103175428Y-66545285D01*
X103518285Y-66630999D01*
X104118285Y-66630999D01*
X104461142Y-66545285D01*
X104632571Y-66373857D01*
X104718285Y-66202428D01*
X104718285Y-65859571D01*
X104632571Y-65688142D01*
X104461142Y-65516714D01*
X104118285Y-65431000D01*
X103518285Y-65431000D01*
X103175428Y-65516714D01*
X103004000Y-65688142D01*
X102918285Y-65859571D01*
X102918285Y-67745285D02*
X102918285Y-68088142D01*
X103004000Y-68259571D01*
X103175428Y-68430999D01*
X103518285Y-68516714D01*
X104118285Y-68516714D01*
X104461142Y-68430999D01*
X104632571Y-68259571D01*
X104718285Y-68088142D01*
X104718285Y-67745285D01*
X104632571Y-67573857D01*
X104461142Y-67402428D01*
X104118285Y-67316714D01*
X103518285Y-67316714D01*
X103175428Y-67402428D01*
X103004000Y-67573857D01*
X102918285Y-67745285D01*
X104718285Y-69288142D02*
X102918285Y-69288142D01*
X104204000Y-69888142D01*
X102918285Y-70488142D01*
X104718285Y-70488142D01*
X104032571Y-71345285D02*
X104032571Y-72716714D01*
X102918285Y-73402428D02*
X102918285Y-74516714D01*
X103604000Y-73916714D01*
X103604000Y-74173857D01*
X103689714Y-74345285D01*
X103775428Y-74430999D01*
X103946857Y-74516714D01*
X104375428Y-74516714D01*
X104546857Y-74430999D01*
X104632571Y-74345285D01*
X104718285Y-74173857D01*
X104718285Y-73659571D01*
X104632571Y-73488142D01*
X104546857Y-73402428D01*
X103089714Y-75202428D02*
X103004000Y-75288142D01*
X102918285Y-75459571D01*
X102918285Y-75888142D01*
X103004000Y-76059571D01*
X103089714Y-76145285D01*
X103261142Y-76230999D01*
X103432571Y-76230999D01*
X103689714Y-76145285D01*
X104718285Y-75116714D01*
X104718285Y-76230999D01*
X105918285Y-50859571D02*
X107375428Y-50859571D01*
X107546857Y-50945285D01*
X107632571Y-51031000D01*
X107718285Y-51202428D01*
X107718285Y-51545285D01*
X107632571Y-51716714D01*
X107546857Y-51802428D01*
X107375428Y-51888142D01*
X105918285Y-51888142D01*
X107204000Y-52659571D02*
X107204000Y-53516714D01*
X107718285Y-52488142D02*
X105918285Y-53088142D01*
X107718285Y-53688142D01*
X107718285Y-55316714D02*
X106861142Y-54716714D01*
X107718285Y-54288142D02*
X105918285Y-54288142D01*
X105918285Y-54973857D01*
X106004000Y-55145285D01*
X106089714Y-55231000D01*
X106261142Y-55316714D01*
X106518285Y-55316714D01*
X106689714Y-55231000D01*
X106775428Y-55145285D01*
X106861142Y-54973857D01*
X106861142Y-54288142D01*
X105918285Y-55831000D02*
X105918285Y-56859571D01*
X107718285Y-56345285D02*
X105918285Y-56345285D01*
X106775428Y-59431000D02*
X106861142Y-59688142D01*
X106946857Y-59773857D01*
X107118285Y-59859571D01*
X107375428Y-59859571D01*
X107546857Y-59773857D01*
X107632571Y-59688142D01*
X107718285Y-59516714D01*
X107718285Y-58831000D01*
X105918285Y-58831000D01*
X105918285Y-59431000D01*
X106004000Y-59602428D01*
X106089714Y-59688142D01*
X106261142Y-59773857D01*
X106432571Y-59773857D01*
X106604000Y-59688142D01*
X106689714Y-59602428D01*
X106775428Y-59431000D01*
X106775428Y-58831000D01*
X107718285Y-60888142D02*
X107632571Y-60716714D01*
X107461142Y-60631000D01*
X105918285Y-60631000D01*
X106518285Y-62345285D02*
X107718285Y-62345285D01*
X106518285Y-61573857D02*
X107461142Y-61573857D01*
X107632571Y-61659571D01*
X107718285Y-61831000D01*
X107718285Y-62088142D01*
X107632571Y-62259571D01*
X107546857Y-62345285D01*
X107632571Y-63888142D02*
X107718285Y-63716714D01*
X107718285Y-63373857D01*
X107632571Y-63202428D01*
X107461142Y-63116714D01*
X106775428Y-63116714D01*
X106604000Y-63202428D01*
X106518285Y-63373857D01*
X106518285Y-63716714D01*
X106604000Y-63888142D01*
X106775428Y-63973857D01*
X106946857Y-63973857D01*
X107118285Y-63116714D01*
X106518285Y-64488142D02*
X106518285Y-65173857D01*
X105918285Y-64745285D02*
X107461142Y-64745285D01*
X107632571Y-64831000D01*
X107718285Y-65002428D01*
X107718285Y-65173857D01*
X107718285Y-66031000D02*
X107632571Y-65859571D01*
X107546857Y-65773857D01*
X107375428Y-65688142D01*
X106861142Y-65688142D01*
X106689714Y-65773857D01*
X106604000Y-65859571D01*
X106518285Y-66031000D01*
X106518285Y-66288142D01*
X106604000Y-66459571D01*
X106689714Y-66545285D01*
X106861142Y-66631000D01*
X107375428Y-66631000D01*
X107546857Y-66545285D01*
X107632571Y-66459571D01*
X107718285Y-66288142D01*
X107718285Y-66031000D01*
X107718285Y-67659571D02*
X107632571Y-67488142D01*
X107546857Y-67402428D01*
X107375428Y-67316714D01*
X106861142Y-67316714D01*
X106689714Y-67402428D01*
X106604000Y-67488142D01*
X106518285Y-67659571D01*
X106518285Y-67916714D01*
X106604000Y-68088142D01*
X106689714Y-68173857D01*
X106861142Y-68259571D01*
X107375428Y-68259571D01*
X107546857Y-68173857D01*
X107632571Y-68088142D01*
X107718285Y-67916714D01*
X107718285Y-67659571D01*
X106518285Y-68773857D02*
X106518285Y-69459571D01*
X105918285Y-69031000D02*
X107461142Y-69031000D01*
X107632571Y-69116714D01*
X107718285Y-69288142D01*
X107718285Y-69459571D01*
X107718285Y-70059571D02*
X105918285Y-70059571D01*
X107718285Y-70831000D02*
X106775428Y-70831000D01*
X106604000Y-70745285D01*
X106518285Y-70573857D01*
X106518285Y-70316714D01*
X106604000Y-70145285D01*
X106689714Y-70059571D01*
X107546857Y-74088142D02*
X107632571Y-74002428D01*
X107718285Y-73745285D01*
X107718285Y-73573857D01*
X107632571Y-73316714D01*
X107461142Y-73145285D01*
X107289714Y-73059571D01*
X106946857Y-72973857D01*
X106689714Y-72973857D01*
X106346857Y-73059571D01*
X106175428Y-73145285D01*
X106004000Y-73316714D01*
X105918285Y-73573857D01*
X105918285Y-73745285D01*
X106004000Y-74002428D01*
X106089714Y-74088142D01*
X107718285Y-75116714D02*
X107632571Y-74945285D01*
X107546857Y-74859571D01*
X107375428Y-74773857D01*
X106861142Y-74773857D01*
X106689714Y-74859571D01*
X106604000Y-74945285D01*
X106518285Y-75116714D01*
X106518285Y-75373857D01*
X106604000Y-75545285D01*
X106689714Y-75631000D01*
X106861142Y-75716714D01*
X107375428Y-75716714D01*
X107546857Y-75631000D01*
X107632571Y-75545285D01*
X107718285Y-75373857D01*
X107718285Y-75116714D01*
X106518285Y-76488142D02*
X107718285Y-76488142D01*
X106689714Y-76488142D02*
X106604000Y-76573857D01*
X106518285Y-76745285D01*
X106518285Y-77002428D01*
X106604000Y-77173857D01*
X106775428Y-77259571D01*
X107718285Y-77259571D01*
X106518285Y-77945285D02*
X107718285Y-78373857D01*
X106518285Y-78802428D01*
X107632571Y-80173857D02*
X107718285Y-80002428D01*
X107718285Y-79659571D01*
X107632571Y-79488142D01*
X107461142Y-79402428D01*
X106775428Y-79402428D01*
X106604000Y-79488142D01*
X106518285Y-79659571D01*
X106518285Y-80002428D01*
X106604000Y-80173857D01*
X106775428Y-80259571D01*
X106946857Y-80259571D01*
X107118285Y-79402428D01*
X107718285Y-81031000D02*
X106518285Y-81031000D01*
X106861142Y-81031000D02*
X106689714Y-81116714D01*
X106604000Y-81202428D01*
X106518285Y-81373857D01*
X106518285Y-81545285D01*
X106518285Y-81888142D02*
X106518285Y-82573857D01*
X105918285Y-82145285D02*
X107461142Y-82145285D01*
X107632571Y-82231000D01*
X107718285Y-82402428D01*
X107718285Y-82573857D01*
X107632571Y-83859571D02*
X107718285Y-83688142D01*
X107718285Y-83345285D01*
X107632571Y-83173857D01*
X107461142Y-83088142D01*
X106775428Y-83088142D01*
X106604000Y-83173857D01*
X106518285Y-83345285D01*
X106518285Y-83688142D01*
X106604000Y-83859571D01*
X106775428Y-83945285D01*
X106946857Y-83945285D01*
X107118285Y-83088142D01*
X107718285Y-84716714D02*
X106518285Y-84716714D01*
X106861142Y-84716714D02*
X106689714Y-84802428D01*
X106604000Y-84888142D01*
X106518285Y-85059571D01*
X106518285Y-85231000D01*
D11*
X109988571Y-84994000D02*
X109274285Y-84494000D01*
X109988571Y-84136857D02*
X108488571Y-84136857D01*
X108488571Y-84708285D01*
X108560000Y-84851142D01*
X108631428Y-84922571D01*
X108774285Y-84994000D01*
X108988571Y-84994000D01*
X109131428Y-84922571D01*
X109202857Y-84851142D01*
X109274285Y-84708285D01*
X109274285Y-84136857D01*
X108488571Y-85494000D02*
X109988571Y-86494000D01*
X108488571Y-86494000D02*
X109988571Y-85494000D01*
X109988571Y-87065428D02*
X108488571Y-87065428D01*
X108488571Y-87422571D01*
X108560000Y-87636857D01*
X108702857Y-87779714D01*
X108845714Y-87851142D01*
X109131428Y-87922571D01*
X109345714Y-87922571D01*
X109631428Y-87851142D01*
X109774285Y-87779714D01*
X109917142Y-87636857D01*
X109988571Y-87422571D01*
X109988571Y-87065428D01*
X111028571Y-84355142D02*
X111028571Y-85212285D01*
X112528571Y-84783714D02*
X111028571Y-84783714D01*
X111028571Y-85569428D02*
X112528571Y-86569428D01*
X111028571Y-86569428D02*
X112528571Y-85569428D01*
X112528571Y-87140857D02*
X111028571Y-87140857D01*
X111028571Y-87498000D01*
X111100000Y-87712285D01*
X111242857Y-87855142D01*
X111385714Y-87926571D01*
X111671428Y-87998000D01*
X111885714Y-87998000D01*
X112171428Y-87926571D01*
X112314285Y-87855142D01*
X112457142Y-87712285D01*
X112528571Y-87498000D01*
X112528571Y-87140857D01*
X113640000Y-84851142D02*
X113568571Y-84708285D01*
X113568571Y-84494000D01*
X113640000Y-84279714D01*
X113782857Y-84136857D01*
X113925714Y-84065428D01*
X114211428Y-83994000D01*
X114425714Y-83994000D01*
X114711428Y-84065428D01*
X114854285Y-84136857D01*
X114997142Y-84279714D01*
X115068571Y-84494000D01*
X115068571Y-84636857D01*
X114997142Y-84851142D01*
X114925714Y-84922571D01*
X114425714Y-84922571D01*
X114425714Y-84636857D01*
X115068571Y-85565428D02*
X113568571Y-85565428D01*
X115068571Y-86422571D01*
X113568571Y-86422571D01*
X115068571Y-87136857D02*
X113568571Y-87136857D01*
X113568571Y-87494000D01*
X113640000Y-87708285D01*
X113782857Y-87851142D01*
X113925714Y-87922571D01*
X114211428Y-87994000D01*
X114425714Y-87994000D01*
X114711428Y-87922571D01*
X114854285Y-87851142D01*
X114997142Y-87708285D01*
X115068571Y-87494000D01*
X115068571Y-87136857D01*
X116108571Y-80358857D02*
X116108571Y-81287428D01*
X116680000Y-80787428D01*
X116680000Y-81001714D01*
X116751428Y-81144571D01*
X116822857Y-81216000D01*
X116965714Y-81287428D01*
X117322857Y-81287428D01*
X117465714Y-81216000D01*
X117537142Y-81144571D01*
X117608571Y-81001714D01*
X117608571Y-80573142D01*
X117537142Y-80430285D01*
X117465714Y-80358857D01*
X117465714Y-81930285D02*
X117537142Y-82001714D01*
X117608571Y-81930285D01*
X117537142Y-81858857D01*
X117465714Y-81930285D01*
X117608571Y-81930285D01*
X116108571Y-82501714D02*
X116108571Y-83430285D01*
X116680000Y-82930285D01*
X116680000Y-83144571D01*
X116751428Y-83287428D01*
X116822857Y-83358857D01*
X116965714Y-83430285D01*
X117322857Y-83430285D01*
X117465714Y-83358857D01*
X117537142Y-83287428D01*
X117608571Y-83144571D01*
X117608571Y-82716000D01*
X117537142Y-82573142D01*
X117465714Y-82501714D01*
X117037142Y-84073142D02*
X117037142Y-85216000D01*
X116108571Y-86573142D02*
X116108571Y-86287428D01*
X116180000Y-86144571D01*
X116251428Y-86073142D01*
X116465714Y-85930285D01*
X116751428Y-85858857D01*
X117322857Y-85858857D01*
X117465714Y-85930285D01*
X117537142Y-86001714D01*
X117608571Y-86144571D01*
X117608571Y-86430285D01*
X117537142Y-86573142D01*
X117465714Y-86644571D01*
X117322857Y-86716000D01*
X116965714Y-86716000D01*
X116822857Y-86644571D01*
X116751428Y-86573142D01*
X116680000Y-86430285D01*
X116680000Y-86144571D01*
X116751428Y-86001714D01*
X116822857Y-85930285D01*
X116965714Y-85858857D01*
X116108571Y-87144571D02*
X117608571Y-87644571D01*
X116108571Y-88144571D01*
M02*
