%TF.GenerationSoftware,KiCad,Pcbnew,(5.1.7)-1*%
%TF.CreationDate,2020-10-20T02:58:57+09:00*%
%TF.ProjectId,UARTtoBluetooth_array,55415254-746f-4426-9c75-65746f6f7468,rev?*%
%TF.SameCoordinates,Original*%
%TF.FileFunction,Legend,Top*%
%TF.FilePolarity,Positive*%
%FSLAX46Y46*%
G04 Gerber Fmt 4.6, Leading zero omitted, Abs format (unit mm)*
G04 Created by KiCad (PCBNEW (5.1.7)-1) date 2020-10-20 02:58:57*
%MOMM*%
%LPD*%
G01*
G04 APERTURE LIST*
%ADD10C,0.150000*%
%ADD11C,0.120000*%
%ADD12C,0.200000*%
%ADD13C,0.127000*%
G04 APERTURE END LIST*
D10*
X197277142Y-138487904D02*
X197429523Y-138487904D01*
X197505714Y-138449809D01*
X197543809Y-138411714D01*
X197620000Y-138297428D01*
X197658095Y-138145047D01*
X197658095Y-137840285D01*
X197620000Y-137764095D01*
X197581904Y-137726000D01*
X197505714Y-137687904D01*
X197353333Y-137687904D01*
X197277142Y-137726000D01*
X197239047Y-137764095D01*
X197200952Y-137840285D01*
X197200952Y-138030761D01*
X197239047Y-138106952D01*
X197277142Y-138145047D01*
X197353333Y-138183142D01*
X197505714Y-138183142D01*
X197581904Y-138145047D01*
X197620000Y-138106952D01*
X197658095Y-138030761D01*
X198343809Y-137687904D02*
X198191428Y-137687904D01*
X198115238Y-137726000D01*
X198077142Y-137764095D01*
X198000952Y-137878380D01*
X197962857Y-138030761D01*
X197962857Y-138335523D01*
X198000952Y-138411714D01*
X198039047Y-138449809D01*
X198115238Y-138487904D01*
X198267619Y-138487904D01*
X198343809Y-138449809D01*
X198381904Y-138411714D01*
X198420000Y-138335523D01*
X198420000Y-138145047D01*
X198381904Y-138068857D01*
X198343809Y-138030761D01*
X198267619Y-137992666D01*
X198115238Y-137992666D01*
X198039047Y-138030761D01*
X198000952Y-138068857D01*
X197962857Y-138145047D01*
X198915238Y-137687904D02*
X198991428Y-137687904D01*
X199067619Y-137726000D01*
X199105714Y-137764095D01*
X199143809Y-137840285D01*
X199181904Y-137992666D01*
X199181904Y-138183142D01*
X199143809Y-138335523D01*
X199105714Y-138411714D01*
X199067619Y-138449809D01*
X198991428Y-138487904D01*
X198915238Y-138487904D01*
X198839047Y-138449809D01*
X198800952Y-138411714D01*
X198762857Y-138335523D01*
X198724761Y-138183142D01*
X198724761Y-137992666D01*
X198762857Y-137840285D01*
X198800952Y-137764095D01*
X198839047Y-137726000D01*
X198915238Y-137687904D01*
X199677142Y-137687904D02*
X199753333Y-137687904D01*
X199829523Y-137726000D01*
X199867619Y-137764095D01*
X199905714Y-137840285D01*
X199943809Y-137992666D01*
X199943809Y-138183142D01*
X199905714Y-138335523D01*
X199867619Y-138411714D01*
X199829523Y-138449809D01*
X199753333Y-138487904D01*
X199677142Y-138487904D01*
X199600952Y-138449809D01*
X199562857Y-138411714D01*
X199524761Y-138335523D01*
X199486666Y-138183142D01*
X199486666Y-137992666D01*
X199524761Y-137840285D01*
X199562857Y-137764095D01*
X199600952Y-137726000D01*
X199677142Y-137687904D01*
X200286666Y-138487904D02*
X200286666Y-137687904D01*
X200286666Y-137992666D02*
X200362857Y-137954571D01*
X200515238Y-137954571D01*
X200591428Y-137992666D01*
X200629523Y-138030761D01*
X200667619Y-138106952D01*
X200667619Y-138335523D01*
X200629523Y-138411714D01*
X200591428Y-138449809D01*
X200515238Y-138487904D01*
X200362857Y-138487904D01*
X200286666Y-138449809D01*
X201010476Y-137954571D02*
X201010476Y-138754571D01*
X201010476Y-137992666D02*
X201086666Y-137954571D01*
X201239047Y-137954571D01*
X201315238Y-137992666D01*
X201353333Y-138030761D01*
X201391428Y-138106952D01*
X201391428Y-138335523D01*
X201353333Y-138411714D01*
X201315238Y-138449809D01*
X201239047Y-138487904D01*
X201086666Y-138487904D01*
X201010476Y-138449809D01*
X201696190Y-138449809D02*
X201772380Y-138487904D01*
X201924761Y-138487904D01*
X202000952Y-138449809D01*
X202039047Y-138373619D01*
X202039047Y-138335523D01*
X202000952Y-138259333D01*
X201924761Y-138221238D01*
X201810476Y-138221238D01*
X201734285Y-138183142D01*
X201696190Y-138106952D01*
X201696190Y-138068857D01*
X201734285Y-137992666D01*
X201810476Y-137954571D01*
X201924761Y-137954571D01*
X202000952Y-137992666D01*
X175277142Y-138487904D02*
X175429523Y-138487904D01*
X175505714Y-138449809D01*
X175543809Y-138411714D01*
X175620000Y-138297428D01*
X175658095Y-138145047D01*
X175658095Y-137840285D01*
X175620000Y-137764095D01*
X175581904Y-137726000D01*
X175505714Y-137687904D01*
X175353333Y-137687904D01*
X175277142Y-137726000D01*
X175239047Y-137764095D01*
X175200952Y-137840285D01*
X175200952Y-138030761D01*
X175239047Y-138106952D01*
X175277142Y-138145047D01*
X175353333Y-138183142D01*
X175505714Y-138183142D01*
X175581904Y-138145047D01*
X175620000Y-138106952D01*
X175658095Y-138030761D01*
X176343809Y-137687904D02*
X176191428Y-137687904D01*
X176115238Y-137726000D01*
X176077142Y-137764095D01*
X176000952Y-137878380D01*
X175962857Y-138030761D01*
X175962857Y-138335523D01*
X176000952Y-138411714D01*
X176039047Y-138449809D01*
X176115238Y-138487904D01*
X176267619Y-138487904D01*
X176343809Y-138449809D01*
X176381904Y-138411714D01*
X176420000Y-138335523D01*
X176420000Y-138145047D01*
X176381904Y-138068857D01*
X176343809Y-138030761D01*
X176267619Y-137992666D01*
X176115238Y-137992666D01*
X176039047Y-138030761D01*
X176000952Y-138068857D01*
X175962857Y-138145047D01*
X176915238Y-137687904D02*
X176991428Y-137687904D01*
X177067619Y-137726000D01*
X177105714Y-137764095D01*
X177143809Y-137840285D01*
X177181904Y-137992666D01*
X177181904Y-138183142D01*
X177143809Y-138335523D01*
X177105714Y-138411714D01*
X177067619Y-138449809D01*
X176991428Y-138487904D01*
X176915238Y-138487904D01*
X176839047Y-138449809D01*
X176800952Y-138411714D01*
X176762857Y-138335523D01*
X176724761Y-138183142D01*
X176724761Y-137992666D01*
X176762857Y-137840285D01*
X176800952Y-137764095D01*
X176839047Y-137726000D01*
X176915238Y-137687904D01*
X177677142Y-137687904D02*
X177753333Y-137687904D01*
X177829523Y-137726000D01*
X177867619Y-137764095D01*
X177905714Y-137840285D01*
X177943809Y-137992666D01*
X177943809Y-138183142D01*
X177905714Y-138335523D01*
X177867619Y-138411714D01*
X177829523Y-138449809D01*
X177753333Y-138487904D01*
X177677142Y-138487904D01*
X177600952Y-138449809D01*
X177562857Y-138411714D01*
X177524761Y-138335523D01*
X177486666Y-138183142D01*
X177486666Y-137992666D01*
X177524761Y-137840285D01*
X177562857Y-137764095D01*
X177600952Y-137726000D01*
X177677142Y-137687904D01*
X178286666Y-138487904D02*
X178286666Y-137687904D01*
X178286666Y-137992666D02*
X178362857Y-137954571D01*
X178515238Y-137954571D01*
X178591428Y-137992666D01*
X178629523Y-138030761D01*
X178667619Y-138106952D01*
X178667619Y-138335523D01*
X178629523Y-138411714D01*
X178591428Y-138449809D01*
X178515238Y-138487904D01*
X178362857Y-138487904D01*
X178286666Y-138449809D01*
X179010476Y-137954571D02*
X179010476Y-138754571D01*
X179010476Y-137992666D02*
X179086666Y-137954571D01*
X179239047Y-137954571D01*
X179315238Y-137992666D01*
X179353333Y-138030761D01*
X179391428Y-138106952D01*
X179391428Y-138335523D01*
X179353333Y-138411714D01*
X179315238Y-138449809D01*
X179239047Y-138487904D01*
X179086666Y-138487904D01*
X179010476Y-138449809D01*
X179696190Y-138449809D02*
X179772380Y-138487904D01*
X179924761Y-138487904D01*
X180000952Y-138449809D01*
X180039047Y-138373619D01*
X180039047Y-138335523D01*
X180000952Y-138259333D01*
X179924761Y-138221238D01*
X179810476Y-138221238D01*
X179734285Y-138183142D01*
X179696190Y-138106952D01*
X179696190Y-138068857D01*
X179734285Y-137992666D01*
X179810476Y-137954571D01*
X179924761Y-137954571D01*
X180000952Y-137992666D01*
X153277142Y-138487904D02*
X153429523Y-138487904D01*
X153505714Y-138449809D01*
X153543809Y-138411714D01*
X153620000Y-138297428D01*
X153658095Y-138145047D01*
X153658095Y-137840285D01*
X153620000Y-137764095D01*
X153581904Y-137726000D01*
X153505714Y-137687904D01*
X153353333Y-137687904D01*
X153277142Y-137726000D01*
X153239047Y-137764095D01*
X153200952Y-137840285D01*
X153200952Y-138030761D01*
X153239047Y-138106952D01*
X153277142Y-138145047D01*
X153353333Y-138183142D01*
X153505714Y-138183142D01*
X153581904Y-138145047D01*
X153620000Y-138106952D01*
X153658095Y-138030761D01*
X154343809Y-137687904D02*
X154191428Y-137687904D01*
X154115238Y-137726000D01*
X154077142Y-137764095D01*
X154000952Y-137878380D01*
X153962857Y-138030761D01*
X153962857Y-138335523D01*
X154000952Y-138411714D01*
X154039047Y-138449809D01*
X154115238Y-138487904D01*
X154267619Y-138487904D01*
X154343809Y-138449809D01*
X154381904Y-138411714D01*
X154420000Y-138335523D01*
X154420000Y-138145047D01*
X154381904Y-138068857D01*
X154343809Y-138030761D01*
X154267619Y-137992666D01*
X154115238Y-137992666D01*
X154039047Y-138030761D01*
X154000952Y-138068857D01*
X153962857Y-138145047D01*
X154915238Y-137687904D02*
X154991428Y-137687904D01*
X155067619Y-137726000D01*
X155105714Y-137764095D01*
X155143809Y-137840285D01*
X155181904Y-137992666D01*
X155181904Y-138183142D01*
X155143809Y-138335523D01*
X155105714Y-138411714D01*
X155067619Y-138449809D01*
X154991428Y-138487904D01*
X154915238Y-138487904D01*
X154839047Y-138449809D01*
X154800952Y-138411714D01*
X154762857Y-138335523D01*
X154724761Y-138183142D01*
X154724761Y-137992666D01*
X154762857Y-137840285D01*
X154800952Y-137764095D01*
X154839047Y-137726000D01*
X154915238Y-137687904D01*
X155677142Y-137687904D02*
X155753333Y-137687904D01*
X155829523Y-137726000D01*
X155867619Y-137764095D01*
X155905714Y-137840285D01*
X155943809Y-137992666D01*
X155943809Y-138183142D01*
X155905714Y-138335523D01*
X155867619Y-138411714D01*
X155829523Y-138449809D01*
X155753333Y-138487904D01*
X155677142Y-138487904D01*
X155600952Y-138449809D01*
X155562857Y-138411714D01*
X155524761Y-138335523D01*
X155486666Y-138183142D01*
X155486666Y-137992666D01*
X155524761Y-137840285D01*
X155562857Y-137764095D01*
X155600952Y-137726000D01*
X155677142Y-137687904D01*
X156286666Y-138487904D02*
X156286666Y-137687904D01*
X156286666Y-137992666D02*
X156362857Y-137954571D01*
X156515238Y-137954571D01*
X156591428Y-137992666D01*
X156629523Y-138030761D01*
X156667619Y-138106952D01*
X156667619Y-138335523D01*
X156629523Y-138411714D01*
X156591428Y-138449809D01*
X156515238Y-138487904D01*
X156362857Y-138487904D01*
X156286666Y-138449809D01*
X157010476Y-137954571D02*
X157010476Y-138754571D01*
X157010476Y-137992666D02*
X157086666Y-137954571D01*
X157239047Y-137954571D01*
X157315238Y-137992666D01*
X157353333Y-138030761D01*
X157391428Y-138106952D01*
X157391428Y-138335523D01*
X157353333Y-138411714D01*
X157315238Y-138449809D01*
X157239047Y-138487904D01*
X157086666Y-138487904D01*
X157010476Y-138449809D01*
X157696190Y-138449809D02*
X157772380Y-138487904D01*
X157924761Y-138487904D01*
X158000952Y-138449809D01*
X158039047Y-138373619D01*
X158039047Y-138335523D01*
X158000952Y-138259333D01*
X157924761Y-138221238D01*
X157810476Y-138221238D01*
X157734285Y-138183142D01*
X157696190Y-138106952D01*
X157696190Y-138068857D01*
X157734285Y-137992666D01*
X157810476Y-137954571D01*
X157924761Y-137954571D01*
X158000952Y-137992666D01*
X131277142Y-138487904D02*
X131429523Y-138487904D01*
X131505714Y-138449809D01*
X131543809Y-138411714D01*
X131620000Y-138297428D01*
X131658095Y-138145047D01*
X131658095Y-137840285D01*
X131620000Y-137764095D01*
X131581904Y-137726000D01*
X131505714Y-137687904D01*
X131353333Y-137687904D01*
X131277142Y-137726000D01*
X131239047Y-137764095D01*
X131200952Y-137840285D01*
X131200952Y-138030761D01*
X131239047Y-138106952D01*
X131277142Y-138145047D01*
X131353333Y-138183142D01*
X131505714Y-138183142D01*
X131581904Y-138145047D01*
X131620000Y-138106952D01*
X131658095Y-138030761D01*
X132343809Y-137687904D02*
X132191428Y-137687904D01*
X132115238Y-137726000D01*
X132077142Y-137764095D01*
X132000952Y-137878380D01*
X131962857Y-138030761D01*
X131962857Y-138335523D01*
X132000952Y-138411714D01*
X132039047Y-138449809D01*
X132115238Y-138487904D01*
X132267619Y-138487904D01*
X132343809Y-138449809D01*
X132381904Y-138411714D01*
X132420000Y-138335523D01*
X132420000Y-138145047D01*
X132381904Y-138068857D01*
X132343809Y-138030761D01*
X132267619Y-137992666D01*
X132115238Y-137992666D01*
X132039047Y-138030761D01*
X132000952Y-138068857D01*
X131962857Y-138145047D01*
X132915238Y-137687904D02*
X132991428Y-137687904D01*
X133067619Y-137726000D01*
X133105714Y-137764095D01*
X133143809Y-137840285D01*
X133181904Y-137992666D01*
X133181904Y-138183142D01*
X133143809Y-138335523D01*
X133105714Y-138411714D01*
X133067619Y-138449809D01*
X132991428Y-138487904D01*
X132915238Y-138487904D01*
X132839047Y-138449809D01*
X132800952Y-138411714D01*
X132762857Y-138335523D01*
X132724761Y-138183142D01*
X132724761Y-137992666D01*
X132762857Y-137840285D01*
X132800952Y-137764095D01*
X132839047Y-137726000D01*
X132915238Y-137687904D01*
X133677142Y-137687904D02*
X133753333Y-137687904D01*
X133829523Y-137726000D01*
X133867619Y-137764095D01*
X133905714Y-137840285D01*
X133943809Y-137992666D01*
X133943809Y-138183142D01*
X133905714Y-138335523D01*
X133867619Y-138411714D01*
X133829523Y-138449809D01*
X133753333Y-138487904D01*
X133677142Y-138487904D01*
X133600952Y-138449809D01*
X133562857Y-138411714D01*
X133524761Y-138335523D01*
X133486666Y-138183142D01*
X133486666Y-137992666D01*
X133524761Y-137840285D01*
X133562857Y-137764095D01*
X133600952Y-137726000D01*
X133677142Y-137687904D01*
X134286666Y-138487904D02*
X134286666Y-137687904D01*
X134286666Y-137992666D02*
X134362857Y-137954571D01*
X134515238Y-137954571D01*
X134591428Y-137992666D01*
X134629523Y-138030761D01*
X134667619Y-138106952D01*
X134667619Y-138335523D01*
X134629523Y-138411714D01*
X134591428Y-138449809D01*
X134515238Y-138487904D01*
X134362857Y-138487904D01*
X134286666Y-138449809D01*
X135010476Y-137954571D02*
X135010476Y-138754571D01*
X135010476Y-137992666D02*
X135086666Y-137954571D01*
X135239047Y-137954571D01*
X135315238Y-137992666D01*
X135353333Y-138030761D01*
X135391428Y-138106952D01*
X135391428Y-138335523D01*
X135353333Y-138411714D01*
X135315238Y-138449809D01*
X135239047Y-138487904D01*
X135086666Y-138487904D01*
X135010476Y-138449809D01*
X135696190Y-138449809D02*
X135772380Y-138487904D01*
X135924761Y-138487904D01*
X136000952Y-138449809D01*
X136039047Y-138373619D01*
X136039047Y-138335523D01*
X136000952Y-138259333D01*
X135924761Y-138221238D01*
X135810476Y-138221238D01*
X135734285Y-138183142D01*
X135696190Y-138106952D01*
X135696190Y-138068857D01*
X135734285Y-137992666D01*
X135810476Y-137954571D01*
X135924761Y-137954571D01*
X136000952Y-137992666D01*
X197277142Y-94487904D02*
X197429523Y-94487904D01*
X197505714Y-94449809D01*
X197543809Y-94411714D01*
X197620000Y-94297428D01*
X197658095Y-94145047D01*
X197658095Y-93840285D01*
X197620000Y-93764095D01*
X197581904Y-93726000D01*
X197505714Y-93687904D01*
X197353333Y-93687904D01*
X197277142Y-93726000D01*
X197239047Y-93764095D01*
X197200952Y-93840285D01*
X197200952Y-94030761D01*
X197239047Y-94106952D01*
X197277142Y-94145047D01*
X197353333Y-94183142D01*
X197505714Y-94183142D01*
X197581904Y-94145047D01*
X197620000Y-94106952D01*
X197658095Y-94030761D01*
X198343809Y-93687904D02*
X198191428Y-93687904D01*
X198115238Y-93726000D01*
X198077142Y-93764095D01*
X198000952Y-93878380D01*
X197962857Y-94030761D01*
X197962857Y-94335523D01*
X198000952Y-94411714D01*
X198039047Y-94449809D01*
X198115238Y-94487904D01*
X198267619Y-94487904D01*
X198343809Y-94449809D01*
X198381904Y-94411714D01*
X198420000Y-94335523D01*
X198420000Y-94145047D01*
X198381904Y-94068857D01*
X198343809Y-94030761D01*
X198267619Y-93992666D01*
X198115238Y-93992666D01*
X198039047Y-94030761D01*
X198000952Y-94068857D01*
X197962857Y-94145047D01*
X198915238Y-93687904D02*
X198991428Y-93687904D01*
X199067619Y-93726000D01*
X199105714Y-93764095D01*
X199143809Y-93840285D01*
X199181904Y-93992666D01*
X199181904Y-94183142D01*
X199143809Y-94335523D01*
X199105714Y-94411714D01*
X199067619Y-94449809D01*
X198991428Y-94487904D01*
X198915238Y-94487904D01*
X198839047Y-94449809D01*
X198800952Y-94411714D01*
X198762857Y-94335523D01*
X198724761Y-94183142D01*
X198724761Y-93992666D01*
X198762857Y-93840285D01*
X198800952Y-93764095D01*
X198839047Y-93726000D01*
X198915238Y-93687904D01*
X199677142Y-93687904D02*
X199753333Y-93687904D01*
X199829523Y-93726000D01*
X199867619Y-93764095D01*
X199905714Y-93840285D01*
X199943809Y-93992666D01*
X199943809Y-94183142D01*
X199905714Y-94335523D01*
X199867619Y-94411714D01*
X199829523Y-94449809D01*
X199753333Y-94487904D01*
X199677142Y-94487904D01*
X199600952Y-94449809D01*
X199562857Y-94411714D01*
X199524761Y-94335523D01*
X199486666Y-94183142D01*
X199486666Y-93992666D01*
X199524761Y-93840285D01*
X199562857Y-93764095D01*
X199600952Y-93726000D01*
X199677142Y-93687904D01*
X200286666Y-94487904D02*
X200286666Y-93687904D01*
X200286666Y-93992666D02*
X200362857Y-93954571D01*
X200515238Y-93954571D01*
X200591428Y-93992666D01*
X200629523Y-94030761D01*
X200667619Y-94106952D01*
X200667619Y-94335523D01*
X200629523Y-94411714D01*
X200591428Y-94449809D01*
X200515238Y-94487904D01*
X200362857Y-94487904D01*
X200286666Y-94449809D01*
X201010476Y-93954571D02*
X201010476Y-94754571D01*
X201010476Y-93992666D02*
X201086666Y-93954571D01*
X201239047Y-93954571D01*
X201315238Y-93992666D01*
X201353333Y-94030761D01*
X201391428Y-94106952D01*
X201391428Y-94335523D01*
X201353333Y-94411714D01*
X201315238Y-94449809D01*
X201239047Y-94487904D01*
X201086666Y-94487904D01*
X201010476Y-94449809D01*
X201696190Y-94449809D02*
X201772380Y-94487904D01*
X201924761Y-94487904D01*
X202000952Y-94449809D01*
X202039047Y-94373619D01*
X202039047Y-94335523D01*
X202000952Y-94259333D01*
X201924761Y-94221238D01*
X201810476Y-94221238D01*
X201734285Y-94183142D01*
X201696190Y-94106952D01*
X201696190Y-94068857D01*
X201734285Y-93992666D01*
X201810476Y-93954571D01*
X201924761Y-93954571D01*
X202000952Y-93992666D01*
X175277142Y-94487904D02*
X175429523Y-94487904D01*
X175505714Y-94449809D01*
X175543809Y-94411714D01*
X175620000Y-94297428D01*
X175658095Y-94145047D01*
X175658095Y-93840285D01*
X175620000Y-93764095D01*
X175581904Y-93726000D01*
X175505714Y-93687904D01*
X175353333Y-93687904D01*
X175277142Y-93726000D01*
X175239047Y-93764095D01*
X175200952Y-93840285D01*
X175200952Y-94030761D01*
X175239047Y-94106952D01*
X175277142Y-94145047D01*
X175353333Y-94183142D01*
X175505714Y-94183142D01*
X175581904Y-94145047D01*
X175620000Y-94106952D01*
X175658095Y-94030761D01*
X176343809Y-93687904D02*
X176191428Y-93687904D01*
X176115238Y-93726000D01*
X176077142Y-93764095D01*
X176000952Y-93878380D01*
X175962857Y-94030761D01*
X175962857Y-94335523D01*
X176000952Y-94411714D01*
X176039047Y-94449809D01*
X176115238Y-94487904D01*
X176267619Y-94487904D01*
X176343809Y-94449809D01*
X176381904Y-94411714D01*
X176420000Y-94335523D01*
X176420000Y-94145047D01*
X176381904Y-94068857D01*
X176343809Y-94030761D01*
X176267619Y-93992666D01*
X176115238Y-93992666D01*
X176039047Y-94030761D01*
X176000952Y-94068857D01*
X175962857Y-94145047D01*
X176915238Y-93687904D02*
X176991428Y-93687904D01*
X177067619Y-93726000D01*
X177105714Y-93764095D01*
X177143809Y-93840285D01*
X177181904Y-93992666D01*
X177181904Y-94183142D01*
X177143809Y-94335523D01*
X177105714Y-94411714D01*
X177067619Y-94449809D01*
X176991428Y-94487904D01*
X176915238Y-94487904D01*
X176839047Y-94449809D01*
X176800952Y-94411714D01*
X176762857Y-94335523D01*
X176724761Y-94183142D01*
X176724761Y-93992666D01*
X176762857Y-93840285D01*
X176800952Y-93764095D01*
X176839047Y-93726000D01*
X176915238Y-93687904D01*
X177677142Y-93687904D02*
X177753333Y-93687904D01*
X177829523Y-93726000D01*
X177867619Y-93764095D01*
X177905714Y-93840285D01*
X177943809Y-93992666D01*
X177943809Y-94183142D01*
X177905714Y-94335523D01*
X177867619Y-94411714D01*
X177829523Y-94449809D01*
X177753333Y-94487904D01*
X177677142Y-94487904D01*
X177600952Y-94449809D01*
X177562857Y-94411714D01*
X177524761Y-94335523D01*
X177486666Y-94183142D01*
X177486666Y-93992666D01*
X177524761Y-93840285D01*
X177562857Y-93764095D01*
X177600952Y-93726000D01*
X177677142Y-93687904D01*
X178286666Y-94487904D02*
X178286666Y-93687904D01*
X178286666Y-93992666D02*
X178362857Y-93954571D01*
X178515238Y-93954571D01*
X178591428Y-93992666D01*
X178629523Y-94030761D01*
X178667619Y-94106952D01*
X178667619Y-94335523D01*
X178629523Y-94411714D01*
X178591428Y-94449809D01*
X178515238Y-94487904D01*
X178362857Y-94487904D01*
X178286666Y-94449809D01*
X179010476Y-93954571D02*
X179010476Y-94754571D01*
X179010476Y-93992666D02*
X179086666Y-93954571D01*
X179239047Y-93954571D01*
X179315238Y-93992666D01*
X179353333Y-94030761D01*
X179391428Y-94106952D01*
X179391428Y-94335523D01*
X179353333Y-94411714D01*
X179315238Y-94449809D01*
X179239047Y-94487904D01*
X179086666Y-94487904D01*
X179010476Y-94449809D01*
X179696190Y-94449809D02*
X179772380Y-94487904D01*
X179924761Y-94487904D01*
X180000952Y-94449809D01*
X180039047Y-94373619D01*
X180039047Y-94335523D01*
X180000952Y-94259333D01*
X179924761Y-94221238D01*
X179810476Y-94221238D01*
X179734285Y-94183142D01*
X179696190Y-94106952D01*
X179696190Y-94068857D01*
X179734285Y-93992666D01*
X179810476Y-93954571D01*
X179924761Y-93954571D01*
X180000952Y-93992666D01*
X153277142Y-94487904D02*
X153429523Y-94487904D01*
X153505714Y-94449809D01*
X153543809Y-94411714D01*
X153620000Y-94297428D01*
X153658095Y-94145047D01*
X153658095Y-93840285D01*
X153620000Y-93764095D01*
X153581904Y-93726000D01*
X153505714Y-93687904D01*
X153353333Y-93687904D01*
X153277142Y-93726000D01*
X153239047Y-93764095D01*
X153200952Y-93840285D01*
X153200952Y-94030761D01*
X153239047Y-94106952D01*
X153277142Y-94145047D01*
X153353333Y-94183142D01*
X153505714Y-94183142D01*
X153581904Y-94145047D01*
X153620000Y-94106952D01*
X153658095Y-94030761D01*
X154343809Y-93687904D02*
X154191428Y-93687904D01*
X154115238Y-93726000D01*
X154077142Y-93764095D01*
X154000952Y-93878380D01*
X153962857Y-94030761D01*
X153962857Y-94335523D01*
X154000952Y-94411714D01*
X154039047Y-94449809D01*
X154115238Y-94487904D01*
X154267619Y-94487904D01*
X154343809Y-94449809D01*
X154381904Y-94411714D01*
X154420000Y-94335523D01*
X154420000Y-94145047D01*
X154381904Y-94068857D01*
X154343809Y-94030761D01*
X154267619Y-93992666D01*
X154115238Y-93992666D01*
X154039047Y-94030761D01*
X154000952Y-94068857D01*
X153962857Y-94145047D01*
X154915238Y-93687904D02*
X154991428Y-93687904D01*
X155067619Y-93726000D01*
X155105714Y-93764095D01*
X155143809Y-93840285D01*
X155181904Y-93992666D01*
X155181904Y-94183142D01*
X155143809Y-94335523D01*
X155105714Y-94411714D01*
X155067619Y-94449809D01*
X154991428Y-94487904D01*
X154915238Y-94487904D01*
X154839047Y-94449809D01*
X154800952Y-94411714D01*
X154762857Y-94335523D01*
X154724761Y-94183142D01*
X154724761Y-93992666D01*
X154762857Y-93840285D01*
X154800952Y-93764095D01*
X154839047Y-93726000D01*
X154915238Y-93687904D01*
X155677142Y-93687904D02*
X155753333Y-93687904D01*
X155829523Y-93726000D01*
X155867619Y-93764095D01*
X155905714Y-93840285D01*
X155943809Y-93992666D01*
X155943809Y-94183142D01*
X155905714Y-94335523D01*
X155867619Y-94411714D01*
X155829523Y-94449809D01*
X155753333Y-94487904D01*
X155677142Y-94487904D01*
X155600952Y-94449809D01*
X155562857Y-94411714D01*
X155524761Y-94335523D01*
X155486666Y-94183142D01*
X155486666Y-93992666D01*
X155524761Y-93840285D01*
X155562857Y-93764095D01*
X155600952Y-93726000D01*
X155677142Y-93687904D01*
X156286666Y-94487904D02*
X156286666Y-93687904D01*
X156286666Y-93992666D02*
X156362857Y-93954571D01*
X156515238Y-93954571D01*
X156591428Y-93992666D01*
X156629523Y-94030761D01*
X156667619Y-94106952D01*
X156667619Y-94335523D01*
X156629523Y-94411714D01*
X156591428Y-94449809D01*
X156515238Y-94487904D01*
X156362857Y-94487904D01*
X156286666Y-94449809D01*
X157010476Y-93954571D02*
X157010476Y-94754571D01*
X157010476Y-93992666D02*
X157086666Y-93954571D01*
X157239047Y-93954571D01*
X157315238Y-93992666D01*
X157353333Y-94030761D01*
X157391428Y-94106952D01*
X157391428Y-94335523D01*
X157353333Y-94411714D01*
X157315238Y-94449809D01*
X157239047Y-94487904D01*
X157086666Y-94487904D01*
X157010476Y-94449809D01*
X157696190Y-94449809D02*
X157772380Y-94487904D01*
X157924761Y-94487904D01*
X158000952Y-94449809D01*
X158039047Y-94373619D01*
X158039047Y-94335523D01*
X158000952Y-94259333D01*
X157924761Y-94221238D01*
X157810476Y-94221238D01*
X157734285Y-94183142D01*
X157696190Y-94106952D01*
X157696190Y-94068857D01*
X157734285Y-93992666D01*
X157810476Y-93954571D01*
X157924761Y-93954571D01*
X158000952Y-93992666D01*
X197162190Y-146361904D02*
X196705047Y-146361904D01*
X196933619Y-146361904D02*
X196933619Y-145561904D01*
X196857428Y-145676190D01*
X196781238Y-145752380D01*
X196705047Y-145790476D01*
X197924095Y-146361904D02*
X197466952Y-146361904D01*
X197695523Y-146361904D02*
X197695523Y-145561904D01*
X197619333Y-145676190D01*
X197543142Y-145752380D01*
X197466952Y-145790476D01*
X198647904Y-145561904D02*
X198266952Y-145561904D01*
X198228857Y-145942857D01*
X198266952Y-145904761D01*
X198343142Y-145866666D01*
X198533619Y-145866666D01*
X198609809Y-145904761D01*
X198647904Y-145942857D01*
X198686000Y-146019047D01*
X198686000Y-146209523D01*
X198647904Y-146285714D01*
X198609809Y-146323809D01*
X198533619Y-146361904D01*
X198343142Y-146361904D01*
X198266952Y-146323809D01*
X198228857Y-146285714D01*
X198990761Y-145638095D02*
X199028857Y-145600000D01*
X199105047Y-145561904D01*
X199295523Y-145561904D01*
X199371714Y-145600000D01*
X199409809Y-145638095D01*
X199447904Y-145714285D01*
X199447904Y-145790476D01*
X199409809Y-145904761D01*
X198952666Y-146361904D01*
X199447904Y-146361904D01*
X199943142Y-145561904D02*
X200019333Y-145561904D01*
X200095523Y-145600000D01*
X200133619Y-145638095D01*
X200171714Y-145714285D01*
X200209809Y-145866666D01*
X200209809Y-146057142D01*
X200171714Y-146209523D01*
X200133619Y-146285714D01*
X200095523Y-146323809D01*
X200019333Y-146361904D01*
X199943142Y-146361904D01*
X199866952Y-146323809D01*
X199828857Y-146285714D01*
X199790761Y-146209523D01*
X199752666Y-146057142D01*
X199752666Y-145866666D01*
X199790761Y-145714285D01*
X199828857Y-145638095D01*
X199866952Y-145600000D01*
X199943142Y-145561904D01*
X200705047Y-145561904D02*
X200781238Y-145561904D01*
X200857428Y-145600000D01*
X200895523Y-145638095D01*
X200933619Y-145714285D01*
X200971714Y-145866666D01*
X200971714Y-146057142D01*
X200933619Y-146209523D01*
X200895523Y-146285714D01*
X200857428Y-146323809D01*
X200781238Y-146361904D01*
X200705047Y-146361904D01*
X200628857Y-146323809D01*
X200590761Y-146285714D01*
X200552666Y-146209523D01*
X200514571Y-146057142D01*
X200514571Y-145866666D01*
X200552666Y-145714285D01*
X200590761Y-145638095D01*
X200628857Y-145600000D01*
X200705047Y-145561904D01*
X201314571Y-146361904D02*
X201314571Y-145561904D01*
X201314571Y-145866666D02*
X201390761Y-145828571D01*
X201543142Y-145828571D01*
X201619333Y-145866666D01*
X201657428Y-145904761D01*
X201695523Y-145980952D01*
X201695523Y-146209523D01*
X201657428Y-146285714D01*
X201619333Y-146323809D01*
X201543142Y-146361904D01*
X201390761Y-146361904D01*
X201314571Y-146323809D01*
X202038380Y-145828571D02*
X202038380Y-146628571D01*
X202038380Y-145866666D02*
X202114571Y-145828571D01*
X202266952Y-145828571D01*
X202343142Y-145866666D01*
X202381238Y-145904761D01*
X202419333Y-145980952D01*
X202419333Y-146209523D01*
X202381238Y-146285714D01*
X202343142Y-146323809D01*
X202266952Y-146361904D01*
X202114571Y-146361904D01*
X202038380Y-146323809D01*
X202724095Y-146323809D02*
X202800285Y-146361904D01*
X202952666Y-146361904D01*
X203028857Y-146323809D01*
X203066952Y-146247619D01*
X203066952Y-146209523D01*
X203028857Y-146133333D01*
X202952666Y-146095238D01*
X202838380Y-146095238D01*
X202762190Y-146057142D01*
X202724095Y-145980952D01*
X202724095Y-145942857D01*
X202762190Y-145866666D01*
X202838380Y-145828571D01*
X202952666Y-145828571D01*
X203028857Y-145866666D01*
X175162190Y-146361904D02*
X174705047Y-146361904D01*
X174933619Y-146361904D02*
X174933619Y-145561904D01*
X174857428Y-145676190D01*
X174781238Y-145752380D01*
X174705047Y-145790476D01*
X175924095Y-146361904D02*
X175466952Y-146361904D01*
X175695523Y-146361904D02*
X175695523Y-145561904D01*
X175619333Y-145676190D01*
X175543142Y-145752380D01*
X175466952Y-145790476D01*
X176647904Y-145561904D02*
X176266952Y-145561904D01*
X176228857Y-145942857D01*
X176266952Y-145904761D01*
X176343142Y-145866666D01*
X176533619Y-145866666D01*
X176609809Y-145904761D01*
X176647904Y-145942857D01*
X176686000Y-146019047D01*
X176686000Y-146209523D01*
X176647904Y-146285714D01*
X176609809Y-146323809D01*
X176533619Y-146361904D01*
X176343142Y-146361904D01*
X176266952Y-146323809D01*
X176228857Y-146285714D01*
X176990761Y-145638095D02*
X177028857Y-145600000D01*
X177105047Y-145561904D01*
X177295523Y-145561904D01*
X177371714Y-145600000D01*
X177409809Y-145638095D01*
X177447904Y-145714285D01*
X177447904Y-145790476D01*
X177409809Y-145904761D01*
X176952666Y-146361904D01*
X177447904Y-146361904D01*
X177943142Y-145561904D02*
X178019333Y-145561904D01*
X178095523Y-145600000D01*
X178133619Y-145638095D01*
X178171714Y-145714285D01*
X178209809Y-145866666D01*
X178209809Y-146057142D01*
X178171714Y-146209523D01*
X178133619Y-146285714D01*
X178095523Y-146323809D01*
X178019333Y-146361904D01*
X177943142Y-146361904D01*
X177866952Y-146323809D01*
X177828857Y-146285714D01*
X177790761Y-146209523D01*
X177752666Y-146057142D01*
X177752666Y-145866666D01*
X177790761Y-145714285D01*
X177828857Y-145638095D01*
X177866952Y-145600000D01*
X177943142Y-145561904D01*
X178705047Y-145561904D02*
X178781238Y-145561904D01*
X178857428Y-145600000D01*
X178895523Y-145638095D01*
X178933619Y-145714285D01*
X178971714Y-145866666D01*
X178971714Y-146057142D01*
X178933619Y-146209523D01*
X178895523Y-146285714D01*
X178857428Y-146323809D01*
X178781238Y-146361904D01*
X178705047Y-146361904D01*
X178628857Y-146323809D01*
X178590761Y-146285714D01*
X178552666Y-146209523D01*
X178514571Y-146057142D01*
X178514571Y-145866666D01*
X178552666Y-145714285D01*
X178590761Y-145638095D01*
X178628857Y-145600000D01*
X178705047Y-145561904D01*
X179314571Y-146361904D02*
X179314571Y-145561904D01*
X179314571Y-145866666D02*
X179390761Y-145828571D01*
X179543142Y-145828571D01*
X179619333Y-145866666D01*
X179657428Y-145904761D01*
X179695523Y-145980952D01*
X179695523Y-146209523D01*
X179657428Y-146285714D01*
X179619333Y-146323809D01*
X179543142Y-146361904D01*
X179390761Y-146361904D01*
X179314571Y-146323809D01*
X180038380Y-145828571D02*
X180038380Y-146628571D01*
X180038380Y-145866666D02*
X180114571Y-145828571D01*
X180266952Y-145828571D01*
X180343142Y-145866666D01*
X180381238Y-145904761D01*
X180419333Y-145980952D01*
X180419333Y-146209523D01*
X180381238Y-146285714D01*
X180343142Y-146323809D01*
X180266952Y-146361904D01*
X180114571Y-146361904D01*
X180038380Y-146323809D01*
X180724095Y-146323809D02*
X180800285Y-146361904D01*
X180952666Y-146361904D01*
X181028857Y-146323809D01*
X181066952Y-146247619D01*
X181066952Y-146209523D01*
X181028857Y-146133333D01*
X180952666Y-146095238D01*
X180838380Y-146095238D01*
X180762190Y-146057142D01*
X180724095Y-145980952D01*
X180724095Y-145942857D01*
X180762190Y-145866666D01*
X180838380Y-145828571D01*
X180952666Y-145828571D01*
X181028857Y-145866666D01*
X153162190Y-146361904D02*
X152705047Y-146361904D01*
X152933619Y-146361904D02*
X152933619Y-145561904D01*
X152857428Y-145676190D01*
X152781238Y-145752380D01*
X152705047Y-145790476D01*
X153924095Y-146361904D02*
X153466952Y-146361904D01*
X153695523Y-146361904D02*
X153695523Y-145561904D01*
X153619333Y-145676190D01*
X153543142Y-145752380D01*
X153466952Y-145790476D01*
X154647904Y-145561904D02*
X154266952Y-145561904D01*
X154228857Y-145942857D01*
X154266952Y-145904761D01*
X154343142Y-145866666D01*
X154533619Y-145866666D01*
X154609809Y-145904761D01*
X154647904Y-145942857D01*
X154686000Y-146019047D01*
X154686000Y-146209523D01*
X154647904Y-146285714D01*
X154609809Y-146323809D01*
X154533619Y-146361904D01*
X154343142Y-146361904D01*
X154266952Y-146323809D01*
X154228857Y-146285714D01*
X154990761Y-145638095D02*
X155028857Y-145600000D01*
X155105047Y-145561904D01*
X155295523Y-145561904D01*
X155371714Y-145600000D01*
X155409809Y-145638095D01*
X155447904Y-145714285D01*
X155447904Y-145790476D01*
X155409809Y-145904761D01*
X154952666Y-146361904D01*
X155447904Y-146361904D01*
X155943142Y-145561904D02*
X156019333Y-145561904D01*
X156095523Y-145600000D01*
X156133619Y-145638095D01*
X156171714Y-145714285D01*
X156209809Y-145866666D01*
X156209809Y-146057142D01*
X156171714Y-146209523D01*
X156133619Y-146285714D01*
X156095523Y-146323809D01*
X156019333Y-146361904D01*
X155943142Y-146361904D01*
X155866952Y-146323809D01*
X155828857Y-146285714D01*
X155790761Y-146209523D01*
X155752666Y-146057142D01*
X155752666Y-145866666D01*
X155790761Y-145714285D01*
X155828857Y-145638095D01*
X155866952Y-145600000D01*
X155943142Y-145561904D01*
X156705047Y-145561904D02*
X156781238Y-145561904D01*
X156857428Y-145600000D01*
X156895523Y-145638095D01*
X156933619Y-145714285D01*
X156971714Y-145866666D01*
X156971714Y-146057142D01*
X156933619Y-146209523D01*
X156895523Y-146285714D01*
X156857428Y-146323809D01*
X156781238Y-146361904D01*
X156705047Y-146361904D01*
X156628857Y-146323809D01*
X156590761Y-146285714D01*
X156552666Y-146209523D01*
X156514571Y-146057142D01*
X156514571Y-145866666D01*
X156552666Y-145714285D01*
X156590761Y-145638095D01*
X156628857Y-145600000D01*
X156705047Y-145561904D01*
X157314571Y-146361904D02*
X157314571Y-145561904D01*
X157314571Y-145866666D02*
X157390761Y-145828571D01*
X157543142Y-145828571D01*
X157619333Y-145866666D01*
X157657428Y-145904761D01*
X157695523Y-145980952D01*
X157695523Y-146209523D01*
X157657428Y-146285714D01*
X157619333Y-146323809D01*
X157543142Y-146361904D01*
X157390761Y-146361904D01*
X157314571Y-146323809D01*
X158038380Y-145828571D02*
X158038380Y-146628571D01*
X158038380Y-145866666D02*
X158114571Y-145828571D01*
X158266952Y-145828571D01*
X158343142Y-145866666D01*
X158381238Y-145904761D01*
X158419333Y-145980952D01*
X158419333Y-146209523D01*
X158381238Y-146285714D01*
X158343142Y-146323809D01*
X158266952Y-146361904D01*
X158114571Y-146361904D01*
X158038380Y-146323809D01*
X158724095Y-146323809D02*
X158800285Y-146361904D01*
X158952666Y-146361904D01*
X159028857Y-146323809D01*
X159066952Y-146247619D01*
X159066952Y-146209523D01*
X159028857Y-146133333D01*
X158952666Y-146095238D01*
X158838380Y-146095238D01*
X158762190Y-146057142D01*
X158724095Y-145980952D01*
X158724095Y-145942857D01*
X158762190Y-145866666D01*
X158838380Y-145828571D01*
X158952666Y-145828571D01*
X159028857Y-145866666D01*
X131162190Y-146361904D02*
X130705047Y-146361904D01*
X130933619Y-146361904D02*
X130933619Y-145561904D01*
X130857428Y-145676190D01*
X130781238Y-145752380D01*
X130705047Y-145790476D01*
X131924095Y-146361904D02*
X131466952Y-146361904D01*
X131695523Y-146361904D02*
X131695523Y-145561904D01*
X131619333Y-145676190D01*
X131543142Y-145752380D01*
X131466952Y-145790476D01*
X132647904Y-145561904D02*
X132266952Y-145561904D01*
X132228857Y-145942857D01*
X132266952Y-145904761D01*
X132343142Y-145866666D01*
X132533619Y-145866666D01*
X132609809Y-145904761D01*
X132647904Y-145942857D01*
X132686000Y-146019047D01*
X132686000Y-146209523D01*
X132647904Y-146285714D01*
X132609809Y-146323809D01*
X132533619Y-146361904D01*
X132343142Y-146361904D01*
X132266952Y-146323809D01*
X132228857Y-146285714D01*
X132990761Y-145638095D02*
X133028857Y-145600000D01*
X133105047Y-145561904D01*
X133295523Y-145561904D01*
X133371714Y-145600000D01*
X133409809Y-145638095D01*
X133447904Y-145714285D01*
X133447904Y-145790476D01*
X133409809Y-145904761D01*
X132952666Y-146361904D01*
X133447904Y-146361904D01*
X133943142Y-145561904D02*
X134019333Y-145561904D01*
X134095523Y-145600000D01*
X134133619Y-145638095D01*
X134171714Y-145714285D01*
X134209809Y-145866666D01*
X134209809Y-146057142D01*
X134171714Y-146209523D01*
X134133619Y-146285714D01*
X134095523Y-146323809D01*
X134019333Y-146361904D01*
X133943142Y-146361904D01*
X133866952Y-146323809D01*
X133828857Y-146285714D01*
X133790761Y-146209523D01*
X133752666Y-146057142D01*
X133752666Y-145866666D01*
X133790761Y-145714285D01*
X133828857Y-145638095D01*
X133866952Y-145600000D01*
X133943142Y-145561904D01*
X134705047Y-145561904D02*
X134781238Y-145561904D01*
X134857428Y-145600000D01*
X134895523Y-145638095D01*
X134933619Y-145714285D01*
X134971714Y-145866666D01*
X134971714Y-146057142D01*
X134933619Y-146209523D01*
X134895523Y-146285714D01*
X134857428Y-146323809D01*
X134781238Y-146361904D01*
X134705047Y-146361904D01*
X134628857Y-146323809D01*
X134590761Y-146285714D01*
X134552666Y-146209523D01*
X134514571Y-146057142D01*
X134514571Y-145866666D01*
X134552666Y-145714285D01*
X134590761Y-145638095D01*
X134628857Y-145600000D01*
X134705047Y-145561904D01*
X135314571Y-146361904D02*
X135314571Y-145561904D01*
X135314571Y-145866666D02*
X135390761Y-145828571D01*
X135543142Y-145828571D01*
X135619333Y-145866666D01*
X135657428Y-145904761D01*
X135695523Y-145980952D01*
X135695523Y-146209523D01*
X135657428Y-146285714D01*
X135619333Y-146323809D01*
X135543142Y-146361904D01*
X135390761Y-146361904D01*
X135314571Y-146323809D01*
X136038380Y-145828571D02*
X136038380Y-146628571D01*
X136038380Y-145866666D02*
X136114571Y-145828571D01*
X136266952Y-145828571D01*
X136343142Y-145866666D01*
X136381238Y-145904761D01*
X136419333Y-145980952D01*
X136419333Y-146209523D01*
X136381238Y-146285714D01*
X136343142Y-146323809D01*
X136266952Y-146361904D01*
X136114571Y-146361904D01*
X136038380Y-146323809D01*
X136724095Y-146323809D02*
X136800285Y-146361904D01*
X136952666Y-146361904D01*
X137028857Y-146323809D01*
X137066952Y-146247619D01*
X137066952Y-146209523D01*
X137028857Y-146133333D01*
X136952666Y-146095238D01*
X136838380Y-146095238D01*
X136762190Y-146057142D01*
X136724095Y-145980952D01*
X136724095Y-145942857D01*
X136762190Y-145866666D01*
X136838380Y-145828571D01*
X136952666Y-145828571D01*
X137028857Y-145866666D01*
X197162190Y-102361904D02*
X196705047Y-102361904D01*
X196933619Y-102361904D02*
X196933619Y-101561904D01*
X196857428Y-101676190D01*
X196781238Y-101752380D01*
X196705047Y-101790476D01*
X197924095Y-102361904D02*
X197466952Y-102361904D01*
X197695523Y-102361904D02*
X197695523Y-101561904D01*
X197619333Y-101676190D01*
X197543142Y-101752380D01*
X197466952Y-101790476D01*
X198647904Y-101561904D02*
X198266952Y-101561904D01*
X198228857Y-101942857D01*
X198266952Y-101904761D01*
X198343142Y-101866666D01*
X198533619Y-101866666D01*
X198609809Y-101904761D01*
X198647904Y-101942857D01*
X198686000Y-102019047D01*
X198686000Y-102209523D01*
X198647904Y-102285714D01*
X198609809Y-102323809D01*
X198533619Y-102361904D01*
X198343142Y-102361904D01*
X198266952Y-102323809D01*
X198228857Y-102285714D01*
X198990761Y-101638095D02*
X199028857Y-101600000D01*
X199105047Y-101561904D01*
X199295523Y-101561904D01*
X199371714Y-101600000D01*
X199409809Y-101638095D01*
X199447904Y-101714285D01*
X199447904Y-101790476D01*
X199409809Y-101904761D01*
X198952666Y-102361904D01*
X199447904Y-102361904D01*
X199943142Y-101561904D02*
X200019333Y-101561904D01*
X200095523Y-101600000D01*
X200133619Y-101638095D01*
X200171714Y-101714285D01*
X200209809Y-101866666D01*
X200209809Y-102057142D01*
X200171714Y-102209523D01*
X200133619Y-102285714D01*
X200095523Y-102323809D01*
X200019333Y-102361904D01*
X199943142Y-102361904D01*
X199866952Y-102323809D01*
X199828857Y-102285714D01*
X199790761Y-102209523D01*
X199752666Y-102057142D01*
X199752666Y-101866666D01*
X199790761Y-101714285D01*
X199828857Y-101638095D01*
X199866952Y-101600000D01*
X199943142Y-101561904D01*
X200705047Y-101561904D02*
X200781238Y-101561904D01*
X200857428Y-101600000D01*
X200895523Y-101638095D01*
X200933619Y-101714285D01*
X200971714Y-101866666D01*
X200971714Y-102057142D01*
X200933619Y-102209523D01*
X200895523Y-102285714D01*
X200857428Y-102323809D01*
X200781238Y-102361904D01*
X200705047Y-102361904D01*
X200628857Y-102323809D01*
X200590761Y-102285714D01*
X200552666Y-102209523D01*
X200514571Y-102057142D01*
X200514571Y-101866666D01*
X200552666Y-101714285D01*
X200590761Y-101638095D01*
X200628857Y-101600000D01*
X200705047Y-101561904D01*
X201314571Y-102361904D02*
X201314571Y-101561904D01*
X201314571Y-101866666D02*
X201390761Y-101828571D01*
X201543142Y-101828571D01*
X201619333Y-101866666D01*
X201657428Y-101904761D01*
X201695523Y-101980952D01*
X201695523Y-102209523D01*
X201657428Y-102285714D01*
X201619333Y-102323809D01*
X201543142Y-102361904D01*
X201390761Y-102361904D01*
X201314571Y-102323809D01*
X202038380Y-101828571D02*
X202038380Y-102628571D01*
X202038380Y-101866666D02*
X202114571Y-101828571D01*
X202266952Y-101828571D01*
X202343142Y-101866666D01*
X202381238Y-101904761D01*
X202419333Y-101980952D01*
X202419333Y-102209523D01*
X202381238Y-102285714D01*
X202343142Y-102323809D01*
X202266952Y-102361904D01*
X202114571Y-102361904D01*
X202038380Y-102323809D01*
X202724095Y-102323809D02*
X202800285Y-102361904D01*
X202952666Y-102361904D01*
X203028857Y-102323809D01*
X203066952Y-102247619D01*
X203066952Y-102209523D01*
X203028857Y-102133333D01*
X202952666Y-102095238D01*
X202838380Y-102095238D01*
X202762190Y-102057142D01*
X202724095Y-101980952D01*
X202724095Y-101942857D01*
X202762190Y-101866666D01*
X202838380Y-101828571D01*
X202952666Y-101828571D01*
X203028857Y-101866666D01*
X175162190Y-102361904D02*
X174705047Y-102361904D01*
X174933619Y-102361904D02*
X174933619Y-101561904D01*
X174857428Y-101676190D01*
X174781238Y-101752380D01*
X174705047Y-101790476D01*
X175924095Y-102361904D02*
X175466952Y-102361904D01*
X175695523Y-102361904D02*
X175695523Y-101561904D01*
X175619333Y-101676190D01*
X175543142Y-101752380D01*
X175466952Y-101790476D01*
X176647904Y-101561904D02*
X176266952Y-101561904D01*
X176228857Y-101942857D01*
X176266952Y-101904761D01*
X176343142Y-101866666D01*
X176533619Y-101866666D01*
X176609809Y-101904761D01*
X176647904Y-101942857D01*
X176686000Y-102019047D01*
X176686000Y-102209523D01*
X176647904Y-102285714D01*
X176609809Y-102323809D01*
X176533619Y-102361904D01*
X176343142Y-102361904D01*
X176266952Y-102323809D01*
X176228857Y-102285714D01*
X176990761Y-101638095D02*
X177028857Y-101600000D01*
X177105047Y-101561904D01*
X177295523Y-101561904D01*
X177371714Y-101600000D01*
X177409809Y-101638095D01*
X177447904Y-101714285D01*
X177447904Y-101790476D01*
X177409809Y-101904761D01*
X176952666Y-102361904D01*
X177447904Y-102361904D01*
X177943142Y-101561904D02*
X178019333Y-101561904D01*
X178095523Y-101600000D01*
X178133619Y-101638095D01*
X178171714Y-101714285D01*
X178209809Y-101866666D01*
X178209809Y-102057142D01*
X178171714Y-102209523D01*
X178133619Y-102285714D01*
X178095523Y-102323809D01*
X178019333Y-102361904D01*
X177943142Y-102361904D01*
X177866952Y-102323809D01*
X177828857Y-102285714D01*
X177790761Y-102209523D01*
X177752666Y-102057142D01*
X177752666Y-101866666D01*
X177790761Y-101714285D01*
X177828857Y-101638095D01*
X177866952Y-101600000D01*
X177943142Y-101561904D01*
X178705047Y-101561904D02*
X178781238Y-101561904D01*
X178857428Y-101600000D01*
X178895523Y-101638095D01*
X178933619Y-101714285D01*
X178971714Y-101866666D01*
X178971714Y-102057142D01*
X178933619Y-102209523D01*
X178895523Y-102285714D01*
X178857428Y-102323809D01*
X178781238Y-102361904D01*
X178705047Y-102361904D01*
X178628857Y-102323809D01*
X178590761Y-102285714D01*
X178552666Y-102209523D01*
X178514571Y-102057142D01*
X178514571Y-101866666D01*
X178552666Y-101714285D01*
X178590761Y-101638095D01*
X178628857Y-101600000D01*
X178705047Y-101561904D01*
X179314571Y-102361904D02*
X179314571Y-101561904D01*
X179314571Y-101866666D02*
X179390761Y-101828571D01*
X179543142Y-101828571D01*
X179619333Y-101866666D01*
X179657428Y-101904761D01*
X179695523Y-101980952D01*
X179695523Y-102209523D01*
X179657428Y-102285714D01*
X179619333Y-102323809D01*
X179543142Y-102361904D01*
X179390761Y-102361904D01*
X179314571Y-102323809D01*
X180038380Y-101828571D02*
X180038380Y-102628571D01*
X180038380Y-101866666D02*
X180114571Y-101828571D01*
X180266952Y-101828571D01*
X180343142Y-101866666D01*
X180381238Y-101904761D01*
X180419333Y-101980952D01*
X180419333Y-102209523D01*
X180381238Y-102285714D01*
X180343142Y-102323809D01*
X180266952Y-102361904D01*
X180114571Y-102361904D01*
X180038380Y-102323809D01*
X180724095Y-102323809D02*
X180800285Y-102361904D01*
X180952666Y-102361904D01*
X181028857Y-102323809D01*
X181066952Y-102247619D01*
X181066952Y-102209523D01*
X181028857Y-102133333D01*
X180952666Y-102095238D01*
X180838380Y-102095238D01*
X180762190Y-102057142D01*
X180724095Y-101980952D01*
X180724095Y-101942857D01*
X180762190Y-101866666D01*
X180838380Y-101828571D01*
X180952666Y-101828571D01*
X181028857Y-101866666D01*
X153162190Y-102361904D02*
X152705047Y-102361904D01*
X152933619Y-102361904D02*
X152933619Y-101561904D01*
X152857428Y-101676190D01*
X152781238Y-101752380D01*
X152705047Y-101790476D01*
X153924095Y-102361904D02*
X153466952Y-102361904D01*
X153695523Y-102361904D02*
X153695523Y-101561904D01*
X153619333Y-101676190D01*
X153543142Y-101752380D01*
X153466952Y-101790476D01*
X154647904Y-101561904D02*
X154266952Y-101561904D01*
X154228857Y-101942857D01*
X154266952Y-101904761D01*
X154343142Y-101866666D01*
X154533619Y-101866666D01*
X154609809Y-101904761D01*
X154647904Y-101942857D01*
X154686000Y-102019047D01*
X154686000Y-102209523D01*
X154647904Y-102285714D01*
X154609809Y-102323809D01*
X154533619Y-102361904D01*
X154343142Y-102361904D01*
X154266952Y-102323809D01*
X154228857Y-102285714D01*
X154990761Y-101638095D02*
X155028857Y-101600000D01*
X155105047Y-101561904D01*
X155295523Y-101561904D01*
X155371714Y-101600000D01*
X155409809Y-101638095D01*
X155447904Y-101714285D01*
X155447904Y-101790476D01*
X155409809Y-101904761D01*
X154952666Y-102361904D01*
X155447904Y-102361904D01*
X155943142Y-101561904D02*
X156019333Y-101561904D01*
X156095523Y-101600000D01*
X156133619Y-101638095D01*
X156171714Y-101714285D01*
X156209809Y-101866666D01*
X156209809Y-102057142D01*
X156171714Y-102209523D01*
X156133619Y-102285714D01*
X156095523Y-102323809D01*
X156019333Y-102361904D01*
X155943142Y-102361904D01*
X155866952Y-102323809D01*
X155828857Y-102285714D01*
X155790761Y-102209523D01*
X155752666Y-102057142D01*
X155752666Y-101866666D01*
X155790761Y-101714285D01*
X155828857Y-101638095D01*
X155866952Y-101600000D01*
X155943142Y-101561904D01*
X156705047Y-101561904D02*
X156781238Y-101561904D01*
X156857428Y-101600000D01*
X156895523Y-101638095D01*
X156933619Y-101714285D01*
X156971714Y-101866666D01*
X156971714Y-102057142D01*
X156933619Y-102209523D01*
X156895523Y-102285714D01*
X156857428Y-102323809D01*
X156781238Y-102361904D01*
X156705047Y-102361904D01*
X156628857Y-102323809D01*
X156590761Y-102285714D01*
X156552666Y-102209523D01*
X156514571Y-102057142D01*
X156514571Y-101866666D01*
X156552666Y-101714285D01*
X156590761Y-101638095D01*
X156628857Y-101600000D01*
X156705047Y-101561904D01*
X157314571Y-102361904D02*
X157314571Y-101561904D01*
X157314571Y-101866666D02*
X157390761Y-101828571D01*
X157543142Y-101828571D01*
X157619333Y-101866666D01*
X157657428Y-101904761D01*
X157695523Y-101980952D01*
X157695523Y-102209523D01*
X157657428Y-102285714D01*
X157619333Y-102323809D01*
X157543142Y-102361904D01*
X157390761Y-102361904D01*
X157314571Y-102323809D01*
X158038380Y-101828571D02*
X158038380Y-102628571D01*
X158038380Y-101866666D02*
X158114571Y-101828571D01*
X158266952Y-101828571D01*
X158343142Y-101866666D01*
X158381238Y-101904761D01*
X158419333Y-101980952D01*
X158419333Y-102209523D01*
X158381238Y-102285714D01*
X158343142Y-102323809D01*
X158266952Y-102361904D01*
X158114571Y-102361904D01*
X158038380Y-102323809D01*
X158724095Y-102323809D02*
X158800285Y-102361904D01*
X158952666Y-102361904D01*
X159028857Y-102323809D01*
X159066952Y-102247619D01*
X159066952Y-102209523D01*
X159028857Y-102133333D01*
X158952666Y-102095238D01*
X158838380Y-102095238D01*
X158762190Y-102057142D01*
X158724095Y-101980952D01*
X158724095Y-101942857D01*
X158762190Y-101866666D01*
X158838380Y-101828571D01*
X158952666Y-101828571D01*
X159028857Y-101866666D01*
X182975904Y-150971904D02*
X182594952Y-151238571D01*
X182975904Y-151429047D02*
X182175904Y-151429047D01*
X182175904Y-151124285D01*
X182214000Y-151048095D01*
X182252095Y-151010000D01*
X182328285Y-150971904D01*
X182442571Y-150971904D01*
X182518761Y-151010000D01*
X182556857Y-151048095D01*
X182594952Y-151124285D01*
X182594952Y-151429047D01*
X182556857Y-150629047D02*
X182556857Y-150362380D01*
X182975904Y-150248095D02*
X182975904Y-150629047D01*
X182175904Y-150629047D01*
X182175904Y-150248095D01*
X182937809Y-149943333D02*
X182975904Y-149829047D01*
X182975904Y-149638571D01*
X182937809Y-149562380D01*
X182899714Y-149524285D01*
X182823523Y-149486190D01*
X182747333Y-149486190D01*
X182671142Y-149524285D01*
X182633047Y-149562380D01*
X182594952Y-149638571D01*
X182556857Y-149790952D01*
X182518761Y-149867142D01*
X182480666Y-149905238D01*
X182404476Y-149943333D01*
X182328285Y-149943333D01*
X182252095Y-149905238D01*
X182214000Y-149867142D01*
X182175904Y-149790952D01*
X182175904Y-149600476D01*
X182214000Y-149486190D01*
X182556857Y-149143333D02*
X182556857Y-148876666D01*
X182975904Y-148762380D02*
X182975904Y-149143333D01*
X182175904Y-149143333D01*
X182175904Y-148762380D01*
X182175904Y-148533809D02*
X182175904Y-148076666D01*
X182975904Y-148305238D02*
X182175904Y-148305238D01*
X160975904Y-150971904D02*
X160594952Y-151238571D01*
X160975904Y-151429047D02*
X160175904Y-151429047D01*
X160175904Y-151124285D01*
X160214000Y-151048095D01*
X160252095Y-151010000D01*
X160328285Y-150971904D01*
X160442571Y-150971904D01*
X160518761Y-151010000D01*
X160556857Y-151048095D01*
X160594952Y-151124285D01*
X160594952Y-151429047D01*
X160556857Y-150629047D02*
X160556857Y-150362380D01*
X160975904Y-150248095D02*
X160975904Y-150629047D01*
X160175904Y-150629047D01*
X160175904Y-150248095D01*
X160937809Y-149943333D02*
X160975904Y-149829047D01*
X160975904Y-149638571D01*
X160937809Y-149562380D01*
X160899714Y-149524285D01*
X160823523Y-149486190D01*
X160747333Y-149486190D01*
X160671142Y-149524285D01*
X160633047Y-149562380D01*
X160594952Y-149638571D01*
X160556857Y-149790952D01*
X160518761Y-149867142D01*
X160480666Y-149905238D01*
X160404476Y-149943333D01*
X160328285Y-149943333D01*
X160252095Y-149905238D01*
X160214000Y-149867142D01*
X160175904Y-149790952D01*
X160175904Y-149600476D01*
X160214000Y-149486190D01*
X160556857Y-149143333D02*
X160556857Y-148876666D01*
X160975904Y-148762380D02*
X160975904Y-149143333D01*
X160175904Y-149143333D01*
X160175904Y-148762380D01*
X160175904Y-148533809D02*
X160175904Y-148076666D01*
X160975904Y-148305238D02*
X160175904Y-148305238D01*
X138975904Y-150971904D02*
X138594952Y-151238571D01*
X138975904Y-151429047D02*
X138175904Y-151429047D01*
X138175904Y-151124285D01*
X138214000Y-151048095D01*
X138252095Y-151010000D01*
X138328285Y-150971904D01*
X138442571Y-150971904D01*
X138518761Y-151010000D01*
X138556857Y-151048095D01*
X138594952Y-151124285D01*
X138594952Y-151429047D01*
X138556857Y-150629047D02*
X138556857Y-150362380D01*
X138975904Y-150248095D02*
X138975904Y-150629047D01*
X138175904Y-150629047D01*
X138175904Y-150248095D01*
X138937809Y-149943333D02*
X138975904Y-149829047D01*
X138975904Y-149638571D01*
X138937809Y-149562380D01*
X138899714Y-149524285D01*
X138823523Y-149486190D01*
X138747333Y-149486190D01*
X138671142Y-149524285D01*
X138633047Y-149562380D01*
X138594952Y-149638571D01*
X138556857Y-149790952D01*
X138518761Y-149867142D01*
X138480666Y-149905238D01*
X138404476Y-149943333D01*
X138328285Y-149943333D01*
X138252095Y-149905238D01*
X138214000Y-149867142D01*
X138175904Y-149790952D01*
X138175904Y-149600476D01*
X138214000Y-149486190D01*
X138556857Y-149143333D02*
X138556857Y-148876666D01*
X138975904Y-148762380D02*
X138975904Y-149143333D01*
X138175904Y-149143333D01*
X138175904Y-148762380D01*
X138175904Y-148533809D02*
X138175904Y-148076666D01*
X138975904Y-148305238D02*
X138175904Y-148305238D01*
X116975904Y-150971904D02*
X116594952Y-151238571D01*
X116975904Y-151429047D02*
X116175904Y-151429047D01*
X116175904Y-151124285D01*
X116214000Y-151048095D01*
X116252095Y-151010000D01*
X116328285Y-150971904D01*
X116442571Y-150971904D01*
X116518761Y-151010000D01*
X116556857Y-151048095D01*
X116594952Y-151124285D01*
X116594952Y-151429047D01*
X116556857Y-150629047D02*
X116556857Y-150362380D01*
X116975904Y-150248095D02*
X116975904Y-150629047D01*
X116175904Y-150629047D01*
X116175904Y-150248095D01*
X116937809Y-149943333D02*
X116975904Y-149829047D01*
X116975904Y-149638571D01*
X116937809Y-149562380D01*
X116899714Y-149524285D01*
X116823523Y-149486190D01*
X116747333Y-149486190D01*
X116671142Y-149524285D01*
X116633047Y-149562380D01*
X116594952Y-149638571D01*
X116556857Y-149790952D01*
X116518761Y-149867142D01*
X116480666Y-149905238D01*
X116404476Y-149943333D01*
X116328285Y-149943333D01*
X116252095Y-149905238D01*
X116214000Y-149867142D01*
X116175904Y-149790952D01*
X116175904Y-149600476D01*
X116214000Y-149486190D01*
X116556857Y-149143333D02*
X116556857Y-148876666D01*
X116975904Y-148762380D02*
X116975904Y-149143333D01*
X116175904Y-149143333D01*
X116175904Y-148762380D01*
X116175904Y-148533809D02*
X116175904Y-148076666D01*
X116975904Y-148305238D02*
X116175904Y-148305238D01*
X182975904Y-106971904D02*
X182594952Y-107238571D01*
X182975904Y-107429047D02*
X182175904Y-107429047D01*
X182175904Y-107124285D01*
X182214000Y-107048095D01*
X182252095Y-107010000D01*
X182328285Y-106971904D01*
X182442571Y-106971904D01*
X182518761Y-107010000D01*
X182556857Y-107048095D01*
X182594952Y-107124285D01*
X182594952Y-107429047D01*
X182556857Y-106629047D02*
X182556857Y-106362380D01*
X182975904Y-106248095D02*
X182975904Y-106629047D01*
X182175904Y-106629047D01*
X182175904Y-106248095D01*
X182937809Y-105943333D02*
X182975904Y-105829047D01*
X182975904Y-105638571D01*
X182937809Y-105562380D01*
X182899714Y-105524285D01*
X182823523Y-105486190D01*
X182747333Y-105486190D01*
X182671142Y-105524285D01*
X182633047Y-105562380D01*
X182594952Y-105638571D01*
X182556857Y-105790952D01*
X182518761Y-105867142D01*
X182480666Y-105905238D01*
X182404476Y-105943333D01*
X182328285Y-105943333D01*
X182252095Y-105905238D01*
X182214000Y-105867142D01*
X182175904Y-105790952D01*
X182175904Y-105600476D01*
X182214000Y-105486190D01*
X182556857Y-105143333D02*
X182556857Y-104876666D01*
X182975904Y-104762380D02*
X182975904Y-105143333D01*
X182175904Y-105143333D01*
X182175904Y-104762380D01*
X182175904Y-104533809D02*
X182175904Y-104076666D01*
X182975904Y-104305238D02*
X182175904Y-104305238D01*
X160975904Y-106971904D02*
X160594952Y-107238571D01*
X160975904Y-107429047D02*
X160175904Y-107429047D01*
X160175904Y-107124285D01*
X160214000Y-107048095D01*
X160252095Y-107010000D01*
X160328285Y-106971904D01*
X160442571Y-106971904D01*
X160518761Y-107010000D01*
X160556857Y-107048095D01*
X160594952Y-107124285D01*
X160594952Y-107429047D01*
X160556857Y-106629047D02*
X160556857Y-106362380D01*
X160975904Y-106248095D02*
X160975904Y-106629047D01*
X160175904Y-106629047D01*
X160175904Y-106248095D01*
X160937809Y-105943333D02*
X160975904Y-105829047D01*
X160975904Y-105638571D01*
X160937809Y-105562380D01*
X160899714Y-105524285D01*
X160823523Y-105486190D01*
X160747333Y-105486190D01*
X160671142Y-105524285D01*
X160633047Y-105562380D01*
X160594952Y-105638571D01*
X160556857Y-105790952D01*
X160518761Y-105867142D01*
X160480666Y-105905238D01*
X160404476Y-105943333D01*
X160328285Y-105943333D01*
X160252095Y-105905238D01*
X160214000Y-105867142D01*
X160175904Y-105790952D01*
X160175904Y-105600476D01*
X160214000Y-105486190D01*
X160556857Y-105143333D02*
X160556857Y-104876666D01*
X160975904Y-104762380D02*
X160975904Y-105143333D01*
X160175904Y-105143333D01*
X160175904Y-104762380D01*
X160175904Y-104533809D02*
X160175904Y-104076666D01*
X160975904Y-104305238D02*
X160175904Y-104305238D01*
X138975904Y-106971904D02*
X138594952Y-107238571D01*
X138975904Y-107429047D02*
X138175904Y-107429047D01*
X138175904Y-107124285D01*
X138214000Y-107048095D01*
X138252095Y-107010000D01*
X138328285Y-106971904D01*
X138442571Y-106971904D01*
X138518761Y-107010000D01*
X138556857Y-107048095D01*
X138594952Y-107124285D01*
X138594952Y-107429047D01*
X138556857Y-106629047D02*
X138556857Y-106362380D01*
X138975904Y-106248095D02*
X138975904Y-106629047D01*
X138175904Y-106629047D01*
X138175904Y-106248095D01*
X138937809Y-105943333D02*
X138975904Y-105829047D01*
X138975904Y-105638571D01*
X138937809Y-105562380D01*
X138899714Y-105524285D01*
X138823523Y-105486190D01*
X138747333Y-105486190D01*
X138671142Y-105524285D01*
X138633047Y-105562380D01*
X138594952Y-105638571D01*
X138556857Y-105790952D01*
X138518761Y-105867142D01*
X138480666Y-105905238D01*
X138404476Y-105943333D01*
X138328285Y-105943333D01*
X138252095Y-105905238D01*
X138214000Y-105867142D01*
X138175904Y-105790952D01*
X138175904Y-105600476D01*
X138214000Y-105486190D01*
X138556857Y-105143333D02*
X138556857Y-104876666D01*
X138975904Y-104762380D02*
X138975904Y-105143333D01*
X138175904Y-105143333D01*
X138175904Y-104762380D01*
X138175904Y-104533809D02*
X138175904Y-104076666D01*
X138975904Y-104305238D02*
X138175904Y-104305238D01*
X202622857Y-151149714D02*
X202660952Y-151035428D01*
X202699047Y-150997333D01*
X202775238Y-150959238D01*
X202889523Y-150959238D01*
X202965714Y-150997333D01*
X203003809Y-151035428D01*
X203041904Y-151111619D01*
X203041904Y-151416380D01*
X202241904Y-151416380D01*
X202241904Y-151149714D01*
X202280000Y-151073523D01*
X202318095Y-151035428D01*
X202394285Y-150997333D01*
X202470476Y-150997333D01*
X202546666Y-151035428D01*
X202584761Y-151073523D01*
X202622857Y-151149714D01*
X202622857Y-151416380D01*
X202241904Y-150464000D02*
X202241904Y-150311619D01*
X202280000Y-150235428D01*
X202356190Y-150159238D01*
X202508571Y-150121142D01*
X202775238Y-150121142D01*
X202927619Y-150159238D01*
X203003809Y-150235428D01*
X203041904Y-150311619D01*
X203041904Y-150464000D01*
X203003809Y-150540190D01*
X202927619Y-150616380D01*
X202775238Y-150654476D01*
X202508571Y-150654476D01*
X202356190Y-150616380D01*
X202280000Y-150540190D01*
X202241904Y-150464000D01*
X202241904Y-149625904D02*
X202241904Y-149473523D01*
X202280000Y-149397333D01*
X202356190Y-149321142D01*
X202508571Y-149283047D01*
X202775238Y-149283047D01*
X202927619Y-149321142D01*
X203003809Y-149397333D01*
X203041904Y-149473523D01*
X203041904Y-149625904D01*
X203003809Y-149702095D01*
X202927619Y-149778285D01*
X202775238Y-149816380D01*
X202508571Y-149816380D01*
X202356190Y-149778285D01*
X202280000Y-149702095D01*
X202241904Y-149625904D01*
X202241904Y-149054476D02*
X202241904Y-148597333D01*
X203041904Y-148825904D02*
X202241904Y-148825904D01*
X180622857Y-151149714D02*
X180660952Y-151035428D01*
X180699047Y-150997333D01*
X180775238Y-150959238D01*
X180889523Y-150959238D01*
X180965714Y-150997333D01*
X181003809Y-151035428D01*
X181041904Y-151111619D01*
X181041904Y-151416380D01*
X180241904Y-151416380D01*
X180241904Y-151149714D01*
X180280000Y-151073523D01*
X180318095Y-151035428D01*
X180394285Y-150997333D01*
X180470476Y-150997333D01*
X180546666Y-151035428D01*
X180584761Y-151073523D01*
X180622857Y-151149714D01*
X180622857Y-151416380D01*
X180241904Y-150464000D02*
X180241904Y-150311619D01*
X180280000Y-150235428D01*
X180356190Y-150159238D01*
X180508571Y-150121142D01*
X180775238Y-150121142D01*
X180927619Y-150159238D01*
X181003809Y-150235428D01*
X181041904Y-150311619D01*
X181041904Y-150464000D01*
X181003809Y-150540190D01*
X180927619Y-150616380D01*
X180775238Y-150654476D01*
X180508571Y-150654476D01*
X180356190Y-150616380D01*
X180280000Y-150540190D01*
X180241904Y-150464000D01*
X180241904Y-149625904D02*
X180241904Y-149473523D01*
X180280000Y-149397333D01*
X180356190Y-149321142D01*
X180508571Y-149283047D01*
X180775238Y-149283047D01*
X180927619Y-149321142D01*
X181003809Y-149397333D01*
X181041904Y-149473523D01*
X181041904Y-149625904D01*
X181003809Y-149702095D01*
X180927619Y-149778285D01*
X180775238Y-149816380D01*
X180508571Y-149816380D01*
X180356190Y-149778285D01*
X180280000Y-149702095D01*
X180241904Y-149625904D01*
X180241904Y-149054476D02*
X180241904Y-148597333D01*
X181041904Y-148825904D02*
X180241904Y-148825904D01*
X158622857Y-151149714D02*
X158660952Y-151035428D01*
X158699047Y-150997333D01*
X158775238Y-150959238D01*
X158889523Y-150959238D01*
X158965714Y-150997333D01*
X159003809Y-151035428D01*
X159041904Y-151111619D01*
X159041904Y-151416380D01*
X158241904Y-151416380D01*
X158241904Y-151149714D01*
X158280000Y-151073523D01*
X158318095Y-151035428D01*
X158394285Y-150997333D01*
X158470476Y-150997333D01*
X158546666Y-151035428D01*
X158584761Y-151073523D01*
X158622857Y-151149714D01*
X158622857Y-151416380D01*
X158241904Y-150464000D02*
X158241904Y-150311619D01*
X158280000Y-150235428D01*
X158356190Y-150159238D01*
X158508571Y-150121142D01*
X158775238Y-150121142D01*
X158927619Y-150159238D01*
X159003809Y-150235428D01*
X159041904Y-150311619D01*
X159041904Y-150464000D01*
X159003809Y-150540190D01*
X158927619Y-150616380D01*
X158775238Y-150654476D01*
X158508571Y-150654476D01*
X158356190Y-150616380D01*
X158280000Y-150540190D01*
X158241904Y-150464000D01*
X158241904Y-149625904D02*
X158241904Y-149473523D01*
X158280000Y-149397333D01*
X158356190Y-149321142D01*
X158508571Y-149283047D01*
X158775238Y-149283047D01*
X158927619Y-149321142D01*
X159003809Y-149397333D01*
X159041904Y-149473523D01*
X159041904Y-149625904D01*
X159003809Y-149702095D01*
X158927619Y-149778285D01*
X158775238Y-149816380D01*
X158508571Y-149816380D01*
X158356190Y-149778285D01*
X158280000Y-149702095D01*
X158241904Y-149625904D01*
X158241904Y-149054476D02*
X158241904Y-148597333D01*
X159041904Y-148825904D02*
X158241904Y-148825904D01*
X136622857Y-151149714D02*
X136660952Y-151035428D01*
X136699047Y-150997333D01*
X136775238Y-150959238D01*
X136889523Y-150959238D01*
X136965714Y-150997333D01*
X137003809Y-151035428D01*
X137041904Y-151111619D01*
X137041904Y-151416380D01*
X136241904Y-151416380D01*
X136241904Y-151149714D01*
X136280000Y-151073523D01*
X136318095Y-151035428D01*
X136394285Y-150997333D01*
X136470476Y-150997333D01*
X136546666Y-151035428D01*
X136584761Y-151073523D01*
X136622857Y-151149714D01*
X136622857Y-151416380D01*
X136241904Y-150464000D02*
X136241904Y-150311619D01*
X136280000Y-150235428D01*
X136356190Y-150159238D01*
X136508571Y-150121142D01*
X136775238Y-150121142D01*
X136927619Y-150159238D01*
X137003809Y-150235428D01*
X137041904Y-150311619D01*
X137041904Y-150464000D01*
X137003809Y-150540190D01*
X136927619Y-150616380D01*
X136775238Y-150654476D01*
X136508571Y-150654476D01*
X136356190Y-150616380D01*
X136280000Y-150540190D01*
X136241904Y-150464000D01*
X136241904Y-149625904D02*
X136241904Y-149473523D01*
X136280000Y-149397333D01*
X136356190Y-149321142D01*
X136508571Y-149283047D01*
X136775238Y-149283047D01*
X136927619Y-149321142D01*
X137003809Y-149397333D01*
X137041904Y-149473523D01*
X137041904Y-149625904D01*
X137003809Y-149702095D01*
X136927619Y-149778285D01*
X136775238Y-149816380D01*
X136508571Y-149816380D01*
X136356190Y-149778285D01*
X136280000Y-149702095D01*
X136241904Y-149625904D01*
X136241904Y-149054476D02*
X136241904Y-148597333D01*
X137041904Y-148825904D02*
X136241904Y-148825904D01*
X202622857Y-107149714D02*
X202660952Y-107035428D01*
X202699047Y-106997333D01*
X202775238Y-106959238D01*
X202889523Y-106959238D01*
X202965714Y-106997333D01*
X203003809Y-107035428D01*
X203041904Y-107111619D01*
X203041904Y-107416380D01*
X202241904Y-107416380D01*
X202241904Y-107149714D01*
X202280000Y-107073523D01*
X202318095Y-107035428D01*
X202394285Y-106997333D01*
X202470476Y-106997333D01*
X202546666Y-107035428D01*
X202584761Y-107073523D01*
X202622857Y-107149714D01*
X202622857Y-107416380D01*
X202241904Y-106464000D02*
X202241904Y-106311619D01*
X202280000Y-106235428D01*
X202356190Y-106159238D01*
X202508571Y-106121142D01*
X202775238Y-106121142D01*
X202927619Y-106159238D01*
X203003809Y-106235428D01*
X203041904Y-106311619D01*
X203041904Y-106464000D01*
X203003809Y-106540190D01*
X202927619Y-106616380D01*
X202775238Y-106654476D01*
X202508571Y-106654476D01*
X202356190Y-106616380D01*
X202280000Y-106540190D01*
X202241904Y-106464000D01*
X202241904Y-105625904D02*
X202241904Y-105473523D01*
X202280000Y-105397333D01*
X202356190Y-105321142D01*
X202508571Y-105283047D01*
X202775238Y-105283047D01*
X202927619Y-105321142D01*
X203003809Y-105397333D01*
X203041904Y-105473523D01*
X203041904Y-105625904D01*
X203003809Y-105702095D01*
X202927619Y-105778285D01*
X202775238Y-105816380D01*
X202508571Y-105816380D01*
X202356190Y-105778285D01*
X202280000Y-105702095D01*
X202241904Y-105625904D01*
X202241904Y-105054476D02*
X202241904Y-104597333D01*
X203041904Y-104825904D02*
X202241904Y-104825904D01*
X180622857Y-107149714D02*
X180660952Y-107035428D01*
X180699047Y-106997333D01*
X180775238Y-106959238D01*
X180889523Y-106959238D01*
X180965714Y-106997333D01*
X181003809Y-107035428D01*
X181041904Y-107111619D01*
X181041904Y-107416380D01*
X180241904Y-107416380D01*
X180241904Y-107149714D01*
X180280000Y-107073523D01*
X180318095Y-107035428D01*
X180394285Y-106997333D01*
X180470476Y-106997333D01*
X180546666Y-107035428D01*
X180584761Y-107073523D01*
X180622857Y-107149714D01*
X180622857Y-107416380D01*
X180241904Y-106464000D02*
X180241904Y-106311619D01*
X180280000Y-106235428D01*
X180356190Y-106159238D01*
X180508571Y-106121142D01*
X180775238Y-106121142D01*
X180927619Y-106159238D01*
X181003809Y-106235428D01*
X181041904Y-106311619D01*
X181041904Y-106464000D01*
X181003809Y-106540190D01*
X180927619Y-106616380D01*
X180775238Y-106654476D01*
X180508571Y-106654476D01*
X180356190Y-106616380D01*
X180280000Y-106540190D01*
X180241904Y-106464000D01*
X180241904Y-105625904D02*
X180241904Y-105473523D01*
X180280000Y-105397333D01*
X180356190Y-105321142D01*
X180508571Y-105283047D01*
X180775238Y-105283047D01*
X180927619Y-105321142D01*
X181003809Y-105397333D01*
X181041904Y-105473523D01*
X181041904Y-105625904D01*
X181003809Y-105702095D01*
X180927619Y-105778285D01*
X180775238Y-105816380D01*
X180508571Y-105816380D01*
X180356190Y-105778285D01*
X180280000Y-105702095D01*
X180241904Y-105625904D01*
X180241904Y-105054476D02*
X180241904Y-104597333D01*
X181041904Y-104825904D02*
X180241904Y-104825904D01*
X158622857Y-107149714D02*
X158660952Y-107035428D01*
X158699047Y-106997333D01*
X158775238Y-106959238D01*
X158889523Y-106959238D01*
X158965714Y-106997333D01*
X159003809Y-107035428D01*
X159041904Y-107111619D01*
X159041904Y-107416380D01*
X158241904Y-107416380D01*
X158241904Y-107149714D01*
X158280000Y-107073523D01*
X158318095Y-107035428D01*
X158394285Y-106997333D01*
X158470476Y-106997333D01*
X158546666Y-107035428D01*
X158584761Y-107073523D01*
X158622857Y-107149714D01*
X158622857Y-107416380D01*
X158241904Y-106464000D02*
X158241904Y-106311619D01*
X158280000Y-106235428D01*
X158356190Y-106159238D01*
X158508571Y-106121142D01*
X158775238Y-106121142D01*
X158927619Y-106159238D01*
X159003809Y-106235428D01*
X159041904Y-106311619D01*
X159041904Y-106464000D01*
X159003809Y-106540190D01*
X158927619Y-106616380D01*
X158775238Y-106654476D01*
X158508571Y-106654476D01*
X158356190Y-106616380D01*
X158280000Y-106540190D01*
X158241904Y-106464000D01*
X158241904Y-105625904D02*
X158241904Y-105473523D01*
X158280000Y-105397333D01*
X158356190Y-105321142D01*
X158508571Y-105283047D01*
X158775238Y-105283047D01*
X158927619Y-105321142D01*
X159003809Y-105397333D01*
X159041904Y-105473523D01*
X159041904Y-105625904D01*
X159003809Y-105702095D01*
X158927619Y-105778285D01*
X158775238Y-105816380D01*
X158508571Y-105816380D01*
X158356190Y-105778285D01*
X158280000Y-105702095D01*
X158241904Y-105625904D01*
X158241904Y-105054476D02*
X158241904Y-104597333D01*
X159041904Y-104825904D02*
X158241904Y-104825904D01*
X131162190Y-102361904D02*
X130705047Y-102361904D01*
X130933619Y-102361904D02*
X130933619Y-101561904D01*
X130857428Y-101676190D01*
X130781238Y-101752380D01*
X130705047Y-101790476D01*
X131924095Y-102361904D02*
X131466952Y-102361904D01*
X131695523Y-102361904D02*
X131695523Y-101561904D01*
X131619333Y-101676190D01*
X131543142Y-101752380D01*
X131466952Y-101790476D01*
X132647904Y-101561904D02*
X132266952Y-101561904D01*
X132228857Y-101942857D01*
X132266952Y-101904761D01*
X132343142Y-101866666D01*
X132533619Y-101866666D01*
X132609809Y-101904761D01*
X132647904Y-101942857D01*
X132686000Y-102019047D01*
X132686000Y-102209523D01*
X132647904Y-102285714D01*
X132609809Y-102323809D01*
X132533619Y-102361904D01*
X132343142Y-102361904D01*
X132266952Y-102323809D01*
X132228857Y-102285714D01*
X132990761Y-101638095D02*
X133028857Y-101600000D01*
X133105047Y-101561904D01*
X133295523Y-101561904D01*
X133371714Y-101600000D01*
X133409809Y-101638095D01*
X133447904Y-101714285D01*
X133447904Y-101790476D01*
X133409809Y-101904761D01*
X132952666Y-102361904D01*
X133447904Y-102361904D01*
X133943142Y-101561904D02*
X134019333Y-101561904D01*
X134095523Y-101600000D01*
X134133619Y-101638095D01*
X134171714Y-101714285D01*
X134209809Y-101866666D01*
X134209809Y-102057142D01*
X134171714Y-102209523D01*
X134133619Y-102285714D01*
X134095523Y-102323809D01*
X134019333Y-102361904D01*
X133943142Y-102361904D01*
X133866952Y-102323809D01*
X133828857Y-102285714D01*
X133790761Y-102209523D01*
X133752666Y-102057142D01*
X133752666Y-101866666D01*
X133790761Y-101714285D01*
X133828857Y-101638095D01*
X133866952Y-101600000D01*
X133943142Y-101561904D01*
X134705047Y-101561904D02*
X134781238Y-101561904D01*
X134857428Y-101600000D01*
X134895523Y-101638095D01*
X134933619Y-101714285D01*
X134971714Y-101866666D01*
X134971714Y-102057142D01*
X134933619Y-102209523D01*
X134895523Y-102285714D01*
X134857428Y-102323809D01*
X134781238Y-102361904D01*
X134705047Y-102361904D01*
X134628857Y-102323809D01*
X134590761Y-102285714D01*
X134552666Y-102209523D01*
X134514571Y-102057142D01*
X134514571Y-101866666D01*
X134552666Y-101714285D01*
X134590761Y-101638095D01*
X134628857Y-101600000D01*
X134705047Y-101561904D01*
X135314571Y-102361904D02*
X135314571Y-101561904D01*
X135314571Y-101866666D02*
X135390761Y-101828571D01*
X135543142Y-101828571D01*
X135619333Y-101866666D01*
X135657428Y-101904761D01*
X135695523Y-101980952D01*
X135695523Y-102209523D01*
X135657428Y-102285714D01*
X135619333Y-102323809D01*
X135543142Y-102361904D01*
X135390761Y-102361904D01*
X135314571Y-102323809D01*
X136038380Y-101828571D02*
X136038380Y-102628571D01*
X136038380Y-101866666D02*
X136114571Y-101828571D01*
X136266952Y-101828571D01*
X136343142Y-101866666D01*
X136381238Y-101904761D01*
X136419333Y-101980952D01*
X136419333Y-102209523D01*
X136381238Y-102285714D01*
X136343142Y-102323809D01*
X136266952Y-102361904D01*
X136114571Y-102361904D01*
X136038380Y-102323809D01*
X136724095Y-102323809D02*
X136800285Y-102361904D01*
X136952666Y-102361904D01*
X137028857Y-102323809D01*
X137066952Y-102247619D01*
X137066952Y-102209523D01*
X137028857Y-102133333D01*
X136952666Y-102095238D01*
X136838380Y-102095238D01*
X136762190Y-102057142D01*
X136724095Y-101980952D01*
X136724095Y-101942857D01*
X136762190Y-101866666D01*
X136838380Y-101828571D01*
X136952666Y-101828571D01*
X137028857Y-101866666D01*
X131277142Y-94487904D02*
X131429523Y-94487904D01*
X131505714Y-94449809D01*
X131543809Y-94411714D01*
X131620000Y-94297428D01*
X131658095Y-94145047D01*
X131658095Y-93840285D01*
X131620000Y-93764095D01*
X131581904Y-93726000D01*
X131505714Y-93687904D01*
X131353333Y-93687904D01*
X131277142Y-93726000D01*
X131239047Y-93764095D01*
X131200952Y-93840285D01*
X131200952Y-94030761D01*
X131239047Y-94106952D01*
X131277142Y-94145047D01*
X131353333Y-94183142D01*
X131505714Y-94183142D01*
X131581904Y-94145047D01*
X131620000Y-94106952D01*
X131658095Y-94030761D01*
X132343809Y-93687904D02*
X132191428Y-93687904D01*
X132115238Y-93726000D01*
X132077142Y-93764095D01*
X132000952Y-93878380D01*
X131962857Y-94030761D01*
X131962857Y-94335523D01*
X132000952Y-94411714D01*
X132039047Y-94449809D01*
X132115238Y-94487904D01*
X132267619Y-94487904D01*
X132343809Y-94449809D01*
X132381904Y-94411714D01*
X132420000Y-94335523D01*
X132420000Y-94145047D01*
X132381904Y-94068857D01*
X132343809Y-94030761D01*
X132267619Y-93992666D01*
X132115238Y-93992666D01*
X132039047Y-94030761D01*
X132000952Y-94068857D01*
X131962857Y-94145047D01*
X132915238Y-93687904D02*
X132991428Y-93687904D01*
X133067619Y-93726000D01*
X133105714Y-93764095D01*
X133143809Y-93840285D01*
X133181904Y-93992666D01*
X133181904Y-94183142D01*
X133143809Y-94335523D01*
X133105714Y-94411714D01*
X133067619Y-94449809D01*
X132991428Y-94487904D01*
X132915238Y-94487904D01*
X132839047Y-94449809D01*
X132800952Y-94411714D01*
X132762857Y-94335523D01*
X132724761Y-94183142D01*
X132724761Y-93992666D01*
X132762857Y-93840285D01*
X132800952Y-93764095D01*
X132839047Y-93726000D01*
X132915238Y-93687904D01*
X133677142Y-93687904D02*
X133753333Y-93687904D01*
X133829523Y-93726000D01*
X133867619Y-93764095D01*
X133905714Y-93840285D01*
X133943809Y-93992666D01*
X133943809Y-94183142D01*
X133905714Y-94335523D01*
X133867619Y-94411714D01*
X133829523Y-94449809D01*
X133753333Y-94487904D01*
X133677142Y-94487904D01*
X133600952Y-94449809D01*
X133562857Y-94411714D01*
X133524761Y-94335523D01*
X133486666Y-94183142D01*
X133486666Y-93992666D01*
X133524761Y-93840285D01*
X133562857Y-93764095D01*
X133600952Y-93726000D01*
X133677142Y-93687904D01*
X134286666Y-94487904D02*
X134286666Y-93687904D01*
X134286666Y-93992666D02*
X134362857Y-93954571D01*
X134515238Y-93954571D01*
X134591428Y-93992666D01*
X134629523Y-94030761D01*
X134667619Y-94106952D01*
X134667619Y-94335523D01*
X134629523Y-94411714D01*
X134591428Y-94449809D01*
X134515238Y-94487904D01*
X134362857Y-94487904D01*
X134286666Y-94449809D01*
X135010476Y-93954571D02*
X135010476Y-94754571D01*
X135010476Y-93992666D02*
X135086666Y-93954571D01*
X135239047Y-93954571D01*
X135315238Y-93992666D01*
X135353333Y-94030761D01*
X135391428Y-94106952D01*
X135391428Y-94335523D01*
X135353333Y-94411714D01*
X135315238Y-94449809D01*
X135239047Y-94487904D01*
X135086666Y-94487904D01*
X135010476Y-94449809D01*
X135696190Y-94449809D02*
X135772380Y-94487904D01*
X135924761Y-94487904D01*
X136000952Y-94449809D01*
X136039047Y-94373619D01*
X136039047Y-94335523D01*
X136000952Y-94259333D01*
X135924761Y-94221238D01*
X135810476Y-94221238D01*
X135734285Y-94183142D01*
X135696190Y-94106952D01*
X135696190Y-94068857D01*
X135734285Y-93992666D01*
X135810476Y-93954571D01*
X135924761Y-93954571D01*
X136000952Y-93992666D01*
X136622857Y-107149714D02*
X136660952Y-107035428D01*
X136699047Y-106997333D01*
X136775238Y-106959238D01*
X136889523Y-106959238D01*
X136965714Y-106997333D01*
X137003809Y-107035428D01*
X137041904Y-107111619D01*
X137041904Y-107416380D01*
X136241904Y-107416380D01*
X136241904Y-107149714D01*
X136280000Y-107073523D01*
X136318095Y-107035428D01*
X136394285Y-106997333D01*
X136470476Y-106997333D01*
X136546666Y-107035428D01*
X136584761Y-107073523D01*
X136622857Y-107149714D01*
X136622857Y-107416380D01*
X136241904Y-106464000D02*
X136241904Y-106311619D01*
X136280000Y-106235428D01*
X136356190Y-106159238D01*
X136508571Y-106121142D01*
X136775238Y-106121142D01*
X136927619Y-106159238D01*
X137003809Y-106235428D01*
X137041904Y-106311619D01*
X137041904Y-106464000D01*
X137003809Y-106540190D01*
X136927619Y-106616380D01*
X136775238Y-106654476D01*
X136508571Y-106654476D01*
X136356190Y-106616380D01*
X136280000Y-106540190D01*
X136241904Y-106464000D01*
X136241904Y-105625904D02*
X136241904Y-105473523D01*
X136280000Y-105397333D01*
X136356190Y-105321142D01*
X136508571Y-105283047D01*
X136775238Y-105283047D01*
X136927619Y-105321142D01*
X137003809Y-105397333D01*
X137041904Y-105473523D01*
X137041904Y-105625904D01*
X137003809Y-105702095D01*
X136927619Y-105778285D01*
X136775238Y-105816380D01*
X136508571Y-105816380D01*
X136356190Y-105778285D01*
X136280000Y-105702095D01*
X136241904Y-105625904D01*
X136241904Y-105054476D02*
X136241904Y-104597333D01*
X137041904Y-104825904D02*
X136241904Y-104825904D01*
X116975904Y-106971904D02*
X116594952Y-107238571D01*
X116975904Y-107429047D02*
X116175904Y-107429047D01*
X116175904Y-107124285D01*
X116214000Y-107048095D01*
X116252095Y-107010000D01*
X116328285Y-106971904D01*
X116442571Y-106971904D01*
X116518761Y-107010000D01*
X116556857Y-107048095D01*
X116594952Y-107124285D01*
X116594952Y-107429047D01*
X116556857Y-106629047D02*
X116556857Y-106362380D01*
X116975904Y-106248095D02*
X116975904Y-106629047D01*
X116175904Y-106629047D01*
X116175904Y-106248095D01*
X116937809Y-105943333D02*
X116975904Y-105829047D01*
X116975904Y-105638571D01*
X116937809Y-105562380D01*
X116899714Y-105524285D01*
X116823523Y-105486190D01*
X116747333Y-105486190D01*
X116671142Y-105524285D01*
X116633047Y-105562380D01*
X116594952Y-105638571D01*
X116556857Y-105790952D01*
X116518761Y-105867142D01*
X116480666Y-105905238D01*
X116404476Y-105943333D01*
X116328285Y-105943333D01*
X116252095Y-105905238D01*
X116214000Y-105867142D01*
X116175904Y-105790952D01*
X116175904Y-105600476D01*
X116214000Y-105486190D01*
X116556857Y-105143333D02*
X116556857Y-104876666D01*
X116975904Y-104762380D02*
X116975904Y-105143333D01*
X116175904Y-105143333D01*
X116175904Y-104762380D01*
X116175904Y-104533809D02*
X116175904Y-104076666D01*
X116975904Y-104305238D02*
X116175904Y-104305238D01*
D11*
%TO.C,R1*%
X185932742Y-144207500D02*
X186407258Y-144207500D01*
X185932742Y-145252500D02*
X186407258Y-145252500D01*
X163932742Y-144207500D02*
X164407258Y-144207500D01*
X163932742Y-145252500D02*
X164407258Y-145252500D01*
X141932742Y-144207500D02*
X142407258Y-144207500D01*
X141932742Y-145252500D02*
X142407258Y-145252500D01*
X119932742Y-144207500D02*
X120407258Y-144207500D01*
X119932742Y-145252500D02*
X120407258Y-145252500D01*
X185932742Y-100207500D02*
X186407258Y-100207500D01*
X185932742Y-101252500D02*
X186407258Y-101252500D01*
X163932742Y-100207500D02*
X164407258Y-100207500D01*
X163932742Y-101252500D02*
X164407258Y-101252500D01*
X141932742Y-100207500D02*
X142407258Y-100207500D01*
X141932742Y-101252500D02*
X142407258Y-101252500D01*
%TO.C,D1*%
X184365000Y-144742500D02*
X184365000Y-142457500D01*
X184365000Y-142457500D02*
X182895000Y-142457500D01*
X182895000Y-142457500D02*
X182895000Y-144742500D01*
X162365000Y-144742500D02*
X162365000Y-142457500D01*
X162365000Y-142457500D02*
X160895000Y-142457500D01*
X160895000Y-142457500D02*
X160895000Y-144742500D01*
X140365000Y-144742500D02*
X140365000Y-142457500D01*
X140365000Y-142457500D02*
X138895000Y-142457500D01*
X138895000Y-142457500D02*
X138895000Y-144742500D01*
X118365000Y-144742500D02*
X118365000Y-142457500D01*
X118365000Y-142457500D02*
X116895000Y-142457500D01*
X116895000Y-142457500D02*
X116895000Y-144742500D01*
X184365000Y-100742500D02*
X184365000Y-98457500D01*
X184365000Y-98457500D02*
X182895000Y-98457500D01*
X182895000Y-98457500D02*
X182895000Y-100742500D01*
X162365000Y-100742500D02*
X162365000Y-98457500D01*
X162365000Y-98457500D02*
X160895000Y-98457500D01*
X160895000Y-98457500D02*
X160895000Y-100742500D01*
X140365000Y-100742500D02*
X140365000Y-98457500D01*
X140365000Y-98457500D02*
X138895000Y-98457500D01*
X138895000Y-98457500D02*
X138895000Y-100742500D01*
%TO.C,C1*%
X195316000Y-142330580D02*
X195316000Y-142049420D01*
X194296000Y-142330580D02*
X194296000Y-142049420D01*
X173316000Y-142330580D02*
X173316000Y-142049420D01*
X172296000Y-142330580D02*
X172296000Y-142049420D01*
X151316000Y-142330580D02*
X151316000Y-142049420D01*
X150296000Y-142330580D02*
X150296000Y-142049420D01*
X129316000Y-142330580D02*
X129316000Y-142049420D01*
X128296000Y-142330580D02*
X128296000Y-142049420D01*
X195316000Y-98330580D02*
X195316000Y-98049420D01*
X194296000Y-98330580D02*
X194296000Y-98049420D01*
X173316000Y-98330580D02*
X173316000Y-98049420D01*
X172296000Y-98330580D02*
X172296000Y-98049420D01*
X151316000Y-98330580D02*
X151316000Y-98049420D01*
X150296000Y-98330580D02*
X150296000Y-98049420D01*
%TO.C,C3*%
X196460000Y-148399420D02*
X196460000Y-148680580D01*
X195440000Y-148399420D02*
X195440000Y-148680580D01*
X174460000Y-148399420D02*
X174460000Y-148680580D01*
X173440000Y-148399420D02*
X173440000Y-148680580D01*
X152460000Y-148399420D02*
X152460000Y-148680580D01*
X151440000Y-148399420D02*
X151440000Y-148680580D01*
X130460000Y-148399420D02*
X130460000Y-148680580D01*
X129440000Y-148399420D02*
X129440000Y-148680580D01*
X196460000Y-104399420D02*
X196460000Y-104680580D01*
X195440000Y-104399420D02*
X195440000Y-104680580D01*
X174460000Y-104399420D02*
X174460000Y-104680580D01*
X173440000Y-104399420D02*
X173440000Y-104680580D01*
X152460000Y-104399420D02*
X152460000Y-104680580D01*
X151440000Y-104399420D02*
X151440000Y-104680580D01*
%TO.C,C4*%
X189220000Y-148399420D02*
X189220000Y-148680580D01*
X188200000Y-148399420D02*
X188200000Y-148680580D01*
X167220000Y-148399420D02*
X167220000Y-148680580D01*
X166200000Y-148399420D02*
X166200000Y-148680580D01*
X145220000Y-148399420D02*
X145220000Y-148680580D01*
X144200000Y-148399420D02*
X144200000Y-148680580D01*
X123220000Y-148399420D02*
X123220000Y-148680580D01*
X122200000Y-148399420D02*
X122200000Y-148680580D01*
X189220000Y-104399420D02*
X189220000Y-104680580D01*
X188200000Y-104399420D02*
X188200000Y-104680580D01*
X167220000Y-104399420D02*
X167220000Y-104680580D01*
X166200000Y-104399420D02*
X166200000Y-104680580D01*
X145220000Y-104399420D02*
X145220000Y-104680580D01*
X144200000Y-104399420D02*
X144200000Y-104680580D01*
%TO.C,R2*%
X191489500Y-142427258D02*
X191489500Y-141952742D01*
X192534500Y-142427258D02*
X192534500Y-141952742D01*
X169489500Y-142427258D02*
X169489500Y-141952742D01*
X170534500Y-142427258D02*
X170534500Y-141952742D01*
X147489500Y-142427258D02*
X147489500Y-141952742D01*
X148534500Y-142427258D02*
X148534500Y-141952742D01*
X125489500Y-142427258D02*
X125489500Y-141952742D01*
X126534500Y-142427258D02*
X126534500Y-141952742D01*
X191489500Y-98427258D02*
X191489500Y-97952742D01*
X192534500Y-98427258D02*
X192534500Y-97952742D01*
X169489500Y-98427258D02*
X169489500Y-97952742D01*
X170534500Y-98427258D02*
X170534500Y-97952742D01*
X147489500Y-98427258D02*
X147489500Y-97952742D01*
X148534500Y-98427258D02*
X148534500Y-97952742D01*
%TO.C,C2*%
X189216000Y-142330580D02*
X189216000Y-142049420D01*
X190236000Y-142330580D02*
X190236000Y-142049420D01*
X167216000Y-142330580D02*
X167216000Y-142049420D01*
X168236000Y-142330580D02*
X168236000Y-142049420D01*
X145216000Y-142330580D02*
X145216000Y-142049420D01*
X146236000Y-142330580D02*
X146236000Y-142049420D01*
X123216000Y-142330580D02*
X123216000Y-142049420D01*
X124236000Y-142330580D02*
X124236000Y-142049420D01*
X189216000Y-98330580D02*
X189216000Y-98049420D01*
X190236000Y-98330580D02*
X190236000Y-98049420D01*
X167216000Y-98330580D02*
X167216000Y-98049420D01*
X168236000Y-98330580D02*
X168236000Y-98049420D01*
X145216000Y-98330580D02*
X145216000Y-98049420D01*
X146236000Y-98330580D02*
X146236000Y-98049420D01*
D12*
%TO.C,IC1*%
X190816000Y-147870000D02*
X190816000Y-146670000D01*
X190816000Y-146670000D02*
X193716000Y-146670000D01*
X193716000Y-146670000D02*
X193716000Y-147870000D01*
X193716000Y-147870000D02*
X190816000Y-147870000D01*
X190766000Y-149120000D02*
X190766000Y-148220000D01*
X168816000Y-147870000D02*
X168816000Y-146670000D01*
X168816000Y-146670000D02*
X171716000Y-146670000D01*
X171716000Y-146670000D02*
X171716000Y-147870000D01*
X171716000Y-147870000D02*
X168816000Y-147870000D01*
X168766000Y-149120000D02*
X168766000Y-148220000D01*
X146816000Y-147870000D02*
X146816000Y-146670000D01*
X146816000Y-146670000D02*
X149716000Y-146670000D01*
X149716000Y-146670000D02*
X149716000Y-147870000D01*
X149716000Y-147870000D02*
X146816000Y-147870000D01*
X146766000Y-149120000D02*
X146766000Y-148220000D01*
X124816000Y-147870000D02*
X124816000Y-146670000D01*
X124816000Y-146670000D02*
X127716000Y-146670000D01*
X127716000Y-146670000D02*
X127716000Y-147870000D01*
X127716000Y-147870000D02*
X124816000Y-147870000D01*
X124766000Y-149120000D02*
X124766000Y-148220000D01*
X190816000Y-103870000D02*
X190816000Y-102670000D01*
X190816000Y-102670000D02*
X193716000Y-102670000D01*
X193716000Y-102670000D02*
X193716000Y-103870000D01*
X193716000Y-103870000D02*
X190816000Y-103870000D01*
X190766000Y-105120000D02*
X190766000Y-104220000D01*
X168816000Y-103870000D02*
X168816000Y-102670000D01*
X168816000Y-102670000D02*
X171716000Y-102670000D01*
X171716000Y-102670000D02*
X171716000Y-103870000D01*
X171716000Y-103870000D02*
X168816000Y-103870000D01*
X168766000Y-105120000D02*
X168766000Y-104220000D01*
X146816000Y-103870000D02*
X146816000Y-102670000D01*
X146816000Y-102670000D02*
X149716000Y-102670000D01*
X149716000Y-102670000D02*
X149716000Y-103870000D01*
X149716000Y-103870000D02*
X146816000Y-103870000D01*
X146766000Y-105120000D02*
X146766000Y-104220000D01*
D11*
%TO.C,R3*%
X196472500Y-145317742D02*
X196472500Y-145792258D01*
X195427500Y-145317742D02*
X195427500Y-145792258D01*
X174472500Y-145317742D02*
X174472500Y-145792258D01*
X173427500Y-145317742D02*
X173427500Y-145792258D01*
X152472500Y-145317742D02*
X152472500Y-145792258D01*
X151427500Y-145317742D02*
X151427500Y-145792258D01*
X130472500Y-145317742D02*
X130472500Y-145792258D01*
X129427500Y-145317742D02*
X129427500Y-145792258D01*
X196472500Y-101317742D02*
X196472500Y-101792258D01*
X195427500Y-101317742D02*
X195427500Y-101792258D01*
X174472500Y-101317742D02*
X174472500Y-101792258D01*
X173427500Y-101317742D02*
X173427500Y-101792258D01*
X152472500Y-101317742D02*
X152472500Y-101792258D01*
X151427500Y-101317742D02*
X151427500Y-101792258D01*
%TO.C,R4*%
X189232500Y-145317742D02*
X189232500Y-145792258D01*
X188187500Y-145317742D02*
X188187500Y-145792258D01*
X167232500Y-145317742D02*
X167232500Y-145792258D01*
X166187500Y-145317742D02*
X166187500Y-145792258D01*
X145232500Y-145317742D02*
X145232500Y-145792258D01*
X144187500Y-145317742D02*
X144187500Y-145792258D01*
X123232500Y-145317742D02*
X123232500Y-145792258D01*
X122187500Y-145317742D02*
X122187500Y-145792258D01*
X189232500Y-101317742D02*
X189232500Y-101792258D01*
X188187500Y-101317742D02*
X188187500Y-101792258D01*
X167232500Y-101317742D02*
X167232500Y-101792258D01*
X166187500Y-101317742D02*
X166187500Y-101792258D01*
X145232500Y-101317742D02*
X145232500Y-101792258D01*
X144187500Y-101317742D02*
X144187500Y-101792258D01*
%TO.C,U1*%
X183384000Y-136050000D02*
X183384000Y-136830000D01*
X183384000Y-136830000D02*
X184384000Y-136830000D01*
X201624000Y-136050000D02*
X201624000Y-136830000D01*
X201624000Y-136830000D02*
X200624000Y-136830000D01*
X183384000Y-111085000D02*
X201624000Y-111085000D01*
X201624000Y-111085000D02*
X201624000Y-117505000D01*
X183384000Y-111085000D02*
X183384000Y-117505000D01*
X183384000Y-117505000D02*
X183004000Y-117505000D01*
X161384000Y-136050000D02*
X161384000Y-136830000D01*
X161384000Y-136830000D02*
X162384000Y-136830000D01*
X179624000Y-136050000D02*
X179624000Y-136830000D01*
X179624000Y-136830000D02*
X178624000Y-136830000D01*
X161384000Y-111085000D02*
X179624000Y-111085000D01*
X179624000Y-111085000D02*
X179624000Y-117505000D01*
X161384000Y-111085000D02*
X161384000Y-117505000D01*
X161384000Y-117505000D02*
X161004000Y-117505000D01*
X139384000Y-136050000D02*
X139384000Y-136830000D01*
X139384000Y-136830000D02*
X140384000Y-136830000D01*
X157624000Y-136050000D02*
X157624000Y-136830000D01*
X157624000Y-136830000D02*
X156624000Y-136830000D01*
X139384000Y-111085000D02*
X157624000Y-111085000D01*
X157624000Y-111085000D02*
X157624000Y-117505000D01*
X139384000Y-111085000D02*
X139384000Y-117505000D01*
X139384000Y-117505000D02*
X139004000Y-117505000D01*
X117384000Y-136050000D02*
X117384000Y-136830000D01*
X117384000Y-136830000D02*
X118384000Y-136830000D01*
X135624000Y-136050000D02*
X135624000Y-136830000D01*
X135624000Y-136830000D02*
X134624000Y-136830000D01*
X117384000Y-111085000D02*
X135624000Y-111085000D01*
X135624000Y-111085000D02*
X135624000Y-117505000D01*
X117384000Y-111085000D02*
X117384000Y-117505000D01*
X117384000Y-117505000D02*
X117004000Y-117505000D01*
X183384000Y-92050000D02*
X183384000Y-92830000D01*
X183384000Y-92830000D02*
X184384000Y-92830000D01*
X201624000Y-92050000D02*
X201624000Y-92830000D01*
X201624000Y-92830000D02*
X200624000Y-92830000D01*
X183384000Y-67085000D02*
X201624000Y-67085000D01*
X201624000Y-67085000D02*
X201624000Y-73505000D01*
X183384000Y-67085000D02*
X183384000Y-73505000D01*
X183384000Y-73505000D02*
X183004000Y-73505000D01*
X161384000Y-92050000D02*
X161384000Y-92830000D01*
X161384000Y-92830000D02*
X162384000Y-92830000D01*
X179624000Y-92050000D02*
X179624000Y-92830000D01*
X179624000Y-92830000D02*
X178624000Y-92830000D01*
X161384000Y-67085000D02*
X179624000Y-67085000D01*
X179624000Y-67085000D02*
X179624000Y-73505000D01*
X161384000Y-67085000D02*
X161384000Y-73505000D01*
X161384000Y-73505000D02*
X161004000Y-73505000D01*
X139384000Y-92050000D02*
X139384000Y-92830000D01*
X139384000Y-92830000D02*
X140384000Y-92830000D01*
X157624000Y-92050000D02*
X157624000Y-92830000D01*
X157624000Y-92830000D02*
X156624000Y-92830000D01*
X139384000Y-67085000D02*
X157624000Y-67085000D01*
X157624000Y-67085000D02*
X157624000Y-73505000D01*
X139384000Y-67085000D02*
X139384000Y-73505000D01*
X139384000Y-73505000D02*
X139004000Y-73505000D01*
D13*
%TO.C,S3*%
X186500000Y-148560000D02*
X186500000Y-151060000D01*
X185400000Y-151910000D02*
X184400000Y-151910000D01*
X183300000Y-148560000D02*
X183300000Y-151060000D01*
X185400000Y-147710000D02*
X184400000Y-147710000D01*
X186161803Y-146910000D02*
G75*
G03*
X186161803Y-146910000I-111803J0D01*
G01*
X186100000Y-146960000D02*
G75*
G03*
X186100000Y-146960000I-50000J0D01*
G01*
X164500000Y-148560000D02*
X164500000Y-151060000D01*
X163400000Y-151910000D02*
X162400000Y-151910000D01*
X161300000Y-148560000D02*
X161300000Y-151060000D01*
X163400000Y-147710000D02*
X162400000Y-147710000D01*
X164161803Y-146910000D02*
G75*
G03*
X164161803Y-146910000I-111803J0D01*
G01*
X164100000Y-146960000D02*
G75*
G03*
X164100000Y-146960000I-50000J0D01*
G01*
X142500000Y-148560000D02*
X142500000Y-151060000D01*
X141400000Y-151910000D02*
X140400000Y-151910000D01*
X139300000Y-148560000D02*
X139300000Y-151060000D01*
X141400000Y-147710000D02*
X140400000Y-147710000D01*
X142161803Y-146910000D02*
G75*
G03*
X142161803Y-146910000I-111803J0D01*
G01*
X142100000Y-146960000D02*
G75*
G03*
X142100000Y-146960000I-50000J0D01*
G01*
X120500000Y-148560000D02*
X120500000Y-151060000D01*
X119400000Y-151910000D02*
X118400000Y-151910000D01*
X117300000Y-148560000D02*
X117300000Y-151060000D01*
X119400000Y-147710000D02*
X118400000Y-147710000D01*
X120161803Y-146910000D02*
G75*
G03*
X120161803Y-146910000I-111803J0D01*
G01*
X120100000Y-146960000D02*
G75*
G03*
X120100000Y-146960000I-50000J0D01*
G01*
X186500000Y-104560000D02*
X186500000Y-107060000D01*
X185400000Y-107910000D02*
X184400000Y-107910000D01*
X183300000Y-104560000D02*
X183300000Y-107060000D01*
X185400000Y-103710000D02*
X184400000Y-103710000D01*
X186161803Y-102910000D02*
G75*
G03*
X186161803Y-102910000I-111803J0D01*
G01*
X186100000Y-102960000D02*
G75*
G03*
X186100000Y-102960000I-50000J0D01*
G01*
X164500000Y-104560000D02*
X164500000Y-107060000D01*
X163400000Y-107910000D02*
X162400000Y-107910000D01*
X161300000Y-104560000D02*
X161300000Y-107060000D01*
X163400000Y-103710000D02*
X162400000Y-103710000D01*
X164161803Y-102910000D02*
G75*
G03*
X164161803Y-102910000I-111803J0D01*
G01*
X164100000Y-102960000D02*
G75*
G03*
X164100000Y-102960000I-50000J0D01*
G01*
X142500000Y-104560000D02*
X142500000Y-107060000D01*
X141400000Y-107910000D02*
X140400000Y-107910000D01*
X139300000Y-104560000D02*
X139300000Y-107060000D01*
X141400000Y-103710000D02*
X140400000Y-103710000D01*
X142161803Y-102910000D02*
G75*
G03*
X142161803Y-102910000I-111803J0D01*
G01*
X142100000Y-102960000D02*
G75*
G03*
X142100000Y-102960000I-50000J0D01*
G01*
%TO.C,S2*%
X201750000Y-148560000D02*
X201750000Y-151060000D01*
X200650000Y-151910000D02*
X199650000Y-151910000D01*
X198550000Y-148560000D02*
X198550000Y-151060000D01*
X200650000Y-147710000D02*
X199650000Y-147710000D01*
X201411803Y-146910000D02*
G75*
G03*
X201411803Y-146910000I-111803J0D01*
G01*
X201350000Y-146960000D02*
G75*
G03*
X201350000Y-146960000I-50000J0D01*
G01*
X179750000Y-148560000D02*
X179750000Y-151060000D01*
X178650000Y-151910000D02*
X177650000Y-151910000D01*
X176550000Y-148560000D02*
X176550000Y-151060000D01*
X178650000Y-147710000D02*
X177650000Y-147710000D01*
X179411803Y-146910000D02*
G75*
G03*
X179411803Y-146910000I-111803J0D01*
G01*
X179350000Y-146960000D02*
G75*
G03*
X179350000Y-146960000I-50000J0D01*
G01*
X157750000Y-148560000D02*
X157750000Y-151060000D01*
X156650000Y-151910000D02*
X155650000Y-151910000D01*
X154550000Y-148560000D02*
X154550000Y-151060000D01*
X156650000Y-147710000D02*
X155650000Y-147710000D01*
X157411803Y-146910000D02*
G75*
G03*
X157411803Y-146910000I-111803J0D01*
G01*
X157350000Y-146960000D02*
G75*
G03*
X157350000Y-146960000I-50000J0D01*
G01*
X135750000Y-148560000D02*
X135750000Y-151060000D01*
X134650000Y-151910000D02*
X133650000Y-151910000D01*
X132550000Y-148560000D02*
X132550000Y-151060000D01*
X134650000Y-147710000D02*
X133650000Y-147710000D01*
X135411803Y-146910000D02*
G75*
G03*
X135411803Y-146910000I-111803J0D01*
G01*
X135350000Y-146960000D02*
G75*
G03*
X135350000Y-146960000I-50000J0D01*
G01*
X201750000Y-104560000D02*
X201750000Y-107060000D01*
X200650000Y-107910000D02*
X199650000Y-107910000D01*
X198550000Y-104560000D02*
X198550000Y-107060000D01*
X200650000Y-103710000D02*
X199650000Y-103710000D01*
X201411803Y-102910000D02*
G75*
G03*
X201411803Y-102910000I-111803J0D01*
G01*
X201350000Y-102960000D02*
G75*
G03*
X201350000Y-102960000I-50000J0D01*
G01*
X179750000Y-104560000D02*
X179750000Y-107060000D01*
X178650000Y-107910000D02*
X177650000Y-107910000D01*
X176550000Y-104560000D02*
X176550000Y-107060000D01*
X178650000Y-103710000D02*
X177650000Y-103710000D01*
X179411803Y-102910000D02*
G75*
G03*
X179411803Y-102910000I-111803J0D01*
G01*
X179350000Y-102960000D02*
G75*
G03*
X179350000Y-102960000I-50000J0D01*
G01*
X157750000Y-104560000D02*
X157750000Y-107060000D01*
X156650000Y-107910000D02*
X155650000Y-107910000D01*
X154550000Y-104560000D02*
X154550000Y-107060000D01*
X156650000Y-103710000D02*
X155650000Y-103710000D01*
X157411803Y-102910000D02*
G75*
G03*
X157411803Y-102910000I-111803J0D01*
G01*
X157350000Y-102960000D02*
G75*
G03*
X157350000Y-102960000I-50000J0D01*
G01*
D11*
%TO.C,J1*%
X189990000Y-153855000D02*
X189990000Y-151195000D01*
X189990000Y-153855000D02*
X197670000Y-153855000D01*
X197670000Y-153855000D02*
X197670000Y-151195000D01*
X189990000Y-151195000D02*
X197670000Y-151195000D01*
X187390000Y-151195000D02*
X188720000Y-151195000D01*
X187390000Y-152525000D02*
X187390000Y-151195000D01*
X167990000Y-153855000D02*
X167990000Y-151195000D01*
X167990000Y-153855000D02*
X175670000Y-153855000D01*
X175670000Y-153855000D02*
X175670000Y-151195000D01*
X167990000Y-151195000D02*
X175670000Y-151195000D01*
X165390000Y-151195000D02*
X166720000Y-151195000D01*
X165390000Y-152525000D02*
X165390000Y-151195000D01*
X145990000Y-153855000D02*
X145990000Y-151195000D01*
X145990000Y-153855000D02*
X153670000Y-153855000D01*
X153670000Y-153855000D02*
X153670000Y-151195000D01*
X145990000Y-151195000D02*
X153670000Y-151195000D01*
X143390000Y-151195000D02*
X144720000Y-151195000D01*
X143390000Y-152525000D02*
X143390000Y-151195000D01*
X123990000Y-153855000D02*
X123990000Y-151195000D01*
X123990000Y-153855000D02*
X131670000Y-153855000D01*
X131670000Y-153855000D02*
X131670000Y-151195000D01*
X123990000Y-151195000D02*
X131670000Y-151195000D01*
X121390000Y-151195000D02*
X122720000Y-151195000D01*
X121390000Y-152525000D02*
X121390000Y-151195000D01*
X189990000Y-109855000D02*
X189990000Y-107195000D01*
X189990000Y-109855000D02*
X197670000Y-109855000D01*
X197670000Y-109855000D02*
X197670000Y-107195000D01*
X189990000Y-107195000D02*
X197670000Y-107195000D01*
X187390000Y-107195000D02*
X188720000Y-107195000D01*
X187390000Y-108525000D02*
X187390000Y-107195000D01*
X167990000Y-109855000D02*
X167990000Y-107195000D01*
X167990000Y-109855000D02*
X175670000Y-109855000D01*
X175670000Y-109855000D02*
X175670000Y-107195000D01*
X167990000Y-107195000D02*
X175670000Y-107195000D01*
X165390000Y-107195000D02*
X166720000Y-107195000D01*
X165390000Y-108525000D02*
X165390000Y-107195000D01*
X145990000Y-109855000D02*
X145990000Y-107195000D01*
X145990000Y-109855000D02*
X153670000Y-109855000D01*
X153670000Y-109855000D02*
X153670000Y-107195000D01*
X145990000Y-107195000D02*
X153670000Y-107195000D01*
X143390000Y-107195000D02*
X144720000Y-107195000D01*
X143390000Y-108525000D02*
X143390000Y-107195000D01*
X121390000Y-108525000D02*
X121390000Y-107195000D01*
X121390000Y-107195000D02*
X122720000Y-107195000D01*
X123990000Y-107195000D02*
X131670000Y-107195000D01*
X131670000Y-109855000D02*
X131670000Y-107195000D01*
X123990000Y-109855000D02*
X131670000Y-109855000D01*
X123990000Y-109855000D02*
X123990000Y-107195000D01*
%TO.C,U1*%
X117384000Y-73505000D02*
X117004000Y-73505000D01*
X117384000Y-67085000D02*
X117384000Y-73505000D01*
X135624000Y-67085000D02*
X135624000Y-73505000D01*
X117384000Y-67085000D02*
X135624000Y-67085000D01*
X135624000Y-92830000D02*
X134624000Y-92830000D01*
X135624000Y-92050000D02*
X135624000Y-92830000D01*
X117384000Y-92830000D02*
X118384000Y-92830000D01*
X117384000Y-92050000D02*
X117384000Y-92830000D01*
%TO.C,D1*%
X116895000Y-98457500D02*
X116895000Y-100742500D01*
X118365000Y-98457500D02*
X116895000Y-98457500D01*
X118365000Y-100742500D02*
X118365000Y-98457500D01*
D13*
%TO.C,S3*%
X120100000Y-102960000D02*
G75*
G03*
X120100000Y-102960000I-50000J0D01*
G01*
X120161803Y-102910000D02*
G75*
G03*
X120161803Y-102910000I-111803J0D01*
G01*
X119400000Y-103710000D02*
X118400000Y-103710000D01*
X117300000Y-104560000D02*
X117300000Y-107060000D01*
X119400000Y-107910000D02*
X118400000Y-107910000D01*
X120500000Y-104560000D02*
X120500000Y-107060000D01*
%TO.C,S2*%
X135350000Y-102960000D02*
G75*
G03*
X135350000Y-102960000I-50000J0D01*
G01*
X135411803Y-102910000D02*
G75*
G03*
X135411803Y-102910000I-111803J0D01*
G01*
X134650000Y-103710000D02*
X133650000Y-103710000D01*
X132550000Y-104560000D02*
X132550000Y-107060000D01*
X134650000Y-107910000D02*
X133650000Y-107910000D01*
X135750000Y-104560000D02*
X135750000Y-107060000D01*
D11*
%TO.C,R4*%
X122187500Y-101317742D02*
X122187500Y-101792258D01*
X123232500Y-101317742D02*
X123232500Y-101792258D01*
%TO.C,R3*%
X129427500Y-101317742D02*
X129427500Y-101792258D01*
X130472500Y-101317742D02*
X130472500Y-101792258D01*
%TO.C,R2*%
X126534500Y-98427258D02*
X126534500Y-97952742D01*
X125489500Y-98427258D02*
X125489500Y-97952742D01*
%TO.C,R1*%
X119932742Y-101252500D02*
X120407258Y-101252500D01*
X119932742Y-100207500D02*
X120407258Y-100207500D01*
D12*
%TO.C,IC1*%
X124766000Y-105120000D02*
X124766000Y-104220000D01*
X127716000Y-103870000D02*
X124816000Y-103870000D01*
X127716000Y-102670000D02*
X127716000Y-103870000D01*
X124816000Y-102670000D02*
X127716000Y-102670000D01*
X124816000Y-103870000D02*
X124816000Y-102670000D01*
D11*
%TO.C,C4*%
X122200000Y-104399420D02*
X122200000Y-104680580D01*
X123220000Y-104399420D02*
X123220000Y-104680580D01*
%TO.C,C3*%
X129440000Y-104399420D02*
X129440000Y-104680580D01*
X130460000Y-104399420D02*
X130460000Y-104680580D01*
%TO.C,C2*%
X124236000Y-98330580D02*
X124236000Y-98049420D01*
X123216000Y-98330580D02*
X123216000Y-98049420D01*
%TO.C,C1*%
X128296000Y-98330580D02*
X128296000Y-98049420D01*
X129316000Y-98330580D02*
X129316000Y-98049420D01*
%TO.C,SW1*%
D10*
X196253809Y-142748666D02*
X196291904Y-142634380D01*
X196291904Y-142443904D01*
X196253809Y-142367714D01*
X196215714Y-142329619D01*
X196139523Y-142291523D01*
X196063333Y-142291523D01*
X195987142Y-142329619D01*
X195949047Y-142367714D01*
X195910952Y-142443904D01*
X195872857Y-142596285D01*
X195834761Y-142672476D01*
X195796666Y-142710571D01*
X195720476Y-142748666D01*
X195644285Y-142748666D01*
X195568095Y-142710571D01*
X195530000Y-142672476D01*
X195491904Y-142596285D01*
X195491904Y-142405809D01*
X195530000Y-142291523D01*
X195491904Y-142024857D02*
X196291904Y-141834380D01*
X195720476Y-141682000D01*
X196291904Y-141529619D01*
X195491904Y-141339142D01*
X196291904Y-140615333D02*
X196291904Y-141072476D01*
X196291904Y-140843904D02*
X195491904Y-140843904D01*
X195606190Y-140920095D01*
X195682380Y-140996285D01*
X195720476Y-141072476D01*
X174253809Y-142748666D02*
X174291904Y-142634380D01*
X174291904Y-142443904D01*
X174253809Y-142367714D01*
X174215714Y-142329619D01*
X174139523Y-142291523D01*
X174063333Y-142291523D01*
X173987142Y-142329619D01*
X173949047Y-142367714D01*
X173910952Y-142443904D01*
X173872857Y-142596285D01*
X173834761Y-142672476D01*
X173796666Y-142710571D01*
X173720476Y-142748666D01*
X173644285Y-142748666D01*
X173568095Y-142710571D01*
X173530000Y-142672476D01*
X173491904Y-142596285D01*
X173491904Y-142405809D01*
X173530000Y-142291523D01*
X173491904Y-142024857D02*
X174291904Y-141834380D01*
X173720476Y-141682000D01*
X174291904Y-141529619D01*
X173491904Y-141339142D01*
X174291904Y-140615333D02*
X174291904Y-141072476D01*
X174291904Y-140843904D02*
X173491904Y-140843904D01*
X173606190Y-140920095D01*
X173682380Y-140996285D01*
X173720476Y-141072476D01*
X152253809Y-142748666D02*
X152291904Y-142634380D01*
X152291904Y-142443904D01*
X152253809Y-142367714D01*
X152215714Y-142329619D01*
X152139523Y-142291523D01*
X152063333Y-142291523D01*
X151987142Y-142329619D01*
X151949047Y-142367714D01*
X151910952Y-142443904D01*
X151872857Y-142596285D01*
X151834761Y-142672476D01*
X151796666Y-142710571D01*
X151720476Y-142748666D01*
X151644285Y-142748666D01*
X151568095Y-142710571D01*
X151530000Y-142672476D01*
X151491904Y-142596285D01*
X151491904Y-142405809D01*
X151530000Y-142291523D01*
X151491904Y-142024857D02*
X152291904Y-141834380D01*
X151720476Y-141682000D01*
X152291904Y-141529619D01*
X151491904Y-141339142D01*
X152291904Y-140615333D02*
X152291904Y-141072476D01*
X152291904Y-140843904D02*
X151491904Y-140843904D01*
X151606190Y-140920095D01*
X151682380Y-140996285D01*
X151720476Y-141072476D01*
X130253809Y-142748666D02*
X130291904Y-142634380D01*
X130291904Y-142443904D01*
X130253809Y-142367714D01*
X130215714Y-142329619D01*
X130139523Y-142291523D01*
X130063333Y-142291523D01*
X129987142Y-142329619D01*
X129949047Y-142367714D01*
X129910952Y-142443904D01*
X129872857Y-142596285D01*
X129834761Y-142672476D01*
X129796666Y-142710571D01*
X129720476Y-142748666D01*
X129644285Y-142748666D01*
X129568095Y-142710571D01*
X129530000Y-142672476D01*
X129491904Y-142596285D01*
X129491904Y-142405809D01*
X129530000Y-142291523D01*
X129491904Y-142024857D02*
X130291904Y-141834380D01*
X129720476Y-141682000D01*
X130291904Y-141529619D01*
X129491904Y-141339142D01*
X130291904Y-140615333D02*
X130291904Y-141072476D01*
X130291904Y-140843904D02*
X129491904Y-140843904D01*
X129606190Y-140920095D01*
X129682380Y-140996285D01*
X129720476Y-141072476D01*
X196253809Y-98748666D02*
X196291904Y-98634380D01*
X196291904Y-98443904D01*
X196253809Y-98367714D01*
X196215714Y-98329619D01*
X196139523Y-98291523D01*
X196063333Y-98291523D01*
X195987142Y-98329619D01*
X195949047Y-98367714D01*
X195910952Y-98443904D01*
X195872857Y-98596285D01*
X195834761Y-98672476D01*
X195796666Y-98710571D01*
X195720476Y-98748666D01*
X195644285Y-98748666D01*
X195568095Y-98710571D01*
X195530000Y-98672476D01*
X195491904Y-98596285D01*
X195491904Y-98405809D01*
X195530000Y-98291523D01*
X195491904Y-98024857D02*
X196291904Y-97834380D01*
X195720476Y-97682000D01*
X196291904Y-97529619D01*
X195491904Y-97339142D01*
X196291904Y-96615333D02*
X196291904Y-97072476D01*
X196291904Y-96843904D02*
X195491904Y-96843904D01*
X195606190Y-96920095D01*
X195682380Y-96996285D01*
X195720476Y-97072476D01*
X174253809Y-98748666D02*
X174291904Y-98634380D01*
X174291904Y-98443904D01*
X174253809Y-98367714D01*
X174215714Y-98329619D01*
X174139523Y-98291523D01*
X174063333Y-98291523D01*
X173987142Y-98329619D01*
X173949047Y-98367714D01*
X173910952Y-98443904D01*
X173872857Y-98596285D01*
X173834761Y-98672476D01*
X173796666Y-98710571D01*
X173720476Y-98748666D01*
X173644285Y-98748666D01*
X173568095Y-98710571D01*
X173530000Y-98672476D01*
X173491904Y-98596285D01*
X173491904Y-98405809D01*
X173530000Y-98291523D01*
X173491904Y-98024857D02*
X174291904Y-97834380D01*
X173720476Y-97682000D01*
X174291904Y-97529619D01*
X173491904Y-97339142D01*
X174291904Y-96615333D02*
X174291904Y-97072476D01*
X174291904Y-96843904D02*
X173491904Y-96843904D01*
X173606190Y-96920095D01*
X173682380Y-96996285D01*
X173720476Y-97072476D01*
X152253809Y-98748666D02*
X152291904Y-98634380D01*
X152291904Y-98443904D01*
X152253809Y-98367714D01*
X152215714Y-98329619D01*
X152139523Y-98291523D01*
X152063333Y-98291523D01*
X151987142Y-98329619D01*
X151949047Y-98367714D01*
X151910952Y-98443904D01*
X151872857Y-98596285D01*
X151834761Y-98672476D01*
X151796666Y-98710571D01*
X151720476Y-98748666D01*
X151644285Y-98748666D01*
X151568095Y-98710571D01*
X151530000Y-98672476D01*
X151491904Y-98596285D01*
X151491904Y-98405809D01*
X151530000Y-98291523D01*
X151491904Y-98024857D02*
X152291904Y-97834380D01*
X151720476Y-97682000D01*
X152291904Y-97529619D01*
X151491904Y-97339142D01*
X152291904Y-96615333D02*
X152291904Y-97072476D01*
X152291904Y-96843904D02*
X151491904Y-96843904D01*
X151606190Y-96920095D01*
X151682380Y-96996285D01*
X151720476Y-97072476D01*
%TO.C,R1*%
X186036666Y-146361904D02*
X185770000Y-145980952D01*
X185579523Y-146361904D02*
X185579523Y-145561904D01*
X185884285Y-145561904D01*
X185960476Y-145600000D01*
X185998571Y-145638095D01*
X186036666Y-145714285D01*
X186036666Y-145828571D01*
X185998571Y-145904761D01*
X185960476Y-145942857D01*
X185884285Y-145980952D01*
X185579523Y-145980952D01*
X186798571Y-146361904D02*
X186341428Y-146361904D01*
X186570000Y-146361904D02*
X186570000Y-145561904D01*
X186493809Y-145676190D01*
X186417619Y-145752380D01*
X186341428Y-145790476D01*
X164036666Y-146361904D02*
X163770000Y-145980952D01*
X163579523Y-146361904D02*
X163579523Y-145561904D01*
X163884285Y-145561904D01*
X163960476Y-145600000D01*
X163998571Y-145638095D01*
X164036666Y-145714285D01*
X164036666Y-145828571D01*
X163998571Y-145904761D01*
X163960476Y-145942857D01*
X163884285Y-145980952D01*
X163579523Y-145980952D01*
X164798571Y-146361904D02*
X164341428Y-146361904D01*
X164570000Y-146361904D02*
X164570000Y-145561904D01*
X164493809Y-145676190D01*
X164417619Y-145752380D01*
X164341428Y-145790476D01*
X142036666Y-146361904D02*
X141770000Y-145980952D01*
X141579523Y-146361904D02*
X141579523Y-145561904D01*
X141884285Y-145561904D01*
X141960476Y-145600000D01*
X141998571Y-145638095D01*
X142036666Y-145714285D01*
X142036666Y-145828571D01*
X141998571Y-145904761D01*
X141960476Y-145942857D01*
X141884285Y-145980952D01*
X141579523Y-145980952D01*
X142798571Y-146361904D02*
X142341428Y-146361904D01*
X142570000Y-146361904D02*
X142570000Y-145561904D01*
X142493809Y-145676190D01*
X142417619Y-145752380D01*
X142341428Y-145790476D01*
X120036666Y-146361904D02*
X119770000Y-145980952D01*
X119579523Y-146361904D02*
X119579523Y-145561904D01*
X119884285Y-145561904D01*
X119960476Y-145600000D01*
X119998571Y-145638095D01*
X120036666Y-145714285D01*
X120036666Y-145828571D01*
X119998571Y-145904761D01*
X119960476Y-145942857D01*
X119884285Y-145980952D01*
X119579523Y-145980952D01*
X120798571Y-146361904D02*
X120341428Y-146361904D01*
X120570000Y-146361904D02*
X120570000Y-145561904D01*
X120493809Y-145676190D01*
X120417619Y-145752380D01*
X120341428Y-145790476D01*
X186036666Y-102361904D02*
X185770000Y-101980952D01*
X185579523Y-102361904D02*
X185579523Y-101561904D01*
X185884285Y-101561904D01*
X185960476Y-101600000D01*
X185998571Y-101638095D01*
X186036666Y-101714285D01*
X186036666Y-101828571D01*
X185998571Y-101904761D01*
X185960476Y-101942857D01*
X185884285Y-101980952D01*
X185579523Y-101980952D01*
X186798571Y-102361904D02*
X186341428Y-102361904D01*
X186570000Y-102361904D02*
X186570000Y-101561904D01*
X186493809Y-101676190D01*
X186417619Y-101752380D01*
X186341428Y-101790476D01*
X164036666Y-102361904D02*
X163770000Y-101980952D01*
X163579523Y-102361904D02*
X163579523Y-101561904D01*
X163884285Y-101561904D01*
X163960476Y-101600000D01*
X163998571Y-101638095D01*
X164036666Y-101714285D01*
X164036666Y-101828571D01*
X163998571Y-101904761D01*
X163960476Y-101942857D01*
X163884285Y-101980952D01*
X163579523Y-101980952D01*
X164798571Y-102361904D02*
X164341428Y-102361904D01*
X164570000Y-102361904D02*
X164570000Y-101561904D01*
X164493809Y-101676190D01*
X164417619Y-101752380D01*
X164341428Y-101790476D01*
X142036666Y-102361904D02*
X141770000Y-101980952D01*
X141579523Y-102361904D02*
X141579523Y-101561904D01*
X141884285Y-101561904D01*
X141960476Y-101600000D01*
X141998571Y-101638095D01*
X142036666Y-101714285D01*
X142036666Y-101828571D01*
X141998571Y-101904761D01*
X141960476Y-101942857D01*
X141884285Y-101980952D01*
X141579523Y-101980952D01*
X142798571Y-102361904D02*
X142341428Y-102361904D01*
X142570000Y-102361904D02*
X142570000Y-101561904D01*
X142493809Y-101676190D01*
X142417619Y-101752380D01*
X142341428Y-101790476D01*
%TO.C,D1*%
X185515904Y-143542476D02*
X184715904Y-143542476D01*
X184715904Y-143352000D01*
X184754000Y-143237714D01*
X184830190Y-143161523D01*
X184906380Y-143123428D01*
X185058761Y-143085333D01*
X185173047Y-143085333D01*
X185325428Y-143123428D01*
X185401619Y-143161523D01*
X185477809Y-143237714D01*
X185515904Y-143352000D01*
X185515904Y-143542476D01*
X185515904Y-142323428D02*
X185515904Y-142780571D01*
X185515904Y-142552000D02*
X184715904Y-142552000D01*
X184830190Y-142628190D01*
X184906380Y-142704380D01*
X184944476Y-142780571D01*
X163515904Y-143542476D02*
X162715904Y-143542476D01*
X162715904Y-143352000D01*
X162754000Y-143237714D01*
X162830190Y-143161523D01*
X162906380Y-143123428D01*
X163058761Y-143085333D01*
X163173047Y-143085333D01*
X163325428Y-143123428D01*
X163401619Y-143161523D01*
X163477809Y-143237714D01*
X163515904Y-143352000D01*
X163515904Y-143542476D01*
X163515904Y-142323428D02*
X163515904Y-142780571D01*
X163515904Y-142552000D02*
X162715904Y-142552000D01*
X162830190Y-142628190D01*
X162906380Y-142704380D01*
X162944476Y-142780571D01*
X141515904Y-143542476D02*
X140715904Y-143542476D01*
X140715904Y-143352000D01*
X140754000Y-143237714D01*
X140830190Y-143161523D01*
X140906380Y-143123428D01*
X141058761Y-143085333D01*
X141173047Y-143085333D01*
X141325428Y-143123428D01*
X141401619Y-143161523D01*
X141477809Y-143237714D01*
X141515904Y-143352000D01*
X141515904Y-143542476D01*
X141515904Y-142323428D02*
X141515904Y-142780571D01*
X141515904Y-142552000D02*
X140715904Y-142552000D01*
X140830190Y-142628190D01*
X140906380Y-142704380D01*
X140944476Y-142780571D01*
X119515904Y-143542476D02*
X118715904Y-143542476D01*
X118715904Y-143352000D01*
X118754000Y-143237714D01*
X118830190Y-143161523D01*
X118906380Y-143123428D01*
X119058761Y-143085333D01*
X119173047Y-143085333D01*
X119325428Y-143123428D01*
X119401619Y-143161523D01*
X119477809Y-143237714D01*
X119515904Y-143352000D01*
X119515904Y-143542476D01*
X119515904Y-142323428D02*
X119515904Y-142780571D01*
X119515904Y-142552000D02*
X118715904Y-142552000D01*
X118830190Y-142628190D01*
X118906380Y-142704380D01*
X118944476Y-142780571D01*
X185515904Y-99542476D02*
X184715904Y-99542476D01*
X184715904Y-99352000D01*
X184754000Y-99237714D01*
X184830190Y-99161523D01*
X184906380Y-99123428D01*
X185058761Y-99085333D01*
X185173047Y-99085333D01*
X185325428Y-99123428D01*
X185401619Y-99161523D01*
X185477809Y-99237714D01*
X185515904Y-99352000D01*
X185515904Y-99542476D01*
X185515904Y-98323428D02*
X185515904Y-98780571D01*
X185515904Y-98552000D02*
X184715904Y-98552000D01*
X184830190Y-98628190D01*
X184906380Y-98704380D01*
X184944476Y-98780571D01*
X163515904Y-99542476D02*
X162715904Y-99542476D01*
X162715904Y-99352000D01*
X162754000Y-99237714D01*
X162830190Y-99161523D01*
X162906380Y-99123428D01*
X163058761Y-99085333D01*
X163173047Y-99085333D01*
X163325428Y-99123428D01*
X163401619Y-99161523D01*
X163477809Y-99237714D01*
X163515904Y-99352000D01*
X163515904Y-99542476D01*
X163515904Y-98323428D02*
X163515904Y-98780571D01*
X163515904Y-98552000D02*
X162715904Y-98552000D01*
X162830190Y-98628190D01*
X162906380Y-98704380D01*
X162944476Y-98780571D01*
X141515904Y-99542476D02*
X140715904Y-99542476D01*
X140715904Y-99352000D01*
X140754000Y-99237714D01*
X140830190Y-99161523D01*
X140906380Y-99123428D01*
X141058761Y-99085333D01*
X141173047Y-99085333D01*
X141325428Y-99123428D01*
X141401619Y-99161523D01*
X141477809Y-99237714D01*
X141515904Y-99352000D01*
X141515904Y-99542476D01*
X141515904Y-98323428D02*
X141515904Y-98780571D01*
X141515904Y-98552000D02*
X140715904Y-98552000D01*
X140830190Y-98628190D01*
X140906380Y-98704380D01*
X140944476Y-98780571D01*
%TO.C,C1*%
X193661714Y-142323333D02*
X193699809Y-142361428D01*
X193737904Y-142475714D01*
X193737904Y-142551904D01*
X193699809Y-142666190D01*
X193623619Y-142742380D01*
X193547428Y-142780476D01*
X193395047Y-142818571D01*
X193280761Y-142818571D01*
X193128380Y-142780476D01*
X193052190Y-142742380D01*
X192976000Y-142666190D01*
X192937904Y-142551904D01*
X192937904Y-142475714D01*
X192976000Y-142361428D01*
X193014095Y-142323333D01*
X193737904Y-141561428D02*
X193737904Y-142018571D01*
X193737904Y-141790000D02*
X192937904Y-141790000D01*
X193052190Y-141866190D01*
X193128380Y-141942380D01*
X193166476Y-142018571D01*
X171661714Y-142323333D02*
X171699809Y-142361428D01*
X171737904Y-142475714D01*
X171737904Y-142551904D01*
X171699809Y-142666190D01*
X171623619Y-142742380D01*
X171547428Y-142780476D01*
X171395047Y-142818571D01*
X171280761Y-142818571D01*
X171128380Y-142780476D01*
X171052190Y-142742380D01*
X170976000Y-142666190D01*
X170937904Y-142551904D01*
X170937904Y-142475714D01*
X170976000Y-142361428D01*
X171014095Y-142323333D01*
X171737904Y-141561428D02*
X171737904Y-142018571D01*
X171737904Y-141790000D02*
X170937904Y-141790000D01*
X171052190Y-141866190D01*
X171128380Y-141942380D01*
X171166476Y-142018571D01*
X149661714Y-142323333D02*
X149699809Y-142361428D01*
X149737904Y-142475714D01*
X149737904Y-142551904D01*
X149699809Y-142666190D01*
X149623619Y-142742380D01*
X149547428Y-142780476D01*
X149395047Y-142818571D01*
X149280761Y-142818571D01*
X149128380Y-142780476D01*
X149052190Y-142742380D01*
X148976000Y-142666190D01*
X148937904Y-142551904D01*
X148937904Y-142475714D01*
X148976000Y-142361428D01*
X149014095Y-142323333D01*
X149737904Y-141561428D02*
X149737904Y-142018571D01*
X149737904Y-141790000D02*
X148937904Y-141790000D01*
X149052190Y-141866190D01*
X149128380Y-141942380D01*
X149166476Y-142018571D01*
X127661714Y-142323333D02*
X127699809Y-142361428D01*
X127737904Y-142475714D01*
X127737904Y-142551904D01*
X127699809Y-142666190D01*
X127623619Y-142742380D01*
X127547428Y-142780476D01*
X127395047Y-142818571D01*
X127280761Y-142818571D01*
X127128380Y-142780476D01*
X127052190Y-142742380D01*
X126976000Y-142666190D01*
X126937904Y-142551904D01*
X126937904Y-142475714D01*
X126976000Y-142361428D01*
X127014095Y-142323333D01*
X127737904Y-141561428D02*
X127737904Y-142018571D01*
X127737904Y-141790000D02*
X126937904Y-141790000D01*
X127052190Y-141866190D01*
X127128380Y-141942380D01*
X127166476Y-142018571D01*
X193661714Y-98323333D02*
X193699809Y-98361428D01*
X193737904Y-98475714D01*
X193737904Y-98551904D01*
X193699809Y-98666190D01*
X193623619Y-98742380D01*
X193547428Y-98780476D01*
X193395047Y-98818571D01*
X193280761Y-98818571D01*
X193128380Y-98780476D01*
X193052190Y-98742380D01*
X192976000Y-98666190D01*
X192937904Y-98551904D01*
X192937904Y-98475714D01*
X192976000Y-98361428D01*
X193014095Y-98323333D01*
X193737904Y-97561428D02*
X193737904Y-98018571D01*
X193737904Y-97790000D02*
X192937904Y-97790000D01*
X193052190Y-97866190D01*
X193128380Y-97942380D01*
X193166476Y-98018571D01*
X171661714Y-98323333D02*
X171699809Y-98361428D01*
X171737904Y-98475714D01*
X171737904Y-98551904D01*
X171699809Y-98666190D01*
X171623619Y-98742380D01*
X171547428Y-98780476D01*
X171395047Y-98818571D01*
X171280761Y-98818571D01*
X171128380Y-98780476D01*
X171052190Y-98742380D01*
X170976000Y-98666190D01*
X170937904Y-98551904D01*
X170937904Y-98475714D01*
X170976000Y-98361428D01*
X171014095Y-98323333D01*
X171737904Y-97561428D02*
X171737904Y-98018571D01*
X171737904Y-97790000D02*
X170937904Y-97790000D01*
X171052190Y-97866190D01*
X171128380Y-97942380D01*
X171166476Y-98018571D01*
X149661714Y-98323333D02*
X149699809Y-98361428D01*
X149737904Y-98475714D01*
X149737904Y-98551904D01*
X149699809Y-98666190D01*
X149623619Y-98742380D01*
X149547428Y-98780476D01*
X149395047Y-98818571D01*
X149280761Y-98818571D01*
X149128380Y-98780476D01*
X149052190Y-98742380D01*
X148976000Y-98666190D01*
X148937904Y-98551904D01*
X148937904Y-98475714D01*
X148976000Y-98361428D01*
X149014095Y-98323333D01*
X149737904Y-97561428D02*
X149737904Y-98018571D01*
X149737904Y-97790000D02*
X148937904Y-97790000D01*
X149052190Y-97866190D01*
X149128380Y-97942380D01*
X149166476Y-98018571D01*
%TO.C,C3*%
X195091714Y-148419333D02*
X195129809Y-148457428D01*
X195167904Y-148571714D01*
X195167904Y-148647904D01*
X195129809Y-148762190D01*
X195053619Y-148838380D01*
X194977428Y-148876476D01*
X194825047Y-148914571D01*
X194710761Y-148914571D01*
X194558380Y-148876476D01*
X194482190Y-148838380D01*
X194406000Y-148762190D01*
X194367904Y-148647904D01*
X194367904Y-148571714D01*
X194406000Y-148457428D01*
X194444095Y-148419333D01*
X194367904Y-148152666D02*
X194367904Y-147657428D01*
X194672666Y-147924095D01*
X194672666Y-147809809D01*
X194710761Y-147733619D01*
X194748857Y-147695523D01*
X194825047Y-147657428D01*
X195015523Y-147657428D01*
X195091714Y-147695523D01*
X195129809Y-147733619D01*
X195167904Y-147809809D01*
X195167904Y-148038380D01*
X195129809Y-148114571D01*
X195091714Y-148152666D01*
X173091714Y-148419333D02*
X173129809Y-148457428D01*
X173167904Y-148571714D01*
X173167904Y-148647904D01*
X173129809Y-148762190D01*
X173053619Y-148838380D01*
X172977428Y-148876476D01*
X172825047Y-148914571D01*
X172710761Y-148914571D01*
X172558380Y-148876476D01*
X172482190Y-148838380D01*
X172406000Y-148762190D01*
X172367904Y-148647904D01*
X172367904Y-148571714D01*
X172406000Y-148457428D01*
X172444095Y-148419333D01*
X172367904Y-148152666D02*
X172367904Y-147657428D01*
X172672666Y-147924095D01*
X172672666Y-147809809D01*
X172710761Y-147733619D01*
X172748857Y-147695523D01*
X172825047Y-147657428D01*
X173015523Y-147657428D01*
X173091714Y-147695523D01*
X173129809Y-147733619D01*
X173167904Y-147809809D01*
X173167904Y-148038380D01*
X173129809Y-148114571D01*
X173091714Y-148152666D01*
X151091714Y-148419333D02*
X151129809Y-148457428D01*
X151167904Y-148571714D01*
X151167904Y-148647904D01*
X151129809Y-148762190D01*
X151053619Y-148838380D01*
X150977428Y-148876476D01*
X150825047Y-148914571D01*
X150710761Y-148914571D01*
X150558380Y-148876476D01*
X150482190Y-148838380D01*
X150406000Y-148762190D01*
X150367904Y-148647904D01*
X150367904Y-148571714D01*
X150406000Y-148457428D01*
X150444095Y-148419333D01*
X150367904Y-148152666D02*
X150367904Y-147657428D01*
X150672666Y-147924095D01*
X150672666Y-147809809D01*
X150710761Y-147733619D01*
X150748857Y-147695523D01*
X150825047Y-147657428D01*
X151015523Y-147657428D01*
X151091714Y-147695523D01*
X151129809Y-147733619D01*
X151167904Y-147809809D01*
X151167904Y-148038380D01*
X151129809Y-148114571D01*
X151091714Y-148152666D01*
X129091714Y-148419333D02*
X129129809Y-148457428D01*
X129167904Y-148571714D01*
X129167904Y-148647904D01*
X129129809Y-148762190D01*
X129053619Y-148838380D01*
X128977428Y-148876476D01*
X128825047Y-148914571D01*
X128710761Y-148914571D01*
X128558380Y-148876476D01*
X128482190Y-148838380D01*
X128406000Y-148762190D01*
X128367904Y-148647904D01*
X128367904Y-148571714D01*
X128406000Y-148457428D01*
X128444095Y-148419333D01*
X128367904Y-148152666D02*
X128367904Y-147657428D01*
X128672666Y-147924095D01*
X128672666Y-147809809D01*
X128710761Y-147733619D01*
X128748857Y-147695523D01*
X128825047Y-147657428D01*
X129015523Y-147657428D01*
X129091714Y-147695523D01*
X129129809Y-147733619D01*
X129167904Y-147809809D01*
X129167904Y-148038380D01*
X129129809Y-148114571D01*
X129091714Y-148152666D01*
X195091714Y-104419333D02*
X195129809Y-104457428D01*
X195167904Y-104571714D01*
X195167904Y-104647904D01*
X195129809Y-104762190D01*
X195053619Y-104838380D01*
X194977428Y-104876476D01*
X194825047Y-104914571D01*
X194710761Y-104914571D01*
X194558380Y-104876476D01*
X194482190Y-104838380D01*
X194406000Y-104762190D01*
X194367904Y-104647904D01*
X194367904Y-104571714D01*
X194406000Y-104457428D01*
X194444095Y-104419333D01*
X194367904Y-104152666D02*
X194367904Y-103657428D01*
X194672666Y-103924095D01*
X194672666Y-103809809D01*
X194710761Y-103733619D01*
X194748857Y-103695523D01*
X194825047Y-103657428D01*
X195015523Y-103657428D01*
X195091714Y-103695523D01*
X195129809Y-103733619D01*
X195167904Y-103809809D01*
X195167904Y-104038380D01*
X195129809Y-104114571D01*
X195091714Y-104152666D01*
X173091714Y-104419333D02*
X173129809Y-104457428D01*
X173167904Y-104571714D01*
X173167904Y-104647904D01*
X173129809Y-104762190D01*
X173053619Y-104838380D01*
X172977428Y-104876476D01*
X172825047Y-104914571D01*
X172710761Y-104914571D01*
X172558380Y-104876476D01*
X172482190Y-104838380D01*
X172406000Y-104762190D01*
X172367904Y-104647904D01*
X172367904Y-104571714D01*
X172406000Y-104457428D01*
X172444095Y-104419333D01*
X172367904Y-104152666D02*
X172367904Y-103657428D01*
X172672666Y-103924095D01*
X172672666Y-103809809D01*
X172710761Y-103733619D01*
X172748857Y-103695523D01*
X172825047Y-103657428D01*
X173015523Y-103657428D01*
X173091714Y-103695523D01*
X173129809Y-103733619D01*
X173167904Y-103809809D01*
X173167904Y-104038380D01*
X173129809Y-104114571D01*
X173091714Y-104152666D01*
X151091714Y-104419333D02*
X151129809Y-104457428D01*
X151167904Y-104571714D01*
X151167904Y-104647904D01*
X151129809Y-104762190D01*
X151053619Y-104838380D01*
X150977428Y-104876476D01*
X150825047Y-104914571D01*
X150710761Y-104914571D01*
X150558380Y-104876476D01*
X150482190Y-104838380D01*
X150406000Y-104762190D01*
X150367904Y-104647904D01*
X150367904Y-104571714D01*
X150406000Y-104457428D01*
X150444095Y-104419333D01*
X150367904Y-104152666D02*
X150367904Y-103657428D01*
X150672666Y-103924095D01*
X150672666Y-103809809D01*
X150710761Y-103733619D01*
X150748857Y-103695523D01*
X150825047Y-103657428D01*
X151015523Y-103657428D01*
X151091714Y-103695523D01*
X151129809Y-103733619D01*
X151167904Y-103809809D01*
X151167904Y-104038380D01*
X151129809Y-104114571D01*
X151091714Y-104152666D01*
%TO.C,C4*%
X190265714Y-148673333D02*
X190303809Y-148711428D01*
X190341904Y-148825714D01*
X190341904Y-148901904D01*
X190303809Y-149016190D01*
X190227619Y-149092380D01*
X190151428Y-149130476D01*
X189999047Y-149168571D01*
X189884761Y-149168571D01*
X189732380Y-149130476D01*
X189656190Y-149092380D01*
X189580000Y-149016190D01*
X189541904Y-148901904D01*
X189541904Y-148825714D01*
X189580000Y-148711428D01*
X189618095Y-148673333D01*
X189808571Y-147987619D02*
X190341904Y-147987619D01*
X189503809Y-148178095D02*
X190075238Y-148368571D01*
X190075238Y-147873333D01*
X168265714Y-148673333D02*
X168303809Y-148711428D01*
X168341904Y-148825714D01*
X168341904Y-148901904D01*
X168303809Y-149016190D01*
X168227619Y-149092380D01*
X168151428Y-149130476D01*
X167999047Y-149168571D01*
X167884761Y-149168571D01*
X167732380Y-149130476D01*
X167656190Y-149092380D01*
X167580000Y-149016190D01*
X167541904Y-148901904D01*
X167541904Y-148825714D01*
X167580000Y-148711428D01*
X167618095Y-148673333D01*
X167808571Y-147987619D02*
X168341904Y-147987619D01*
X167503809Y-148178095D02*
X168075238Y-148368571D01*
X168075238Y-147873333D01*
X146265714Y-148673333D02*
X146303809Y-148711428D01*
X146341904Y-148825714D01*
X146341904Y-148901904D01*
X146303809Y-149016190D01*
X146227619Y-149092380D01*
X146151428Y-149130476D01*
X145999047Y-149168571D01*
X145884761Y-149168571D01*
X145732380Y-149130476D01*
X145656190Y-149092380D01*
X145580000Y-149016190D01*
X145541904Y-148901904D01*
X145541904Y-148825714D01*
X145580000Y-148711428D01*
X145618095Y-148673333D01*
X145808571Y-147987619D02*
X146341904Y-147987619D01*
X145503809Y-148178095D02*
X146075238Y-148368571D01*
X146075238Y-147873333D01*
X124265714Y-148673333D02*
X124303809Y-148711428D01*
X124341904Y-148825714D01*
X124341904Y-148901904D01*
X124303809Y-149016190D01*
X124227619Y-149092380D01*
X124151428Y-149130476D01*
X123999047Y-149168571D01*
X123884761Y-149168571D01*
X123732380Y-149130476D01*
X123656190Y-149092380D01*
X123580000Y-149016190D01*
X123541904Y-148901904D01*
X123541904Y-148825714D01*
X123580000Y-148711428D01*
X123618095Y-148673333D01*
X123808571Y-147987619D02*
X124341904Y-147987619D01*
X123503809Y-148178095D02*
X124075238Y-148368571D01*
X124075238Y-147873333D01*
X190265714Y-104673333D02*
X190303809Y-104711428D01*
X190341904Y-104825714D01*
X190341904Y-104901904D01*
X190303809Y-105016190D01*
X190227619Y-105092380D01*
X190151428Y-105130476D01*
X189999047Y-105168571D01*
X189884761Y-105168571D01*
X189732380Y-105130476D01*
X189656190Y-105092380D01*
X189580000Y-105016190D01*
X189541904Y-104901904D01*
X189541904Y-104825714D01*
X189580000Y-104711428D01*
X189618095Y-104673333D01*
X189808571Y-103987619D02*
X190341904Y-103987619D01*
X189503809Y-104178095D02*
X190075238Y-104368571D01*
X190075238Y-103873333D01*
X168265714Y-104673333D02*
X168303809Y-104711428D01*
X168341904Y-104825714D01*
X168341904Y-104901904D01*
X168303809Y-105016190D01*
X168227619Y-105092380D01*
X168151428Y-105130476D01*
X167999047Y-105168571D01*
X167884761Y-105168571D01*
X167732380Y-105130476D01*
X167656190Y-105092380D01*
X167580000Y-105016190D01*
X167541904Y-104901904D01*
X167541904Y-104825714D01*
X167580000Y-104711428D01*
X167618095Y-104673333D01*
X167808571Y-103987619D02*
X168341904Y-103987619D01*
X167503809Y-104178095D02*
X168075238Y-104368571D01*
X168075238Y-103873333D01*
X146265714Y-104673333D02*
X146303809Y-104711428D01*
X146341904Y-104825714D01*
X146341904Y-104901904D01*
X146303809Y-105016190D01*
X146227619Y-105092380D01*
X146151428Y-105130476D01*
X145999047Y-105168571D01*
X145884761Y-105168571D01*
X145732380Y-105130476D01*
X145656190Y-105092380D01*
X145580000Y-105016190D01*
X145541904Y-104901904D01*
X145541904Y-104825714D01*
X145580000Y-104711428D01*
X145618095Y-104673333D01*
X145808571Y-103987619D02*
X146341904Y-103987619D01*
X145503809Y-104178095D02*
X146075238Y-104368571D01*
X146075238Y-103873333D01*
%TO.C,R2*%
X191357904Y-142323333D02*
X190976952Y-142590000D01*
X191357904Y-142780476D02*
X190557904Y-142780476D01*
X190557904Y-142475714D01*
X190596000Y-142399523D01*
X190634095Y-142361428D01*
X190710285Y-142323333D01*
X190824571Y-142323333D01*
X190900761Y-142361428D01*
X190938857Y-142399523D01*
X190976952Y-142475714D01*
X190976952Y-142780476D01*
X190634095Y-142018571D02*
X190596000Y-141980476D01*
X190557904Y-141904285D01*
X190557904Y-141713809D01*
X190596000Y-141637619D01*
X190634095Y-141599523D01*
X190710285Y-141561428D01*
X190786476Y-141561428D01*
X190900761Y-141599523D01*
X191357904Y-142056666D01*
X191357904Y-141561428D01*
X169357904Y-142323333D02*
X168976952Y-142590000D01*
X169357904Y-142780476D02*
X168557904Y-142780476D01*
X168557904Y-142475714D01*
X168596000Y-142399523D01*
X168634095Y-142361428D01*
X168710285Y-142323333D01*
X168824571Y-142323333D01*
X168900761Y-142361428D01*
X168938857Y-142399523D01*
X168976952Y-142475714D01*
X168976952Y-142780476D01*
X168634095Y-142018571D02*
X168596000Y-141980476D01*
X168557904Y-141904285D01*
X168557904Y-141713809D01*
X168596000Y-141637619D01*
X168634095Y-141599523D01*
X168710285Y-141561428D01*
X168786476Y-141561428D01*
X168900761Y-141599523D01*
X169357904Y-142056666D01*
X169357904Y-141561428D01*
X147357904Y-142323333D02*
X146976952Y-142590000D01*
X147357904Y-142780476D02*
X146557904Y-142780476D01*
X146557904Y-142475714D01*
X146596000Y-142399523D01*
X146634095Y-142361428D01*
X146710285Y-142323333D01*
X146824571Y-142323333D01*
X146900761Y-142361428D01*
X146938857Y-142399523D01*
X146976952Y-142475714D01*
X146976952Y-142780476D01*
X146634095Y-142018571D02*
X146596000Y-141980476D01*
X146557904Y-141904285D01*
X146557904Y-141713809D01*
X146596000Y-141637619D01*
X146634095Y-141599523D01*
X146710285Y-141561428D01*
X146786476Y-141561428D01*
X146900761Y-141599523D01*
X147357904Y-142056666D01*
X147357904Y-141561428D01*
X125357904Y-142323333D02*
X124976952Y-142590000D01*
X125357904Y-142780476D02*
X124557904Y-142780476D01*
X124557904Y-142475714D01*
X124596000Y-142399523D01*
X124634095Y-142361428D01*
X124710285Y-142323333D01*
X124824571Y-142323333D01*
X124900761Y-142361428D01*
X124938857Y-142399523D01*
X124976952Y-142475714D01*
X124976952Y-142780476D01*
X124634095Y-142018571D02*
X124596000Y-141980476D01*
X124557904Y-141904285D01*
X124557904Y-141713809D01*
X124596000Y-141637619D01*
X124634095Y-141599523D01*
X124710285Y-141561428D01*
X124786476Y-141561428D01*
X124900761Y-141599523D01*
X125357904Y-142056666D01*
X125357904Y-141561428D01*
X191357904Y-98323333D02*
X190976952Y-98590000D01*
X191357904Y-98780476D02*
X190557904Y-98780476D01*
X190557904Y-98475714D01*
X190596000Y-98399523D01*
X190634095Y-98361428D01*
X190710285Y-98323333D01*
X190824571Y-98323333D01*
X190900761Y-98361428D01*
X190938857Y-98399523D01*
X190976952Y-98475714D01*
X190976952Y-98780476D01*
X190634095Y-98018571D02*
X190596000Y-97980476D01*
X190557904Y-97904285D01*
X190557904Y-97713809D01*
X190596000Y-97637619D01*
X190634095Y-97599523D01*
X190710285Y-97561428D01*
X190786476Y-97561428D01*
X190900761Y-97599523D01*
X191357904Y-98056666D01*
X191357904Y-97561428D01*
X169357904Y-98323333D02*
X168976952Y-98590000D01*
X169357904Y-98780476D02*
X168557904Y-98780476D01*
X168557904Y-98475714D01*
X168596000Y-98399523D01*
X168634095Y-98361428D01*
X168710285Y-98323333D01*
X168824571Y-98323333D01*
X168900761Y-98361428D01*
X168938857Y-98399523D01*
X168976952Y-98475714D01*
X168976952Y-98780476D01*
X168634095Y-98018571D02*
X168596000Y-97980476D01*
X168557904Y-97904285D01*
X168557904Y-97713809D01*
X168596000Y-97637619D01*
X168634095Y-97599523D01*
X168710285Y-97561428D01*
X168786476Y-97561428D01*
X168900761Y-97599523D01*
X169357904Y-98056666D01*
X169357904Y-97561428D01*
X147357904Y-98323333D02*
X146976952Y-98590000D01*
X147357904Y-98780476D02*
X146557904Y-98780476D01*
X146557904Y-98475714D01*
X146596000Y-98399523D01*
X146634095Y-98361428D01*
X146710285Y-98323333D01*
X146824571Y-98323333D01*
X146900761Y-98361428D01*
X146938857Y-98399523D01*
X146976952Y-98475714D01*
X146976952Y-98780476D01*
X146634095Y-98018571D02*
X146596000Y-97980476D01*
X146557904Y-97904285D01*
X146557904Y-97713809D01*
X146596000Y-97637619D01*
X146634095Y-97599523D01*
X146710285Y-97561428D01*
X146786476Y-97561428D01*
X146900761Y-97599523D01*
X147357904Y-98056666D01*
X147357904Y-97561428D01*
%TO.C,C2*%
X188581714Y-142323333D02*
X188619809Y-142361428D01*
X188657904Y-142475714D01*
X188657904Y-142551904D01*
X188619809Y-142666190D01*
X188543619Y-142742380D01*
X188467428Y-142780476D01*
X188315047Y-142818571D01*
X188200761Y-142818571D01*
X188048380Y-142780476D01*
X187972190Y-142742380D01*
X187896000Y-142666190D01*
X187857904Y-142551904D01*
X187857904Y-142475714D01*
X187896000Y-142361428D01*
X187934095Y-142323333D01*
X187934095Y-142018571D02*
X187896000Y-141980476D01*
X187857904Y-141904285D01*
X187857904Y-141713809D01*
X187896000Y-141637619D01*
X187934095Y-141599523D01*
X188010285Y-141561428D01*
X188086476Y-141561428D01*
X188200761Y-141599523D01*
X188657904Y-142056666D01*
X188657904Y-141561428D01*
X166581714Y-142323333D02*
X166619809Y-142361428D01*
X166657904Y-142475714D01*
X166657904Y-142551904D01*
X166619809Y-142666190D01*
X166543619Y-142742380D01*
X166467428Y-142780476D01*
X166315047Y-142818571D01*
X166200761Y-142818571D01*
X166048380Y-142780476D01*
X165972190Y-142742380D01*
X165896000Y-142666190D01*
X165857904Y-142551904D01*
X165857904Y-142475714D01*
X165896000Y-142361428D01*
X165934095Y-142323333D01*
X165934095Y-142018571D02*
X165896000Y-141980476D01*
X165857904Y-141904285D01*
X165857904Y-141713809D01*
X165896000Y-141637619D01*
X165934095Y-141599523D01*
X166010285Y-141561428D01*
X166086476Y-141561428D01*
X166200761Y-141599523D01*
X166657904Y-142056666D01*
X166657904Y-141561428D01*
X144581714Y-142323333D02*
X144619809Y-142361428D01*
X144657904Y-142475714D01*
X144657904Y-142551904D01*
X144619809Y-142666190D01*
X144543619Y-142742380D01*
X144467428Y-142780476D01*
X144315047Y-142818571D01*
X144200761Y-142818571D01*
X144048380Y-142780476D01*
X143972190Y-142742380D01*
X143896000Y-142666190D01*
X143857904Y-142551904D01*
X143857904Y-142475714D01*
X143896000Y-142361428D01*
X143934095Y-142323333D01*
X143934095Y-142018571D02*
X143896000Y-141980476D01*
X143857904Y-141904285D01*
X143857904Y-141713809D01*
X143896000Y-141637619D01*
X143934095Y-141599523D01*
X144010285Y-141561428D01*
X144086476Y-141561428D01*
X144200761Y-141599523D01*
X144657904Y-142056666D01*
X144657904Y-141561428D01*
X122581714Y-142323333D02*
X122619809Y-142361428D01*
X122657904Y-142475714D01*
X122657904Y-142551904D01*
X122619809Y-142666190D01*
X122543619Y-142742380D01*
X122467428Y-142780476D01*
X122315047Y-142818571D01*
X122200761Y-142818571D01*
X122048380Y-142780476D01*
X121972190Y-142742380D01*
X121896000Y-142666190D01*
X121857904Y-142551904D01*
X121857904Y-142475714D01*
X121896000Y-142361428D01*
X121934095Y-142323333D01*
X121934095Y-142018571D02*
X121896000Y-141980476D01*
X121857904Y-141904285D01*
X121857904Y-141713809D01*
X121896000Y-141637619D01*
X121934095Y-141599523D01*
X122010285Y-141561428D01*
X122086476Y-141561428D01*
X122200761Y-141599523D01*
X122657904Y-142056666D01*
X122657904Y-141561428D01*
X188581714Y-98323333D02*
X188619809Y-98361428D01*
X188657904Y-98475714D01*
X188657904Y-98551904D01*
X188619809Y-98666190D01*
X188543619Y-98742380D01*
X188467428Y-98780476D01*
X188315047Y-98818571D01*
X188200761Y-98818571D01*
X188048380Y-98780476D01*
X187972190Y-98742380D01*
X187896000Y-98666190D01*
X187857904Y-98551904D01*
X187857904Y-98475714D01*
X187896000Y-98361428D01*
X187934095Y-98323333D01*
X187934095Y-98018571D02*
X187896000Y-97980476D01*
X187857904Y-97904285D01*
X187857904Y-97713809D01*
X187896000Y-97637619D01*
X187934095Y-97599523D01*
X188010285Y-97561428D01*
X188086476Y-97561428D01*
X188200761Y-97599523D01*
X188657904Y-98056666D01*
X188657904Y-97561428D01*
X166581714Y-98323333D02*
X166619809Y-98361428D01*
X166657904Y-98475714D01*
X166657904Y-98551904D01*
X166619809Y-98666190D01*
X166543619Y-98742380D01*
X166467428Y-98780476D01*
X166315047Y-98818571D01*
X166200761Y-98818571D01*
X166048380Y-98780476D01*
X165972190Y-98742380D01*
X165896000Y-98666190D01*
X165857904Y-98551904D01*
X165857904Y-98475714D01*
X165896000Y-98361428D01*
X165934095Y-98323333D01*
X165934095Y-98018571D02*
X165896000Y-97980476D01*
X165857904Y-97904285D01*
X165857904Y-97713809D01*
X165896000Y-97637619D01*
X165934095Y-97599523D01*
X166010285Y-97561428D01*
X166086476Y-97561428D01*
X166200761Y-97599523D01*
X166657904Y-98056666D01*
X166657904Y-97561428D01*
X144581714Y-98323333D02*
X144619809Y-98361428D01*
X144657904Y-98475714D01*
X144657904Y-98551904D01*
X144619809Y-98666190D01*
X144543619Y-98742380D01*
X144467428Y-98780476D01*
X144315047Y-98818571D01*
X144200761Y-98818571D01*
X144048380Y-98780476D01*
X143972190Y-98742380D01*
X143896000Y-98666190D01*
X143857904Y-98551904D01*
X143857904Y-98475714D01*
X143896000Y-98361428D01*
X143934095Y-98323333D01*
X143934095Y-98018571D02*
X143896000Y-97980476D01*
X143857904Y-97904285D01*
X143857904Y-97713809D01*
X143896000Y-97637619D01*
X143934095Y-97599523D01*
X144010285Y-97561428D01*
X144086476Y-97561428D01*
X144200761Y-97599523D01*
X144657904Y-98056666D01*
X144657904Y-97561428D01*
%TO.C,IC1*%
X191485047Y-144837904D02*
X191485047Y-144037904D01*
X192323142Y-144761714D02*
X192285047Y-144799809D01*
X192170761Y-144837904D01*
X192094571Y-144837904D01*
X191980285Y-144799809D01*
X191904095Y-144723619D01*
X191866000Y-144647428D01*
X191827904Y-144495047D01*
X191827904Y-144380761D01*
X191866000Y-144228380D01*
X191904095Y-144152190D01*
X191980285Y-144076000D01*
X192094571Y-144037904D01*
X192170761Y-144037904D01*
X192285047Y-144076000D01*
X192323142Y-144114095D01*
X193085047Y-144837904D02*
X192627904Y-144837904D01*
X192856476Y-144837904D02*
X192856476Y-144037904D01*
X192780285Y-144152190D01*
X192704095Y-144228380D01*
X192627904Y-144266476D01*
X169485047Y-144837904D02*
X169485047Y-144037904D01*
X170323142Y-144761714D02*
X170285047Y-144799809D01*
X170170761Y-144837904D01*
X170094571Y-144837904D01*
X169980285Y-144799809D01*
X169904095Y-144723619D01*
X169866000Y-144647428D01*
X169827904Y-144495047D01*
X169827904Y-144380761D01*
X169866000Y-144228380D01*
X169904095Y-144152190D01*
X169980285Y-144076000D01*
X170094571Y-144037904D01*
X170170761Y-144037904D01*
X170285047Y-144076000D01*
X170323142Y-144114095D01*
X171085047Y-144837904D02*
X170627904Y-144837904D01*
X170856476Y-144837904D02*
X170856476Y-144037904D01*
X170780285Y-144152190D01*
X170704095Y-144228380D01*
X170627904Y-144266476D01*
X147485047Y-144837904D02*
X147485047Y-144037904D01*
X148323142Y-144761714D02*
X148285047Y-144799809D01*
X148170761Y-144837904D01*
X148094571Y-144837904D01*
X147980285Y-144799809D01*
X147904095Y-144723619D01*
X147866000Y-144647428D01*
X147827904Y-144495047D01*
X147827904Y-144380761D01*
X147866000Y-144228380D01*
X147904095Y-144152190D01*
X147980285Y-144076000D01*
X148094571Y-144037904D01*
X148170761Y-144037904D01*
X148285047Y-144076000D01*
X148323142Y-144114095D01*
X149085047Y-144837904D02*
X148627904Y-144837904D01*
X148856476Y-144837904D02*
X148856476Y-144037904D01*
X148780285Y-144152190D01*
X148704095Y-144228380D01*
X148627904Y-144266476D01*
X125485047Y-144837904D02*
X125485047Y-144037904D01*
X126323142Y-144761714D02*
X126285047Y-144799809D01*
X126170761Y-144837904D01*
X126094571Y-144837904D01*
X125980285Y-144799809D01*
X125904095Y-144723619D01*
X125866000Y-144647428D01*
X125827904Y-144495047D01*
X125827904Y-144380761D01*
X125866000Y-144228380D01*
X125904095Y-144152190D01*
X125980285Y-144076000D01*
X126094571Y-144037904D01*
X126170761Y-144037904D01*
X126285047Y-144076000D01*
X126323142Y-144114095D01*
X127085047Y-144837904D02*
X126627904Y-144837904D01*
X126856476Y-144837904D02*
X126856476Y-144037904D01*
X126780285Y-144152190D01*
X126704095Y-144228380D01*
X126627904Y-144266476D01*
X191485047Y-100837904D02*
X191485047Y-100037904D01*
X192323142Y-100761714D02*
X192285047Y-100799809D01*
X192170761Y-100837904D01*
X192094571Y-100837904D01*
X191980285Y-100799809D01*
X191904095Y-100723619D01*
X191866000Y-100647428D01*
X191827904Y-100495047D01*
X191827904Y-100380761D01*
X191866000Y-100228380D01*
X191904095Y-100152190D01*
X191980285Y-100076000D01*
X192094571Y-100037904D01*
X192170761Y-100037904D01*
X192285047Y-100076000D01*
X192323142Y-100114095D01*
X193085047Y-100837904D02*
X192627904Y-100837904D01*
X192856476Y-100837904D02*
X192856476Y-100037904D01*
X192780285Y-100152190D01*
X192704095Y-100228380D01*
X192627904Y-100266476D01*
X169485047Y-100837904D02*
X169485047Y-100037904D01*
X170323142Y-100761714D02*
X170285047Y-100799809D01*
X170170761Y-100837904D01*
X170094571Y-100837904D01*
X169980285Y-100799809D01*
X169904095Y-100723619D01*
X169866000Y-100647428D01*
X169827904Y-100495047D01*
X169827904Y-100380761D01*
X169866000Y-100228380D01*
X169904095Y-100152190D01*
X169980285Y-100076000D01*
X170094571Y-100037904D01*
X170170761Y-100037904D01*
X170285047Y-100076000D01*
X170323142Y-100114095D01*
X171085047Y-100837904D02*
X170627904Y-100837904D01*
X170856476Y-100837904D02*
X170856476Y-100037904D01*
X170780285Y-100152190D01*
X170704095Y-100228380D01*
X170627904Y-100266476D01*
X147485047Y-100837904D02*
X147485047Y-100037904D01*
X148323142Y-100761714D02*
X148285047Y-100799809D01*
X148170761Y-100837904D01*
X148094571Y-100837904D01*
X147980285Y-100799809D01*
X147904095Y-100723619D01*
X147866000Y-100647428D01*
X147827904Y-100495047D01*
X147827904Y-100380761D01*
X147866000Y-100228380D01*
X147904095Y-100152190D01*
X147980285Y-100076000D01*
X148094571Y-100037904D01*
X148170761Y-100037904D01*
X148285047Y-100076000D01*
X148323142Y-100114095D01*
X149085047Y-100837904D02*
X148627904Y-100837904D01*
X148856476Y-100837904D02*
X148856476Y-100037904D01*
X148780285Y-100152190D01*
X148704095Y-100228380D01*
X148627904Y-100266476D01*
%TO.C,R3*%
X195167904Y-145879333D02*
X194786952Y-146146000D01*
X195167904Y-146336476D02*
X194367904Y-146336476D01*
X194367904Y-146031714D01*
X194406000Y-145955523D01*
X194444095Y-145917428D01*
X194520285Y-145879333D01*
X194634571Y-145879333D01*
X194710761Y-145917428D01*
X194748857Y-145955523D01*
X194786952Y-146031714D01*
X194786952Y-146336476D01*
X194367904Y-145612666D02*
X194367904Y-145117428D01*
X194672666Y-145384095D01*
X194672666Y-145269809D01*
X194710761Y-145193619D01*
X194748857Y-145155523D01*
X194825047Y-145117428D01*
X195015523Y-145117428D01*
X195091714Y-145155523D01*
X195129809Y-145193619D01*
X195167904Y-145269809D01*
X195167904Y-145498380D01*
X195129809Y-145574571D01*
X195091714Y-145612666D01*
X173167904Y-145879333D02*
X172786952Y-146146000D01*
X173167904Y-146336476D02*
X172367904Y-146336476D01*
X172367904Y-146031714D01*
X172406000Y-145955523D01*
X172444095Y-145917428D01*
X172520285Y-145879333D01*
X172634571Y-145879333D01*
X172710761Y-145917428D01*
X172748857Y-145955523D01*
X172786952Y-146031714D01*
X172786952Y-146336476D01*
X172367904Y-145612666D02*
X172367904Y-145117428D01*
X172672666Y-145384095D01*
X172672666Y-145269809D01*
X172710761Y-145193619D01*
X172748857Y-145155523D01*
X172825047Y-145117428D01*
X173015523Y-145117428D01*
X173091714Y-145155523D01*
X173129809Y-145193619D01*
X173167904Y-145269809D01*
X173167904Y-145498380D01*
X173129809Y-145574571D01*
X173091714Y-145612666D01*
X151167904Y-145879333D02*
X150786952Y-146146000D01*
X151167904Y-146336476D02*
X150367904Y-146336476D01*
X150367904Y-146031714D01*
X150406000Y-145955523D01*
X150444095Y-145917428D01*
X150520285Y-145879333D01*
X150634571Y-145879333D01*
X150710761Y-145917428D01*
X150748857Y-145955523D01*
X150786952Y-146031714D01*
X150786952Y-146336476D01*
X150367904Y-145612666D02*
X150367904Y-145117428D01*
X150672666Y-145384095D01*
X150672666Y-145269809D01*
X150710761Y-145193619D01*
X150748857Y-145155523D01*
X150825047Y-145117428D01*
X151015523Y-145117428D01*
X151091714Y-145155523D01*
X151129809Y-145193619D01*
X151167904Y-145269809D01*
X151167904Y-145498380D01*
X151129809Y-145574571D01*
X151091714Y-145612666D01*
X129167904Y-145879333D02*
X128786952Y-146146000D01*
X129167904Y-146336476D02*
X128367904Y-146336476D01*
X128367904Y-146031714D01*
X128406000Y-145955523D01*
X128444095Y-145917428D01*
X128520285Y-145879333D01*
X128634571Y-145879333D01*
X128710761Y-145917428D01*
X128748857Y-145955523D01*
X128786952Y-146031714D01*
X128786952Y-146336476D01*
X128367904Y-145612666D02*
X128367904Y-145117428D01*
X128672666Y-145384095D01*
X128672666Y-145269809D01*
X128710761Y-145193619D01*
X128748857Y-145155523D01*
X128825047Y-145117428D01*
X129015523Y-145117428D01*
X129091714Y-145155523D01*
X129129809Y-145193619D01*
X129167904Y-145269809D01*
X129167904Y-145498380D01*
X129129809Y-145574571D01*
X129091714Y-145612666D01*
X195167904Y-101879333D02*
X194786952Y-102146000D01*
X195167904Y-102336476D02*
X194367904Y-102336476D01*
X194367904Y-102031714D01*
X194406000Y-101955523D01*
X194444095Y-101917428D01*
X194520285Y-101879333D01*
X194634571Y-101879333D01*
X194710761Y-101917428D01*
X194748857Y-101955523D01*
X194786952Y-102031714D01*
X194786952Y-102336476D01*
X194367904Y-101612666D02*
X194367904Y-101117428D01*
X194672666Y-101384095D01*
X194672666Y-101269809D01*
X194710761Y-101193619D01*
X194748857Y-101155523D01*
X194825047Y-101117428D01*
X195015523Y-101117428D01*
X195091714Y-101155523D01*
X195129809Y-101193619D01*
X195167904Y-101269809D01*
X195167904Y-101498380D01*
X195129809Y-101574571D01*
X195091714Y-101612666D01*
X173167904Y-101879333D02*
X172786952Y-102146000D01*
X173167904Y-102336476D02*
X172367904Y-102336476D01*
X172367904Y-102031714D01*
X172406000Y-101955523D01*
X172444095Y-101917428D01*
X172520285Y-101879333D01*
X172634571Y-101879333D01*
X172710761Y-101917428D01*
X172748857Y-101955523D01*
X172786952Y-102031714D01*
X172786952Y-102336476D01*
X172367904Y-101612666D02*
X172367904Y-101117428D01*
X172672666Y-101384095D01*
X172672666Y-101269809D01*
X172710761Y-101193619D01*
X172748857Y-101155523D01*
X172825047Y-101117428D01*
X173015523Y-101117428D01*
X173091714Y-101155523D01*
X173129809Y-101193619D01*
X173167904Y-101269809D01*
X173167904Y-101498380D01*
X173129809Y-101574571D01*
X173091714Y-101612666D01*
X151167904Y-101879333D02*
X150786952Y-102146000D01*
X151167904Y-102336476D02*
X150367904Y-102336476D01*
X150367904Y-102031714D01*
X150406000Y-101955523D01*
X150444095Y-101917428D01*
X150520285Y-101879333D01*
X150634571Y-101879333D01*
X150710761Y-101917428D01*
X150748857Y-101955523D01*
X150786952Y-102031714D01*
X150786952Y-102336476D01*
X150367904Y-101612666D02*
X150367904Y-101117428D01*
X150672666Y-101384095D01*
X150672666Y-101269809D01*
X150710761Y-101193619D01*
X150748857Y-101155523D01*
X150825047Y-101117428D01*
X151015523Y-101117428D01*
X151091714Y-101155523D01*
X151129809Y-101193619D01*
X151167904Y-101269809D01*
X151167904Y-101498380D01*
X151129809Y-101574571D01*
X151091714Y-101612666D01*
%TO.C,R4*%
X190341904Y-145879333D02*
X189960952Y-146146000D01*
X190341904Y-146336476D02*
X189541904Y-146336476D01*
X189541904Y-146031714D01*
X189580000Y-145955523D01*
X189618095Y-145917428D01*
X189694285Y-145879333D01*
X189808571Y-145879333D01*
X189884761Y-145917428D01*
X189922857Y-145955523D01*
X189960952Y-146031714D01*
X189960952Y-146336476D01*
X189808571Y-145193619D02*
X190341904Y-145193619D01*
X189503809Y-145384095D02*
X190075238Y-145574571D01*
X190075238Y-145079333D01*
X168341904Y-145879333D02*
X167960952Y-146146000D01*
X168341904Y-146336476D02*
X167541904Y-146336476D01*
X167541904Y-146031714D01*
X167580000Y-145955523D01*
X167618095Y-145917428D01*
X167694285Y-145879333D01*
X167808571Y-145879333D01*
X167884761Y-145917428D01*
X167922857Y-145955523D01*
X167960952Y-146031714D01*
X167960952Y-146336476D01*
X167808571Y-145193619D02*
X168341904Y-145193619D01*
X167503809Y-145384095D02*
X168075238Y-145574571D01*
X168075238Y-145079333D01*
X146341904Y-145879333D02*
X145960952Y-146146000D01*
X146341904Y-146336476D02*
X145541904Y-146336476D01*
X145541904Y-146031714D01*
X145580000Y-145955523D01*
X145618095Y-145917428D01*
X145694285Y-145879333D01*
X145808571Y-145879333D01*
X145884761Y-145917428D01*
X145922857Y-145955523D01*
X145960952Y-146031714D01*
X145960952Y-146336476D01*
X145808571Y-145193619D02*
X146341904Y-145193619D01*
X145503809Y-145384095D02*
X146075238Y-145574571D01*
X146075238Y-145079333D01*
X124341904Y-145879333D02*
X123960952Y-146146000D01*
X124341904Y-146336476D02*
X123541904Y-146336476D01*
X123541904Y-146031714D01*
X123580000Y-145955523D01*
X123618095Y-145917428D01*
X123694285Y-145879333D01*
X123808571Y-145879333D01*
X123884761Y-145917428D01*
X123922857Y-145955523D01*
X123960952Y-146031714D01*
X123960952Y-146336476D01*
X123808571Y-145193619D02*
X124341904Y-145193619D01*
X123503809Y-145384095D02*
X124075238Y-145574571D01*
X124075238Y-145079333D01*
X190341904Y-101879333D02*
X189960952Y-102146000D01*
X190341904Y-102336476D02*
X189541904Y-102336476D01*
X189541904Y-102031714D01*
X189580000Y-101955523D01*
X189618095Y-101917428D01*
X189694285Y-101879333D01*
X189808571Y-101879333D01*
X189884761Y-101917428D01*
X189922857Y-101955523D01*
X189960952Y-102031714D01*
X189960952Y-102336476D01*
X189808571Y-101193619D02*
X190341904Y-101193619D01*
X189503809Y-101384095D02*
X190075238Y-101574571D01*
X190075238Y-101079333D01*
X168341904Y-101879333D02*
X167960952Y-102146000D01*
X168341904Y-102336476D02*
X167541904Y-102336476D01*
X167541904Y-102031714D01*
X167580000Y-101955523D01*
X167618095Y-101917428D01*
X167694285Y-101879333D01*
X167808571Y-101879333D01*
X167884761Y-101917428D01*
X167922857Y-101955523D01*
X167960952Y-102031714D01*
X167960952Y-102336476D01*
X167808571Y-101193619D02*
X168341904Y-101193619D01*
X167503809Y-101384095D02*
X168075238Y-101574571D01*
X168075238Y-101079333D01*
X146341904Y-101879333D02*
X145960952Y-102146000D01*
X146341904Y-102336476D02*
X145541904Y-102336476D01*
X145541904Y-102031714D01*
X145580000Y-101955523D01*
X145618095Y-101917428D01*
X145694285Y-101879333D01*
X145808571Y-101879333D01*
X145884761Y-101917428D01*
X145922857Y-101955523D01*
X145960952Y-102031714D01*
X145960952Y-102336476D01*
X145808571Y-101193619D02*
X146341904Y-101193619D01*
X145503809Y-101384095D02*
X146075238Y-101574571D01*
X146075238Y-101079333D01*
%TO.C,U1*%
X184290476Y-137941904D02*
X184290476Y-138589523D01*
X184328571Y-138665714D01*
X184366666Y-138703809D01*
X184442857Y-138741904D01*
X184595238Y-138741904D01*
X184671428Y-138703809D01*
X184709523Y-138665714D01*
X184747619Y-138589523D01*
X184747619Y-137941904D01*
X185547619Y-138741904D02*
X185090476Y-138741904D01*
X185319047Y-138741904D02*
X185319047Y-137941904D01*
X185242857Y-138056190D01*
X185166666Y-138132380D01*
X185090476Y-138170476D01*
X162290476Y-137941904D02*
X162290476Y-138589523D01*
X162328571Y-138665714D01*
X162366666Y-138703809D01*
X162442857Y-138741904D01*
X162595238Y-138741904D01*
X162671428Y-138703809D01*
X162709523Y-138665714D01*
X162747619Y-138589523D01*
X162747619Y-137941904D01*
X163547619Y-138741904D02*
X163090476Y-138741904D01*
X163319047Y-138741904D02*
X163319047Y-137941904D01*
X163242857Y-138056190D01*
X163166666Y-138132380D01*
X163090476Y-138170476D01*
X140290476Y-137941904D02*
X140290476Y-138589523D01*
X140328571Y-138665714D01*
X140366666Y-138703809D01*
X140442857Y-138741904D01*
X140595238Y-138741904D01*
X140671428Y-138703809D01*
X140709523Y-138665714D01*
X140747619Y-138589523D01*
X140747619Y-137941904D01*
X141547619Y-138741904D02*
X141090476Y-138741904D01*
X141319047Y-138741904D02*
X141319047Y-137941904D01*
X141242857Y-138056190D01*
X141166666Y-138132380D01*
X141090476Y-138170476D01*
X118290476Y-137941904D02*
X118290476Y-138589523D01*
X118328571Y-138665714D01*
X118366666Y-138703809D01*
X118442857Y-138741904D01*
X118595238Y-138741904D01*
X118671428Y-138703809D01*
X118709523Y-138665714D01*
X118747619Y-138589523D01*
X118747619Y-137941904D01*
X119547619Y-138741904D02*
X119090476Y-138741904D01*
X119319047Y-138741904D02*
X119319047Y-137941904D01*
X119242857Y-138056190D01*
X119166666Y-138132380D01*
X119090476Y-138170476D01*
X184290476Y-93941904D02*
X184290476Y-94589523D01*
X184328571Y-94665714D01*
X184366666Y-94703809D01*
X184442857Y-94741904D01*
X184595238Y-94741904D01*
X184671428Y-94703809D01*
X184709523Y-94665714D01*
X184747619Y-94589523D01*
X184747619Y-93941904D01*
X185547619Y-94741904D02*
X185090476Y-94741904D01*
X185319047Y-94741904D02*
X185319047Y-93941904D01*
X185242857Y-94056190D01*
X185166666Y-94132380D01*
X185090476Y-94170476D01*
X162290476Y-93941904D02*
X162290476Y-94589523D01*
X162328571Y-94665714D01*
X162366666Y-94703809D01*
X162442857Y-94741904D01*
X162595238Y-94741904D01*
X162671428Y-94703809D01*
X162709523Y-94665714D01*
X162747619Y-94589523D01*
X162747619Y-93941904D01*
X163547619Y-94741904D02*
X163090476Y-94741904D01*
X163319047Y-94741904D02*
X163319047Y-93941904D01*
X163242857Y-94056190D01*
X163166666Y-94132380D01*
X163090476Y-94170476D01*
X140290476Y-93941904D02*
X140290476Y-94589523D01*
X140328571Y-94665714D01*
X140366666Y-94703809D01*
X140442857Y-94741904D01*
X140595238Y-94741904D01*
X140671428Y-94703809D01*
X140709523Y-94665714D01*
X140747619Y-94589523D01*
X140747619Y-93941904D01*
X141547619Y-94741904D02*
X141090476Y-94741904D01*
X141319047Y-94741904D02*
X141319047Y-93941904D01*
X141242857Y-94056190D01*
X141166666Y-94132380D01*
X141090476Y-94170476D01*
%TO.C,S3*%
X182937809Y-153721523D02*
X182975904Y-153607238D01*
X182975904Y-153416761D01*
X182937809Y-153340571D01*
X182899714Y-153302476D01*
X182823523Y-153264380D01*
X182747333Y-153264380D01*
X182671142Y-153302476D01*
X182633047Y-153340571D01*
X182594952Y-153416761D01*
X182556857Y-153569142D01*
X182518761Y-153645333D01*
X182480666Y-153683428D01*
X182404476Y-153721523D01*
X182328285Y-153721523D01*
X182252095Y-153683428D01*
X182214000Y-153645333D01*
X182175904Y-153569142D01*
X182175904Y-153378666D01*
X182214000Y-153264380D01*
X182175904Y-152997714D02*
X182175904Y-152502476D01*
X182480666Y-152769142D01*
X182480666Y-152654857D01*
X182518761Y-152578666D01*
X182556857Y-152540571D01*
X182633047Y-152502476D01*
X182823523Y-152502476D01*
X182899714Y-152540571D01*
X182937809Y-152578666D01*
X182975904Y-152654857D01*
X182975904Y-152883428D01*
X182937809Y-152959619D01*
X182899714Y-152997714D01*
X160937809Y-153721523D02*
X160975904Y-153607238D01*
X160975904Y-153416761D01*
X160937809Y-153340571D01*
X160899714Y-153302476D01*
X160823523Y-153264380D01*
X160747333Y-153264380D01*
X160671142Y-153302476D01*
X160633047Y-153340571D01*
X160594952Y-153416761D01*
X160556857Y-153569142D01*
X160518761Y-153645333D01*
X160480666Y-153683428D01*
X160404476Y-153721523D01*
X160328285Y-153721523D01*
X160252095Y-153683428D01*
X160214000Y-153645333D01*
X160175904Y-153569142D01*
X160175904Y-153378666D01*
X160214000Y-153264380D01*
X160175904Y-152997714D02*
X160175904Y-152502476D01*
X160480666Y-152769142D01*
X160480666Y-152654857D01*
X160518761Y-152578666D01*
X160556857Y-152540571D01*
X160633047Y-152502476D01*
X160823523Y-152502476D01*
X160899714Y-152540571D01*
X160937809Y-152578666D01*
X160975904Y-152654857D01*
X160975904Y-152883428D01*
X160937809Y-152959619D01*
X160899714Y-152997714D01*
X138937809Y-153721523D02*
X138975904Y-153607238D01*
X138975904Y-153416761D01*
X138937809Y-153340571D01*
X138899714Y-153302476D01*
X138823523Y-153264380D01*
X138747333Y-153264380D01*
X138671142Y-153302476D01*
X138633047Y-153340571D01*
X138594952Y-153416761D01*
X138556857Y-153569142D01*
X138518761Y-153645333D01*
X138480666Y-153683428D01*
X138404476Y-153721523D01*
X138328285Y-153721523D01*
X138252095Y-153683428D01*
X138214000Y-153645333D01*
X138175904Y-153569142D01*
X138175904Y-153378666D01*
X138214000Y-153264380D01*
X138175904Y-152997714D02*
X138175904Y-152502476D01*
X138480666Y-152769142D01*
X138480666Y-152654857D01*
X138518761Y-152578666D01*
X138556857Y-152540571D01*
X138633047Y-152502476D01*
X138823523Y-152502476D01*
X138899714Y-152540571D01*
X138937809Y-152578666D01*
X138975904Y-152654857D01*
X138975904Y-152883428D01*
X138937809Y-152959619D01*
X138899714Y-152997714D01*
X116937809Y-153721523D02*
X116975904Y-153607238D01*
X116975904Y-153416761D01*
X116937809Y-153340571D01*
X116899714Y-153302476D01*
X116823523Y-153264380D01*
X116747333Y-153264380D01*
X116671142Y-153302476D01*
X116633047Y-153340571D01*
X116594952Y-153416761D01*
X116556857Y-153569142D01*
X116518761Y-153645333D01*
X116480666Y-153683428D01*
X116404476Y-153721523D01*
X116328285Y-153721523D01*
X116252095Y-153683428D01*
X116214000Y-153645333D01*
X116175904Y-153569142D01*
X116175904Y-153378666D01*
X116214000Y-153264380D01*
X116175904Y-152997714D02*
X116175904Y-152502476D01*
X116480666Y-152769142D01*
X116480666Y-152654857D01*
X116518761Y-152578666D01*
X116556857Y-152540571D01*
X116633047Y-152502476D01*
X116823523Y-152502476D01*
X116899714Y-152540571D01*
X116937809Y-152578666D01*
X116975904Y-152654857D01*
X116975904Y-152883428D01*
X116937809Y-152959619D01*
X116899714Y-152997714D01*
X182937809Y-109721523D02*
X182975904Y-109607238D01*
X182975904Y-109416761D01*
X182937809Y-109340571D01*
X182899714Y-109302476D01*
X182823523Y-109264380D01*
X182747333Y-109264380D01*
X182671142Y-109302476D01*
X182633047Y-109340571D01*
X182594952Y-109416761D01*
X182556857Y-109569142D01*
X182518761Y-109645333D01*
X182480666Y-109683428D01*
X182404476Y-109721523D01*
X182328285Y-109721523D01*
X182252095Y-109683428D01*
X182214000Y-109645333D01*
X182175904Y-109569142D01*
X182175904Y-109378666D01*
X182214000Y-109264380D01*
X182175904Y-108997714D02*
X182175904Y-108502476D01*
X182480666Y-108769142D01*
X182480666Y-108654857D01*
X182518761Y-108578666D01*
X182556857Y-108540571D01*
X182633047Y-108502476D01*
X182823523Y-108502476D01*
X182899714Y-108540571D01*
X182937809Y-108578666D01*
X182975904Y-108654857D01*
X182975904Y-108883428D01*
X182937809Y-108959619D01*
X182899714Y-108997714D01*
X160937809Y-109721523D02*
X160975904Y-109607238D01*
X160975904Y-109416761D01*
X160937809Y-109340571D01*
X160899714Y-109302476D01*
X160823523Y-109264380D01*
X160747333Y-109264380D01*
X160671142Y-109302476D01*
X160633047Y-109340571D01*
X160594952Y-109416761D01*
X160556857Y-109569142D01*
X160518761Y-109645333D01*
X160480666Y-109683428D01*
X160404476Y-109721523D01*
X160328285Y-109721523D01*
X160252095Y-109683428D01*
X160214000Y-109645333D01*
X160175904Y-109569142D01*
X160175904Y-109378666D01*
X160214000Y-109264380D01*
X160175904Y-108997714D02*
X160175904Y-108502476D01*
X160480666Y-108769142D01*
X160480666Y-108654857D01*
X160518761Y-108578666D01*
X160556857Y-108540571D01*
X160633047Y-108502476D01*
X160823523Y-108502476D01*
X160899714Y-108540571D01*
X160937809Y-108578666D01*
X160975904Y-108654857D01*
X160975904Y-108883428D01*
X160937809Y-108959619D01*
X160899714Y-108997714D01*
X138937809Y-109721523D02*
X138975904Y-109607238D01*
X138975904Y-109416761D01*
X138937809Y-109340571D01*
X138899714Y-109302476D01*
X138823523Y-109264380D01*
X138747333Y-109264380D01*
X138671142Y-109302476D01*
X138633047Y-109340571D01*
X138594952Y-109416761D01*
X138556857Y-109569142D01*
X138518761Y-109645333D01*
X138480666Y-109683428D01*
X138404476Y-109721523D01*
X138328285Y-109721523D01*
X138252095Y-109683428D01*
X138214000Y-109645333D01*
X138175904Y-109569142D01*
X138175904Y-109378666D01*
X138214000Y-109264380D01*
X138175904Y-108997714D02*
X138175904Y-108502476D01*
X138480666Y-108769142D01*
X138480666Y-108654857D01*
X138518761Y-108578666D01*
X138556857Y-108540571D01*
X138633047Y-108502476D01*
X138823523Y-108502476D01*
X138899714Y-108540571D01*
X138937809Y-108578666D01*
X138975904Y-108654857D01*
X138975904Y-108883428D01*
X138937809Y-108959619D01*
X138899714Y-108997714D01*
%TO.C,S2*%
X202749809Y-153721523D02*
X202787904Y-153607238D01*
X202787904Y-153416761D01*
X202749809Y-153340571D01*
X202711714Y-153302476D01*
X202635523Y-153264380D01*
X202559333Y-153264380D01*
X202483142Y-153302476D01*
X202445047Y-153340571D01*
X202406952Y-153416761D01*
X202368857Y-153569142D01*
X202330761Y-153645333D01*
X202292666Y-153683428D01*
X202216476Y-153721523D01*
X202140285Y-153721523D01*
X202064095Y-153683428D01*
X202026000Y-153645333D01*
X201987904Y-153569142D01*
X201987904Y-153378666D01*
X202026000Y-153264380D01*
X202064095Y-152959619D02*
X202026000Y-152921523D01*
X201987904Y-152845333D01*
X201987904Y-152654857D01*
X202026000Y-152578666D01*
X202064095Y-152540571D01*
X202140285Y-152502476D01*
X202216476Y-152502476D01*
X202330761Y-152540571D01*
X202787904Y-152997714D01*
X202787904Y-152502476D01*
X180749809Y-153721523D02*
X180787904Y-153607238D01*
X180787904Y-153416761D01*
X180749809Y-153340571D01*
X180711714Y-153302476D01*
X180635523Y-153264380D01*
X180559333Y-153264380D01*
X180483142Y-153302476D01*
X180445047Y-153340571D01*
X180406952Y-153416761D01*
X180368857Y-153569142D01*
X180330761Y-153645333D01*
X180292666Y-153683428D01*
X180216476Y-153721523D01*
X180140285Y-153721523D01*
X180064095Y-153683428D01*
X180026000Y-153645333D01*
X179987904Y-153569142D01*
X179987904Y-153378666D01*
X180026000Y-153264380D01*
X180064095Y-152959619D02*
X180026000Y-152921523D01*
X179987904Y-152845333D01*
X179987904Y-152654857D01*
X180026000Y-152578666D01*
X180064095Y-152540571D01*
X180140285Y-152502476D01*
X180216476Y-152502476D01*
X180330761Y-152540571D01*
X180787904Y-152997714D01*
X180787904Y-152502476D01*
X158749809Y-153721523D02*
X158787904Y-153607238D01*
X158787904Y-153416761D01*
X158749809Y-153340571D01*
X158711714Y-153302476D01*
X158635523Y-153264380D01*
X158559333Y-153264380D01*
X158483142Y-153302476D01*
X158445047Y-153340571D01*
X158406952Y-153416761D01*
X158368857Y-153569142D01*
X158330761Y-153645333D01*
X158292666Y-153683428D01*
X158216476Y-153721523D01*
X158140285Y-153721523D01*
X158064095Y-153683428D01*
X158026000Y-153645333D01*
X157987904Y-153569142D01*
X157987904Y-153378666D01*
X158026000Y-153264380D01*
X158064095Y-152959619D02*
X158026000Y-152921523D01*
X157987904Y-152845333D01*
X157987904Y-152654857D01*
X158026000Y-152578666D01*
X158064095Y-152540571D01*
X158140285Y-152502476D01*
X158216476Y-152502476D01*
X158330761Y-152540571D01*
X158787904Y-152997714D01*
X158787904Y-152502476D01*
X136749809Y-153721523D02*
X136787904Y-153607238D01*
X136787904Y-153416761D01*
X136749809Y-153340571D01*
X136711714Y-153302476D01*
X136635523Y-153264380D01*
X136559333Y-153264380D01*
X136483142Y-153302476D01*
X136445047Y-153340571D01*
X136406952Y-153416761D01*
X136368857Y-153569142D01*
X136330761Y-153645333D01*
X136292666Y-153683428D01*
X136216476Y-153721523D01*
X136140285Y-153721523D01*
X136064095Y-153683428D01*
X136026000Y-153645333D01*
X135987904Y-153569142D01*
X135987904Y-153378666D01*
X136026000Y-153264380D01*
X136064095Y-152959619D02*
X136026000Y-152921523D01*
X135987904Y-152845333D01*
X135987904Y-152654857D01*
X136026000Y-152578666D01*
X136064095Y-152540571D01*
X136140285Y-152502476D01*
X136216476Y-152502476D01*
X136330761Y-152540571D01*
X136787904Y-152997714D01*
X136787904Y-152502476D01*
X202749809Y-109721523D02*
X202787904Y-109607238D01*
X202787904Y-109416761D01*
X202749809Y-109340571D01*
X202711714Y-109302476D01*
X202635523Y-109264380D01*
X202559333Y-109264380D01*
X202483142Y-109302476D01*
X202445047Y-109340571D01*
X202406952Y-109416761D01*
X202368857Y-109569142D01*
X202330761Y-109645333D01*
X202292666Y-109683428D01*
X202216476Y-109721523D01*
X202140285Y-109721523D01*
X202064095Y-109683428D01*
X202026000Y-109645333D01*
X201987904Y-109569142D01*
X201987904Y-109378666D01*
X202026000Y-109264380D01*
X202064095Y-108959619D02*
X202026000Y-108921523D01*
X201987904Y-108845333D01*
X201987904Y-108654857D01*
X202026000Y-108578666D01*
X202064095Y-108540571D01*
X202140285Y-108502476D01*
X202216476Y-108502476D01*
X202330761Y-108540571D01*
X202787904Y-108997714D01*
X202787904Y-108502476D01*
X180749809Y-109721523D02*
X180787904Y-109607238D01*
X180787904Y-109416761D01*
X180749809Y-109340571D01*
X180711714Y-109302476D01*
X180635523Y-109264380D01*
X180559333Y-109264380D01*
X180483142Y-109302476D01*
X180445047Y-109340571D01*
X180406952Y-109416761D01*
X180368857Y-109569142D01*
X180330761Y-109645333D01*
X180292666Y-109683428D01*
X180216476Y-109721523D01*
X180140285Y-109721523D01*
X180064095Y-109683428D01*
X180026000Y-109645333D01*
X179987904Y-109569142D01*
X179987904Y-109378666D01*
X180026000Y-109264380D01*
X180064095Y-108959619D02*
X180026000Y-108921523D01*
X179987904Y-108845333D01*
X179987904Y-108654857D01*
X180026000Y-108578666D01*
X180064095Y-108540571D01*
X180140285Y-108502476D01*
X180216476Y-108502476D01*
X180330761Y-108540571D01*
X180787904Y-108997714D01*
X180787904Y-108502476D01*
X158749809Y-109721523D02*
X158787904Y-109607238D01*
X158787904Y-109416761D01*
X158749809Y-109340571D01*
X158711714Y-109302476D01*
X158635523Y-109264380D01*
X158559333Y-109264380D01*
X158483142Y-109302476D01*
X158445047Y-109340571D01*
X158406952Y-109416761D01*
X158368857Y-109569142D01*
X158330761Y-109645333D01*
X158292666Y-109683428D01*
X158216476Y-109721523D01*
X158140285Y-109721523D01*
X158064095Y-109683428D01*
X158026000Y-109645333D01*
X157987904Y-109569142D01*
X157987904Y-109378666D01*
X158026000Y-109264380D01*
X158064095Y-108959619D02*
X158026000Y-108921523D01*
X157987904Y-108845333D01*
X157987904Y-108654857D01*
X158026000Y-108578666D01*
X158064095Y-108540571D01*
X158140285Y-108502476D01*
X158216476Y-108502476D01*
X158330761Y-108540571D01*
X158787904Y-108997714D01*
X158787904Y-108502476D01*
%TO.C,J1*%
X197089333Y-149800904D02*
X197089333Y-150372333D01*
X197051238Y-150486619D01*
X196975047Y-150562809D01*
X196860761Y-150600904D01*
X196784571Y-150600904D01*
X197889333Y-150600904D02*
X197432190Y-150600904D01*
X197660761Y-150600904D02*
X197660761Y-149800904D01*
X197584571Y-149915190D01*
X197508380Y-149991380D01*
X197432190Y-150029476D01*
X175089333Y-149800904D02*
X175089333Y-150372333D01*
X175051238Y-150486619D01*
X174975047Y-150562809D01*
X174860761Y-150600904D01*
X174784571Y-150600904D01*
X175889333Y-150600904D02*
X175432190Y-150600904D01*
X175660761Y-150600904D02*
X175660761Y-149800904D01*
X175584571Y-149915190D01*
X175508380Y-149991380D01*
X175432190Y-150029476D01*
X153089333Y-149800904D02*
X153089333Y-150372333D01*
X153051238Y-150486619D01*
X152975047Y-150562809D01*
X152860761Y-150600904D01*
X152784571Y-150600904D01*
X153889333Y-150600904D02*
X153432190Y-150600904D01*
X153660761Y-150600904D02*
X153660761Y-149800904D01*
X153584571Y-149915190D01*
X153508380Y-149991380D01*
X153432190Y-150029476D01*
X131089333Y-149800904D02*
X131089333Y-150372333D01*
X131051238Y-150486619D01*
X130975047Y-150562809D01*
X130860761Y-150600904D01*
X130784571Y-150600904D01*
X131889333Y-150600904D02*
X131432190Y-150600904D01*
X131660761Y-150600904D02*
X131660761Y-149800904D01*
X131584571Y-149915190D01*
X131508380Y-149991380D01*
X131432190Y-150029476D01*
X197089333Y-105800904D02*
X197089333Y-106372333D01*
X197051238Y-106486619D01*
X196975047Y-106562809D01*
X196860761Y-106600904D01*
X196784571Y-106600904D01*
X197889333Y-106600904D02*
X197432190Y-106600904D01*
X197660761Y-106600904D02*
X197660761Y-105800904D01*
X197584571Y-105915190D01*
X197508380Y-105991380D01*
X197432190Y-106029476D01*
X175089333Y-105800904D02*
X175089333Y-106372333D01*
X175051238Y-106486619D01*
X174975047Y-106562809D01*
X174860761Y-106600904D01*
X174784571Y-106600904D01*
X175889333Y-106600904D02*
X175432190Y-106600904D01*
X175660761Y-106600904D02*
X175660761Y-105800904D01*
X175584571Y-105915190D01*
X175508380Y-105991380D01*
X175432190Y-106029476D01*
X153089333Y-105800904D02*
X153089333Y-106372333D01*
X153051238Y-106486619D01*
X152975047Y-106562809D01*
X152860761Y-106600904D01*
X152784571Y-106600904D01*
X153889333Y-106600904D02*
X153432190Y-106600904D01*
X153660761Y-106600904D02*
X153660761Y-105800904D01*
X153584571Y-105915190D01*
X153508380Y-105991380D01*
X153432190Y-106029476D01*
X131089333Y-105800904D02*
X131089333Y-106372333D01*
X131051238Y-106486619D01*
X130975047Y-106562809D01*
X130860761Y-106600904D01*
X130784571Y-106600904D01*
X131889333Y-106600904D02*
X131432190Y-106600904D01*
X131660761Y-106600904D02*
X131660761Y-105800904D01*
X131584571Y-105915190D01*
X131508380Y-105991380D01*
X131432190Y-106029476D01*
%TO.C,U1*%
X118290476Y-93941904D02*
X118290476Y-94589523D01*
X118328571Y-94665714D01*
X118366666Y-94703809D01*
X118442857Y-94741904D01*
X118595238Y-94741904D01*
X118671428Y-94703809D01*
X118709523Y-94665714D01*
X118747619Y-94589523D01*
X118747619Y-93941904D01*
X119547619Y-94741904D02*
X119090476Y-94741904D01*
X119319047Y-94741904D02*
X119319047Y-93941904D01*
X119242857Y-94056190D01*
X119166666Y-94132380D01*
X119090476Y-94170476D01*
%TO.C,D1*%
X119515904Y-99542476D02*
X118715904Y-99542476D01*
X118715904Y-99352000D01*
X118754000Y-99237714D01*
X118830190Y-99161523D01*
X118906380Y-99123428D01*
X119058761Y-99085333D01*
X119173047Y-99085333D01*
X119325428Y-99123428D01*
X119401619Y-99161523D01*
X119477809Y-99237714D01*
X119515904Y-99352000D01*
X119515904Y-99542476D01*
X119515904Y-98323428D02*
X119515904Y-98780571D01*
X119515904Y-98552000D02*
X118715904Y-98552000D01*
X118830190Y-98628190D01*
X118906380Y-98704380D01*
X118944476Y-98780571D01*
%TO.C,SW1*%
X130253809Y-98748666D02*
X130291904Y-98634380D01*
X130291904Y-98443904D01*
X130253809Y-98367714D01*
X130215714Y-98329619D01*
X130139523Y-98291523D01*
X130063333Y-98291523D01*
X129987142Y-98329619D01*
X129949047Y-98367714D01*
X129910952Y-98443904D01*
X129872857Y-98596285D01*
X129834761Y-98672476D01*
X129796666Y-98710571D01*
X129720476Y-98748666D01*
X129644285Y-98748666D01*
X129568095Y-98710571D01*
X129530000Y-98672476D01*
X129491904Y-98596285D01*
X129491904Y-98405809D01*
X129530000Y-98291523D01*
X129491904Y-98024857D02*
X130291904Y-97834380D01*
X129720476Y-97682000D01*
X130291904Y-97529619D01*
X129491904Y-97339142D01*
X130291904Y-96615333D02*
X130291904Y-97072476D01*
X130291904Y-96843904D02*
X129491904Y-96843904D01*
X129606190Y-96920095D01*
X129682380Y-96996285D01*
X129720476Y-97072476D01*
%TO.C,S3*%
X116937809Y-109721523D02*
X116975904Y-109607238D01*
X116975904Y-109416761D01*
X116937809Y-109340571D01*
X116899714Y-109302476D01*
X116823523Y-109264380D01*
X116747333Y-109264380D01*
X116671142Y-109302476D01*
X116633047Y-109340571D01*
X116594952Y-109416761D01*
X116556857Y-109569142D01*
X116518761Y-109645333D01*
X116480666Y-109683428D01*
X116404476Y-109721523D01*
X116328285Y-109721523D01*
X116252095Y-109683428D01*
X116214000Y-109645333D01*
X116175904Y-109569142D01*
X116175904Y-109378666D01*
X116214000Y-109264380D01*
X116175904Y-108997714D02*
X116175904Y-108502476D01*
X116480666Y-108769142D01*
X116480666Y-108654857D01*
X116518761Y-108578666D01*
X116556857Y-108540571D01*
X116633047Y-108502476D01*
X116823523Y-108502476D01*
X116899714Y-108540571D01*
X116937809Y-108578666D01*
X116975904Y-108654857D01*
X116975904Y-108883428D01*
X116937809Y-108959619D01*
X116899714Y-108997714D01*
%TO.C,S2*%
X136749809Y-109721523D02*
X136787904Y-109607238D01*
X136787904Y-109416761D01*
X136749809Y-109340571D01*
X136711714Y-109302476D01*
X136635523Y-109264380D01*
X136559333Y-109264380D01*
X136483142Y-109302476D01*
X136445047Y-109340571D01*
X136406952Y-109416761D01*
X136368857Y-109569142D01*
X136330761Y-109645333D01*
X136292666Y-109683428D01*
X136216476Y-109721523D01*
X136140285Y-109721523D01*
X136064095Y-109683428D01*
X136026000Y-109645333D01*
X135987904Y-109569142D01*
X135987904Y-109378666D01*
X136026000Y-109264380D01*
X136064095Y-108959619D02*
X136026000Y-108921523D01*
X135987904Y-108845333D01*
X135987904Y-108654857D01*
X136026000Y-108578666D01*
X136064095Y-108540571D01*
X136140285Y-108502476D01*
X136216476Y-108502476D01*
X136330761Y-108540571D01*
X136787904Y-108997714D01*
X136787904Y-108502476D01*
%TO.C,R4*%
X124341904Y-101879333D02*
X123960952Y-102146000D01*
X124341904Y-102336476D02*
X123541904Y-102336476D01*
X123541904Y-102031714D01*
X123580000Y-101955523D01*
X123618095Y-101917428D01*
X123694285Y-101879333D01*
X123808571Y-101879333D01*
X123884761Y-101917428D01*
X123922857Y-101955523D01*
X123960952Y-102031714D01*
X123960952Y-102336476D01*
X123808571Y-101193619D02*
X124341904Y-101193619D01*
X123503809Y-101384095D02*
X124075238Y-101574571D01*
X124075238Y-101079333D01*
%TO.C,R3*%
X129167904Y-101879333D02*
X128786952Y-102146000D01*
X129167904Y-102336476D02*
X128367904Y-102336476D01*
X128367904Y-102031714D01*
X128406000Y-101955523D01*
X128444095Y-101917428D01*
X128520285Y-101879333D01*
X128634571Y-101879333D01*
X128710761Y-101917428D01*
X128748857Y-101955523D01*
X128786952Y-102031714D01*
X128786952Y-102336476D01*
X128367904Y-101612666D02*
X128367904Y-101117428D01*
X128672666Y-101384095D01*
X128672666Y-101269809D01*
X128710761Y-101193619D01*
X128748857Y-101155523D01*
X128825047Y-101117428D01*
X129015523Y-101117428D01*
X129091714Y-101155523D01*
X129129809Y-101193619D01*
X129167904Y-101269809D01*
X129167904Y-101498380D01*
X129129809Y-101574571D01*
X129091714Y-101612666D01*
%TO.C,R2*%
X125357904Y-98323333D02*
X124976952Y-98590000D01*
X125357904Y-98780476D02*
X124557904Y-98780476D01*
X124557904Y-98475714D01*
X124596000Y-98399523D01*
X124634095Y-98361428D01*
X124710285Y-98323333D01*
X124824571Y-98323333D01*
X124900761Y-98361428D01*
X124938857Y-98399523D01*
X124976952Y-98475714D01*
X124976952Y-98780476D01*
X124634095Y-98018571D02*
X124596000Y-97980476D01*
X124557904Y-97904285D01*
X124557904Y-97713809D01*
X124596000Y-97637619D01*
X124634095Y-97599523D01*
X124710285Y-97561428D01*
X124786476Y-97561428D01*
X124900761Y-97599523D01*
X125357904Y-98056666D01*
X125357904Y-97561428D01*
%TO.C,R1*%
X120036666Y-102361904D02*
X119770000Y-101980952D01*
X119579523Y-102361904D02*
X119579523Y-101561904D01*
X119884285Y-101561904D01*
X119960476Y-101600000D01*
X119998571Y-101638095D01*
X120036666Y-101714285D01*
X120036666Y-101828571D01*
X119998571Y-101904761D01*
X119960476Y-101942857D01*
X119884285Y-101980952D01*
X119579523Y-101980952D01*
X120798571Y-102361904D02*
X120341428Y-102361904D01*
X120570000Y-102361904D02*
X120570000Y-101561904D01*
X120493809Y-101676190D01*
X120417619Y-101752380D01*
X120341428Y-101790476D01*
%TO.C,IC1*%
X125485047Y-100837904D02*
X125485047Y-100037904D01*
X126323142Y-100761714D02*
X126285047Y-100799809D01*
X126170761Y-100837904D01*
X126094571Y-100837904D01*
X125980285Y-100799809D01*
X125904095Y-100723619D01*
X125866000Y-100647428D01*
X125827904Y-100495047D01*
X125827904Y-100380761D01*
X125866000Y-100228380D01*
X125904095Y-100152190D01*
X125980285Y-100076000D01*
X126094571Y-100037904D01*
X126170761Y-100037904D01*
X126285047Y-100076000D01*
X126323142Y-100114095D01*
X127085047Y-100837904D02*
X126627904Y-100837904D01*
X126856476Y-100837904D02*
X126856476Y-100037904D01*
X126780285Y-100152190D01*
X126704095Y-100228380D01*
X126627904Y-100266476D01*
%TO.C,C4*%
X124265714Y-104673333D02*
X124303809Y-104711428D01*
X124341904Y-104825714D01*
X124341904Y-104901904D01*
X124303809Y-105016190D01*
X124227619Y-105092380D01*
X124151428Y-105130476D01*
X123999047Y-105168571D01*
X123884761Y-105168571D01*
X123732380Y-105130476D01*
X123656190Y-105092380D01*
X123580000Y-105016190D01*
X123541904Y-104901904D01*
X123541904Y-104825714D01*
X123580000Y-104711428D01*
X123618095Y-104673333D01*
X123808571Y-103987619D02*
X124341904Y-103987619D01*
X123503809Y-104178095D02*
X124075238Y-104368571D01*
X124075238Y-103873333D01*
%TO.C,C3*%
X129091714Y-104419333D02*
X129129809Y-104457428D01*
X129167904Y-104571714D01*
X129167904Y-104647904D01*
X129129809Y-104762190D01*
X129053619Y-104838380D01*
X128977428Y-104876476D01*
X128825047Y-104914571D01*
X128710761Y-104914571D01*
X128558380Y-104876476D01*
X128482190Y-104838380D01*
X128406000Y-104762190D01*
X128367904Y-104647904D01*
X128367904Y-104571714D01*
X128406000Y-104457428D01*
X128444095Y-104419333D01*
X128367904Y-104152666D02*
X128367904Y-103657428D01*
X128672666Y-103924095D01*
X128672666Y-103809809D01*
X128710761Y-103733619D01*
X128748857Y-103695523D01*
X128825047Y-103657428D01*
X129015523Y-103657428D01*
X129091714Y-103695523D01*
X129129809Y-103733619D01*
X129167904Y-103809809D01*
X129167904Y-104038380D01*
X129129809Y-104114571D01*
X129091714Y-104152666D01*
%TO.C,C2*%
X122581714Y-98323333D02*
X122619809Y-98361428D01*
X122657904Y-98475714D01*
X122657904Y-98551904D01*
X122619809Y-98666190D01*
X122543619Y-98742380D01*
X122467428Y-98780476D01*
X122315047Y-98818571D01*
X122200761Y-98818571D01*
X122048380Y-98780476D01*
X121972190Y-98742380D01*
X121896000Y-98666190D01*
X121857904Y-98551904D01*
X121857904Y-98475714D01*
X121896000Y-98361428D01*
X121934095Y-98323333D01*
X121934095Y-98018571D02*
X121896000Y-97980476D01*
X121857904Y-97904285D01*
X121857904Y-97713809D01*
X121896000Y-97637619D01*
X121934095Y-97599523D01*
X122010285Y-97561428D01*
X122086476Y-97561428D01*
X122200761Y-97599523D01*
X122657904Y-98056666D01*
X122657904Y-97561428D01*
%TO.C,C1*%
X127661714Y-98323333D02*
X127699809Y-98361428D01*
X127737904Y-98475714D01*
X127737904Y-98551904D01*
X127699809Y-98666190D01*
X127623619Y-98742380D01*
X127547428Y-98780476D01*
X127395047Y-98818571D01*
X127280761Y-98818571D01*
X127128380Y-98780476D01*
X127052190Y-98742380D01*
X126976000Y-98666190D01*
X126937904Y-98551904D01*
X126937904Y-98475714D01*
X126976000Y-98361428D01*
X127014095Y-98323333D01*
X127737904Y-97561428D02*
X127737904Y-98018571D01*
X127737904Y-97790000D02*
X126937904Y-97790000D01*
X127052190Y-97866190D01*
X127128380Y-97942380D01*
X127166476Y-98018571D01*
%TD*%
M02*
