%TF.GenerationSoftware,KiCad,Pcbnew,(5.1.7)-1*%
%TF.CreationDate,2020-10-20T02:58:57+09:00*%
%TF.ProjectId,UARTtoBluetooth_array,55415254-746f-4426-9c75-65746f6f7468,rev?*%
%TF.SameCoordinates,Original*%
%TF.FileFunction,Legend,Bot*%
%TF.FilePolarity,Positive*%
%FSLAX46Y46*%
G04 Gerber Fmt 4.6, Leading zero omitted, Abs format (unit mm)*
G04 Created by KiCad (PCBNEW (5.1.7)-1) date 2020-10-20 02:58:57*
%MOMM*%
%LPD*%
G01*
G04 APERTURE LIST*
%ADD10C,0.200000*%
%ADD11C,0.300000*%
G04 APERTURE END LIST*
D10*
X189388571Y-147794000D02*
X188674285Y-147294000D01*
X189388571Y-146936857D02*
X187888571Y-146936857D01*
X187888571Y-147508285D01*
X187960000Y-147651142D01*
X188031428Y-147722571D01*
X188174285Y-147794000D01*
X188388571Y-147794000D01*
X188531428Y-147722571D01*
X188602857Y-147651142D01*
X188674285Y-147508285D01*
X188674285Y-146936857D01*
X187888571Y-148294000D02*
X189388571Y-149294000D01*
X187888571Y-149294000D02*
X189388571Y-148294000D01*
X189388571Y-149865428D02*
X187888571Y-149865428D01*
X187888571Y-150222571D01*
X187960000Y-150436857D01*
X188102857Y-150579714D01*
X188245714Y-150651142D01*
X188531428Y-150722571D01*
X188745714Y-150722571D01*
X189031428Y-150651142D01*
X189174285Y-150579714D01*
X189317142Y-150436857D01*
X189388571Y-150222571D01*
X189388571Y-149865428D01*
X167388571Y-147794000D02*
X166674285Y-147294000D01*
X167388571Y-146936857D02*
X165888571Y-146936857D01*
X165888571Y-147508285D01*
X165960000Y-147651142D01*
X166031428Y-147722571D01*
X166174285Y-147794000D01*
X166388571Y-147794000D01*
X166531428Y-147722571D01*
X166602857Y-147651142D01*
X166674285Y-147508285D01*
X166674285Y-146936857D01*
X165888571Y-148294000D02*
X167388571Y-149294000D01*
X165888571Y-149294000D02*
X167388571Y-148294000D01*
X167388571Y-149865428D02*
X165888571Y-149865428D01*
X165888571Y-150222571D01*
X165960000Y-150436857D01*
X166102857Y-150579714D01*
X166245714Y-150651142D01*
X166531428Y-150722571D01*
X166745714Y-150722571D01*
X167031428Y-150651142D01*
X167174285Y-150579714D01*
X167317142Y-150436857D01*
X167388571Y-150222571D01*
X167388571Y-149865428D01*
X145388571Y-147794000D02*
X144674285Y-147294000D01*
X145388571Y-146936857D02*
X143888571Y-146936857D01*
X143888571Y-147508285D01*
X143960000Y-147651142D01*
X144031428Y-147722571D01*
X144174285Y-147794000D01*
X144388571Y-147794000D01*
X144531428Y-147722571D01*
X144602857Y-147651142D01*
X144674285Y-147508285D01*
X144674285Y-146936857D01*
X143888571Y-148294000D02*
X145388571Y-149294000D01*
X143888571Y-149294000D02*
X145388571Y-148294000D01*
X145388571Y-149865428D02*
X143888571Y-149865428D01*
X143888571Y-150222571D01*
X143960000Y-150436857D01*
X144102857Y-150579714D01*
X144245714Y-150651142D01*
X144531428Y-150722571D01*
X144745714Y-150722571D01*
X145031428Y-150651142D01*
X145174285Y-150579714D01*
X145317142Y-150436857D01*
X145388571Y-150222571D01*
X145388571Y-149865428D01*
X123388571Y-147794000D02*
X122674285Y-147294000D01*
X123388571Y-146936857D02*
X121888571Y-146936857D01*
X121888571Y-147508285D01*
X121960000Y-147651142D01*
X122031428Y-147722571D01*
X122174285Y-147794000D01*
X122388571Y-147794000D01*
X122531428Y-147722571D01*
X122602857Y-147651142D01*
X122674285Y-147508285D01*
X122674285Y-146936857D01*
X121888571Y-148294000D02*
X123388571Y-149294000D01*
X121888571Y-149294000D02*
X123388571Y-148294000D01*
X123388571Y-149865428D02*
X121888571Y-149865428D01*
X121888571Y-150222571D01*
X121960000Y-150436857D01*
X122102857Y-150579714D01*
X122245714Y-150651142D01*
X122531428Y-150722571D01*
X122745714Y-150722571D01*
X123031428Y-150651142D01*
X123174285Y-150579714D01*
X123317142Y-150436857D01*
X123388571Y-150222571D01*
X123388571Y-149865428D01*
X189388571Y-103794000D02*
X188674285Y-103294000D01*
X189388571Y-102936857D02*
X187888571Y-102936857D01*
X187888571Y-103508285D01*
X187960000Y-103651142D01*
X188031428Y-103722571D01*
X188174285Y-103794000D01*
X188388571Y-103794000D01*
X188531428Y-103722571D01*
X188602857Y-103651142D01*
X188674285Y-103508285D01*
X188674285Y-102936857D01*
X187888571Y-104294000D02*
X189388571Y-105294000D01*
X187888571Y-105294000D02*
X189388571Y-104294000D01*
X189388571Y-105865428D02*
X187888571Y-105865428D01*
X187888571Y-106222571D01*
X187960000Y-106436857D01*
X188102857Y-106579714D01*
X188245714Y-106651142D01*
X188531428Y-106722571D01*
X188745714Y-106722571D01*
X189031428Y-106651142D01*
X189174285Y-106579714D01*
X189317142Y-106436857D01*
X189388571Y-106222571D01*
X189388571Y-105865428D01*
X167388571Y-103794000D02*
X166674285Y-103294000D01*
X167388571Y-102936857D02*
X165888571Y-102936857D01*
X165888571Y-103508285D01*
X165960000Y-103651142D01*
X166031428Y-103722571D01*
X166174285Y-103794000D01*
X166388571Y-103794000D01*
X166531428Y-103722571D01*
X166602857Y-103651142D01*
X166674285Y-103508285D01*
X166674285Y-102936857D01*
X165888571Y-104294000D02*
X167388571Y-105294000D01*
X165888571Y-105294000D02*
X167388571Y-104294000D01*
X167388571Y-105865428D02*
X165888571Y-105865428D01*
X165888571Y-106222571D01*
X165960000Y-106436857D01*
X166102857Y-106579714D01*
X166245714Y-106651142D01*
X166531428Y-106722571D01*
X166745714Y-106722571D01*
X167031428Y-106651142D01*
X167174285Y-106579714D01*
X167317142Y-106436857D01*
X167388571Y-106222571D01*
X167388571Y-105865428D01*
X145388571Y-103794000D02*
X144674285Y-103294000D01*
X145388571Y-102936857D02*
X143888571Y-102936857D01*
X143888571Y-103508285D01*
X143960000Y-103651142D01*
X144031428Y-103722571D01*
X144174285Y-103794000D01*
X144388571Y-103794000D01*
X144531428Y-103722571D01*
X144602857Y-103651142D01*
X144674285Y-103508285D01*
X144674285Y-102936857D01*
X143888571Y-104294000D02*
X145388571Y-105294000D01*
X143888571Y-105294000D02*
X145388571Y-104294000D01*
X145388571Y-105865428D02*
X143888571Y-105865428D01*
X143888571Y-106222571D01*
X143960000Y-106436857D01*
X144102857Y-106579714D01*
X144245714Y-106651142D01*
X144531428Y-106722571D01*
X144745714Y-106722571D01*
X145031428Y-106651142D01*
X145174285Y-106579714D01*
X145317142Y-106436857D01*
X145388571Y-106222571D01*
X145388571Y-105865428D01*
X195508571Y-143158857D02*
X195508571Y-144087428D01*
X196080000Y-143587428D01*
X196080000Y-143801714D01*
X196151428Y-143944571D01*
X196222857Y-144016000D01*
X196365714Y-144087428D01*
X196722857Y-144087428D01*
X196865714Y-144016000D01*
X196937142Y-143944571D01*
X197008571Y-143801714D01*
X197008571Y-143373142D01*
X196937142Y-143230285D01*
X196865714Y-143158857D01*
X196865714Y-144730285D02*
X196937142Y-144801714D01*
X197008571Y-144730285D01*
X196937142Y-144658857D01*
X196865714Y-144730285D01*
X197008571Y-144730285D01*
X195508571Y-145301714D02*
X195508571Y-146230285D01*
X196080000Y-145730285D01*
X196080000Y-145944571D01*
X196151428Y-146087428D01*
X196222857Y-146158857D01*
X196365714Y-146230285D01*
X196722857Y-146230285D01*
X196865714Y-146158857D01*
X196937142Y-146087428D01*
X197008571Y-145944571D01*
X197008571Y-145516000D01*
X196937142Y-145373142D01*
X196865714Y-145301714D01*
X196437142Y-146873142D02*
X196437142Y-148016000D01*
X195508571Y-149373142D02*
X195508571Y-149087428D01*
X195580000Y-148944571D01*
X195651428Y-148873142D01*
X195865714Y-148730285D01*
X196151428Y-148658857D01*
X196722857Y-148658857D01*
X196865714Y-148730285D01*
X196937142Y-148801714D01*
X197008571Y-148944571D01*
X197008571Y-149230285D01*
X196937142Y-149373142D01*
X196865714Y-149444571D01*
X196722857Y-149516000D01*
X196365714Y-149516000D01*
X196222857Y-149444571D01*
X196151428Y-149373142D01*
X196080000Y-149230285D01*
X196080000Y-148944571D01*
X196151428Y-148801714D01*
X196222857Y-148730285D01*
X196365714Y-148658857D01*
X195508571Y-149944571D02*
X197008571Y-150444571D01*
X195508571Y-150944571D01*
X173508571Y-143158857D02*
X173508571Y-144087428D01*
X174080000Y-143587428D01*
X174080000Y-143801714D01*
X174151428Y-143944571D01*
X174222857Y-144016000D01*
X174365714Y-144087428D01*
X174722857Y-144087428D01*
X174865714Y-144016000D01*
X174937142Y-143944571D01*
X175008571Y-143801714D01*
X175008571Y-143373142D01*
X174937142Y-143230285D01*
X174865714Y-143158857D01*
X174865714Y-144730285D02*
X174937142Y-144801714D01*
X175008571Y-144730285D01*
X174937142Y-144658857D01*
X174865714Y-144730285D01*
X175008571Y-144730285D01*
X173508571Y-145301714D02*
X173508571Y-146230285D01*
X174080000Y-145730285D01*
X174080000Y-145944571D01*
X174151428Y-146087428D01*
X174222857Y-146158857D01*
X174365714Y-146230285D01*
X174722857Y-146230285D01*
X174865714Y-146158857D01*
X174937142Y-146087428D01*
X175008571Y-145944571D01*
X175008571Y-145516000D01*
X174937142Y-145373142D01*
X174865714Y-145301714D01*
X174437142Y-146873142D02*
X174437142Y-148016000D01*
X173508571Y-149373142D02*
X173508571Y-149087428D01*
X173580000Y-148944571D01*
X173651428Y-148873142D01*
X173865714Y-148730285D01*
X174151428Y-148658857D01*
X174722857Y-148658857D01*
X174865714Y-148730285D01*
X174937142Y-148801714D01*
X175008571Y-148944571D01*
X175008571Y-149230285D01*
X174937142Y-149373142D01*
X174865714Y-149444571D01*
X174722857Y-149516000D01*
X174365714Y-149516000D01*
X174222857Y-149444571D01*
X174151428Y-149373142D01*
X174080000Y-149230285D01*
X174080000Y-148944571D01*
X174151428Y-148801714D01*
X174222857Y-148730285D01*
X174365714Y-148658857D01*
X173508571Y-149944571D02*
X175008571Y-150444571D01*
X173508571Y-150944571D01*
X151508571Y-143158857D02*
X151508571Y-144087428D01*
X152080000Y-143587428D01*
X152080000Y-143801714D01*
X152151428Y-143944571D01*
X152222857Y-144016000D01*
X152365714Y-144087428D01*
X152722857Y-144087428D01*
X152865714Y-144016000D01*
X152937142Y-143944571D01*
X153008571Y-143801714D01*
X153008571Y-143373142D01*
X152937142Y-143230285D01*
X152865714Y-143158857D01*
X152865714Y-144730285D02*
X152937142Y-144801714D01*
X153008571Y-144730285D01*
X152937142Y-144658857D01*
X152865714Y-144730285D01*
X153008571Y-144730285D01*
X151508571Y-145301714D02*
X151508571Y-146230285D01*
X152080000Y-145730285D01*
X152080000Y-145944571D01*
X152151428Y-146087428D01*
X152222857Y-146158857D01*
X152365714Y-146230285D01*
X152722857Y-146230285D01*
X152865714Y-146158857D01*
X152937142Y-146087428D01*
X153008571Y-145944571D01*
X153008571Y-145516000D01*
X152937142Y-145373142D01*
X152865714Y-145301714D01*
X152437142Y-146873142D02*
X152437142Y-148016000D01*
X151508571Y-149373142D02*
X151508571Y-149087428D01*
X151580000Y-148944571D01*
X151651428Y-148873142D01*
X151865714Y-148730285D01*
X152151428Y-148658857D01*
X152722857Y-148658857D01*
X152865714Y-148730285D01*
X152937142Y-148801714D01*
X153008571Y-148944571D01*
X153008571Y-149230285D01*
X152937142Y-149373142D01*
X152865714Y-149444571D01*
X152722857Y-149516000D01*
X152365714Y-149516000D01*
X152222857Y-149444571D01*
X152151428Y-149373142D01*
X152080000Y-149230285D01*
X152080000Y-148944571D01*
X152151428Y-148801714D01*
X152222857Y-148730285D01*
X152365714Y-148658857D01*
X151508571Y-149944571D02*
X153008571Y-150444571D01*
X151508571Y-150944571D01*
X129508571Y-143158857D02*
X129508571Y-144087428D01*
X130080000Y-143587428D01*
X130080000Y-143801714D01*
X130151428Y-143944571D01*
X130222857Y-144016000D01*
X130365714Y-144087428D01*
X130722857Y-144087428D01*
X130865714Y-144016000D01*
X130937142Y-143944571D01*
X131008571Y-143801714D01*
X131008571Y-143373142D01*
X130937142Y-143230285D01*
X130865714Y-143158857D01*
X130865714Y-144730285D02*
X130937142Y-144801714D01*
X131008571Y-144730285D01*
X130937142Y-144658857D01*
X130865714Y-144730285D01*
X131008571Y-144730285D01*
X129508571Y-145301714D02*
X129508571Y-146230285D01*
X130080000Y-145730285D01*
X130080000Y-145944571D01*
X130151428Y-146087428D01*
X130222857Y-146158857D01*
X130365714Y-146230285D01*
X130722857Y-146230285D01*
X130865714Y-146158857D01*
X130937142Y-146087428D01*
X131008571Y-145944571D01*
X131008571Y-145516000D01*
X130937142Y-145373142D01*
X130865714Y-145301714D01*
X130437142Y-146873142D02*
X130437142Y-148016000D01*
X129508571Y-149373142D02*
X129508571Y-149087428D01*
X129580000Y-148944571D01*
X129651428Y-148873142D01*
X129865714Y-148730285D01*
X130151428Y-148658857D01*
X130722857Y-148658857D01*
X130865714Y-148730285D01*
X130937142Y-148801714D01*
X131008571Y-148944571D01*
X131008571Y-149230285D01*
X130937142Y-149373142D01*
X130865714Y-149444571D01*
X130722857Y-149516000D01*
X130365714Y-149516000D01*
X130222857Y-149444571D01*
X130151428Y-149373142D01*
X130080000Y-149230285D01*
X130080000Y-148944571D01*
X130151428Y-148801714D01*
X130222857Y-148730285D01*
X130365714Y-148658857D01*
X129508571Y-149944571D02*
X131008571Y-150444571D01*
X129508571Y-150944571D01*
X195508571Y-99158857D02*
X195508571Y-100087428D01*
X196080000Y-99587428D01*
X196080000Y-99801714D01*
X196151428Y-99944571D01*
X196222857Y-100016000D01*
X196365714Y-100087428D01*
X196722857Y-100087428D01*
X196865714Y-100016000D01*
X196937142Y-99944571D01*
X197008571Y-99801714D01*
X197008571Y-99373142D01*
X196937142Y-99230285D01*
X196865714Y-99158857D01*
X196865714Y-100730285D02*
X196937142Y-100801714D01*
X197008571Y-100730285D01*
X196937142Y-100658857D01*
X196865714Y-100730285D01*
X197008571Y-100730285D01*
X195508571Y-101301714D02*
X195508571Y-102230285D01*
X196080000Y-101730285D01*
X196080000Y-101944571D01*
X196151428Y-102087428D01*
X196222857Y-102158857D01*
X196365714Y-102230285D01*
X196722857Y-102230285D01*
X196865714Y-102158857D01*
X196937142Y-102087428D01*
X197008571Y-101944571D01*
X197008571Y-101516000D01*
X196937142Y-101373142D01*
X196865714Y-101301714D01*
X196437142Y-102873142D02*
X196437142Y-104016000D01*
X195508571Y-105373142D02*
X195508571Y-105087428D01*
X195580000Y-104944571D01*
X195651428Y-104873142D01*
X195865714Y-104730285D01*
X196151428Y-104658857D01*
X196722857Y-104658857D01*
X196865714Y-104730285D01*
X196937142Y-104801714D01*
X197008571Y-104944571D01*
X197008571Y-105230285D01*
X196937142Y-105373142D01*
X196865714Y-105444571D01*
X196722857Y-105516000D01*
X196365714Y-105516000D01*
X196222857Y-105444571D01*
X196151428Y-105373142D01*
X196080000Y-105230285D01*
X196080000Y-104944571D01*
X196151428Y-104801714D01*
X196222857Y-104730285D01*
X196365714Y-104658857D01*
X195508571Y-105944571D02*
X197008571Y-106444571D01*
X195508571Y-106944571D01*
X173508571Y-99158857D02*
X173508571Y-100087428D01*
X174080000Y-99587428D01*
X174080000Y-99801714D01*
X174151428Y-99944571D01*
X174222857Y-100016000D01*
X174365714Y-100087428D01*
X174722857Y-100087428D01*
X174865714Y-100016000D01*
X174937142Y-99944571D01*
X175008571Y-99801714D01*
X175008571Y-99373142D01*
X174937142Y-99230285D01*
X174865714Y-99158857D01*
X174865714Y-100730285D02*
X174937142Y-100801714D01*
X175008571Y-100730285D01*
X174937142Y-100658857D01*
X174865714Y-100730285D01*
X175008571Y-100730285D01*
X173508571Y-101301714D02*
X173508571Y-102230285D01*
X174080000Y-101730285D01*
X174080000Y-101944571D01*
X174151428Y-102087428D01*
X174222857Y-102158857D01*
X174365714Y-102230285D01*
X174722857Y-102230285D01*
X174865714Y-102158857D01*
X174937142Y-102087428D01*
X175008571Y-101944571D01*
X175008571Y-101516000D01*
X174937142Y-101373142D01*
X174865714Y-101301714D01*
X174437142Y-102873142D02*
X174437142Y-104016000D01*
X173508571Y-105373142D02*
X173508571Y-105087428D01*
X173580000Y-104944571D01*
X173651428Y-104873142D01*
X173865714Y-104730285D01*
X174151428Y-104658857D01*
X174722857Y-104658857D01*
X174865714Y-104730285D01*
X174937142Y-104801714D01*
X175008571Y-104944571D01*
X175008571Y-105230285D01*
X174937142Y-105373142D01*
X174865714Y-105444571D01*
X174722857Y-105516000D01*
X174365714Y-105516000D01*
X174222857Y-105444571D01*
X174151428Y-105373142D01*
X174080000Y-105230285D01*
X174080000Y-104944571D01*
X174151428Y-104801714D01*
X174222857Y-104730285D01*
X174365714Y-104658857D01*
X173508571Y-105944571D02*
X175008571Y-106444571D01*
X173508571Y-106944571D01*
X151508571Y-99158857D02*
X151508571Y-100087428D01*
X152080000Y-99587428D01*
X152080000Y-99801714D01*
X152151428Y-99944571D01*
X152222857Y-100016000D01*
X152365714Y-100087428D01*
X152722857Y-100087428D01*
X152865714Y-100016000D01*
X152937142Y-99944571D01*
X153008571Y-99801714D01*
X153008571Y-99373142D01*
X152937142Y-99230285D01*
X152865714Y-99158857D01*
X152865714Y-100730285D02*
X152937142Y-100801714D01*
X153008571Y-100730285D01*
X152937142Y-100658857D01*
X152865714Y-100730285D01*
X153008571Y-100730285D01*
X151508571Y-101301714D02*
X151508571Y-102230285D01*
X152080000Y-101730285D01*
X152080000Y-101944571D01*
X152151428Y-102087428D01*
X152222857Y-102158857D01*
X152365714Y-102230285D01*
X152722857Y-102230285D01*
X152865714Y-102158857D01*
X152937142Y-102087428D01*
X153008571Y-101944571D01*
X153008571Y-101516000D01*
X152937142Y-101373142D01*
X152865714Y-101301714D01*
X152437142Y-102873142D02*
X152437142Y-104016000D01*
X151508571Y-105373142D02*
X151508571Y-105087428D01*
X151580000Y-104944571D01*
X151651428Y-104873142D01*
X151865714Y-104730285D01*
X152151428Y-104658857D01*
X152722857Y-104658857D01*
X152865714Y-104730285D01*
X152937142Y-104801714D01*
X153008571Y-104944571D01*
X153008571Y-105230285D01*
X152937142Y-105373142D01*
X152865714Y-105444571D01*
X152722857Y-105516000D01*
X152365714Y-105516000D01*
X152222857Y-105444571D01*
X152151428Y-105373142D01*
X152080000Y-105230285D01*
X152080000Y-104944571D01*
X152151428Y-104801714D01*
X152222857Y-104730285D01*
X152365714Y-104658857D01*
X151508571Y-105944571D02*
X153008571Y-106444571D01*
X151508571Y-106944571D01*
X193040000Y-147651142D02*
X192968571Y-147508285D01*
X192968571Y-147294000D01*
X193040000Y-147079714D01*
X193182857Y-146936857D01*
X193325714Y-146865428D01*
X193611428Y-146794000D01*
X193825714Y-146794000D01*
X194111428Y-146865428D01*
X194254285Y-146936857D01*
X194397142Y-147079714D01*
X194468571Y-147294000D01*
X194468571Y-147436857D01*
X194397142Y-147651142D01*
X194325714Y-147722571D01*
X193825714Y-147722571D01*
X193825714Y-147436857D01*
X194468571Y-148365428D02*
X192968571Y-148365428D01*
X194468571Y-149222571D01*
X192968571Y-149222571D01*
X194468571Y-149936857D02*
X192968571Y-149936857D01*
X192968571Y-150294000D01*
X193040000Y-150508285D01*
X193182857Y-150651142D01*
X193325714Y-150722571D01*
X193611428Y-150794000D01*
X193825714Y-150794000D01*
X194111428Y-150722571D01*
X194254285Y-150651142D01*
X194397142Y-150508285D01*
X194468571Y-150294000D01*
X194468571Y-149936857D01*
X171040000Y-147651142D02*
X170968571Y-147508285D01*
X170968571Y-147294000D01*
X171040000Y-147079714D01*
X171182857Y-146936857D01*
X171325714Y-146865428D01*
X171611428Y-146794000D01*
X171825714Y-146794000D01*
X172111428Y-146865428D01*
X172254285Y-146936857D01*
X172397142Y-147079714D01*
X172468571Y-147294000D01*
X172468571Y-147436857D01*
X172397142Y-147651142D01*
X172325714Y-147722571D01*
X171825714Y-147722571D01*
X171825714Y-147436857D01*
X172468571Y-148365428D02*
X170968571Y-148365428D01*
X172468571Y-149222571D01*
X170968571Y-149222571D01*
X172468571Y-149936857D02*
X170968571Y-149936857D01*
X170968571Y-150294000D01*
X171040000Y-150508285D01*
X171182857Y-150651142D01*
X171325714Y-150722571D01*
X171611428Y-150794000D01*
X171825714Y-150794000D01*
X172111428Y-150722571D01*
X172254285Y-150651142D01*
X172397142Y-150508285D01*
X172468571Y-150294000D01*
X172468571Y-149936857D01*
X149040000Y-147651142D02*
X148968571Y-147508285D01*
X148968571Y-147294000D01*
X149040000Y-147079714D01*
X149182857Y-146936857D01*
X149325714Y-146865428D01*
X149611428Y-146794000D01*
X149825714Y-146794000D01*
X150111428Y-146865428D01*
X150254285Y-146936857D01*
X150397142Y-147079714D01*
X150468571Y-147294000D01*
X150468571Y-147436857D01*
X150397142Y-147651142D01*
X150325714Y-147722571D01*
X149825714Y-147722571D01*
X149825714Y-147436857D01*
X150468571Y-148365428D02*
X148968571Y-148365428D01*
X150468571Y-149222571D01*
X148968571Y-149222571D01*
X150468571Y-149936857D02*
X148968571Y-149936857D01*
X148968571Y-150294000D01*
X149040000Y-150508285D01*
X149182857Y-150651142D01*
X149325714Y-150722571D01*
X149611428Y-150794000D01*
X149825714Y-150794000D01*
X150111428Y-150722571D01*
X150254285Y-150651142D01*
X150397142Y-150508285D01*
X150468571Y-150294000D01*
X150468571Y-149936857D01*
X127040000Y-147651142D02*
X126968571Y-147508285D01*
X126968571Y-147294000D01*
X127040000Y-147079714D01*
X127182857Y-146936857D01*
X127325714Y-146865428D01*
X127611428Y-146794000D01*
X127825714Y-146794000D01*
X128111428Y-146865428D01*
X128254285Y-146936857D01*
X128397142Y-147079714D01*
X128468571Y-147294000D01*
X128468571Y-147436857D01*
X128397142Y-147651142D01*
X128325714Y-147722571D01*
X127825714Y-147722571D01*
X127825714Y-147436857D01*
X128468571Y-148365428D02*
X126968571Y-148365428D01*
X128468571Y-149222571D01*
X126968571Y-149222571D01*
X128468571Y-149936857D02*
X126968571Y-149936857D01*
X126968571Y-150294000D01*
X127040000Y-150508285D01*
X127182857Y-150651142D01*
X127325714Y-150722571D01*
X127611428Y-150794000D01*
X127825714Y-150794000D01*
X128111428Y-150722571D01*
X128254285Y-150651142D01*
X128397142Y-150508285D01*
X128468571Y-150294000D01*
X128468571Y-149936857D01*
X193040000Y-103651142D02*
X192968571Y-103508285D01*
X192968571Y-103294000D01*
X193040000Y-103079714D01*
X193182857Y-102936857D01*
X193325714Y-102865428D01*
X193611428Y-102794000D01*
X193825714Y-102794000D01*
X194111428Y-102865428D01*
X194254285Y-102936857D01*
X194397142Y-103079714D01*
X194468571Y-103294000D01*
X194468571Y-103436857D01*
X194397142Y-103651142D01*
X194325714Y-103722571D01*
X193825714Y-103722571D01*
X193825714Y-103436857D01*
X194468571Y-104365428D02*
X192968571Y-104365428D01*
X194468571Y-105222571D01*
X192968571Y-105222571D01*
X194468571Y-105936857D02*
X192968571Y-105936857D01*
X192968571Y-106294000D01*
X193040000Y-106508285D01*
X193182857Y-106651142D01*
X193325714Y-106722571D01*
X193611428Y-106794000D01*
X193825714Y-106794000D01*
X194111428Y-106722571D01*
X194254285Y-106651142D01*
X194397142Y-106508285D01*
X194468571Y-106294000D01*
X194468571Y-105936857D01*
X171040000Y-103651142D02*
X170968571Y-103508285D01*
X170968571Y-103294000D01*
X171040000Y-103079714D01*
X171182857Y-102936857D01*
X171325714Y-102865428D01*
X171611428Y-102794000D01*
X171825714Y-102794000D01*
X172111428Y-102865428D01*
X172254285Y-102936857D01*
X172397142Y-103079714D01*
X172468571Y-103294000D01*
X172468571Y-103436857D01*
X172397142Y-103651142D01*
X172325714Y-103722571D01*
X171825714Y-103722571D01*
X171825714Y-103436857D01*
X172468571Y-104365428D02*
X170968571Y-104365428D01*
X172468571Y-105222571D01*
X170968571Y-105222571D01*
X172468571Y-105936857D02*
X170968571Y-105936857D01*
X170968571Y-106294000D01*
X171040000Y-106508285D01*
X171182857Y-106651142D01*
X171325714Y-106722571D01*
X171611428Y-106794000D01*
X171825714Y-106794000D01*
X172111428Y-106722571D01*
X172254285Y-106651142D01*
X172397142Y-106508285D01*
X172468571Y-106294000D01*
X172468571Y-105936857D01*
X149040000Y-103651142D02*
X148968571Y-103508285D01*
X148968571Y-103294000D01*
X149040000Y-103079714D01*
X149182857Y-102936857D01*
X149325714Y-102865428D01*
X149611428Y-102794000D01*
X149825714Y-102794000D01*
X150111428Y-102865428D01*
X150254285Y-102936857D01*
X150397142Y-103079714D01*
X150468571Y-103294000D01*
X150468571Y-103436857D01*
X150397142Y-103651142D01*
X150325714Y-103722571D01*
X149825714Y-103722571D01*
X149825714Y-103436857D01*
X150468571Y-104365428D02*
X148968571Y-104365428D01*
X150468571Y-105222571D01*
X148968571Y-105222571D01*
X150468571Y-105936857D02*
X148968571Y-105936857D01*
X148968571Y-106294000D01*
X149040000Y-106508285D01*
X149182857Y-106651142D01*
X149325714Y-106722571D01*
X149611428Y-106794000D01*
X149825714Y-106794000D01*
X150111428Y-106722571D01*
X150254285Y-106651142D01*
X150397142Y-106508285D01*
X150468571Y-106294000D01*
X150468571Y-105936857D01*
X190428571Y-147155142D02*
X190428571Y-148012285D01*
X191928571Y-147583714D02*
X190428571Y-147583714D01*
X190428571Y-148369428D02*
X191928571Y-149369428D01*
X190428571Y-149369428D02*
X191928571Y-148369428D01*
X191928571Y-149940857D02*
X190428571Y-149940857D01*
X190428571Y-150298000D01*
X190500000Y-150512285D01*
X190642857Y-150655142D01*
X190785714Y-150726571D01*
X191071428Y-150798000D01*
X191285714Y-150798000D01*
X191571428Y-150726571D01*
X191714285Y-150655142D01*
X191857142Y-150512285D01*
X191928571Y-150298000D01*
X191928571Y-149940857D01*
X168428571Y-147155142D02*
X168428571Y-148012285D01*
X169928571Y-147583714D02*
X168428571Y-147583714D01*
X168428571Y-148369428D02*
X169928571Y-149369428D01*
X168428571Y-149369428D02*
X169928571Y-148369428D01*
X169928571Y-149940857D02*
X168428571Y-149940857D01*
X168428571Y-150298000D01*
X168500000Y-150512285D01*
X168642857Y-150655142D01*
X168785714Y-150726571D01*
X169071428Y-150798000D01*
X169285714Y-150798000D01*
X169571428Y-150726571D01*
X169714285Y-150655142D01*
X169857142Y-150512285D01*
X169928571Y-150298000D01*
X169928571Y-149940857D01*
X146428571Y-147155142D02*
X146428571Y-148012285D01*
X147928571Y-147583714D02*
X146428571Y-147583714D01*
X146428571Y-148369428D02*
X147928571Y-149369428D01*
X146428571Y-149369428D02*
X147928571Y-148369428D01*
X147928571Y-149940857D02*
X146428571Y-149940857D01*
X146428571Y-150298000D01*
X146500000Y-150512285D01*
X146642857Y-150655142D01*
X146785714Y-150726571D01*
X147071428Y-150798000D01*
X147285714Y-150798000D01*
X147571428Y-150726571D01*
X147714285Y-150655142D01*
X147857142Y-150512285D01*
X147928571Y-150298000D01*
X147928571Y-149940857D01*
X124428571Y-147155142D02*
X124428571Y-148012285D01*
X125928571Y-147583714D02*
X124428571Y-147583714D01*
X124428571Y-148369428D02*
X125928571Y-149369428D01*
X124428571Y-149369428D02*
X125928571Y-148369428D01*
X125928571Y-149940857D02*
X124428571Y-149940857D01*
X124428571Y-150298000D01*
X124500000Y-150512285D01*
X124642857Y-150655142D01*
X124785714Y-150726571D01*
X125071428Y-150798000D01*
X125285714Y-150798000D01*
X125571428Y-150726571D01*
X125714285Y-150655142D01*
X125857142Y-150512285D01*
X125928571Y-150298000D01*
X125928571Y-149940857D01*
X190428571Y-103155142D02*
X190428571Y-104012285D01*
X191928571Y-103583714D02*
X190428571Y-103583714D01*
X190428571Y-104369428D02*
X191928571Y-105369428D01*
X190428571Y-105369428D02*
X191928571Y-104369428D01*
X191928571Y-105940857D02*
X190428571Y-105940857D01*
X190428571Y-106298000D01*
X190500000Y-106512285D01*
X190642857Y-106655142D01*
X190785714Y-106726571D01*
X191071428Y-106798000D01*
X191285714Y-106798000D01*
X191571428Y-106726571D01*
X191714285Y-106655142D01*
X191857142Y-106512285D01*
X191928571Y-106298000D01*
X191928571Y-105940857D01*
X168428571Y-103155142D02*
X168428571Y-104012285D01*
X169928571Y-103583714D02*
X168428571Y-103583714D01*
X168428571Y-104369428D02*
X169928571Y-105369428D01*
X168428571Y-105369428D02*
X169928571Y-104369428D01*
X169928571Y-105940857D02*
X168428571Y-105940857D01*
X168428571Y-106298000D01*
X168500000Y-106512285D01*
X168642857Y-106655142D01*
X168785714Y-106726571D01*
X169071428Y-106798000D01*
X169285714Y-106798000D01*
X169571428Y-106726571D01*
X169714285Y-106655142D01*
X169857142Y-106512285D01*
X169928571Y-106298000D01*
X169928571Y-105940857D01*
X146428571Y-103155142D02*
X146428571Y-104012285D01*
X147928571Y-103583714D02*
X146428571Y-103583714D01*
X146428571Y-104369428D02*
X147928571Y-105369428D01*
X146428571Y-105369428D02*
X147928571Y-104369428D01*
X147928571Y-105940857D02*
X146428571Y-105940857D01*
X146428571Y-106298000D01*
X146500000Y-106512285D01*
X146642857Y-106655142D01*
X146785714Y-106726571D01*
X147071428Y-106798000D01*
X147285714Y-106798000D01*
X147571428Y-106726571D01*
X147714285Y-106655142D01*
X147857142Y-106512285D01*
X147928571Y-106298000D01*
X147928571Y-105940857D01*
D11*
X183175428Y-113659571D02*
X183175428Y-114259571D01*
X184118285Y-114516714D02*
X184118285Y-113659571D01*
X182318285Y-113659571D01*
X182318285Y-114516714D01*
X184032571Y-115202428D02*
X184118285Y-115459571D01*
X184118285Y-115888142D01*
X184032571Y-116059571D01*
X183946857Y-116145285D01*
X183775428Y-116231000D01*
X183604000Y-116231000D01*
X183432571Y-116145285D01*
X183346857Y-116059571D01*
X183261142Y-115888142D01*
X183175428Y-115545285D01*
X183089714Y-115373857D01*
X183004000Y-115288142D01*
X182832571Y-115202428D01*
X182661142Y-115202428D01*
X182489714Y-115288142D01*
X182404000Y-115373857D01*
X182318285Y-115545285D01*
X182318285Y-115973857D01*
X182404000Y-116231000D01*
X184118285Y-117002428D02*
X182318285Y-117002428D01*
X182318285Y-117688142D01*
X182404000Y-117859571D01*
X182489714Y-117945285D01*
X182661142Y-118031000D01*
X182918285Y-118031000D01*
X183089714Y-117945285D01*
X183175428Y-117859571D01*
X183261142Y-117688142D01*
X183261142Y-117002428D01*
X182318285Y-118631000D02*
X182318285Y-119745285D01*
X183004000Y-119145285D01*
X183004000Y-119402428D01*
X183089714Y-119573857D01*
X183175428Y-119659571D01*
X183346857Y-119745285D01*
X183775428Y-119745285D01*
X183946857Y-119659571D01*
X184032571Y-119573857D01*
X184118285Y-119402428D01*
X184118285Y-118888142D01*
X184032571Y-118716714D01*
X183946857Y-118631000D01*
X182489714Y-120431000D02*
X182404000Y-120516714D01*
X182318285Y-120688142D01*
X182318285Y-121116714D01*
X182404000Y-121288142D01*
X182489714Y-121373857D01*
X182661142Y-121459571D01*
X182832571Y-121459571D01*
X183089714Y-121373857D01*
X184118285Y-120345285D01*
X184118285Y-121459571D01*
X183432571Y-122231000D02*
X183432571Y-123602428D01*
X182318285Y-124288142D02*
X184118285Y-124716714D01*
X182832571Y-125059571D01*
X184118285Y-125402428D01*
X182318285Y-125831000D01*
X184118285Y-127545285D02*
X183261142Y-126945285D01*
X184118285Y-126516714D02*
X182318285Y-126516714D01*
X182318285Y-127202428D01*
X182404000Y-127373857D01*
X182489714Y-127459571D01*
X182661142Y-127545285D01*
X182918285Y-127545285D01*
X183089714Y-127459571D01*
X183175428Y-127373857D01*
X183261142Y-127202428D01*
X183261142Y-126516714D01*
X182318285Y-128659571D02*
X182318285Y-129002428D01*
X182404000Y-129173857D01*
X182575428Y-129345285D01*
X182918285Y-129431000D01*
X183518285Y-129431000D01*
X183861142Y-129345285D01*
X184032571Y-129173857D01*
X184118285Y-129002428D01*
X184118285Y-128659571D01*
X184032571Y-128488142D01*
X183861142Y-128316714D01*
X183518285Y-128231000D01*
X182918285Y-128231000D01*
X182575428Y-128316714D01*
X182404000Y-128488142D01*
X182318285Y-128659571D01*
X182318285Y-130545285D02*
X182318285Y-130888142D01*
X182404000Y-131059571D01*
X182575428Y-131231000D01*
X182918285Y-131316714D01*
X183518285Y-131316714D01*
X183861142Y-131231000D01*
X184032571Y-131059571D01*
X184118285Y-130888142D01*
X184118285Y-130545285D01*
X184032571Y-130373857D01*
X183861142Y-130202428D01*
X183518285Y-130116714D01*
X182918285Y-130116714D01*
X182575428Y-130202428D01*
X182404000Y-130373857D01*
X182318285Y-130545285D01*
X184118285Y-132088142D02*
X182318285Y-132088142D01*
X183604000Y-132688142D01*
X182318285Y-133288142D01*
X184118285Y-133288142D01*
X183432571Y-134145285D02*
X183432571Y-135516714D01*
X182318285Y-136202428D02*
X182318285Y-137316714D01*
X183004000Y-136716714D01*
X183004000Y-136973857D01*
X183089714Y-137145285D01*
X183175428Y-137231000D01*
X183346857Y-137316714D01*
X183775428Y-137316714D01*
X183946857Y-137231000D01*
X184032571Y-137145285D01*
X184118285Y-136973857D01*
X184118285Y-136459571D01*
X184032571Y-136288142D01*
X183946857Y-136202428D01*
X182489714Y-138002428D02*
X182404000Y-138088142D01*
X182318285Y-138259571D01*
X182318285Y-138688142D01*
X182404000Y-138859571D01*
X182489714Y-138945285D01*
X182661142Y-139031000D01*
X182832571Y-139031000D01*
X183089714Y-138945285D01*
X184118285Y-137916714D01*
X184118285Y-139031000D01*
X185318285Y-113659571D02*
X186775428Y-113659571D01*
X186946857Y-113745285D01*
X187032571Y-113831000D01*
X187118285Y-114002428D01*
X187118285Y-114345285D01*
X187032571Y-114516714D01*
X186946857Y-114602428D01*
X186775428Y-114688142D01*
X185318285Y-114688142D01*
X186604000Y-115459571D02*
X186604000Y-116316714D01*
X187118285Y-115288142D02*
X185318285Y-115888142D01*
X187118285Y-116488142D01*
X187118285Y-118116714D02*
X186261142Y-117516714D01*
X187118285Y-117088142D02*
X185318285Y-117088142D01*
X185318285Y-117773857D01*
X185404000Y-117945285D01*
X185489714Y-118031000D01*
X185661142Y-118116714D01*
X185918285Y-118116714D01*
X186089714Y-118031000D01*
X186175428Y-117945285D01*
X186261142Y-117773857D01*
X186261142Y-117088142D01*
X185318285Y-118631000D02*
X185318285Y-119659571D01*
X187118285Y-119145285D02*
X185318285Y-119145285D01*
X186175428Y-122231000D02*
X186261142Y-122488142D01*
X186346857Y-122573857D01*
X186518285Y-122659571D01*
X186775428Y-122659571D01*
X186946857Y-122573857D01*
X187032571Y-122488142D01*
X187118285Y-122316714D01*
X187118285Y-121631000D01*
X185318285Y-121631000D01*
X185318285Y-122231000D01*
X185404000Y-122402428D01*
X185489714Y-122488142D01*
X185661142Y-122573857D01*
X185832571Y-122573857D01*
X186004000Y-122488142D01*
X186089714Y-122402428D01*
X186175428Y-122231000D01*
X186175428Y-121631000D01*
X187118285Y-123688142D02*
X187032571Y-123516714D01*
X186861142Y-123431000D01*
X185318285Y-123431000D01*
X185918285Y-125145285D02*
X187118285Y-125145285D01*
X185918285Y-124373857D02*
X186861142Y-124373857D01*
X187032571Y-124459571D01*
X187118285Y-124631000D01*
X187118285Y-124888142D01*
X187032571Y-125059571D01*
X186946857Y-125145285D01*
X187032571Y-126688142D02*
X187118285Y-126516714D01*
X187118285Y-126173857D01*
X187032571Y-126002428D01*
X186861142Y-125916714D01*
X186175428Y-125916714D01*
X186004000Y-126002428D01*
X185918285Y-126173857D01*
X185918285Y-126516714D01*
X186004000Y-126688142D01*
X186175428Y-126773857D01*
X186346857Y-126773857D01*
X186518285Y-125916714D01*
X185918285Y-127288142D02*
X185918285Y-127973857D01*
X185318285Y-127545285D02*
X186861142Y-127545285D01*
X187032571Y-127631000D01*
X187118285Y-127802428D01*
X187118285Y-127973857D01*
X187118285Y-128831000D02*
X187032571Y-128659571D01*
X186946857Y-128573857D01*
X186775428Y-128488142D01*
X186261142Y-128488142D01*
X186089714Y-128573857D01*
X186004000Y-128659571D01*
X185918285Y-128831000D01*
X185918285Y-129088142D01*
X186004000Y-129259571D01*
X186089714Y-129345285D01*
X186261142Y-129431000D01*
X186775428Y-129431000D01*
X186946857Y-129345285D01*
X187032571Y-129259571D01*
X187118285Y-129088142D01*
X187118285Y-128831000D01*
X187118285Y-130459571D02*
X187032571Y-130288142D01*
X186946857Y-130202428D01*
X186775428Y-130116714D01*
X186261142Y-130116714D01*
X186089714Y-130202428D01*
X186004000Y-130288142D01*
X185918285Y-130459571D01*
X185918285Y-130716714D01*
X186004000Y-130888142D01*
X186089714Y-130973857D01*
X186261142Y-131059571D01*
X186775428Y-131059571D01*
X186946857Y-130973857D01*
X187032571Y-130888142D01*
X187118285Y-130716714D01*
X187118285Y-130459571D01*
X185918285Y-131573857D02*
X185918285Y-132259571D01*
X185318285Y-131831000D02*
X186861142Y-131831000D01*
X187032571Y-131916714D01*
X187118285Y-132088142D01*
X187118285Y-132259571D01*
X187118285Y-132859571D02*
X185318285Y-132859571D01*
X187118285Y-133631000D02*
X186175428Y-133631000D01*
X186004000Y-133545285D01*
X185918285Y-133373857D01*
X185918285Y-133116714D01*
X186004000Y-132945285D01*
X186089714Y-132859571D01*
X186946857Y-136888142D02*
X187032571Y-136802428D01*
X187118285Y-136545285D01*
X187118285Y-136373857D01*
X187032571Y-136116714D01*
X186861142Y-135945285D01*
X186689714Y-135859571D01*
X186346857Y-135773857D01*
X186089714Y-135773857D01*
X185746857Y-135859571D01*
X185575428Y-135945285D01*
X185404000Y-136116714D01*
X185318285Y-136373857D01*
X185318285Y-136545285D01*
X185404000Y-136802428D01*
X185489714Y-136888142D01*
X187118285Y-137916714D02*
X187032571Y-137745285D01*
X186946857Y-137659571D01*
X186775428Y-137573857D01*
X186261142Y-137573857D01*
X186089714Y-137659571D01*
X186004000Y-137745285D01*
X185918285Y-137916714D01*
X185918285Y-138173857D01*
X186004000Y-138345285D01*
X186089714Y-138431000D01*
X186261142Y-138516714D01*
X186775428Y-138516714D01*
X186946857Y-138431000D01*
X187032571Y-138345285D01*
X187118285Y-138173857D01*
X187118285Y-137916714D01*
X185918285Y-139288142D02*
X187118285Y-139288142D01*
X186089714Y-139288142D02*
X186004000Y-139373857D01*
X185918285Y-139545285D01*
X185918285Y-139802428D01*
X186004000Y-139973857D01*
X186175428Y-140059571D01*
X187118285Y-140059571D01*
X185918285Y-140745285D02*
X187118285Y-141173857D01*
X185918285Y-141602428D01*
X187032571Y-142973857D02*
X187118285Y-142802428D01*
X187118285Y-142459571D01*
X187032571Y-142288142D01*
X186861142Y-142202428D01*
X186175428Y-142202428D01*
X186004000Y-142288142D01*
X185918285Y-142459571D01*
X185918285Y-142802428D01*
X186004000Y-142973857D01*
X186175428Y-143059571D01*
X186346857Y-143059571D01*
X186518285Y-142202428D01*
X187118285Y-143831000D02*
X185918285Y-143831000D01*
X186261142Y-143831000D02*
X186089714Y-143916714D01*
X186004000Y-144002428D01*
X185918285Y-144173857D01*
X185918285Y-144345285D01*
X185918285Y-144688142D02*
X185918285Y-145373857D01*
X185318285Y-144945285D02*
X186861142Y-144945285D01*
X187032571Y-145031000D01*
X187118285Y-145202428D01*
X187118285Y-145373857D01*
X187032571Y-146659571D02*
X187118285Y-146488142D01*
X187118285Y-146145285D01*
X187032571Y-145973857D01*
X186861142Y-145888142D01*
X186175428Y-145888142D01*
X186004000Y-145973857D01*
X185918285Y-146145285D01*
X185918285Y-146488142D01*
X186004000Y-146659571D01*
X186175428Y-146745285D01*
X186346857Y-146745285D01*
X186518285Y-145888142D01*
X187118285Y-147516714D02*
X185918285Y-147516714D01*
X186261142Y-147516714D02*
X186089714Y-147602428D01*
X186004000Y-147688142D01*
X185918285Y-147859571D01*
X185918285Y-148031000D01*
X161175428Y-113659571D02*
X161175428Y-114259571D01*
X162118285Y-114516714D02*
X162118285Y-113659571D01*
X160318285Y-113659571D01*
X160318285Y-114516714D01*
X162032571Y-115202428D02*
X162118285Y-115459571D01*
X162118285Y-115888142D01*
X162032571Y-116059571D01*
X161946857Y-116145285D01*
X161775428Y-116231000D01*
X161604000Y-116231000D01*
X161432571Y-116145285D01*
X161346857Y-116059571D01*
X161261142Y-115888142D01*
X161175428Y-115545285D01*
X161089714Y-115373857D01*
X161004000Y-115288142D01*
X160832571Y-115202428D01*
X160661142Y-115202428D01*
X160489714Y-115288142D01*
X160404000Y-115373857D01*
X160318285Y-115545285D01*
X160318285Y-115973857D01*
X160404000Y-116231000D01*
X162118285Y-117002428D02*
X160318285Y-117002428D01*
X160318285Y-117688142D01*
X160404000Y-117859571D01*
X160489714Y-117945285D01*
X160661142Y-118031000D01*
X160918285Y-118031000D01*
X161089714Y-117945285D01*
X161175428Y-117859571D01*
X161261142Y-117688142D01*
X161261142Y-117002428D01*
X160318285Y-118631000D02*
X160318285Y-119745285D01*
X161004000Y-119145285D01*
X161004000Y-119402428D01*
X161089714Y-119573857D01*
X161175428Y-119659571D01*
X161346857Y-119745285D01*
X161775428Y-119745285D01*
X161946857Y-119659571D01*
X162032571Y-119573857D01*
X162118285Y-119402428D01*
X162118285Y-118888142D01*
X162032571Y-118716714D01*
X161946857Y-118631000D01*
X160489714Y-120431000D02*
X160404000Y-120516714D01*
X160318285Y-120688142D01*
X160318285Y-121116714D01*
X160404000Y-121288142D01*
X160489714Y-121373857D01*
X160661142Y-121459571D01*
X160832571Y-121459571D01*
X161089714Y-121373857D01*
X162118285Y-120345285D01*
X162118285Y-121459571D01*
X161432571Y-122231000D02*
X161432571Y-123602428D01*
X160318285Y-124288142D02*
X162118285Y-124716714D01*
X160832571Y-125059571D01*
X162118285Y-125402428D01*
X160318285Y-125831000D01*
X162118285Y-127545285D02*
X161261142Y-126945285D01*
X162118285Y-126516714D02*
X160318285Y-126516714D01*
X160318285Y-127202428D01*
X160404000Y-127373857D01*
X160489714Y-127459571D01*
X160661142Y-127545285D01*
X160918285Y-127545285D01*
X161089714Y-127459571D01*
X161175428Y-127373857D01*
X161261142Y-127202428D01*
X161261142Y-126516714D01*
X160318285Y-128659571D02*
X160318285Y-129002428D01*
X160404000Y-129173857D01*
X160575428Y-129345285D01*
X160918285Y-129431000D01*
X161518285Y-129431000D01*
X161861142Y-129345285D01*
X162032571Y-129173857D01*
X162118285Y-129002428D01*
X162118285Y-128659571D01*
X162032571Y-128488142D01*
X161861142Y-128316714D01*
X161518285Y-128231000D01*
X160918285Y-128231000D01*
X160575428Y-128316714D01*
X160404000Y-128488142D01*
X160318285Y-128659571D01*
X160318285Y-130545285D02*
X160318285Y-130888142D01*
X160404000Y-131059571D01*
X160575428Y-131231000D01*
X160918285Y-131316714D01*
X161518285Y-131316714D01*
X161861142Y-131231000D01*
X162032571Y-131059571D01*
X162118285Y-130888142D01*
X162118285Y-130545285D01*
X162032571Y-130373857D01*
X161861142Y-130202428D01*
X161518285Y-130116714D01*
X160918285Y-130116714D01*
X160575428Y-130202428D01*
X160404000Y-130373857D01*
X160318285Y-130545285D01*
X162118285Y-132088142D02*
X160318285Y-132088142D01*
X161604000Y-132688142D01*
X160318285Y-133288142D01*
X162118285Y-133288142D01*
X161432571Y-134145285D02*
X161432571Y-135516714D01*
X160318285Y-136202428D02*
X160318285Y-137316714D01*
X161004000Y-136716714D01*
X161004000Y-136973857D01*
X161089714Y-137145285D01*
X161175428Y-137231000D01*
X161346857Y-137316714D01*
X161775428Y-137316714D01*
X161946857Y-137231000D01*
X162032571Y-137145285D01*
X162118285Y-136973857D01*
X162118285Y-136459571D01*
X162032571Y-136288142D01*
X161946857Y-136202428D01*
X160489714Y-138002428D02*
X160404000Y-138088142D01*
X160318285Y-138259571D01*
X160318285Y-138688142D01*
X160404000Y-138859571D01*
X160489714Y-138945285D01*
X160661142Y-139031000D01*
X160832571Y-139031000D01*
X161089714Y-138945285D01*
X162118285Y-137916714D01*
X162118285Y-139031000D01*
X163318285Y-113659571D02*
X164775428Y-113659571D01*
X164946857Y-113745285D01*
X165032571Y-113831000D01*
X165118285Y-114002428D01*
X165118285Y-114345285D01*
X165032571Y-114516714D01*
X164946857Y-114602428D01*
X164775428Y-114688142D01*
X163318285Y-114688142D01*
X164604000Y-115459571D02*
X164604000Y-116316714D01*
X165118285Y-115288142D02*
X163318285Y-115888142D01*
X165118285Y-116488142D01*
X165118285Y-118116714D02*
X164261142Y-117516714D01*
X165118285Y-117088142D02*
X163318285Y-117088142D01*
X163318285Y-117773857D01*
X163404000Y-117945285D01*
X163489714Y-118031000D01*
X163661142Y-118116714D01*
X163918285Y-118116714D01*
X164089714Y-118031000D01*
X164175428Y-117945285D01*
X164261142Y-117773857D01*
X164261142Y-117088142D01*
X163318285Y-118631000D02*
X163318285Y-119659571D01*
X165118285Y-119145285D02*
X163318285Y-119145285D01*
X164175428Y-122231000D02*
X164261142Y-122488142D01*
X164346857Y-122573857D01*
X164518285Y-122659571D01*
X164775428Y-122659571D01*
X164946857Y-122573857D01*
X165032571Y-122488142D01*
X165118285Y-122316714D01*
X165118285Y-121631000D01*
X163318285Y-121631000D01*
X163318285Y-122231000D01*
X163404000Y-122402428D01*
X163489714Y-122488142D01*
X163661142Y-122573857D01*
X163832571Y-122573857D01*
X164004000Y-122488142D01*
X164089714Y-122402428D01*
X164175428Y-122231000D01*
X164175428Y-121631000D01*
X165118285Y-123688142D02*
X165032571Y-123516714D01*
X164861142Y-123431000D01*
X163318285Y-123431000D01*
X163918285Y-125145285D02*
X165118285Y-125145285D01*
X163918285Y-124373857D02*
X164861142Y-124373857D01*
X165032571Y-124459571D01*
X165118285Y-124631000D01*
X165118285Y-124888142D01*
X165032571Y-125059571D01*
X164946857Y-125145285D01*
X165032571Y-126688142D02*
X165118285Y-126516714D01*
X165118285Y-126173857D01*
X165032571Y-126002428D01*
X164861142Y-125916714D01*
X164175428Y-125916714D01*
X164004000Y-126002428D01*
X163918285Y-126173857D01*
X163918285Y-126516714D01*
X164004000Y-126688142D01*
X164175428Y-126773857D01*
X164346857Y-126773857D01*
X164518285Y-125916714D01*
X163918285Y-127288142D02*
X163918285Y-127973857D01*
X163318285Y-127545285D02*
X164861142Y-127545285D01*
X165032571Y-127631000D01*
X165118285Y-127802428D01*
X165118285Y-127973857D01*
X165118285Y-128831000D02*
X165032571Y-128659571D01*
X164946857Y-128573857D01*
X164775428Y-128488142D01*
X164261142Y-128488142D01*
X164089714Y-128573857D01*
X164004000Y-128659571D01*
X163918285Y-128831000D01*
X163918285Y-129088142D01*
X164004000Y-129259571D01*
X164089714Y-129345285D01*
X164261142Y-129431000D01*
X164775428Y-129431000D01*
X164946857Y-129345285D01*
X165032571Y-129259571D01*
X165118285Y-129088142D01*
X165118285Y-128831000D01*
X165118285Y-130459571D02*
X165032571Y-130288142D01*
X164946857Y-130202428D01*
X164775428Y-130116714D01*
X164261142Y-130116714D01*
X164089714Y-130202428D01*
X164004000Y-130288142D01*
X163918285Y-130459571D01*
X163918285Y-130716714D01*
X164004000Y-130888142D01*
X164089714Y-130973857D01*
X164261142Y-131059571D01*
X164775428Y-131059571D01*
X164946857Y-130973857D01*
X165032571Y-130888142D01*
X165118285Y-130716714D01*
X165118285Y-130459571D01*
X163918285Y-131573857D02*
X163918285Y-132259571D01*
X163318285Y-131831000D02*
X164861142Y-131831000D01*
X165032571Y-131916714D01*
X165118285Y-132088142D01*
X165118285Y-132259571D01*
X165118285Y-132859571D02*
X163318285Y-132859571D01*
X165118285Y-133631000D02*
X164175428Y-133631000D01*
X164004000Y-133545285D01*
X163918285Y-133373857D01*
X163918285Y-133116714D01*
X164004000Y-132945285D01*
X164089714Y-132859571D01*
X164946857Y-136888142D02*
X165032571Y-136802428D01*
X165118285Y-136545285D01*
X165118285Y-136373857D01*
X165032571Y-136116714D01*
X164861142Y-135945285D01*
X164689714Y-135859571D01*
X164346857Y-135773857D01*
X164089714Y-135773857D01*
X163746857Y-135859571D01*
X163575428Y-135945285D01*
X163404000Y-136116714D01*
X163318285Y-136373857D01*
X163318285Y-136545285D01*
X163404000Y-136802428D01*
X163489714Y-136888142D01*
X165118285Y-137916714D02*
X165032571Y-137745285D01*
X164946857Y-137659571D01*
X164775428Y-137573857D01*
X164261142Y-137573857D01*
X164089714Y-137659571D01*
X164004000Y-137745285D01*
X163918285Y-137916714D01*
X163918285Y-138173857D01*
X164004000Y-138345285D01*
X164089714Y-138431000D01*
X164261142Y-138516714D01*
X164775428Y-138516714D01*
X164946857Y-138431000D01*
X165032571Y-138345285D01*
X165118285Y-138173857D01*
X165118285Y-137916714D01*
X163918285Y-139288142D02*
X165118285Y-139288142D01*
X164089714Y-139288142D02*
X164004000Y-139373857D01*
X163918285Y-139545285D01*
X163918285Y-139802428D01*
X164004000Y-139973857D01*
X164175428Y-140059571D01*
X165118285Y-140059571D01*
X163918285Y-140745285D02*
X165118285Y-141173857D01*
X163918285Y-141602428D01*
X165032571Y-142973857D02*
X165118285Y-142802428D01*
X165118285Y-142459571D01*
X165032571Y-142288142D01*
X164861142Y-142202428D01*
X164175428Y-142202428D01*
X164004000Y-142288142D01*
X163918285Y-142459571D01*
X163918285Y-142802428D01*
X164004000Y-142973857D01*
X164175428Y-143059571D01*
X164346857Y-143059571D01*
X164518285Y-142202428D01*
X165118285Y-143831000D02*
X163918285Y-143831000D01*
X164261142Y-143831000D02*
X164089714Y-143916714D01*
X164004000Y-144002428D01*
X163918285Y-144173857D01*
X163918285Y-144345285D01*
X163918285Y-144688142D02*
X163918285Y-145373857D01*
X163318285Y-144945285D02*
X164861142Y-144945285D01*
X165032571Y-145031000D01*
X165118285Y-145202428D01*
X165118285Y-145373857D01*
X165032571Y-146659571D02*
X165118285Y-146488142D01*
X165118285Y-146145285D01*
X165032571Y-145973857D01*
X164861142Y-145888142D01*
X164175428Y-145888142D01*
X164004000Y-145973857D01*
X163918285Y-146145285D01*
X163918285Y-146488142D01*
X164004000Y-146659571D01*
X164175428Y-146745285D01*
X164346857Y-146745285D01*
X164518285Y-145888142D01*
X165118285Y-147516714D02*
X163918285Y-147516714D01*
X164261142Y-147516714D02*
X164089714Y-147602428D01*
X164004000Y-147688142D01*
X163918285Y-147859571D01*
X163918285Y-148031000D01*
X139175428Y-113659571D02*
X139175428Y-114259571D01*
X140118285Y-114516714D02*
X140118285Y-113659571D01*
X138318285Y-113659571D01*
X138318285Y-114516714D01*
X140032571Y-115202428D02*
X140118285Y-115459571D01*
X140118285Y-115888142D01*
X140032571Y-116059571D01*
X139946857Y-116145285D01*
X139775428Y-116231000D01*
X139604000Y-116231000D01*
X139432571Y-116145285D01*
X139346857Y-116059571D01*
X139261142Y-115888142D01*
X139175428Y-115545285D01*
X139089714Y-115373857D01*
X139004000Y-115288142D01*
X138832571Y-115202428D01*
X138661142Y-115202428D01*
X138489714Y-115288142D01*
X138404000Y-115373857D01*
X138318285Y-115545285D01*
X138318285Y-115973857D01*
X138404000Y-116231000D01*
X140118285Y-117002428D02*
X138318285Y-117002428D01*
X138318285Y-117688142D01*
X138404000Y-117859571D01*
X138489714Y-117945285D01*
X138661142Y-118031000D01*
X138918285Y-118031000D01*
X139089714Y-117945285D01*
X139175428Y-117859571D01*
X139261142Y-117688142D01*
X139261142Y-117002428D01*
X138318285Y-118631000D02*
X138318285Y-119745285D01*
X139004000Y-119145285D01*
X139004000Y-119402428D01*
X139089714Y-119573857D01*
X139175428Y-119659571D01*
X139346857Y-119745285D01*
X139775428Y-119745285D01*
X139946857Y-119659571D01*
X140032571Y-119573857D01*
X140118285Y-119402428D01*
X140118285Y-118888142D01*
X140032571Y-118716714D01*
X139946857Y-118631000D01*
X138489714Y-120431000D02*
X138404000Y-120516714D01*
X138318285Y-120688142D01*
X138318285Y-121116714D01*
X138404000Y-121288142D01*
X138489714Y-121373857D01*
X138661142Y-121459571D01*
X138832571Y-121459571D01*
X139089714Y-121373857D01*
X140118285Y-120345285D01*
X140118285Y-121459571D01*
X139432571Y-122231000D02*
X139432571Y-123602428D01*
X138318285Y-124288142D02*
X140118285Y-124716714D01*
X138832571Y-125059571D01*
X140118285Y-125402428D01*
X138318285Y-125831000D01*
X140118285Y-127545285D02*
X139261142Y-126945285D01*
X140118285Y-126516714D02*
X138318285Y-126516714D01*
X138318285Y-127202428D01*
X138404000Y-127373857D01*
X138489714Y-127459571D01*
X138661142Y-127545285D01*
X138918285Y-127545285D01*
X139089714Y-127459571D01*
X139175428Y-127373857D01*
X139261142Y-127202428D01*
X139261142Y-126516714D01*
X138318285Y-128659571D02*
X138318285Y-129002428D01*
X138404000Y-129173857D01*
X138575428Y-129345285D01*
X138918285Y-129430999D01*
X139518285Y-129430999D01*
X139861142Y-129345285D01*
X140032571Y-129173857D01*
X140118285Y-129002428D01*
X140118285Y-128659571D01*
X140032571Y-128488142D01*
X139861142Y-128316714D01*
X139518285Y-128231000D01*
X138918285Y-128231000D01*
X138575428Y-128316714D01*
X138404000Y-128488142D01*
X138318285Y-128659571D01*
X138318285Y-130545285D02*
X138318285Y-130888142D01*
X138404000Y-131059571D01*
X138575428Y-131230999D01*
X138918285Y-131316714D01*
X139518285Y-131316714D01*
X139861142Y-131230999D01*
X140032571Y-131059571D01*
X140118285Y-130888142D01*
X140118285Y-130545285D01*
X140032571Y-130373857D01*
X139861142Y-130202428D01*
X139518285Y-130116714D01*
X138918285Y-130116714D01*
X138575428Y-130202428D01*
X138404000Y-130373857D01*
X138318285Y-130545285D01*
X140118285Y-132088142D02*
X138318285Y-132088142D01*
X139604000Y-132688142D01*
X138318285Y-133288142D01*
X140118285Y-133288142D01*
X139432571Y-134145285D02*
X139432571Y-135516714D01*
X138318285Y-136202428D02*
X138318285Y-137316714D01*
X139004000Y-136716714D01*
X139004000Y-136973857D01*
X139089714Y-137145285D01*
X139175428Y-137231000D01*
X139346857Y-137316714D01*
X139775428Y-137316714D01*
X139946857Y-137231000D01*
X140032571Y-137145285D01*
X140118285Y-136973857D01*
X140118285Y-136459571D01*
X140032571Y-136288142D01*
X139946857Y-136202428D01*
X138489714Y-138002428D02*
X138404000Y-138088142D01*
X138318285Y-138259571D01*
X138318285Y-138688142D01*
X138404000Y-138859571D01*
X138489714Y-138945285D01*
X138661142Y-139031000D01*
X138832571Y-139031000D01*
X139089714Y-138945285D01*
X140118285Y-137916714D01*
X140118285Y-139031000D01*
X141318285Y-113659571D02*
X142775428Y-113659571D01*
X142946857Y-113745285D01*
X143032571Y-113831000D01*
X143118285Y-114002428D01*
X143118285Y-114345285D01*
X143032571Y-114516714D01*
X142946857Y-114602428D01*
X142775428Y-114688142D01*
X141318285Y-114688142D01*
X142604000Y-115459571D02*
X142604000Y-116316714D01*
X143118285Y-115288142D02*
X141318285Y-115888142D01*
X143118285Y-116488142D01*
X143118285Y-118116714D02*
X142261142Y-117516714D01*
X143118285Y-117088142D02*
X141318285Y-117088142D01*
X141318285Y-117773857D01*
X141404000Y-117945285D01*
X141489714Y-118031000D01*
X141661142Y-118116714D01*
X141918285Y-118116714D01*
X142089714Y-118031000D01*
X142175428Y-117945285D01*
X142261142Y-117773857D01*
X142261142Y-117088142D01*
X141318285Y-118631000D02*
X141318285Y-119659571D01*
X143118285Y-119145285D02*
X141318285Y-119145285D01*
X142175428Y-122231000D02*
X142261142Y-122488142D01*
X142346857Y-122573857D01*
X142518285Y-122659571D01*
X142775428Y-122659571D01*
X142946857Y-122573857D01*
X143032571Y-122488142D01*
X143118285Y-122316714D01*
X143118285Y-121631000D01*
X141318285Y-121631000D01*
X141318285Y-122231000D01*
X141404000Y-122402428D01*
X141489714Y-122488142D01*
X141661142Y-122573857D01*
X141832571Y-122573857D01*
X142004000Y-122488142D01*
X142089714Y-122402428D01*
X142175428Y-122231000D01*
X142175428Y-121631000D01*
X143118285Y-123688142D02*
X143032571Y-123516714D01*
X142861142Y-123431000D01*
X141318285Y-123431000D01*
X141918285Y-125145285D02*
X143118285Y-125145285D01*
X141918285Y-124373857D02*
X142861142Y-124373857D01*
X143032571Y-124459571D01*
X143118285Y-124631000D01*
X143118285Y-124888142D01*
X143032571Y-125059571D01*
X142946857Y-125145285D01*
X143032571Y-126688142D02*
X143118285Y-126516714D01*
X143118285Y-126173857D01*
X143032571Y-126002428D01*
X142861142Y-125916714D01*
X142175428Y-125916714D01*
X142004000Y-126002428D01*
X141918285Y-126173857D01*
X141918285Y-126516714D01*
X142004000Y-126688142D01*
X142175428Y-126773857D01*
X142346857Y-126773857D01*
X142518285Y-125916714D01*
X141918285Y-127288142D02*
X141918285Y-127973857D01*
X141318285Y-127545285D02*
X142861142Y-127545285D01*
X143032571Y-127631000D01*
X143118285Y-127802428D01*
X143118285Y-127973857D01*
X143118285Y-128831000D02*
X143032571Y-128659571D01*
X142946857Y-128573857D01*
X142775428Y-128488142D01*
X142261142Y-128488142D01*
X142089714Y-128573857D01*
X142004000Y-128659571D01*
X141918285Y-128831000D01*
X141918285Y-129088142D01*
X142004000Y-129259571D01*
X142089714Y-129345285D01*
X142261142Y-129431000D01*
X142775428Y-129431000D01*
X142946857Y-129345285D01*
X143032571Y-129259571D01*
X143118285Y-129088142D01*
X143118285Y-128831000D01*
X143118285Y-130459571D02*
X143032571Y-130288142D01*
X142946857Y-130202428D01*
X142775428Y-130116714D01*
X142261142Y-130116714D01*
X142089714Y-130202428D01*
X142004000Y-130288142D01*
X141918285Y-130459571D01*
X141918285Y-130716714D01*
X142004000Y-130888142D01*
X142089714Y-130973857D01*
X142261142Y-131059571D01*
X142775428Y-131059571D01*
X142946857Y-130973857D01*
X143032571Y-130888142D01*
X143118285Y-130716714D01*
X143118285Y-130459571D01*
X141918285Y-131573857D02*
X141918285Y-132259571D01*
X141318285Y-131831000D02*
X142861142Y-131831000D01*
X143032571Y-131916714D01*
X143118285Y-132088142D01*
X143118285Y-132259571D01*
X143118285Y-132859571D02*
X141318285Y-132859571D01*
X143118285Y-133631000D02*
X142175428Y-133631000D01*
X142004000Y-133545285D01*
X141918285Y-133373857D01*
X141918285Y-133116714D01*
X142004000Y-132945285D01*
X142089714Y-132859571D01*
X142946857Y-136888142D02*
X143032571Y-136802428D01*
X143118285Y-136545285D01*
X143118285Y-136373857D01*
X143032571Y-136116714D01*
X142861142Y-135945285D01*
X142689714Y-135859571D01*
X142346857Y-135773857D01*
X142089714Y-135773857D01*
X141746857Y-135859571D01*
X141575428Y-135945285D01*
X141404000Y-136116714D01*
X141318285Y-136373857D01*
X141318285Y-136545285D01*
X141404000Y-136802428D01*
X141489714Y-136888142D01*
X143118285Y-137916714D02*
X143032571Y-137745285D01*
X142946857Y-137659571D01*
X142775428Y-137573857D01*
X142261142Y-137573857D01*
X142089714Y-137659571D01*
X142004000Y-137745285D01*
X141918285Y-137916714D01*
X141918285Y-138173857D01*
X142004000Y-138345285D01*
X142089714Y-138431000D01*
X142261142Y-138516714D01*
X142775428Y-138516714D01*
X142946857Y-138431000D01*
X143032571Y-138345285D01*
X143118285Y-138173857D01*
X143118285Y-137916714D01*
X141918285Y-139288142D02*
X143118285Y-139288142D01*
X142089714Y-139288142D02*
X142004000Y-139373857D01*
X141918285Y-139545285D01*
X141918285Y-139802428D01*
X142004000Y-139973857D01*
X142175428Y-140059571D01*
X143118285Y-140059571D01*
X141918285Y-140745285D02*
X143118285Y-141173857D01*
X141918285Y-141602428D01*
X143032571Y-142973857D02*
X143118285Y-142802428D01*
X143118285Y-142459571D01*
X143032571Y-142288142D01*
X142861142Y-142202428D01*
X142175428Y-142202428D01*
X142004000Y-142288142D01*
X141918285Y-142459571D01*
X141918285Y-142802428D01*
X142004000Y-142973857D01*
X142175428Y-143059571D01*
X142346857Y-143059571D01*
X142518285Y-142202428D01*
X143118285Y-143831000D02*
X141918285Y-143831000D01*
X142261142Y-143831000D02*
X142089714Y-143916714D01*
X142004000Y-144002428D01*
X141918285Y-144173857D01*
X141918285Y-144345285D01*
X141918285Y-144688142D02*
X141918285Y-145373857D01*
X141318285Y-144945285D02*
X142861142Y-144945285D01*
X143032571Y-145031000D01*
X143118285Y-145202428D01*
X143118285Y-145373857D01*
X143032571Y-146659571D02*
X143118285Y-146488142D01*
X143118285Y-146145285D01*
X143032571Y-145973857D01*
X142861142Y-145888142D01*
X142175428Y-145888142D01*
X142004000Y-145973857D01*
X141918285Y-146145285D01*
X141918285Y-146488142D01*
X142004000Y-146659571D01*
X142175428Y-146745285D01*
X142346857Y-146745285D01*
X142518285Y-145888142D01*
X143118285Y-147516714D02*
X141918285Y-147516714D01*
X142261142Y-147516714D02*
X142089714Y-147602428D01*
X142004000Y-147688142D01*
X141918285Y-147859571D01*
X141918285Y-148031000D01*
X117175428Y-113659571D02*
X117175428Y-114259571D01*
X118118285Y-114516714D02*
X118118285Y-113659571D01*
X116318285Y-113659571D01*
X116318285Y-114516714D01*
X118032571Y-115202428D02*
X118118285Y-115459571D01*
X118118285Y-115888142D01*
X118032571Y-116059571D01*
X117946857Y-116145285D01*
X117775428Y-116231000D01*
X117604000Y-116231000D01*
X117432571Y-116145285D01*
X117346857Y-116059571D01*
X117261142Y-115888142D01*
X117175428Y-115545285D01*
X117089714Y-115373857D01*
X117004000Y-115288142D01*
X116832571Y-115202428D01*
X116661142Y-115202428D01*
X116489714Y-115288142D01*
X116404000Y-115373857D01*
X116318285Y-115545285D01*
X116318285Y-115973857D01*
X116404000Y-116231000D01*
X118118285Y-117002428D02*
X116318285Y-117002428D01*
X116318285Y-117688142D01*
X116404000Y-117859571D01*
X116489714Y-117945285D01*
X116661142Y-118031000D01*
X116918285Y-118031000D01*
X117089714Y-117945285D01*
X117175428Y-117859571D01*
X117261142Y-117688142D01*
X117261142Y-117002428D01*
X116318285Y-118631000D02*
X116318285Y-119745285D01*
X117004000Y-119145285D01*
X117004000Y-119402428D01*
X117089714Y-119573857D01*
X117175428Y-119659571D01*
X117346857Y-119745285D01*
X117775428Y-119745285D01*
X117946857Y-119659571D01*
X118032571Y-119573857D01*
X118118285Y-119402428D01*
X118118285Y-118888142D01*
X118032571Y-118716714D01*
X117946857Y-118631000D01*
X116489714Y-120431000D02*
X116404000Y-120516714D01*
X116318285Y-120688142D01*
X116318285Y-121116714D01*
X116404000Y-121288142D01*
X116489714Y-121373857D01*
X116661142Y-121459571D01*
X116832571Y-121459571D01*
X117089714Y-121373857D01*
X118118285Y-120345285D01*
X118118285Y-121459571D01*
X117432571Y-122231000D02*
X117432571Y-123602428D01*
X116318285Y-124288142D02*
X118118285Y-124716714D01*
X116832571Y-125059571D01*
X118118285Y-125402428D01*
X116318285Y-125831000D01*
X118118285Y-127545285D02*
X117261142Y-126945285D01*
X118118285Y-126516714D02*
X116318285Y-126516714D01*
X116318285Y-127202428D01*
X116404000Y-127373857D01*
X116489714Y-127459571D01*
X116661142Y-127545285D01*
X116918285Y-127545285D01*
X117089714Y-127459571D01*
X117175428Y-127373857D01*
X117261142Y-127202428D01*
X117261142Y-126516714D01*
X116318285Y-128659571D02*
X116318285Y-129002428D01*
X116404000Y-129173857D01*
X116575428Y-129345285D01*
X116918285Y-129430999D01*
X117518285Y-129430999D01*
X117861142Y-129345285D01*
X118032571Y-129173857D01*
X118118285Y-129002428D01*
X118118285Y-128659571D01*
X118032571Y-128488142D01*
X117861142Y-128316714D01*
X117518285Y-128231000D01*
X116918285Y-128231000D01*
X116575428Y-128316714D01*
X116404000Y-128488142D01*
X116318285Y-128659571D01*
X116318285Y-130545285D02*
X116318285Y-130888142D01*
X116404000Y-131059571D01*
X116575428Y-131230999D01*
X116918285Y-131316714D01*
X117518285Y-131316714D01*
X117861142Y-131230999D01*
X118032571Y-131059571D01*
X118118285Y-130888142D01*
X118118285Y-130545285D01*
X118032571Y-130373857D01*
X117861142Y-130202428D01*
X117518285Y-130116714D01*
X116918285Y-130116714D01*
X116575428Y-130202428D01*
X116404000Y-130373857D01*
X116318285Y-130545285D01*
X118118285Y-132088142D02*
X116318285Y-132088142D01*
X117604000Y-132688142D01*
X116318285Y-133288142D01*
X118118285Y-133288142D01*
X117432571Y-134145285D02*
X117432571Y-135516714D01*
X116318285Y-136202428D02*
X116318285Y-137316714D01*
X117004000Y-136716714D01*
X117004000Y-136973857D01*
X117089714Y-137145285D01*
X117175428Y-137231000D01*
X117346857Y-137316714D01*
X117775428Y-137316714D01*
X117946857Y-137231000D01*
X118032571Y-137145285D01*
X118118285Y-136973857D01*
X118118285Y-136459571D01*
X118032571Y-136288142D01*
X117946857Y-136202428D01*
X116489714Y-138002428D02*
X116404000Y-138088142D01*
X116318285Y-138259571D01*
X116318285Y-138688142D01*
X116404000Y-138859571D01*
X116489714Y-138945285D01*
X116661142Y-139031000D01*
X116832571Y-139031000D01*
X117089714Y-138945285D01*
X118118285Y-137916714D01*
X118118285Y-139031000D01*
X119318285Y-113659571D02*
X120775428Y-113659571D01*
X120946857Y-113745285D01*
X121032571Y-113831000D01*
X121118285Y-114002428D01*
X121118285Y-114345285D01*
X121032571Y-114516714D01*
X120946857Y-114602428D01*
X120775428Y-114688142D01*
X119318285Y-114688142D01*
X120604000Y-115459571D02*
X120604000Y-116316714D01*
X121118285Y-115288142D02*
X119318285Y-115888142D01*
X121118285Y-116488142D01*
X121118285Y-118116714D02*
X120261142Y-117516714D01*
X121118285Y-117088142D02*
X119318285Y-117088142D01*
X119318285Y-117773857D01*
X119404000Y-117945285D01*
X119489714Y-118031000D01*
X119661142Y-118116714D01*
X119918285Y-118116714D01*
X120089714Y-118031000D01*
X120175428Y-117945285D01*
X120261142Y-117773857D01*
X120261142Y-117088142D01*
X119318285Y-118631000D02*
X119318285Y-119659571D01*
X121118285Y-119145285D02*
X119318285Y-119145285D01*
X120175428Y-122231000D02*
X120261142Y-122488142D01*
X120346857Y-122573857D01*
X120518285Y-122659571D01*
X120775428Y-122659571D01*
X120946857Y-122573857D01*
X121032571Y-122488142D01*
X121118285Y-122316714D01*
X121118285Y-121631000D01*
X119318285Y-121631000D01*
X119318285Y-122231000D01*
X119404000Y-122402428D01*
X119489714Y-122488142D01*
X119661142Y-122573857D01*
X119832571Y-122573857D01*
X120004000Y-122488142D01*
X120089714Y-122402428D01*
X120175428Y-122231000D01*
X120175428Y-121631000D01*
X121118285Y-123688142D02*
X121032571Y-123516714D01*
X120861142Y-123431000D01*
X119318285Y-123431000D01*
X119918285Y-125145285D02*
X121118285Y-125145285D01*
X119918285Y-124373857D02*
X120861142Y-124373857D01*
X121032571Y-124459571D01*
X121118285Y-124631000D01*
X121118285Y-124888142D01*
X121032571Y-125059571D01*
X120946857Y-125145285D01*
X121032571Y-126688142D02*
X121118285Y-126516714D01*
X121118285Y-126173857D01*
X121032571Y-126002428D01*
X120861142Y-125916714D01*
X120175428Y-125916714D01*
X120004000Y-126002428D01*
X119918285Y-126173857D01*
X119918285Y-126516714D01*
X120004000Y-126688142D01*
X120175428Y-126773857D01*
X120346857Y-126773857D01*
X120518285Y-125916714D01*
X119918285Y-127288142D02*
X119918285Y-127973857D01*
X119318285Y-127545285D02*
X120861142Y-127545285D01*
X121032571Y-127631000D01*
X121118285Y-127802428D01*
X121118285Y-127973857D01*
X121118285Y-128831000D02*
X121032571Y-128659571D01*
X120946857Y-128573857D01*
X120775428Y-128488142D01*
X120261142Y-128488142D01*
X120089714Y-128573857D01*
X120004000Y-128659571D01*
X119918285Y-128831000D01*
X119918285Y-129088142D01*
X120004000Y-129259571D01*
X120089714Y-129345285D01*
X120261142Y-129431000D01*
X120775428Y-129431000D01*
X120946857Y-129345285D01*
X121032571Y-129259571D01*
X121118285Y-129088142D01*
X121118285Y-128831000D01*
X121118285Y-130459571D02*
X121032571Y-130288142D01*
X120946857Y-130202428D01*
X120775428Y-130116714D01*
X120261142Y-130116714D01*
X120089714Y-130202428D01*
X120004000Y-130288142D01*
X119918285Y-130459571D01*
X119918285Y-130716714D01*
X120004000Y-130888142D01*
X120089714Y-130973857D01*
X120261142Y-131059571D01*
X120775428Y-131059571D01*
X120946857Y-130973857D01*
X121032571Y-130888142D01*
X121118285Y-130716714D01*
X121118285Y-130459571D01*
X119918285Y-131573857D02*
X119918285Y-132259571D01*
X119318285Y-131831000D02*
X120861142Y-131831000D01*
X121032571Y-131916714D01*
X121118285Y-132088142D01*
X121118285Y-132259571D01*
X121118285Y-132859571D02*
X119318285Y-132859571D01*
X121118285Y-133631000D02*
X120175428Y-133631000D01*
X120004000Y-133545285D01*
X119918285Y-133373857D01*
X119918285Y-133116714D01*
X120004000Y-132945285D01*
X120089714Y-132859571D01*
X120946857Y-136888142D02*
X121032571Y-136802428D01*
X121118285Y-136545285D01*
X121118285Y-136373857D01*
X121032571Y-136116714D01*
X120861142Y-135945285D01*
X120689714Y-135859571D01*
X120346857Y-135773857D01*
X120089714Y-135773857D01*
X119746857Y-135859571D01*
X119575428Y-135945285D01*
X119404000Y-136116714D01*
X119318285Y-136373857D01*
X119318285Y-136545285D01*
X119404000Y-136802428D01*
X119489714Y-136888142D01*
X121118285Y-137916714D02*
X121032571Y-137745285D01*
X120946857Y-137659571D01*
X120775428Y-137573857D01*
X120261142Y-137573857D01*
X120089714Y-137659571D01*
X120004000Y-137745285D01*
X119918285Y-137916714D01*
X119918285Y-138173857D01*
X120004000Y-138345285D01*
X120089714Y-138431000D01*
X120261142Y-138516714D01*
X120775428Y-138516714D01*
X120946857Y-138431000D01*
X121032571Y-138345285D01*
X121118285Y-138173857D01*
X121118285Y-137916714D01*
X119918285Y-139288142D02*
X121118285Y-139288142D01*
X120089714Y-139288142D02*
X120004000Y-139373857D01*
X119918285Y-139545285D01*
X119918285Y-139802428D01*
X120004000Y-139973857D01*
X120175428Y-140059571D01*
X121118285Y-140059571D01*
X119918285Y-140745285D02*
X121118285Y-141173857D01*
X119918285Y-141602428D01*
X121032571Y-142973857D02*
X121118285Y-142802428D01*
X121118285Y-142459571D01*
X121032571Y-142288142D01*
X120861142Y-142202428D01*
X120175428Y-142202428D01*
X120004000Y-142288142D01*
X119918285Y-142459571D01*
X119918285Y-142802428D01*
X120004000Y-142973857D01*
X120175428Y-143059571D01*
X120346857Y-143059571D01*
X120518285Y-142202428D01*
X121118285Y-143831000D02*
X119918285Y-143831000D01*
X120261142Y-143831000D02*
X120089714Y-143916714D01*
X120004000Y-144002428D01*
X119918285Y-144173857D01*
X119918285Y-144345285D01*
X119918285Y-144688142D02*
X119918285Y-145373857D01*
X119318285Y-144945285D02*
X120861142Y-144945285D01*
X121032571Y-145031000D01*
X121118285Y-145202428D01*
X121118285Y-145373857D01*
X121032571Y-146659571D02*
X121118285Y-146488142D01*
X121118285Y-146145285D01*
X121032571Y-145973857D01*
X120861142Y-145888142D01*
X120175428Y-145888142D01*
X120004000Y-145973857D01*
X119918285Y-146145285D01*
X119918285Y-146488142D01*
X120004000Y-146659571D01*
X120175428Y-146745285D01*
X120346857Y-146745285D01*
X120518285Y-145888142D01*
X121118285Y-147516714D02*
X119918285Y-147516714D01*
X120261142Y-147516714D02*
X120089714Y-147602428D01*
X120004000Y-147688142D01*
X119918285Y-147859571D01*
X119918285Y-148031000D01*
X183175428Y-69659571D02*
X183175428Y-70259571D01*
X184118285Y-70516714D02*
X184118285Y-69659571D01*
X182318285Y-69659571D01*
X182318285Y-70516714D01*
X184032571Y-71202428D02*
X184118285Y-71459571D01*
X184118285Y-71888142D01*
X184032571Y-72059571D01*
X183946857Y-72145285D01*
X183775428Y-72231000D01*
X183604000Y-72231000D01*
X183432571Y-72145285D01*
X183346857Y-72059571D01*
X183261142Y-71888142D01*
X183175428Y-71545285D01*
X183089714Y-71373857D01*
X183004000Y-71288142D01*
X182832571Y-71202428D01*
X182661142Y-71202428D01*
X182489714Y-71288142D01*
X182404000Y-71373857D01*
X182318285Y-71545285D01*
X182318285Y-71973857D01*
X182404000Y-72231000D01*
X184118285Y-73002428D02*
X182318285Y-73002428D01*
X182318285Y-73688142D01*
X182404000Y-73859571D01*
X182489714Y-73945285D01*
X182661142Y-74031000D01*
X182918285Y-74031000D01*
X183089714Y-73945285D01*
X183175428Y-73859571D01*
X183261142Y-73688142D01*
X183261142Y-73002428D01*
X182318285Y-74631000D02*
X182318285Y-75745285D01*
X183004000Y-75145285D01*
X183004000Y-75402428D01*
X183089714Y-75573857D01*
X183175428Y-75659571D01*
X183346857Y-75745285D01*
X183775428Y-75745285D01*
X183946857Y-75659571D01*
X184032571Y-75573857D01*
X184118285Y-75402428D01*
X184118285Y-74888142D01*
X184032571Y-74716714D01*
X183946857Y-74631000D01*
X182489714Y-76431000D02*
X182404000Y-76516714D01*
X182318285Y-76688142D01*
X182318285Y-77116714D01*
X182404000Y-77288142D01*
X182489714Y-77373857D01*
X182661142Y-77459571D01*
X182832571Y-77459571D01*
X183089714Y-77373857D01*
X184118285Y-76345285D01*
X184118285Y-77459571D01*
X183432571Y-78231000D02*
X183432571Y-79602428D01*
X182318285Y-80288142D02*
X184118285Y-80716714D01*
X182832571Y-81059571D01*
X184118285Y-81402428D01*
X182318285Y-81831000D01*
X184118285Y-83545285D02*
X183261142Y-82945285D01*
X184118285Y-82516714D02*
X182318285Y-82516714D01*
X182318285Y-83202428D01*
X182404000Y-83373857D01*
X182489714Y-83459571D01*
X182661142Y-83545285D01*
X182918285Y-83545285D01*
X183089714Y-83459571D01*
X183175428Y-83373857D01*
X183261142Y-83202428D01*
X183261142Y-82516714D01*
X182318285Y-84659571D02*
X182318285Y-85002428D01*
X182404000Y-85173857D01*
X182575428Y-85345285D01*
X182918285Y-85431000D01*
X183518285Y-85431000D01*
X183861142Y-85345285D01*
X184032571Y-85173857D01*
X184118285Y-85002428D01*
X184118285Y-84659571D01*
X184032571Y-84488142D01*
X183861142Y-84316714D01*
X183518285Y-84231000D01*
X182918285Y-84231000D01*
X182575428Y-84316714D01*
X182404000Y-84488142D01*
X182318285Y-84659571D01*
X182318285Y-86545285D02*
X182318285Y-86888142D01*
X182404000Y-87059571D01*
X182575428Y-87231000D01*
X182918285Y-87316714D01*
X183518285Y-87316714D01*
X183861142Y-87231000D01*
X184032571Y-87059571D01*
X184118285Y-86888142D01*
X184118285Y-86545285D01*
X184032571Y-86373857D01*
X183861142Y-86202428D01*
X183518285Y-86116714D01*
X182918285Y-86116714D01*
X182575428Y-86202428D01*
X182404000Y-86373857D01*
X182318285Y-86545285D01*
X184118285Y-88088142D02*
X182318285Y-88088142D01*
X183604000Y-88688142D01*
X182318285Y-89288142D01*
X184118285Y-89288142D01*
X183432571Y-90145285D02*
X183432571Y-91516714D01*
X182318285Y-92202428D02*
X182318285Y-93316714D01*
X183004000Y-92716714D01*
X183004000Y-92973857D01*
X183089714Y-93145285D01*
X183175428Y-93231000D01*
X183346857Y-93316714D01*
X183775428Y-93316714D01*
X183946857Y-93231000D01*
X184032571Y-93145285D01*
X184118285Y-92973857D01*
X184118285Y-92459571D01*
X184032571Y-92288142D01*
X183946857Y-92202428D01*
X182489714Y-94002428D02*
X182404000Y-94088142D01*
X182318285Y-94259571D01*
X182318285Y-94688142D01*
X182404000Y-94859571D01*
X182489714Y-94945285D01*
X182661142Y-95031000D01*
X182832571Y-95031000D01*
X183089714Y-94945285D01*
X184118285Y-93916714D01*
X184118285Y-95031000D01*
X185318285Y-69659571D02*
X186775428Y-69659571D01*
X186946857Y-69745285D01*
X187032571Y-69831000D01*
X187118285Y-70002428D01*
X187118285Y-70345285D01*
X187032571Y-70516714D01*
X186946857Y-70602428D01*
X186775428Y-70688142D01*
X185318285Y-70688142D01*
X186604000Y-71459571D02*
X186604000Y-72316714D01*
X187118285Y-71288142D02*
X185318285Y-71888142D01*
X187118285Y-72488142D01*
X187118285Y-74116714D02*
X186261142Y-73516714D01*
X187118285Y-73088142D02*
X185318285Y-73088142D01*
X185318285Y-73773857D01*
X185404000Y-73945285D01*
X185489714Y-74031000D01*
X185661142Y-74116714D01*
X185918285Y-74116714D01*
X186089714Y-74031000D01*
X186175428Y-73945285D01*
X186261142Y-73773857D01*
X186261142Y-73088142D01*
X185318285Y-74631000D02*
X185318285Y-75659571D01*
X187118285Y-75145285D02*
X185318285Y-75145285D01*
X186175428Y-78231000D02*
X186261142Y-78488142D01*
X186346857Y-78573857D01*
X186518285Y-78659571D01*
X186775428Y-78659571D01*
X186946857Y-78573857D01*
X187032571Y-78488142D01*
X187118285Y-78316714D01*
X187118285Y-77631000D01*
X185318285Y-77631000D01*
X185318285Y-78231000D01*
X185404000Y-78402428D01*
X185489714Y-78488142D01*
X185661142Y-78573857D01*
X185832571Y-78573857D01*
X186004000Y-78488142D01*
X186089714Y-78402428D01*
X186175428Y-78231000D01*
X186175428Y-77631000D01*
X187118285Y-79688142D02*
X187032571Y-79516714D01*
X186861142Y-79431000D01*
X185318285Y-79431000D01*
X185918285Y-81145285D02*
X187118285Y-81145285D01*
X185918285Y-80373857D02*
X186861142Y-80373857D01*
X187032571Y-80459571D01*
X187118285Y-80631000D01*
X187118285Y-80888142D01*
X187032571Y-81059571D01*
X186946857Y-81145285D01*
X187032571Y-82688142D02*
X187118285Y-82516714D01*
X187118285Y-82173857D01*
X187032571Y-82002428D01*
X186861142Y-81916714D01*
X186175428Y-81916714D01*
X186004000Y-82002428D01*
X185918285Y-82173857D01*
X185918285Y-82516714D01*
X186004000Y-82688142D01*
X186175428Y-82773857D01*
X186346857Y-82773857D01*
X186518285Y-81916714D01*
X185918285Y-83288142D02*
X185918285Y-83973857D01*
X185318285Y-83545285D02*
X186861142Y-83545285D01*
X187032571Y-83631000D01*
X187118285Y-83802428D01*
X187118285Y-83973857D01*
X187118285Y-84831000D02*
X187032571Y-84659571D01*
X186946857Y-84573857D01*
X186775428Y-84488142D01*
X186261142Y-84488142D01*
X186089714Y-84573857D01*
X186004000Y-84659571D01*
X185918285Y-84831000D01*
X185918285Y-85088142D01*
X186004000Y-85259571D01*
X186089714Y-85345285D01*
X186261142Y-85431000D01*
X186775428Y-85431000D01*
X186946857Y-85345285D01*
X187032571Y-85259571D01*
X187118285Y-85088142D01*
X187118285Y-84831000D01*
X187118285Y-86459571D02*
X187032571Y-86288142D01*
X186946857Y-86202428D01*
X186775428Y-86116714D01*
X186261142Y-86116714D01*
X186089714Y-86202428D01*
X186004000Y-86288142D01*
X185918285Y-86459571D01*
X185918285Y-86716714D01*
X186004000Y-86888142D01*
X186089714Y-86973857D01*
X186261142Y-87059571D01*
X186775428Y-87059571D01*
X186946857Y-86973857D01*
X187032571Y-86888142D01*
X187118285Y-86716714D01*
X187118285Y-86459571D01*
X185918285Y-87573857D02*
X185918285Y-88259571D01*
X185318285Y-87831000D02*
X186861142Y-87831000D01*
X187032571Y-87916714D01*
X187118285Y-88088142D01*
X187118285Y-88259571D01*
X187118285Y-88859571D02*
X185318285Y-88859571D01*
X187118285Y-89631000D02*
X186175428Y-89631000D01*
X186004000Y-89545285D01*
X185918285Y-89373857D01*
X185918285Y-89116714D01*
X186004000Y-88945285D01*
X186089714Y-88859571D01*
X186946857Y-92888142D02*
X187032571Y-92802428D01*
X187118285Y-92545285D01*
X187118285Y-92373857D01*
X187032571Y-92116714D01*
X186861142Y-91945285D01*
X186689714Y-91859571D01*
X186346857Y-91773857D01*
X186089714Y-91773857D01*
X185746857Y-91859571D01*
X185575428Y-91945285D01*
X185404000Y-92116714D01*
X185318285Y-92373857D01*
X185318285Y-92545285D01*
X185404000Y-92802428D01*
X185489714Y-92888142D01*
X187118285Y-93916714D02*
X187032571Y-93745285D01*
X186946857Y-93659571D01*
X186775428Y-93573857D01*
X186261142Y-93573857D01*
X186089714Y-93659571D01*
X186004000Y-93745285D01*
X185918285Y-93916714D01*
X185918285Y-94173857D01*
X186004000Y-94345285D01*
X186089714Y-94431000D01*
X186261142Y-94516714D01*
X186775428Y-94516714D01*
X186946857Y-94431000D01*
X187032571Y-94345285D01*
X187118285Y-94173857D01*
X187118285Y-93916714D01*
X185918285Y-95288142D02*
X187118285Y-95288142D01*
X186089714Y-95288142D02*
X186004000Y-95373857D01*
X185918285Y-95545285D01*
X185918285Y-95802428D01*
X186004000Y-95973857D01*
X186175428Y-96059571D01*
X187118285Y-96059571D01*
X185918285Y-96745285D02*
X187118285Y-97173857D01*
X185918285Y-97602428D01*
X187032571Y-98973857D02*
X187118285Y-98802428D01*
X187118285Y-98459571D01*
X187032571Y-98288142D01*
X186861142Y-98202428D01*
X186175428Y-98202428D01*
X186004000Y-98288142D01*
X185918285Y-98459571D01*
X185918285Y-98802428D01*
X186004000Y-98973857D01*
X186175428Y-99059571D01*
X186346857Y-99059571D01*
X186518285Y-98202428D01*
X187118285Y-99831000D02*
X185918285Y-99831000D01*
X186261142Y-99831000D02*
X186089714Y-99916714D01*
X186004000Y-100002428D01*
X185918285Y-100173857D01*
X185918285Y-100345285D01*
X185918285Y-100688142D02*
X185918285Y-101373857D01*
X185318285Y-100945285D02*
X186861142Y-100945285D01*
X187032571Y-101031000D01*
X187118285Y-101202428D01*
X187118285Y-101373857D01*
X187032571Y-102659571D02*
X187118285Y-102488142D01*
X187118285Y-102145285D01*
X187032571Y-101973857D01*
X186861142Y-101888142D01*
X186175428Y-101888142D01*
X186004000Y-101973857D01*
X185918285Y-102145285D01*
X185918285Y-102488142D01*
X186004000Y-102659571D01*
X186175428Y-102745285D01*
X186346857Y-102745285D01*
X186518285Y-101888142D01*
X187118285Y-103516714D02*
X185918285Y-103516714D01*
X186261142Y-103516714D02*
X186089714Y-103602428D01*
X186004000Y-103688142D01*
X185918285Y-103859571D01*
X185918285Y-104031000D01*
X161175428Y-69659571D02*
X161175428Y-70259571D01*
X162118285Y-70516714D02*
X162118285Y-69659571D01*
X160318285Y-69659571D01*
X160318285Y-70516714D01*
X162032571Y-71202428D02*
X162118285Y-71459571D01*
X162118285Y-71888142D01*
X162032571Y-72059571D01*
X161946857Y-72145285D01*
X161775428Y-72231000D01*
X161604000Y-72231000D01*
X161432571Y-72145285D01*
X161346857Y-72059571D01*
X161261142Y-71888142D01*
X161175428Y-71545285D01*
X161089714Y-71373857D01*
X161004000Y-71288142D01*
X160832571Y-71202428D01*
X160661142Y-71202428D01*
X160489714Y-71288142D01*
X160404000Y-71373857D01*
X160318285Y-71545285D01*
X160318285Y-71973857D01*
X160404000Y-72231000D01*
X162118285Y-73002428D02*
X160318285Y-73002428D01*
X160318285Y-73688142D01*
X160404000Y-73859571D01*
X160489714Y-73945285D01*
X160661142Y-74031000D01*
X160918285Y-74031000D01*
X161089714Y-73945285D01*
X161175428Y-73859571D01*
X161261142Y-73688142D01*
X161261142Y-73002428D01*
X160318285Y-74631000D02*
X160318285Y-75745285D01*
X161004000Y-75145285D01*
X161004000Y-75402428D01*
X161089714Y-75573857D01*
X161175428Y-75659571D01*
X161346857Y-75745285D01*
X161775428Y-75745285D01*
X161946857Y-75659571D01*
X162032571Y-75573857D01*
X162118285Y-75402428D01*
X162118285Y-74888142D01*
X162032571Y-74716714D01*
X161946857Y-74631000D01*
X160489714Y-76431000D02*
X160404000Y-76516714D01*
X160318285Y-76688142D01*
X160318285Y-77116714D01*
X160404000Y-77288142D01*
X160489714Y-77373857D01*
X160661142Y-77459571D01*
X160832571Y-77459571D01*
X161089714Y-77373857D01*
X162118285Y-76345285D01*
X162118285Y-77459571D01*
X161432571Y-78231000D02*
X161432571Y-79602428D01*
X160318285Y-80288142D02*
X162118285Y-80716714D01*
X160832571Y-81059571D01*
X162118285Y-81402428D01*
X160318285Y-81831000D01*
X162118285Y-83545285D02*
X161261142Y-82945285D01*
X162118285Y-82516714D02*
X160318285Y-82516714D01*
X160318285Y-83202428D01*
X160404000Y-83373857D01*
X160489714Y-83459571D01*
X160661142Y-83545285D01*
X160918285Y-83545285D01*
X161089714Y-83459571D01*
X161175428Y-83373857D01*
X161261142Y-83202428D01*
X161261142Y-82516714D01*
X160318285Y-84659571D02*
X160318285Y-85002428D01*
X160404000Y-85173857D01*
X160575428Y-85345285D01*
X160918285Y-85431000D01*
X161518285Y-85431000D01*
X161861142Y-85345285D01*
X162032571Y-85173857D01*
X162118285Y-85002428D01*
X162118285Y-84659571D01*
X162032571Y-84488142D01*
X161861142Y-84316714D01*
X161518285Y-84231000D01*
X160918285Y-84231000D01*
X160575428Y-84316714D01*
X160404000Y-84488142D01*
X160318285Y-84659571D01*
X160318285Y-86545285D02*
X160318285Y-86888142D01*
X160404000Y-87059571D01*
X160575428Y-87231000D01*
X160918285Y-87316714D01*
X161518285Y-87316714D01*
X161861142Y-87231000D01*
X162032571Y-87059571D01*
X162118285Y-86888142D01*
X162118285Y-86545285D01*
X162032571Y-86373857D01*
X161861142Y-86202428D01*
X161518285Y-86116714D01*
X160918285Y-86116714D01*
X160575428Y-86202428D01*
X160404000Y-86373857D01*
X160318285Y-86545285D01*
X162118285Y-88088142D02*
X160318285Y-88088142D01*
X161604000Y-88688142D01*
X160318285Y-89288142D01*
X162118285Y-89288142D01*
X161432571Y-90145285D02*
X161432571Y-91516714D01*
X160318285Y-92202428D02*
X160318285Y-93316714D01*
X161004000Y-92716714D01*
X161004000Y-92973857D01*
X161089714Y-93145285D01*
X161175428Y-93231000D01*
X161346857Y-93316714D01*
X161775428Y-93316714D01*
X161946857Y-93231000D01*
X162032571Y-93145285D01*
X162118285Y-92973857D01*
X162118285Y-92459571D01*
X162032571Y-92288142D01*
X161946857Y-92202428D01*
X160489714Y-94002428D02*
X160404000Y-94088142D01*
X160318285Y-94259571D01*
X160318285Y-94688142D01*
X160404000Y-94859571D01*
X160489714Y-94945285D01*
X160661142Y-95031000D01*
X160832571Y-95031000D01*
X161089714Y-94945285D01*
X162118285Y-93916714D01*
X162118285Y-95031000D01*
X163318285Y-69659571D02*
X164775428Y-69659571D01*
X164946857Y-69745285D01*
X165032571Y-69831000D01*
X165118285Y-70002428D01*
X165118285Y-70345285D01*
X165032571Y-70516714D01*
X164946857Y-70602428D01*
X164775428Y-70688142D01*
X163318285Y-70688142D01*
X164604000Y-71459571D02*
X164604000Y-72316714D01*
X165118285Y-71288142D02*
X163318285Y-71888142D01*
X165118285Y-72488142D01*
X165118285Y-74116714D02*
X164261142Y-73516714D01*
X165118285Y-73088142D02*
X163318285Y-73088142D01*
X163318285Y-73773857D01*
X163404000Y-73945285D01*
X163489714Y-74031000D01*
X163661142Y-74116714D01*
X163918285Y-74116714D01*
X164089714Y-74031000D01*
X164175428Y-73945285D01*
X164261142Y-73773857D01*
X164261142Y-73088142D01*
X163318285Y-74631000D02*
X163318285Y-75659571D01*
X165118285Y-75145285D02*
X163318285Y-75145285D01*
X164175428Y-78231000D02*
X164261142Y-78488142D01*
X164346857Y-78573857D01*
X164518285Y-78659571D01*
X164775428Y-78659571D01*
X164946857Y-78573857D01*
X165032571Y-78488142D01*
X165118285Y-78316714D01*
X165118285Y-77631000D01*
X163318285Y-77631000D01*
X163318285Y-78231000D01*
X163404000Y-78402428D01*
X163489714Y-78488142D01*
X163661142Y-78573857D01*
X163832571Y-78573857D01*
X164004000Y-78488142D01*
X164089714Y-78402428D01*
X164175428Y-78231000D01*
X164175428Y-77631000D01*
X165118285Y-79688142D02*
X165032571Y-79516714D01*
X164861142Y-79431000D01*
X163318285Y-79431000D01*
X163918285Y-81145285D02*
X165118285Y-81145285D01*
X163918285Y-80373857D02*
X164861142Y-80373857D01*
X165032571Y-80459571D01*
X165118285Y-80631000D01*
X165118285Y-80888142D01*
X165032571Y-81059571D01*
X164946857Y-81145285D01*
X165032571Y-82688142D02*
X165118285Y-82516714D01*
X165118285Y-82173857D01*
X165032571Y-82002428D01*
X164861142Y-81916714D01*
X164175428Y-81916714D01*
X164004000Y-82002428D01*
X163918285Y-82173857D01*
X163918285Y-82516714D01*
X164004000Y-82688142D01*
X164175428Y-82773857D01*
X164346857Y-82773857D01*
X164518285Y-81916714D01*
X163918285Y-83288142D02*
X163918285Y-83973857D01*
X163318285Y-83545285D02*
X164861142Y-83545285D01*
X165032571Y-83631000D01*
X165118285Y-83802428D01*
X165118285Y-83973857D01*
X165118285Y-84831000D02*
X165032571Y-84659571D01*
X164946857Y-84573857D01*
X164775428Y-84488142D01*
X164261142Y-84488142D01*
X164089714Y-84573857D01*
X164004000Y-84659571D01*
X163918285Y-84831000D01*
X163918285Y-85088142D01*
X164004000Y-85259571D01*
X164089714Y-85345285D01*
X164261142Y-85431000D01*
X164775428Y-85431000D01*
X164946857Y-85345285D01*
X165032571Y-85259571D01*
X165118285Y-85088142D01*
X165118285Y-84831000D01*
X165118285Y-86459571D02*
X165032571Y-86288142D01*
X164946857Y-86202428D01*
X164775428Y-86116714D01*
X164261142Y-86116714D01*
X164089714Y-86202428D01*
X164004000Y-86288142D01*
X163918285Y-86459571D01*
X163918285Y-86716714D01*
X164004000Y-86888142D01*
X164089714Y-86973857D01*
X164261142Y-87059571D01*
X164775428Y-87059571D01*
X164946857Y-86973857D01*
X165032571Y-86888142D01*
X165118285Y-86716714D01*
X165118285Y-86459571D01*
X163918285Y-87573857D02*
X163918285Y-88259571D01*
X163318285Y-87831000D02*
X164861142Y-87831000D01*
X165032571Y-87916714D01*
X165118285Y-88088142D01*
X165118285Y-88259571D01*
X165118285Y-88859571D02*
X163318285Y-88859571D01*
X165118285Y-89631000D02*
X164175428Y-89631000D01*
X164004000Y-89545285D01*
X163918285Y-89373857D01*
X163918285Y-89116714D01*
X164004000Y-88945285D01*
X164089714Y-88859571D01*
X164946857Y-92888142D02*
X165032571Y-92802428D01*
X165118285Y-92545285D01*
X165118285Y-92373857D01*
X165032571Y-92116714D01*
X164861142Y-91945285D01*
X164689714Y-91859571D01*
X164346857Y-91773857D01*
X164089714Y-91773857D01*
X163746857Y-91859571D01*
X163575428Y-91945285D01*
X163404000Y-92116714D01*
X163318285Y-92373857D01*
X163318285Y-92545285D01*
X163404000Y-92802428D01*
X163489714Y-92888142D01*
X165118285Y-93916714D02*
X165032571Y-93745285D01*
X164946857Y-93659571D01*
X164775428Y-93573857D01*
X164261142Y-93573857D01*
X164089714Y-93659571D01*
X164004000Y-93745285D01*
X163918285Y-93916714D01*
X163918285Y-94173857D01*
X164004000Y-94345285D01*
X164089714Y-94431000D01*
X164261142Y-94516714D01*
X164775428Y-94516714D01*
X164946857Y-94431000D01*
X165032571Y-94345285D01*
X165118285Y-94173857D01*
X165118285Y-93916714D01*
X163918285Y-95288142D02*
X165118285Y-95288142D01*
X164089714Y-95288142D02*
X164004000Y-95373857D01*
X163918285Y-95545285D01*
X163918285Y-95802428D01*
X164004000Y-95973857D01*
X164175428Y-96059571D01*
X165118285Y-96059571D01*
X163918285Y-96745285D02*
X165118285Y-97173857D01*
X163918285Y-97602428D01*
X165032571Y-98973857D02*
X165118285Y-98802428D01*
X165118285Y-98459571D01*
X165032571Y-98288142D01*
X164861142Y-98202428D01*
X164175428Y-98202428D01*
X164004000Y-98288142D01*
X163918285Y-98459571D01*
X163918285Y-98802428D01*
X164004000Y-98973857D01*
X164175428Y-99059571D01*
X164346857Y-99059571D01*
X164518285Y-98202428D01*
X165118285Y-99831000D02*
X163918285Y-99831000D01*
X164261142Y-99831000D02*
X164089714Y-99916714D01*
X164004000Y-100002428D01*
X163918285Y-100173857D01*
X163918285Y-100345285D01*
X163918285Y-100688142D02*
X163918285Y-101373857D01*
X163318285Y-100945285D02*
X164861142Y-100945285D01*
X165032571Y-101031000D01*
X165118285Y-101202428D01*
X165118285Y-101373857D01*
X165032571Y-102659571D02*
X165118285Y-102488142D01*
X165118285Y-102145285D01*
X165032571Y-101973857D01*
X164861142Y-101888142D01*
X164175428Y-101888142D01*
X164004000Y-101973857D01*
X163918285Y-102145285D01*
X163918285Y-102488142D01*
X164004000Y-102659571D01*
X164175428Y-102745285D01*
X164346857Y-102745285D01*
X164518285Y-101888142D01*
X165118285Y-103516714D02*
X163918285Y-103516714D01*
X164261142Y-103516714D02*
X164089714Y-103602428D01*
X164004000Y-103688142D01*
X163918285Y-103859571D01*
X163918285Y-104031000D01*
X139175428Y-69659571D02*
X139175428Y-70259571D01*
X140118285Y-70516714D02*
X140118285Y-69659571D01*
X138318285Y-69659571D01*
X138318285Y-70516714D01*
X140032571Y-71202428D02*
X140118285Y-71459571D01*
X140118285Y-71888142D01*
X140032571Y-72059571D01*
X139946857Y-72145285D01*
X139775428Y-72231000D01*
X139604000Y-72231000D01*
X139432571Y-72145285D01*
X139346857Y-72059571D01*
X139261142Y-71888142D01*
X139175428Y-71545285D01*
X139089714Y-71373857D01*
X139004000Y-71288142D01*
X138832571Y-71202428D01*
X138661142Y-71202428D01*
X138489714Y-71288142D01*
X138404000Y-71373857D01*
X138318285Y-71545285D01*
X138318285Y-71973857D01*
X138404000Y-72231000D01*
X140118285Y-73002428D02*
X138318285Y-73002428D01*
X138318285Y-73688142D01*
X138404000Y-73859571D01*
X138489714Y-73945285D01*
X138661142Y-74031000D01*
X138918285Y-74031000D01*
X139089714Y-73945285D01*
X139175428Y-73859571D01*
X139261142Y-73688142D01*
X139261142Y-73002428D01*
X138318285Y-74631000D02*
X138318285Y-75745285D01*
X139004000Y-75145285D01*
X139004000Y-75402428D01*
X139089714Y-75573857D01*
X139175428Y-75659571D01*
X139346857Y-75745285D01*
X139775428Y-75745285D01*
X139946857Y-75659571D01*
X140032571Y-75573857D01*
X140118285Y-75402428D01*
X140118285Y-74888142D01*
X140032571Y-74716714D01*
X139946857Y-74631000D01*
X138489714Y-76431000D02*
X138404000Y-76516714D01*
X138318285Y-76688142D01*
X138318285Y-77116714D01*
X138404000Y-77288142D01*
X138489714Y-77373857D01*
X138661142Y-77459571D01*
X138832571Y-77459571D01*
X139089714Y-77373857D01*
X140118285Y-76345285D01*
X140118285Y-77459571D01*
X139432571Y-78231000D02*
X139432571Y-79602428D01*
X138318285Y-80288142D02*
X140118285Y-80716714D01*
X138832571Y-81059571D01*
X140118285Y-81402428D01*
X138318285Y-81831000D01*
X140118285Y-83545285D02*
X139261142Y-82945285D01*
X140118285Y-82516714D02*
X138318285Y-82516714D01*
X138318285Y-83202428D01*
X138404000Y-83373857D01*
X138489714Y-83459571D01*
X138661142Y-83545285D01*
X138918285Y-83545285D01*
X139089714Y-83459571D01*
X139175428Y-83373857D01*
X139261142Y-83202428D01*
X139261142Y-82516714D01*
X138318285Y-84659571D02*
X138318285Y-85002428D01*
X138404000Y-85173857D01*
X138575428Y-85345285D01*
X138918285Y-85430999D01*
X139518285Y-85430999D01*
X139861142Y-85345285D01*
X140032571Y-85173857D01*
X140118285Y-85002428D01*
X140118285Y-84659571D01*
X140032571Y-84488142D01*
X139861142Y-84316714D01*
X139518285Y-84231000D01*
X138918285Y-84231000D01*
X138575428Y-84316714D01*
X138404000Y-84488142D01*
X138318285Y-84659571D01*
X138318285Y-86545285D02*
X138318285Y-86888142D01*
X138404000Y-87059571D01*
X138575428Y-87230999D01*
X138918285Y-87316714D01*
X139518285Y-87316714D01*
X139861142Y-87230999D01*
X140032571Y-87059571D01*
X140118285Y-86888142D01*
X140118285Y-86545285D01*
X140032571Y-86373857D01*
X139861142Y-86202428D01*
X139518285Y-86116714D01*
X138918285Y-86116714D01*
X138575428Y-86202428D01*
X138404000Y-86373857D01*
X138318285Y-86545285D01*
X140118285Y-88088142D02*
X138318285Y-88088142D01*
X139604000Y-88688142D01*
X138318285Y-89288142D01*
X140118285Y-89288142D01*
X139432571Y-90145285D02*
X139432571Y-91516714D01*
X138318285Y-92202428D02*
X138318285Y-93316714D01*
X139004000Y-92716714D01*
X139004000Y-92973857D01*
X139089714Y-93145285D01*
X139175428Y-93230999D01*
X139346857Y-93316714D01*
X139775428Y-93316714D01*
X139946857Y-93230999D01*
X140032571Y-93145285D01*
X140118285Y-92973857D01*
X140118285Y-92459571D01*
X140032571Y-92288142D01*
X139946857Y-92202428D01*
X138489714Y-94002428D02*
X138404000Y-94088142D01*
X138318285Y-94259571D01*
X138318285Y-94688142D01*
X138404000Y-94859571D01*
X138489714Y-94945285D01*
X138661142Y-95030999D01*
X138832571Y-95030999D01*
X139089714Y-94945285D01*
X140118285Y-93916714D01*
X140118285Y-95030999D01*
X141318285Y-69659571D02*
X142775428Y-69659571D01*
X142946857Y-69745285D01*
X143032571Y-69831000D01*
X143118285Y-70002428D01*
X143118285Y-70345285D01*
X143032571Y-70516714D01*
X142946857Y-70602428D01*
X142775428Y-70688142D01*
X141318285Y-70688142D01*
X142604000Y-71459571D02*
X142604000Y-72316714D01*
X143118285Y-71288142D02*
X141318285Y-71888142D01*
X143118285Y-72488142D01*
X143118285Y-74116714D02*
X142261142Y-73516714D01*
X143118285Y-73088142D02*
X141318285Y-73088142D01*
X141318285Y-73773857D01*
X141404000Y-73945285D01*
X141489714Y-74031000D01*
X141661142Y-74116714D01*
X141918285Y-74116714D01*
X142089714Y-74031000D01*
X142175428Y-73945285D01*
X142261142Y-73773857D01*
X142261142Y-73088142D01*
X141318285Y-74631000D02*
X141318285Y-75659571D01*
X143118285Y-75145285D02*
X141318285Y-75145285D01*
X142175428Y-78231000D02*
X142261142Y-78488142D01*
X142346857Y-78573857D01*
X142518285Y-78659571D01*
X142775428Y-78659571D01*
X142946857Y-78573857D01*
X143032571Y-78488142D01*
X143118285Y-78316714D01*
X143118285Y-77631000D01*
X141318285Y-77631000D01*
X141318285Y-78231000D01*
X141404000Y-78402428D01*
X141489714Y-78488142D01*
X141661142Y-78573857D01*
X141832571Y-78573857D01*
X142004000Y-78488142D01*
X142089714Y-78402428D01*
X142175428Y-78231000D01*
X142175428Y-77631000D01*
X143118285Y-79688142D02*
X143032571Y-79516714D01*
X142861142Y-79431000D01*
X141318285Y-79431000D01*
X141918285Y-81145285D02*
X143118285Y-81145285D01*
X141918285Y-80373857D02*
X142861142Y-80373857D01*
X143032571Y-80459571D01*
X143118285Y-80631000D01*
X143118285Y-80888142D01*
X143032571Y-81059571D01*
X142946857Y-81145285D01*
X143032571Y-82688142D02*
X143118285Y-82516714D01*
X143118285Y-82173857D01*
X143032571Y-82002428D01*
X142861142Y-81916714D01*
X142175428Y-81916714D01*
X142004000Y-82002428D01*
X141918285Y-82173857D01*
X141918285Y-82516714D01*
X142004000Y-82688142D01*
X142175428Y-82773857D01*
X142346857Y-82773857D01*
X142518285Y-81916714D01*
X141918285Y-83288142D02*
X141918285Y-83973857D01*
X141318285Y-83545285D02*
X142861142Y-83545285D01*
X143032571Y-83631000D01*
X143118285Y-83802428D01*
X143118285Y-83973857D01*
X143118285Y-84831000D02*
X143032571Y-84659571D01*
X142946857Y-84573857D01*
X142775428Y-84488142D01*
X142261142Y-84488142D01*
X142089714Y-84573857D01*
X142004000Y-84659571D01*
X141918285Y-84831000D01*
X141918285Y-85088142D01*
X142004000Y-85259571D01*
X142089714Y-85345285D01*
X142261142Y-85431000D01*
X142775428Y-85431000D01*
X142946857Y-85345285D01*
X143032571Y-85259571D01*
X143118285Y-85088142D01*
X143118285Y-84831000D01*
X143118285Y-86459571D02*
X143032571Y-86288142D01*
X142946857Y-86202428D01*
X142775428Y-86116714D01*
X142261142Y-86116714D01*
X142089714Y-86202428D01*
X142004000Y-86288142D01*
X141918285Y-86459571D01*
X141918285Y-86716714D01*
X142004000Y-86888142D01*
X142089714Y-86973857D01*
X142261142Y-87059571D01*
X142775428Y-87059571D01*
X142946857Y-86973857D01*
X143032571Y-86888142D01*
X143118285Y-86716714D01*
X143118285Y-86459571D01*
X141918285Y-87573857D02*
X141918285Y-88259571D01*
X141318285Y-87831000D02*
X142861142Y-87831000D01*
X143032571Y-87916714D01*
X143118285Y-88088142D01*
X143118285Y-88259571D01*
X143118285Y-88859571D02*
X141318285Y-88859571D01*
X143118285Y-89631000D02*
X142175428Y-89631000D01*
X142004000Y-89545285D01*
X141918285Y-89373857D01*
X141918285Y-89116714D01*
X142004000Y-88945285D01*
X142089714Y-88859571D01*
X142946857Y-92888142D02*
X143032571Y-92802428D01*
X143118285Y-92545285D01*
X143118285Y-92373857D01*
X143032571Y-92116714D01*
X142861142Y-91945285D01*
X142689714Y-91859571D01*
X142346857Y-91773857D01*
X142089714Y-91773857D01*
X141746857Y-91859571D01*
X141575428Y-91945285D01*
X141404000Y-92116714D01*
X141318285Y-92373857D01*
X141318285Y-92545285D01*
X141404000Y-92802428D01*
X141489714Y-92888142D01*
X143118285Y-93916714D02*
X143032571Y-93745285D01*
X142946857Y-93659571D01*
X142775428Y-93573857D01*
X142261142Y-93573857D01*
X142089714Y-93659571D01*
X142004000Y-93745285D01*
X141918285Y-93916714D01*
X141918285Y-94173857D01*
X142004000Y-94345285D01*
X142089714Y-94431000D01*
X142261142Y-94516714D01*
X142775428Y-94516714D01*
X142946857Y-94431000D01*
X143032571Y-94345285D01*
X143118285Y-94173857D01*
X143118285Y-93916714D01*
X141918285Y-95288142D02*
X143118285Y-95288142D01*
X142089714Y-95288142D02*
X142004000Y-95373857D01*
X141918285Y-95545285D01*
X141918285Y-95802428D01*
X142004000Y-95973857D01*
X142175428Y-96059571D01*
X143118285Y-96059571D01*
X141918285Y-96745285D02*
X143118285Y-97173857D01*
X141918285Y-97602428D01*
X143032571Y-98973857D02*
X143118285Y-98802428D01*
X143118285Y-98459571D01*
X143032571Y-98288142D01*
X142861142Y-98202428D01*
X142175428Y-98202428D01*
X142004000Y-98288142D01*
X141918285Y-98459571D01*
X141918285Y-98802428D01*
X142004000Y-98973857D01*
X142175428Y-99059571D01*
X142346857Y-99059571D01*
X142518285Y-98202428D01*
X143118285Y-99831000D02*
X141918285Y-99831000D01*
X142261142Y-99831000D02*
X142089714Y-99916714D01*
X142004000Y-100002428D01*
X141918285Y-100173857D01*
X141918285Y-100345285D01*
X141918285Y-100688142D02*
X141918285Y-101373857D01*
X141318285Y-100945285D02*
X142861142Y-100945285D01*
X143032571Y-101031000D01*
X143118285Y-101202428D01*
X143118285Y-101373857D01*
X143032571Y-102659571D02*
X143118285Y-102488142D01*
X143118285Y-102145285D01*
X143032571Y-101973857D01*
X142861142Y-101888142D01*
X142175428Y-101888142D01*
X142004000Y-101973857D01*
X141918285Y-102145285D01*
X141918285Y-102488142D01*
X142004000Y-102659571D01*
X142175428Y-102745285D01*
X142346857Y-102745285D01*
X142518285Y-101888142D01*
X143118285Y-103516714D02*
X141918285Y-103516714D01*
X142261142Y-103516714D02*
X142089714Y-103602428D01*
X142004000Y-103688142D01*
X141918285Y-103859571D01*
X141918285Y-104031000D01*
X117175428Y-69659571D02*
X117175428Y-70259571D01*
X118118285Y-70516714D02*
X118118285Y-69659571D01*
X116318285Y-69659571D01*
X116318285Y-70516714D01*
X118032571Y-71202428D02*
X118118285Y-71459571D01*
X118118285Y-71888142D01*
X118032571Y-72059571D01*
X117946857Y-72145285D01*
X117775428Y-72231000D01*
X117604000Y-72231000D01*
X117432571Y-72145285D01*
X117346857Y-72059571D01*
X117261142Y-71888142D01*
X117175428Y-71545285D01*
X117089714Y-71373857D01*
X117004000Y-71288142D01*
X116832571Y-71202428D01*
X116661142Y-71202428D01*
X116489714Y-71288142D01*
X116404000Y-71373857D01*
X116318285Y-71545285D01*
X116318285Y-71973857D01*
X116404000Y-72231000D01*
X118118285Y-73002428D02*
X116318285Y-73002428D01*
X116318285Y-73688142D01*
X116404000Y-73859571D01*
X116489714Y-73945285D01*
X116661142Y-74031000D01*
X116918285Y-74031000D01*
X117089714Y-73945285D01*
X117175428Y-73859571D01*
X117261142Y-73688142D01*
X117261142Y-73002428D01*
X116318285Y-74631000D02*
X116318285Y-75745285D01*
X117004000Y-75145285D01*
X117004000Y-75402428D01*
X117089714Y-75573857D01*
X117175428Y-75659571D01*
X117346857Y-75745285D01*
X117775428Y-75745285D01*
X117946857Y-75659571D01*
X118032571Y-75573857D01*
X118118285Y-75402428D01*
X118118285Y-74888142D01*
X118032571Y-74716714D01*
X117946857Y-74631000D01*
X116489714Y-76431000D02*
X116404000Y-76516714D01*
X116318285Y-76688142D01*
X116318285Y-77116714D01*
X116404000Y-77288142D01*
X116489714Y-77373857D01*
X116661142Y-77459571D01*
X116832571Y-77459571D01*
X117089714Y-77373857D01*
X118118285Y-76345285D01*
X118118285Y-77459571D01*
X117432571Y-78231000D02*
X117432571Y-79602428D01*
X116318285Y-80288142D02*
X118118285Y-80716714D01*
X116832571Y-81059571D01*
X118118285Y-81402428D01*
X116318285Y-81831000D01*
X118118285Y-83545285D02*
X117261142Y-82945285D01*
X118118285Y-82516714D02*
X116318285Y-82516714D01*
X116318285Y-83202428D01*
X116404000Y-83373857D01*
X116489714Y-83459571D01*
X116661142Y-83545285D01*
X116918285Y-83545285D01*
X117089714Y-83459571D01*
X117175428Y-83373857D01*
X117261142Y-83202428D01*
X117261142Y-82516714D01*
X116318285Y-84659571D02*
X116318285Y-85002428D01*
X116404000Y-85173857D01*
X116575428Y-85345285D01*
X116918285Y-85430999D01*
X117518285Y-85430999D01*
X117861142Y-85345285D01*
X118032571Y-85173857D01*
X118118285Y-85002428D01*
X118118285Y-84659571D01*
X118032571Y-84488142D01*
X117861142Y-84316714D01*
X117518285Y-84231000D01*
X116918285Y-84231000D01*
X116575428Y-84316714D01*
X116404000Y-84488142D01*
X116318285Y-84659571D01*
X116318285Y-86545285D02*
X116318285Y-86888142D01*
X116404000Y-87059571D01*
X116575428Y-87230999D01*
X116918285Y-87316714D01*
X117518285Y-87316714D01*
X117861142Y-87230999D01*
X118032571Y-87059571D01*
X118118285Y-86888142D01*
X118118285Y-86545285D01*
X118032571Y-86373857D01*
X117861142Y-86202428D01*
X117518285Y-86116714D01*
X116918285Y-86116714D01*
X116575428Y-86202428D01*
X116404000Y-86373857D01*
X116318285Y-86545285D01*
X118118285Y-88088142D02*
X116318285Y-88088142D01*
X117604000Y-88688142D01*
X116318285Y-89288142D01*
X118118285Y-89288142D01*
X117432571Y-90145285D02*
X117432571Y-91516714D01*
X116318285Y-92202428D02*
X116318285Y-93316714D01*
X117004000Y-92716714D01*
X117004000Y-92973857D01*
X117089714Y-93145285D01*
X117175428Y-93230999D01*
X117346857Y-93316714D01*
X117775428Y-93316714D01*
X117946857Y-93230999D01*
X118032571Y-93145285D01*
X118118285Y-92973857D01*
X118118285Y-92459571D01*
X118032571Y-92288142D01*
X117946857Y-92202428D01*
X116489714Y-94002428D02*
X116404000Y-94088142D01*
X116318285Y-94259571D01*
X116318285Y-94688142D01*
X116404000Y-94859571D01*
X116489714Y-94945285D01*
X116661142Y-95030999D01*
X116832571Y-95030999D01*
X117089714Y-94945285D01*
X118118285Y-93916714D01*
X118118285Y-95030999D01*
X119318285Y-69659571D02*
X120775428Y-69659571D01*
X120946857Y-69745285D01*
X121032571Y-69831000D01*
X121118285Y-70002428D01*
X121118285Y-70345285D01*
X121032571Y-70516714D01*
X120946857Y-70602428D01*
X120775428Y-70688142D01*
X119318285Y-70688142D01*
X120604000Y-71459571D02*
X120604000Y-72316714D01*
X121118285Y-71288142D02*
X119318285Y-71888142D01*
X121118285Y-72488142D01*
X121118285Y-74116714D02*
X120261142Y-73516714D01*
X121118285Y-73088142D02*
X119318285Y-73088142D01*
X119318285Y-73773857D01*
X119404000Y-73945285D01*
X119489714Y-74031000D01*
X119661142Y-74116714D01*
X119918285Y-74116714D01*
X120089714Y-74031000D01*
X120175428Y-73945285D01*
X120261142Y-73773857D01*
X120261142Y-73088142D01*
X119318285Y-74631000D02*
X119318285Y-75659571D01*
X121118285Y-75145285D02*
X119318285Y-75145285D01*
X120175428Y-78231000D02*
X120261142Y-78488142D01*
X120346857Y-78573857D01*
X120518285Y-78659571D01*
X120775428Y-78659571D01*
X120946857Y-78573857D01*
X121032571Y-78488142D01*
X121118285Y-78316714D01*
X121118285Y-77631000D01*
X119318285Y-77631000D01*
X119318285Y-78231000D01*
X119404000Y-78402428D01*
X119489714Y-78488142D01*
X119661142Y-78573857D01*
X119832571Y-78573857D01*
X120004000Y-78488142D01*
X120089714Y-78402428D01*
X120175428Y-78231000D01*
X120175428Y-77631000D01*
X121118285Y-79688142D02*
X121032571Y-79516714D01*
X120861142Y-79431000D01*
X119318285Y-79431000D01*
X119918285Y-81145285D02*
X121118285Y-81145285D01*
X119918285Y-80373857D02*
X120861142Y-80373857D01*
X121032571Y-80459571D01*
X121118285Y-80631000D01*
X121118285Y-80888142D01*
X121032571Y-81059571D01*
X120946857Y-81145285D01*
X121032571Y-82688142D02*
X121118285Y-82516714D01*
X121118285Y-82173857D01*
X121032571Y-82002428D01*
X120861142Y-81916714D01*
X120175428Y-81916714D01*
X120004000Y-82002428D01*
X119918285Y-82173857D01*
X119918285Y-82516714D01*
X120004000Y-82688142D01*
X120175428Y-82773857D01*
X120346857Y-82773857D01*
X120518285Y-81916714D01*
X119918285Y-83288142D02*
X119918285Y-83973857D01*
X119318285Y-83545285D02*
X120861142Y-83545285D01*
X121032571Y-83631000D01*
X121118285Y-83802428D01*
X121118285Y-83973857D01*
X121118285Y-84831000D02*
X121032571Y-84659571D01*
X120946857Y-84573857D01*
X120775428Y-84488142D01*
X120261142Y-84488142D01*
X120089714Y-84573857D01*
X120004000Y-84659571D01*
X119918285Y-84831000D01*
X119918285Y-85088142D01*
X120004000Y-85259571D01*
X120089714Y-85345285D01*
X120261142Y-85431000D01*
X120775428Y-85431000D01*
X120946857Y-85345285D01*
X121032571Y-85259571D01*
X121118285Y-85088142D01*
X121118285Y-84831000D01*
X121118285Y-86459571D02*
X121032571Y-86288142D01*
X120946857Y-86202428D01*
X120775428Y-86116714D01*
X120261142Y-86116714D01*
X120089714Y-86202428D01*
X120004000Y-86288142D01*
X119918285Y-86459571D01*
X119918285Y-86716714D01*
X120004000Y-86888142D01*
X120089714Y-86973857D01*
X120261142Y-87059571D01*
X120775428Y-87059571D01*
X120946857Y-86973857D01*
X121032571Y-86888142D01*
X121118285Y-86716714D01*
X121118285Y-86459571D01*
X119918285Y-87573857D02*
X119918285Y-88259571D01*
X119318285Y-87831000D02*
X120861142Y-87831000D01*
X121032571Y-87916714D01*
X121118285Y-88088142D01*
X121118285Y-88259571D01*
X121118285Y-88859571D02*
X119318285Y-88859571D01*
X121118285Y-89631000D02*
X120175428Y-89631000D01*
X120004000Y-89545285D01*
X119918285Y-89373857D01*
X119918285Y-89116714D01*
X120004000Y-88945285D01*
X120089714Y-88859571D01*
X120946857Y-92888142D02*
X121032571Y-92802428D01*
X121118285Y-92545285D01*
X121118285Y-92373857D01*
X121032571Y-92116714D01*
X120861142Y-91945285D01*
X120689714Y-91859571D01*
X120346857Y-91773857D01*
X120089714Y-91773857D01*
X119746857Y-91859571D01*
X119575428Y-91945285D01*
X119404000Y-92116714D01*
X119318285Y-92373857D01*
X119318285Y-92545285D01*
X119404000Y-92802428D01*
X119489714Y-92888142D01*
X121118285Y-93916714D02*
X121032571Y-93745285D01*
X120946857Y-93659571D01*
X120775428Y-93573857D01*
X120261142Y-93573857D01*
X120089714Y-93659571D01*
X120004000Y-93745285D01*
X119918285Y-93916714D01*
X119918285Y-94173857D01*
X120004000Y-94345285D01*
X120089714Y-94431000D01*
X120261142Y-94516714D01*
X120775428Y-94516714D01*
X120946857Y-94431000D01*
X121032571Y-94345285D01*
X121118285Y-94173857D01*
X121118285Y-93916714D01*
X119918285Y-95288142D02*
X121118285Y-95288142D01*
X120089714Y-95288142D02*
X120004000Y-95373857D01*
X119918285Y-95545285D01*
X119918285Y-95802428D01*
X120004000Y-95973857D01*
X120175428Y-96059571D01*
X121118285Y-96059571D01*
X119918285Y-96745285D02*
X121118285Y-97173857D01*
X119918285Y-97602428D01*
X121032571Y-98973857D02*
X121118285Y-98802428D01*
X121118285Y-98459571D01*
X121032571Y-98288142D01*
X120861142Y-98202428D01*
X120175428Y-98202428D01*
X120004000Y-98288142D01*
X119918285Y-98459571D01*
X119918285Y-98802428D01*
X120004000Y-98973857D01*
X120175428Y-99059571D01*
X120346857Y-99059571D01*
X120518285Y-98202428D01*
X121118285Y-99831000D02*
X119918285Y-99831000D01*
X120261142Y-99831000D02*
X120089714Y-99916714D01*
X120004000Y-100002428D01*
X119918285Y-100173857D01*
X119918285Y-100345285D01*
X119918285Y-100688142D02*
X119918285Y-101373857D01*
X119318285Y-100945285D02*
X120861142Y-100945285D01*
X121032571Y-101031000D01*
X121118285Y-101202428D01*
X121118285Y-101373857D01*
X121032571Y-102659571D02*
X121118285Y-102488142D01*
X121118285Y-102145285D01*
X121032571Y-101973857D01*
X120861142Y-101888142D01*
X120175428Y-101888142D01*
X120004000Y-101973857D01*
X119918285Y-102145285D01*
X119918285Y-102488142D01*
X120004000Y-102659571D01*
X120175428Y-102745285D01*
X120346857Y-102745285D01*
X120518285Y-101888142D01*
X121118285Y-103516714D02*
X119918285Y-103516714D01*
X120261142Y-103516714D02*
X120089714Y-103602428D01*
X120004000Y-103688142D01*
X119918285Y-103859571D01*
X119918285Y-104031000D01*
D10*
X123388571Y-103794000D02*
X122674285Y-103294000D01*
X123388571Y-102936857D02*
X121888571Y-102936857D01*
X121888571Y-103508285D01*
X121960000Y-103651142D01*
X122031428Y-103722571D01*
X122174285Y-103794000D01*
X122388571Y-103794000D01*
X122531428Y-103722571D01*
X122602857Y-103651142D01*
X122674285Y-103508285D01*
X122674285Y-102936857D01*
X121888571Y-104294000D02*
X123388571Y-105294000D01*
X121888571Y-105294000D02*
X123388571Y-104294000D01*
X123388571Y-105865428D02*
X121888571Y-105865428D01*
X121888571Y-106222571D01*
X121960000Y-106436857D01*
X122102857Y-106579714D01*
X122245714Y-106651142D01*
X122531428Y-106722571D01*
X122745714Y-106722571D01*
X123031428Y-106651142D01*
X123174285Y-106579714D01*
X123317142Y-106436857D01*
X123388571Y-106222571D01*
X123388571Y-105865428D01*
X124428571Y-103155142D02*
X124428571Y-104012285D01*
X125928571Y-103583714D02*
X124428571Y-103583714D01*
X124428571Y-104369428D02*
X125928571Y-105369428D01*
X124428571Y-105369428D02*
X125928571Y-104369428D01*
X125928571Y-105940857D02*
X124428571Y-105940857D01*
X124428571Y-106298000D01*
X124500000Y-106512285D01*
X124642857Y-106655142D01*
X124785714Y-106726571D01*
X125071428Y-106798000D01*
X125285714Y-106798000D01*
X125571428Y-106726571D01*
X125714285Y-106655142D01*
X125857142Y-106512285D01*
X125928571Y-106298000D01*
X125928571Y-105940857D01*
X127040000Y-103651142D02*
X126968571Y-103508285D01*
X126968571Y-103294000D01*
X127040000Y-103079714D01*
X127182857Y-102936857D01*
X127325714Y-102865428D01*
X127611428Y-102794000D01*
X127825714Y-102794000D01*
X128111428Y-102865428D01*
X128254285Y-102936857D01*
X128397142Y-103079714D01*
X128468571Y-103294000D01*
X128468571Y-103436857D01*
X128397142Y-103651142D01*
X128325714Y-103722571D01*
X127825714Y-103722571D01*
X127825714Y-103436857D01*
X128468571Y-104365428D02*
X126968571Y-104365428D01*
X128468571Y-105222571D01*
X126968571Y-105222571D01*
X128468571Y-105936857D02*
X126968571Y-105936857D01*
X126968571Y-106294000D01*
X127040000Y-106508285D01*
X127182857Y-106651142D01*
X127325714Y-106722571D01*
X127611428Y-106794000D01*
X127825714Y-106794000D01*
X128111428Y-106722571D01*
X128254285Y-106651142D01*
X128397142Y-106508285D01*
X128468571Y-106294000D01*
X128468571Y-105936857D01*
X129508571Y-99158857D02*
X129508571Y-100087428D01*
X130080000Y-99587428D01*
X130080000Y-99801714D01*
X130151428Y-99944571D01*
X130222857Y-100016000D01*
X130365714Y-100087428D01*
X130722857Y-100087428D01*
X130865714Y-100016000D01*
X130937142Y-99944571D01*
X131008571Y-99801714D01*
X131008571Y-99373142D01*
X130937142Y-99230285D01*
X130865714Y-99158857D01*
X130865714Y-100730285D02*
X130937142Y-100801714D01*
X131008571Y-100730285D01*
X130937142Y-100658857D01*
X130865714Y-100730285D01*
X131008571Y-100730285D01*
X129508571Y-101301714D02*
X129508571Y-102230285D01*
X130080000Y-101730285D01*
X130080000Y-101944571D01*
X130151428Y-102087428D01*
X130222857Y-102158857D01*
X130365714Y-102230285D01*
X130722857Y-102230285D01*
X130865714Y-102158857D01*
X130937142Y-102087428D01*
X131008571Y-101944571D01*
X131008571Y-101516000D01*
X130937142Y-101373142D01*
X130865714Y-101301714D01*
X130437142Y-102873142D02*
X130437142Y-104016000D01*
X129508571Y-105373142D02*
X129508571Y-105087428D01*
X129580000Y-104944571D01*
X129651428Y-104873142D01*
X129865714Y-104730285D01*
X130151428Y-104658857D01*
X130722857Y-104658857D01*
X130865714Y-104730285D01*
X130937142Y-104801714D01*
X131008571Y-104944571D01*
X131008571Y-105230285D01*
X130937142Y-105373142D01*
X130865714Y-105444571D01*
X130722857Y-105516000D01*
X130365714Y-105516000D01*
X130222857Y-105444571D01*
X130151428Y-105373142D01*
X130080000Y-105230285D01*
X130080000Y-104944571D01*
X130151428Y-104801714D01*
X130222857Y-104730285D01*
X130365714Y-104658857D01*
X129508571Y-105944571D02*
X131008571Y-106444571D01*
X129508571Y-106944571D01*
M02*
