%TF.GenerationSoftware,KiCad,Pcbnew,(5.1.7)-1*%
%TF.CreationDate,2020-10-21T06:22:45+09:00*%
%TF.ProjectId,UARTtoBluetooth_array,55415254-746f-4426-9c75-65746f6f7468,rev?*%
%TF.SameCoordinates,Original*%
%TF.FileFunction,Copper,L2,Bot*%
%TF.FilePolarity,Positive*%
%FSLAX46Y46*%
G04 Gerber Fmt 4.6, Leading zero omitted, Abs format (unit mm)*
G04 Created by KiCad (PCBNEW (5.1.7)-1) date 2020-10-21 06:22:45*
%MOMM*%
%LPD*%
G01*
G04 APERTURE LIST*
%TA.AperFunction,ComponentPad*%
%ADD10R,1.700000X1.700000*%
%TD*%
%TA.AperFunction,ComponentPad*%
%ADD11O,1.700000X1.700000*%
%TD*%
%TA.AperFunction,ViaPad*%
%ADD12C,0.800000*%
%TD*%
%TA.AperFunction,Conductor*%
%ADD13C,0.250000*%
%TD*%
G04 APERTURE END LIST*
D10*
%TO.P,J1,1*%
%TO.N,RXD*%
X175320000Y-133725000D03*
D11*
%TO.P,J1,2*%
%TO.N,TXD*%
X177860000Y-133725000D03*
%TO.P,J1,3*%
%TO.N,GND*%
X180400000Y-133725000D03*
%TO.P,J1,4*%
%TO.N,+5V*%
X182940000Y-133725000D03*
%TD*%
D10*
%TO.P,J1,1*%
%TO.N,RXD*%
X153320000Y-133725000D03*
D11*
%TO.P,J1,2*%
%TO.N,TXD*%
X155860000Y-133725000D03*
%TO.P,J1,3*%
%TO.N,GND*%
X158400000Y-133725000D03*
%TO.P,J1,4*%
%TO.N,+5V*%
X160940000Y-133725000D03*
%TD*%
D10*
%TO.P,J1,1*%
%TO.N,RXD*%
X131320000Y-133725000D03*
D11*
%TO.P,J1,2*%
%TO.N,TXD*%
X133860000Y-133725000D03*
%TO.P,J1,3*%
%TO.N,GND*%
X136400000Y-133725000D03*
%TO.P,J1,4*%
%TO.N,+5V*%
X138940000Y-133725000D03*
%TD*%
D10*
%TO.P,J1,1*%
%TO.N,RXD*%
X109320000Y-133725000D03*
D11*
%TO.P,J1,2*%
%TO.N,TXD*%
X111860000Y-133725000D03*
%TO.P,J1,3*%
%TO.N,GND*%
X114400000Y-133725000D03*
%TO.P,J1,4*%
%TO.N,+5V*%
X116940000Y-133725000D03*
%TD*%
D10*
%TO.P,J1,1*%
%TO.N,RXD*%
X175320000Y-89725000D03*
D11*
%TO.P,J1,2*%
%TO.N,TXD*%
X177860000Y-89725000D03*
%TO.P,J1,3*%
%TO.N,GND*%
X180400000Y-89725000D03*
%TO.P,J1,4*%
%TO.N,+5V*%
X182940000Y-89725000D03*
%TD*%
D10*
%TO.P,J1,1*%
%TO.N,RXD*%
X153320000Y-89725000D03*
D11*
%TO.P,J1,2*%
%TO.N,TXD*%
X155860000Y-89725000D03*
%TO.P,J1,3*%
%TO.N,GND*%
X158400000Y-89725000D03*
%TO.P,J1,4*%
%TO.N,+5V*%
X160940000Y-89725000D03*
%TD*%
D10*
%TO.P,J1,1*%
%TO.N,RXD*%
X131320000Y-89725000D03*
D11*
%TO.P,J1,2*%
%TO.N,TXD*%
X133860000Y-89725000D03*
%TO.P,J1,3*%
%TO.N,GND*%
X136400000Y-89725000D03*
%TO.P,J1,4*%
%TO.N,+5V*%
X138940000Y-89725000D03*
%TD*%
%TO.P,J1,4*%
%TO.N,+5V*%
X116940000Y-89725000D03*
%TO.P,J1,3*%
%TO.N,GND*%
X114400000Y-89725000D03*
%TO.P,J1,2*%
%TO.N,TXD*%
X111860000Y-89725000D03*
D10*
%TO.P,J1,1*%
%TO.N,RXD*%
X109320000Y-89725000D03*
%TD*%
D12*
%TO.N,BOOT*%
X120278700Y-76209700D03*
X118733700Y-84084700D03*
X140733700Y-84084700D03*
X162733700Y-84084700D03*
X184733700Y-84084700D03*
X118733700Y-128084700D03*
X140733700Y-128084700D03*
X162733700Y-128084700D03*
X184733700Y-128084700D03*
X142278700Y-76209700D03*
X164278700Y-76209700D03*
X186278700Y-76209700D03*
X120278700Y-120209700D03*
X142278700Y-120209700D03*
X164278700Y-120209700D03*
X186278700Y-120209700D03*
%TO.N,RESET*%
X105434700Y-84084700D03*
X107150000Y-59800000D03*
X127434700Y-84084700D03*
X149434700Y-84084700D03*
X171434700Y-84084700D03*
X105434700Y-128084700D03*
X127434700Y-128084700D03*
X149434700Y-128084700D03*
X171434700Y-128084700D03*
X129150000Y-59800000D03*
X151150000Y-59800000D03*
X173150000Y-59800000D03*
X107150000Y-103800000D03*
X129150000Y-103800000D03*
X151150000Y-103800000D03*
X173150000Y-103800000D03*
%TO.N,TXD*%
X118206500Y-69864600D03*
X140206500Y-69864600D03*
X162206500Y-69864600D03*
X184206500Y-69864600D03*
X118206500Y-113864600D03*
X140206500Y-113864600D03*
X162206500Y-113864600D03*
X184206500Y-113864600D03*
%TO.N,RXD*%
X119470000Y-61610000D03*
X141470000Y-61610000D03*
X163470000Y-61610000D03*
X185470000Y-61610000D03*
X119470000Y-105610000D03*
X141470000Y-105610000D03*
X163470000Y-105610000D03*
X185470000Y-105610000D03*
%TD*%
D13*
%TO.N,BOOT*%
X120208700Y-76289700D02*
X120208700Y-82619700D01*
X120208700Y-82619700D02*
X118663700Y-84164700D01*
X142208700Y-76289700D02*
X142208700Y-82619700D01*
X164208700Y-76289700D02*
X164208700Y-82619700D01*
X186208700Y-76289700D02*
X186208700Y-82619700D01*
X120208700Y-120289700D02*
X120208700Y-126619700D01*
X142208700Y-120289700D02*
X142208700Y-126619700D01*
X164208700Y-120289700D02*
X164208700Y-126619700D01*
X186208700Y-120289700D02*
X186208700Y-126619700D01*
X142208700Y-82619700D02*
X140663700Y-84164700D01*
X164208700Y-82619700D02*
X162663700Y-84164700D01*
X186208700Y-82619700D02*
X184663700Y-84164700D01*
X120208700Y-126619700D02*
X118663700Y-128164700D01*
X142208700Y-126619700D02*
X140663700Y-128164700D01*
X164208700Y-126619700D02*
X162663700Y-128164700D01*
X186208700Y-126619700D02*
X184663700Y-128164700D01*
%TO.N,RESET*%
X105434700Y-84084700D02*
X105434700Y-61515300D01*
X105434700Y-61515300D02*
X107150000Y-59800000D01*
X107150000Y-59800000D02*
X107150000Y-59800000D01*
X127434700Y-84084700D02*
X127434700Y-61515300D01*
X149434700Y-84084700D02*
X149434700Y-61515300D01*
X171434700Y-84084700D02*
X171434700Y-61515300D01*
X105434700Y-128084700D02*
X105434700Y-105515300D01*
X127434700Y-128084700D02*
X127434700Y-105515300D01*
X149434700Y-128084700D02*
X149434700Y-105515300D01*
X171434700Y-128084700D02*
X171434700Y-105515300D01*
X127434700Y-61515300D02*
X129150000Y-59800000D01*
X149434700Y-61515300D02*
X151150000Y-59800000D01*
X171434700Y-61515300D02*
X173150000Y-59800000D01*
X105434700Y-105515300D02*
X107150000Y-103800000D01*
X127434700Y-105515300D02*
X129150000Y-103800000D01*
X149434700Y-105515300D02*
X151150000Y-103800000D01*
X171434700Y-105515300D02*
X173150000Y-103800000D01*
X129150000Y-59800000D02*
X129150000Y-59800000D01*
X151150000Y-59800000D02*
X151150000Y-59800000D01*
X173150000Y-59800000D02*
X173150000Y-59800000D01*
X107150000Y-103800000D02*
X107150000Y-103800000D01*
X129150000Y-103800000D02*
X129150000Y-103800000D01*
X151150000Y-103800000D02*
X151150000Y-103800000D01*
X173150000Y-103800000D02*
X173150000Y-103800000D01*
%TO.N,TXD*%
X118136500Y-69944600D02*
X118136500Y-82098200D01*
X118136500Y-82098200D02*
X111780000Y-88454700D01*
X111780000Y-89630000D02*
X111780000Y-88454700D01*
X140136500Y-82098200D02*
X133780000Y-88454700D01*
X162136500Y-82098200D02*
X155780000Y-88454700D01*
X184136500Y-82098200D02*
X177780000Y-88454700D01*
X118136500Y-126098200D02*
X111780000Y-132454700D01*
X140136500Y-126098200D02*
X133780000Y-132454700D01*
X162136500Y-126098200D02*
X155780000Y-132454700D01*
X184136500Y-126098200D02*
X177780000Y-132454700D01*
X140136500Y-69944600D02*
X140136500Y-82098200D01*
X162136500Y-69944600D02*
X162136500Y-82098200D01*
X184136500Y-69944600D02*
X184136500Y-82098200D01*
X118136500Y-113944600D02*
X118136500Y-126098200D01*
X140136500Y-113944600D02*
X140136500Y-126098200D01*
X162136500Y-113944600D02*
X162136500Y-126098200D01*
X184136500Y-113944600D02*
X184136500Y-126098200D01*
X133780000Y-89630000D02*
X133780000Y-88454700D01*
X155780000Y-89630000D02*
X155780000Y-88454700D01*
X177780000Y-89630000D02*
X177780000Y-88454700D01*
X111780000Y-133630000D02*
X111780000Y-132454700D01*
X133780000Y-133630000D02*
X133780000Y-132454700D01*
X155780000Y-133630000D02*
X155780000Y-132454700D01*
X177780000Y-133630000D02*
X177780000Y-132454700D01*
%TO.N,RXD*%
X109240000Y-89630000D02*
X109240000Y-71850000D01*
X109240000Y-71850000D02*
X119400000Y-61690000D01*
X119400000Y-61690000D02*
X119400000Y-61690000D01*
X131240000Y-71850000D02*
X141400000Y-61690000D01*
X153240000Y-71850000D02*
X163400000Y-61690000D01*
X175240000Y-71850000D02*
X185400000Y-61690000D01*
X109240000Y-115850000D02*
X119400000Y-105690000D01*
X131240000Y-115850000D02*
X141400000Y-105690000D01*
X153240000Y-115850000D02*
X163400000Y-105690000D01*
X175240000Y-115850000D02*
X185400000Y-105690000D01*
X141400000Y-61690000D02*
X141400000Y-61690000D01*
X163400000Y-61690000D02*
X163400000Y-61690000D01*
X185400000Y-61690000D02*
X185400000Y-61690000D01*
X119400000Y-105690000D02*
X119400000Y-105690000D01*
X141400000Y-105690000D02*
X141400000Y-105690000D01*
X163400000Y-105690000D02*
X163400000Y-105690000D01*
X185400000Y-105690000D02*
X185400000Y-105690000D01*
X131240000Y-89630000D02*
X131240000Y-71850000D01*
X153240000Y-89630000D02*
X153240000Y-71850000D01*
X175240000Y-89630000D02*
X175240000Y-71850000D01*
X109240000Y-133630000D02*
X109240000Y-115850000D01*
X131240000Y-133630000D02*
X131240000Y-115850000D01*
X153240000Y-133630000D02*
X153240000Y-115850000D01*
X175240000Y-133630000D02*
X175240000Y-115850000D01*
%TD*%
M02*
