%TF.GenerationSoftware,KiCad,Pcbnew,(5.1.7)-1*%
%TF.CreationDate,2020-10-21T06:22:45+09:00*%
%TF.ProjectId,UARTtoBluetooth_array,55415254-746f-4426-9c75-65746f6f7468,rev?*%
%TF.SameCoordinates,Original*%
%TF.FileFunction,Profile,NP*%
%FSLAX46Y46*%
G04 Gerber Fmt 4.6, Leading zero omitted, Abs format (unit mm)*
G04 Created by KiCad (PCBNEW (5.1.7)-1) date 2020-10-21 06:22:45*
%MOMM*%
%LPD*%
G01*
G04 APERTURE LIST*
%TA.AperFunction,Profile*%
%ADD10C,0.050000*%
%TD*%
G04 APERTURE END LIST*
D10*
X202200000Y-135800000D02*
G75*
G02*
X190200000Y-147800000I-12000000J0D01*
G01*
X102200000Y-147800000D02*
G75*
G02*
X90200000Y-135800000I0J12000000D01*
G01*
X90200000Y-47800000D02*
G75*
G02*
X102200000Y-35800000I12000000J0D01*
G01*
X190200000Y-35800000D02*
G75*
G02*
X202200000Y-47800000I0J-12000000D01*
G01*
X102200000Y-35800000D02*
X190200000Y-35800000D01*
X90200000Y-135800000D02*
X90200000Y-47800000D01*
X190200000Y-147800000D02*
X102200000Y-147800000D01*
X202200000Y-135800000D02*
X202200000Y-47800000D01*
X102200000Y-47800000D02*
X90200000Y-47800000D01*
X102200000Y-135800000D02*
X90200000Y-135800000D01*
X102200000Y-135800000D02*
X102200000Y-147800000D01*
X190200000Y-135800000D02*
X202200000Y-135800000D01*
X190200000Y-135800000D02*
X190200000Y-147800000D01*
X190200000Y-47800000D02*
X202200000Y-47800000D01*
X190200000Y-47800000D02*
X190200000Y-35800000D01*
X102200000Y-47800000D02*
X102200000Y-35800000D01*
X168200000Y-47800000D02*
X168200000Y-135800000D01*
X146200000Y-135800000D02*
X146200000Y-47800000D01*
X124200000Y-47800000D02*
X124200000Y-135800000D01*
X190200000Y-91800000D02*
X102200000Y-91800000D01*
X102200000Y-47800000D02*
X190200000Y-47800000D01*
X102200000Y-135800000D02*
X102200000Y-47800000D01*
X190200000Y-135800000D02*
X190200000Y-47800000D01*
X102200000Y-135800000D02*
X190200000Y-135800000D01*
M02*
