%TF.GenerationSoftware,KiCad,Pcbnew,(5.1.7)-1*%
%TF.CreationDate,2020-10-21T06:22:45+09:00*%
%TF.ProjectId,UARTtoBluetooth_array,55415254-746f-4426-9c75-65746f6f7468,rev?*%
%TF.SameCoordinates,Original*%
%TF.FileFunction,Legend,Top*%
%TF.FilePolarity,Positive*%
%FSLAX46Y46*%
G04 Gerber Fmt 4.6, Leading zero omitted, Abs format (unit mm)*
G04 Created by KiCad (PCBNEW (5.1.7)-1) date 2020-10-21 06:22:45*
%MOMM*%
%LPD*%
G01*
G04 APERTURE LIST*
%ADD10C,0.150000*%
%ADD11C,0.120000*%
%ADD12C,0.200000*%
%ADD13C,0.127000*%
G04 APERTURE END LIST*
D10*
X183877142Y-119687904D02*
X184029523Y-119687904D01*
X184105714Y-119649809D01*
X184143809Y-119611714D01*
X184220000Y-119497428D01*
X184258095Y-119345047D01*
X184258095Y-119040285D01*
X184220000Y-118964095D01*
X184181904Y-118926000D01*
X184105714Y-118887904D01*
X183953333Y-118887904D01*
X183877142Y-118926000D01*
X183839047Y-118964095D01*
X183800952Y-119040285D01*
X183800952Y-119230761D01*
X183839047Y-119306952D01*
X183877142Y-119345047D01*
X183953333Y-119383142D01*
X184105714Y-119383142D01*
X184181904Y-119345047D01*
X184220000Y-119306952D01*
X184258095Y-119230761D01*
X184943809Y-118887904D02*
X184791428Y-118887904D01*
X184715238Y-118926000D01*
X184677142Y-118964095D01*
X184600952Y-119078380D01*
X184562857Y-119230761D01*
X184562857Y-119535523D01*
X184600952Y-119611714D01*
X184639047Y-119649809D01*
X184715238Y-119687904D01*
X184867619Y-119687904D01*
X184943809Y-119649809D01*
X184981904Y-119611714D01*
X185020000Y-119535523D01*
X185020000Y-119345047D01*
X184981904Y-119268857D01*
X184943809Y-119230761D01*
X184867619Y-119192666D01*
X184715238Y-119192666D01*
X184639047Y-119230761D01*
X184600952Y-119268857D01*
X184562857Y-119345047D01*
X185515238Y-118887904D02*
X185591428Y-118887904D01*
X185667619Y-118926000D01*
X185705714Y-118964095D01*
X185743809Y-119040285D01*
X185781904Y-119192666D01*
X185781904Y-119383142D01*
X185743809Y-119535523D01*
X185705714Y-119611714D01*
X185667619Y-119649809D01*
X185591428Y-119687904D01*
X185515238Y-119687904D01*
X185439047Y-119649809D01*
X185400952Y-119611714D01*
X185362857Y-119535523D01*
X185324761Y-119383142D01*
X185324761Y-119192666D01*
X185362857Y-119040285D01*
X185400952Y-118964095D01*
X185439047Y-118926000D01*
X185515238Y-118887904D01*
X186277142Y-118887904D02*
X186353333Y-118887904D01*
X186429523Y-118926000D01*
X186467619Y-118964095D01*
X186505714Y-119040285D01*
X186543809Y-119192666D01*
X186543809Y-119383142D01*
X186505714Y-119535523D01*
X186467619Y-119611714D01*
X186429523Y-119649809D01*
X186353333Y-119687904D01*
X186277142Y-119687904D01*
X186200952Y-119649809D01*
X186162857Y-119611714D01*
X186124761Y-119535523D01*
X186086666Y-119383142D01*
X186086666Y-119192666D01*
X186124761Y-119040285D01*
X186162857Y-118964095D01*
X186200952Y-118926000D01*
X186277142Y-118887904D01*
X186886666Y-119687904D02*
X186886666Y-118887904D01*
X186886666Y-119192666D02*
X186962857Y-119154571D01*
X187115238Y-119154571D01*
X187191428Y-119192666D01*
X187229523Y-119230761D01*
X187267619Y-119306952D01*
X187267619Y-119535523D01*
X187229523Y-119611714D01*
X187191428Y-119649809D01*
X187115238Y-119687904D01*
X186962857Y-119687904D01*
X186886666Y-119649809D01*
X187610476Y-119154571D02*
X187610476Y-119954571D01*
X187610476Y-119192666D02*
X187686666Y-119154571D01*
X187839047Y-119154571D01*
X187915238Y-119192666D01*
X187953333Y-119230761D01*
X187991428Y-119306952D01*
X187991428Y-119535523D01*
X187953333Y-119611714D01*
X187915238Y-119649809D01*
X187839047Y-119687904D01*
X187686666Y-119687904D01*
X187610476Y-119649809D01*
X188296190Y-119649809D02*
X188372380Y-119687904D01*
X188524761Y-119687904D01*
X188600952Y-119649809D01*
X188639047Y-119573619D01*
X188639047Y-119535523D01*
X188600952Y-119459333D01*
X188524761Y-119421238D01*
X188410476Y-119421238D01*
X188334285Y-119383142D01*
X188296190Y-119306952D01*
X188296190Y-119268857D01*
X188334285Y-119192666D01*
X188410476Y-119154571D01*
X188524761Y-119154571D01*
X188600952Y-119192666D01*
X161877142Y-119687904D02*
X162029523Y-119687904D01*
X162105714Y-119649809D01*
X162143809Y-119611714D01*
X162220000Y-119497428D01*
X162258095Y-119345047D01*
X162258095Y-119040285D01*
X162220000Y-118964095D01*
X162181904Y-118926000D01*
X162105714Y-118887904D01*
X161953333Y-118887904D01*
X161877142Y-118926000D01*
X161839047Y-118964095D01*
X161800952Y-119040285D01*
X161800952Y-119230761D01*
X161839047Y-119306952D01*
X161877142Y-119345047D01*
X161953333Y-119383142D01*
X162105714Y-119383142D01*
X162181904Y-119345047D01*
X162220000Y-119306952D01*
X162258095Y-119230761D01*
X162943809Y-118887904D02*
X162791428Y-118887904D01*
X162715238Y-118926000D01*
X162677142Y-118964095D01*
X162600952Y-119078380D01*
X162562857Y-119230761D01*
X162562857Y-119535523D01*
X162600952Y-119611714D01*
X162639047Y-119649809D01*
X162715238Y-119687904D01*
X162867619Y-119687904D01*
X162943809Y-119649809D01*
X162981904Y-119611714D01*
X163020000Y-119535523D01*
X163020000Y-119345047D01*
X162981904Y-119268857D01*
X162943809Y-119230761D01*
X162867619Y-119192666D01*
X162715238Y-119192666D01*
X162639047Y-119230761D01*
X162600952Y-119268857D01*
X162562857Y-119345047D01*
X163515238Y-118887904D02*
X163591428Y-118887904D01*
X163667619Y-118926000D01*
X163705714Y-118964095D01*
X163743809Y-119040285D01*
X163781904Y-119192666D01*
X163781904Y-119383142D01*
X163743809Y-119535523D01*
X163705714Y-119611714D01*
X163667619Y-119649809D01*
X163591428Y-119687904D01*
X163515238Y-119687904D01*
X163439047Y-119649809D01*
X163400952Y-119611714D01*
X163362857Y-119535523D01*
X163324761Y-119383142D01*
X163324761Y-119192666D01*
X163362857Y-119040285D01*
X163400952Y-118964095D01*
X163439047Y-118926000D01*
X163515238Y-118887904D01*
X164277142Y-118887904D02*
X164353333Y-118887904D01*
X164429523Y-118926000D01*
X164467619Y-118964095D01*
X164505714Y-119040285D01*
X164543809Y-119192666D01*
X164543809Y-119383142D01*
X164505714Y-119535523D01*
X164467619Y-119611714D01*
X164429523Y-119649809D01*
X164353333Y-119687904D01*
X164277142Y-119687904D01*
X164200952Y-119649809D01*
X164162857Y-119611714D01*
X164124761Y-119535523D01*
X164086666Y-119383142D01*
X164086666Y-119192666D01*
X164124761Y-119040285D01*
X164162857Y-118964095D01*
X164200952Y-118926000D01*
X164277142Y-118887904D01*
X164886666Y-119687904D02*
X164886666Y-118887904D01*
X164886666Y-119192666D02*
X164962857Y-119154571D01*
X165115238Y-119154571D01*
X165191428Y-119192666D01*
X165229523Y-119230761D01*
X165267619Y-119306952D01*
X165267619Y-119535523D01*
X165229523Y-119611714D01*
X165191428Y-119649809D01*
X165115238Y-119687904D01*
X164962857Y-119687904D01*
X164886666Y-119649809D01*
X165610476Y-119154571D02*
X165610476Y-119954571D01*
X165610476Y-119192666D02*
X165686666Y-119154571D01*
X165839047Y-119154571D01*
X165915238Y-119192666D01*
X165953333Y-119230761D01*
X165991428Y-119306952D01*
X165991428Y-119535523D01*
X165953333Y-119611714D01*
X165915238Y-119649809D01*
X165839047Y-119687904D01*
X165686666Y-119687904D01*
X165610476Y-119649809D01*
X166296190Y-119649809D02*
X166372380Y-119687904D01*
X166524761Y-119687904D01*
X166600952Y-119649809D01*
X166639047Y-119573619D01*
X166639047Y-119535523D01*
X166600952Y-119459333D01*
X166524761Y-119421238D01*
X166410476Y-119421238D01*
X166334285Y-119383142D01*
X166296190Y-119306952D01*
X166296190Y-119268857D01*
X166334285Y-119192666D01*
X166410476Y-119154571D01*
X166524761Y-119154571D01*
X166600952Y-119192666D01*
X139877142Y-119687904D02*
X140029523Y-119687904D01*
X140105714Y-119649809D01*
X140143809Y-119611714D01*
X140220000Y-119497428D01*
X140258095Y-119345047D01*
X140258095Y-119040285D01*
X140220000Y-118964095D01*
X140181904Y-118926000D01*
X140105714Y-118887904D01*
X139953333Y-118887904D01*
X139877142Y-118926000D01*
X139839047Y-118964095D01*
X139800952Y-119040285D01*
X139800952Y-119230761D01*
X139839047Y-119306952D01*
X139877142Y-119345047D01*
X139953333Y-119383142D01*
X140105714Y-119383142D01*
X140181904Y-119345047D01*
X140220000Y-119306952D01*
X140258095Y-119230761D01*
X140943809Y-118887904D02*
X140791428Y-118887904D01*
X140715238Y-118926000D01*
X140677142Y-118964095D01*
X140600952Y-119078380D01*
X140562857Y-119230761D01*
X140562857Y-119535523D01*
X140600952Y-119611714D01*
X140639047Y-119649809D01*
X140715238Y-119687904D01*
X140867619Y-119687904D01*
X140943809Y-119649809D01*
X140981904Y-119611714D01*
X141020000Y-119535523D01*
X141020000Y-119345047D01*
X140981904Y-119268857D01*
X140943809Y-119230761D01*
X140867619Y-119192666D01*
X140715238Y-119192666D01*
X140639047Y-119230761D01*
X140600952Y-119268857D01*
X140562857Y-119345047D01*
X141515238Y-118887904D02*
X141591428Y-118887904D01*
X141667619Y-118926000D01*
X141705714Y-118964095D01*
X141743809Y-119040285D01*
X141781904Y-119192666D01*
X141781904Y-119383142D01*
X141743809Y-119535523D01*
X141705714Y-119611714D01*
X141667619Y-119649809D01*
X141591428Y-119687904D01*
X141515238Y-119687904D01*
X141439047Y-119649809D01*
X141400952Y-119611714D01*
X141362857Y-119535523D01*
X141324761Y-119383142D01*
X141324761Y-119192666D01*
X141362857Y-119040285D01*
X141400952Y-118964095D01*
X141439047Y-118926000D01*
X141515238Y-118887904D01*
X142277142Y-118887904D02*
X142353333Y-118887904D01*
X142429523Y-118926000D01*
X142467619Y-118964095D01*
X142505714Y-119040285D01*
X142543809Y-119192666D01*
X142543809Y-119383142D01*
X142505714Y-119535523D01*
X142467619Y-119611714D01*
X142429523Y-119649809D01*
X142353333Y-119687904D01*
X142277142Y-119687904D01*
X142200952Y-119649809D01*
X142162857Y-119611714D01*
X142124761Y-119535523D01*
X142086666Y-119383142D01*
X142086666Y-119192666D01*
X142124761Y-119040285D01*
X142162857Y-118964095D01*
X142200952Y-118926000D01*
X142277142Y-118887904D01*
X142886666Y-119687904D02*
X142886666Y-118887904D01*
X142886666Y-119192666D02*
X142962857Y-119154571D01*
X143115238Y-119154571D01*
X143191428Y-119192666D01*
X143229523Y-119230761D01*
X143267619Y-119306952D01*
X143267619Y-119535523D01*
X143229523Y-119611714D01*
X143191428Y-119649809D01*
X143115238Y-119687904D01*
X142962857Y-119687904D01*
X142886666Y-119649809D01*
X143610476Y-119154571D02*
X143610476Y-119954571D01*
X143610476Y-119192666D02*
X143686666Y-119154571D01*
X143839047Y-119154571D01*
X143915238Y-119192666D01*
X143953333Y-119230761D01*
X143991428Y-119306952D01*
X143991428Y-119535523D01*
X143953333Y-119611714D01*
X143915238Y-119649809D01*
X143839047Y-119687904D01*
X143686666Y-119687904D01*
X143610476Y-119649809D01*
X144296190Y-119649809D02*
X144372380Y-119687904D01*
X144524761Y-119687904D01*
X144600952Y-119649809D01*
X144639047Y-119573619D01*
X144639047Y-119535523D01*
X144600952Y-119459333D01*
X144524761Y-119421238D01*
X144410476Y-119421238D01*
X144334285Y-119383142D01*
X144296190Y-119306952D01*
X144296190Y-119268857D01*
X144334285Y-119192666D01*
X144410476Y-119154571D01*
X144524761Y-119154571D01*
X144600952Y-119192666D01*
X117877142Y-119687904D02*
X118029523Y-119687904D01*
X118105714Y-119649809D01*
X118143809Y-119611714D01*
X118220000Y-119497428D01*
X118258095Y-119345047D01*
X118258095Y-119040285D01*
X118220000Y-118964095D01*
X118181904Y-118926000D01*
X118105714Y-118887904D01*
X117953333Y-118887904D01*
X117877142Y-118926000D01*
X117839047Y-118964095D01*
X117800952Y-119040285D01*
X117800952Y-119230761D01*
X117839047Y-119306952D01*
X117877142Y-119345047D01*
X117953333Y-119383142D01*
X118105714Y-119383142D01*
X118181904Y-119345047D01*
X118220000Y-119306952D01*
X118258095Y-119230761D01*
X118943809Y-118887904D02*
X118791428Y-118887904D01*
X118715238Y-118926000D01*
X118677142Y-118964095D01*
X118600952Y-119078380D01*
X118562857Y-119230761D01*
X118562857Y-119535523D01*
X118600952Y-119611714D01*
X118639047Y-119649809D01*
X118715238Y-119687904D01*
X118867619Y-119687904D01*
X118943809Y-119649809D01*
X118981904Y-119611714D01*
X119020000Y-119535523D01*
X119020000Y-119345047D01*
X118981904Y-119268857D01*
X118943809Y-119230761D01*
X118867619Y-119192666D01*
X118715238Y-119192666D01*
X118639047Y-119230761D01*
X118600952Y-119268857D01*
X118562857Y-119345047D01*
X119515238Y-118887904D02*
X119591428Y-118887904D01*
X119667619Y-118926000D01*
X119705714Y-118964095D01*
X119743809Y-119040285D01*
X119781904Y-119192666D01*
X119781904Y-119383142D01*
X119743809Y-119535523D01*
X119705714Y-119611714D01*
X119667619Y-119649809D01*
X119591428Y-119687904D01*
X119515238Y-119687904D01*
X119439047Y-119649809D01*
X119400952Y-119611714D01*
X119362857Y-119535523D01*
X119324761Y-119383142D01*
X119324761Y-119192666D01*
X119362857Y-119040285D01*
X119400952Y-118964095D01*
X119439047Y-118926000D01*
X119515238Y-118887904D01*
X120277142Y-118887904D02*
X120353333Y-118887904D01*
X120429523Y-118926000D01*
X120467619Y-118964095D01*
X120505714Y-119040285D01*
X120543809Y-119192666D01*
X120543809Y-119383142D01*
X120505714Y-119535523D01*
X120467619Y-119611714D01*
X120429523Y-119649809D01*
X120353333Y-119687904D01*
X120277142Y-119687904D01*
X120200952Y-119649809D01*
X120162857Y-119611714D01*
X120124761Y-119535523D01*
X120086666Y-119383142D01*
X120086666Y-119192666D01*
X120124761Y-119040285D01*
X120162857Y-118964095D01*
X120200952Y-118926000D01*
X120277142Y-118887904D01*
X120886666Y-119687904D02*
X120886666Y-118887904D01*
X120886666Y-119192666D02*
X120962857Y-119154571D01*
X121115238Y-119154571D01*
X121191428Y-119192666D01*
X121229523Y-119230761D01*
X121267619Y-119306952D01*
X121267619Y-119535523D01*
X121229523Y-119611714D01*
X121191428Y-119649809D01*
X121115238Y-119687904D01*
X120962857Y-119687904D01*
X120886666Y-119649809D01*
X121610476Y-119154571D02*
X121610476Y-119954571D01*
X121610476Y-119192666D02*
X121686666Y-119154571D01*
X121839047Y-119154571D01*
X121915238Y-119192666D01*
X121953333Y-119230761D01*
X121991428Y-119306952D01*
X121991428Y-119535523D01*
X121953333Y-119611714D01*
X121915238Y-119649809D01*
X121839047Y-119687904D01*
X121686666Y-119687904D01*
X121610476Y-119649809D01*
X122296190Y-119649809D02*
X122372380Y-119687904D01*
X122524761Y-119687904D01*
X122600952Y-119649809D01*
X122639047Y-119573619D01*
X122639047Y-119535523D01*
X122600952Y-119459333D01*
X122524761Y-119421238D01*
X122410476Y-119421238D01*
X122334285Y-119383142D01*
X122296190Y-119306952D01*
X122296190Y-119268857D01*
X122334285Y-119192666D01*
X122410476Y-119154571D01*
X122524761Y-119154571D01*
X122600952Y-119192666D01*
X183877142Y-75687904D02*
X184029523Y-75687904D01*
X184105714Y-75649809D01*
X184143809Y-75611714D01*
X184220000Y-75497428D01*
X184258095Y-75345047D01*
X184258095Y-75040285D01*
X184220000Y-74964095D01*
X184181904Y-74926000D01*
X184105714Y-74887904D01*
X183953333Y-74887904D01*
X183877142Y-74926000D01*
X183839047Y-74964095D01*
X183800952Y-75040285D01*
X183800952Y-75230761D01*
X183839047Y-75306952D01*
X183877142Y-75345047D01*
X183953333Y-75383142D01*
X184105714Y-75383142D01*
X184181904Y-75345047D01*
X184220000Y-75306952D01*
X184258095Y-75230761D01*
X184943809Y-74887904D02*
X184791428Y-74887904D01*
X184715238Y-74926000D01*
X184677142Y-74964095D01*
X184600952Y-75078380D01*
X184562857Y-75230761D01*
X184562857Y-75535523D01*
X184600952Y-75611714D01*
X184639047Y-75649809D01*
X184715238Y-75687904D01*
X184867619Y-75687904D01*
X184943809Y-75649809D01*
X184981904Y-75611714D01*
X185020000Y-75535523D01*
X185020000Y-75345047D01*
X184981904Y-75268857D01*
X184943809Y-75230761D01*
X184867619Y-75192666D01*
X184715238Y-75192666D01*
X184639047Y-75230761D01*
X184600952Y-75268857D01*
X184562857Y-75345047D01*
X185515238Y-74887904D02*
X185591428Y-74887904D01*
X185667619Y-74926000D01*
X185705714Y-74964095D01*
X185743809Y-75040285D01*
X185781904Y-75192666D01*
X185781904Y-75383142D01*
X185743809Y-75535523D01*
X185705714Y-75611714D01*
X185667619Y-75649809D01*
X185591428Y-75687904D01*
X185515238Y-75687904D01*
X185439047Y-75649809D01*
X185400952Y-75611714D01*
X185362857Y-75535523D01*
X185324761Y-75383142D01*
X185324761Y-75192666D01*
X185362857Y-75040285D01*
X185400952Y-74964095D01*
X185439047Y-74926000D01*
X185515238Y-74887904D01*
X186277142Y-74887904D02*
X186353333Y-74887904D01*
X186429523Y-74926000D01*
X186467619Y-74964095D01*
X186505714Y-75040285D01*
X186543809Y-75192666D01*
X186543809Y-75383142D01*
X186505714Y-75535523D01*
X186467619Y-75611714D01*
X186429523Y-75649809D01*
X186353333Y-75687904D01*
X186277142Y-75687904D01*
X186200952Y-75649809D01*
X186162857Y-75611714D01*
X186124761Y-75535523D01*
X186086666Y-75383142D01*
X186086666Y-75192666D01*
X186124761Y-75040285D01*
X186162857Y-74964095D01*
X186200952Y-74926000D01*
X186277142Y-74887904D01*
X186886666Y-75687904D02*
X186886666Y-74887904D01*
X186886666Y-75192666D02*
X186962857Y-75154571D01*
X187115238Y-75154571D01*
X187191428Y-75192666D01*
X187229523Y-75230761D01*
X187267619Y-75306952D01*
X187267619Y-75535523D01*
X187229523Y-75611714D01*
X187191428Y-75649809D01*
X187115238Y-75687904D01*
X186962857Y-75687904D01*
X186886666Y-75649809D01*
X187610476Y-75154571D02*
X187610476Y-75954571D01*
X187610476Y-75192666D02*
X187686666Y-75154571D01*
X187839047Y-75154571D01*
X187915238Y-75192666D01*
X187953333Y-75230761D01*
X187991428Y-75306952D01*
X187991428Y-75535523D01*
X187953333Y-75611714D01*
X187915238Y-75649809D01*
X187839047Y-75687904D01*
X187686666Y-75687904D01*
X187610476Y-75649809D01*
X188296190Y-75649809D02*
X188372380Y-75687904D01*
X188524761Y-75687904D01*
X188600952Y-75649809D01*
X188639047Y-75573619D01*
X188639047Y-75535523D01*
X188600952Y-75459333D01*
X188524761Y-75421238D01*
X188410476Y-75421238D01*
X188334285Y-75383142D01*
X188296190Y-75306952D01*
X188296190Y-75268857D01*
X188334285Y-75192666D01*
X188410476Y-75154571D01*
X188524761Y-75154571D01*
X188600952Y-75192666D01*
X161877142Y-75687904D02*
X162029523Y-75687904D01*
X162105714Y-75649809D01*
X162143809Y-75611714D01*
X162220000Y-75497428D01*
X162258095Y-75345047D01*
X162258095Y-75040285D01*
X162220000Y-74964095D01*
X162181904Y-74926000D01*
X162105714Y-74887904D01*
X161953333Y-74887904D01*
X161877142Y-74926000D01*
X161839047Y-74964095D01*
X161800952Y-75040285D01*
X161800952Y-75230761D01*
X161839047Y-75306952D01*
X161877142Y-75345047D01*
X161953333Y-75383142D01*
X162105714Y-75383142D01*
X162181904Y-75345047D01*
X162220000Y-75306952D01*
X162258095Y-75230761D01*
X162943809Y-74887904D02*
X162791428Y-74887904D01*
X162715238Y-74926000D01*
X162677142Y-74964095D01*
X162600952Y-75078380D01*
X162562857Y-75230761D01*
X162562857Y-75535523D01*
X162600952Y-75611714D01*
X162639047Y-75649809D01*
X162715238Y-75687904D01*
X162867619Y-75687904D01*
X162943809Y-75649809D01*
X162981904Y-75611714D01*
X163020000Y-75535523D01*
X163020000Y-75345047D01*
X162981904Y-75268857D01*
X162943809Y-75230761D01*
X162867619Y-75192666D01*
X162715238Y-75192666D01*
X162639047Y-75230761D01*
X162600952Y-75268857D01*
X162562857Y-75345047D01*
X163515238Y-74887904D02*
X163591428Y-74887904D01*
X163667619Y-74926000D01*
X163705714Y-74964095D01*
X163743809Y-75040285D01*
X163781904Y-75192666D01*
X163781904Y-75383142D01*
X163743809Y-75535523D01*
X163705714Y-75611714D01*
X163667619Y-75649809D01*
X163591428Y-75687904D01*
X163515238Y-75687904D01*
X163439047Y-75649809D01*
X163400952Y-75611714D01*
X163362857Y-75535523D01*
X163324761Y-75383142D01*
X163324761Y-75192666D01*
X163362857Y-75040285D01*
X163400952Y-74964095D01*
X163439047Y-74926000D01*
X163515238Y-74887904D01*
X164277142Y-74887904D02*
X164353333Y-74887904D01*
X164429523Y-74926000D01*
X164467619Y-74964095D01*
X164505714Y-75040285D01*
X164543809Y-75192666D01*
X164543809Y-75383142D01*
X164505714Y-75535523D01*
X164467619Y-75611714D01*
X164429523Y-75649809D01*
X164353333Y-75687904D01*
X164277142Y-75687904D01*
X164200952Y-75649809D01*
X164162857Y-75611714D01*
X164124761Y-75535523D01*
X164086666Y-75383142D01*
X164086666Y-75192666D01*
X164124761Y-75040285D01*
X164162857Y-74964095D01*
X164200952Y-74926000D01*
X164277142Y-74887904D01*
X164886666Y-75687904D02*
X164886666Y-74887904D01*
X164886666Y-75192666D02*
X164962857Y-75154571D01*
X165115238Y-75154571D01*
X165191428Y-75192666D01*
X165229523Y-75230761D01*
X165267619Y-75306952D01*
X165267619Y-75535523D01*
X165229523Y-75611714D01*
X165191428Y-75649809D01*
X165115238Y-75687904D01*
X164962857Y-75687904D01*
X164886666Y-75649809D01*
X165610476Y-75154571D02*
X165610476Y-75954571D01*
X165610476Y-75192666D02*
X165686666Y-75154571D01*
X165839047Y-75154571D01*
X165915238Y-75192666D01*
X165953333Y-75230761D01*
X165991428Y-75306952D01*
X165991428Y-75535523D01*
X165953333Y-75611714D01*
X165915238Y-75649809D01*
X165839047Y-75687904D01*
X165686666Y-75687904D01*
X165610476Y-75649809D01*
X166296190Y-75649809D02*
X166372380Y-75687904D01*
X166524761Y-75687904D01*
X166600952Y-75649809D01*
X166639047Y-75573619D01*
X166639047Y-75535523D01*
X166600952Y-75459333D01*
X166524761Y-75421238D01*
X166410476Y-75421238D01*
X166334285Y-75383142D01*
X166296190Y-75306952D01*
X166296190Y-75268857D01*
X166334285Y-75192666D01*
X166410476Y-75154571D01*
X166524761Y-75154571D01*
X166600952Y-75192666D01*
X139877142Y-75687904D02*
X140029523Y-75687904D01*
X140105714Y-75649809D01*
X140143809Y-75611714D01*
X140220000Y-75497428D01*
X140258095Y-75345047D01*
X140258095Y-75040285D01*
X140220000Y-74964095D01*
X140181904Y-74926000D01*
X140105714Y-74887904D01*
X139953333Y-74887904D01*
X139877142Y-74926000D01*
X139839047Y-74964095D01*
X139800952Y-75040285D01*
X139800952Y-75230761D01*
X139839047Y-75306952D01*
X139877142Y-75345047D01*
X139953333Y-75383142D01*
X140105714Y-75383142D01*
X140181904Y-75345047D01*
X140220000Y-75306952D01*
X140258095Y-75230761D01*
X140943809Y-74887904D02*
X140791428Y-74887904D01*
X140715238Y-74926000D01*
X140677142Y-74964095D01*
X140600952Y-75078380D01*
X140562857Y-75230761D01*
X140562857Y-75535523D01*
X140600952Y-75611714D01*
X140639047Y-75649809D01*
X140715238Y-75687904D01*
X140867619Y-75687904D01*
X140943809Y-75649809D01*
X140981904Y-75611714D01*
X141020000Y-75535523D01*
X141020000Y-75345047D01*
X140981904Y-75268857D01*
X140943809Y-75230761D01*
X140867619Y-75192666D01*
X140715238Y-75192666D01*
X140639047Y-75230761D01*
X140600952Y-75268857D01*
X140562857Y-75345047D01*
X141515238Y-74887904D02*
X141591428Y-74887904D01*
X141667619Y-74926000D01*
X141705714Y-74964095D01*
X141743809Y-75040285D01*
X141781904Y-75192666D01*
X141781904Y-75383142D01*
X141743809Y-75535523D01*
X141705714Y-75611714D01*
X141667619Y-75649809D01*
X141591428Y-75687904D01*
X141515238Y-75687904D01*
X141439047Y-75649809D01*
X141400952Y-75611714D01*
X141362857Y-75535523D01*
X141324761Y-75383142D01*
X141324761Y-75192666D01*
X141362857Y-75040285D01*
X141400952Y-74964095D01*
X141439047Y-74926000D01*
X141515238Y-74887904D01*
X142277142Y-74887904D02*
X142353333Y-74887904D01*
X142429523Y-74926000D01*
X142467619Y-74964095D01*
X142505714Y-75040285D01*
X142543809Y-75192666D01*
X142543809Y-75383142D01*
X142505714Y-75535523D01*
X142467619Y-75611714D01*
X142429523Y-75649809D01*
X142353333Y-75687904D01*
X142277142Y-75687904D01*
X142200952Y-75649809D01*
X142162857Y-75611714D01*
X142124761Y-75535523D01*
X142086666Y-75383142D01*
X142086666Y-75192666D01*
X142124761Y-75040285D01*
X142162857Y-74964095D01*
X142200952Y-74926000D01*
X142277142Y-74887904D01*
X142886666Y-75687904D02*
X142886666Y-74887904D01*
X142886666Y-75192666D02*
X142962857Y-75154571D01*
X143115238Y-75154571D01*
X143191428Y-75192666D01*
X143229523Y-75230761D01*
X143267619Y-75306952D01*
X143267619Y-75535523D01*
X143229523Y-75611714D01*
X143191428Y-75649809D01*
X143115238Y-75687904D01*
X142962857Y-75687904D01*
X142886666Y-75649809D01*
X143610476Y-75154571D02*
X143610476Y-75954571D01*
X143610476Y-75192666D02*
X143686666Y-75154571D01*
X143839047Y-75154571D01*
X143915238Y-75192666D01*
X143953333Y-75230761D01*
X143991428Y-75306952D01*
X143991428Y-75535523D01*
X143953333Y-75611714D01*
X143915238Y-75649809D01*
X143839047Y-75687904D01*
X143686666Y-75687904D01*
X143610476Y-75649809D01*
X144296190Y-75649809D02*
X144372380Y-75687904D01*
X144524761Y-75687904D01*
X144600952Y-75649809D01*
X144639047Y-75573619D01*
X144639047Y-75535523D01*
X144600952Y-75459333D01*
X144524761Y-75421238D01*
X144410476Y-75421238D01*
X144334285Y-75383142D01*
X144296190Y-75306952D01*
X144296190Y-75268857D01*
X144334285Y-75192666D01*
X144410476Y-75154571D01*
X144524761Y-75154571D01*
X144600952Y-75192666D01*
X183762190Y-127561904D02*
X183305047Y-127561904D01*
X183533619Y-127561904D02*
X183533619Y-126761904D01*
X183457428Y-126876190D01*
X183381238Y-126952380D01*
X183305047Y-126990476D01*
X184524095Y-127561904D02*
X184066952Y-127561904D01*
X184295523Y-127561904D02*
X184295523Y-126761904D01*
X184219333Y-126876190D01*
X184143142Y-126952380D01*
X184066952Y-126990476D01*
X185247904Y-126761904D02*
X184866952Y-126761904D01*
X184828857Y-127142857D01*
X184866952Y-127104761D01*
X184943142Y-127066666D01*
X185133619Y-127066666D01*
X185209809Y-127104761D01*
X185247904Y-127142857D01*
X185286000Y-127219047D01*
X185286000Y-127409523D01*
X185247904Y-127485714D01*
X185209809Y-127523809D01*
X185133619Y-127561904D01*
X184943142Y-127561904D01*
X184866952Y-127523809D01*
X184828857Y-127485714D01*
X185590761Y-126838095D02*
X185628857Y-126800000D01*
X185705047Y-126761904D01*
X185895523Y-126761904D01*
X185971714Y-126800000D01*
X186009809Y-126838095D01*
X186047904Y-126914285D01*
X186047904Y-126990476D01*
X186009809Y-127104761D01*
X185552666Y-127561904D01*
X186047904Y-127561904D01*
X186543142Y-126761904D02*
X186619333Y-126761904D01*
X186695523Y-126800000D01*
X186733619Y-126838095D01*
X186771714Y-126914285D01*
X186809809Y-127066666D01*
X186809809Y-127257142D01*
X186771714Y-127409523D01*
X186733619Y-127485714D01*
X186695523Y-127523809D01*
X186619333Y-127561904D01*
X186543142Y-127561904D01*
X186466952Y-127523809D01*
X186428857Y-127485714D01*
X186390761Y-127409523D01*
X186352666Y-127257142D01*
X186352666Y-127066666D01*
X186390761Y-126914285D01*
X186428857Y-126838095D01*
X186466952Y-126800000D01*
X186543142Y-126761904D01*
X187305047Y-126761904D02*
X187381238Y-126761904D01*
X187457428Y-126800000D01*
X187495523Y-126838095D01*
X187533619Y-126914285D01*
X187571714Y-127066666D01*
X187571714Y-127257142D01*
X187533619Y-127409523D01*
X187495523Y-127485714D01*
X187457428Y-127523809D01*
X187381238Y-127561904D01*
X187305047Y-127561904D01*
X187228857Y-127523809D01*
X187190761Y-127485714D01*
X187152666Y-127409523D01*
X187114571Y-127257142D01*
X187114571Y-127066666D01*
X187152666Y-126914285D01*
X187190761Y-126838095D01*
X187228857Y-126800000D01*
X187305047Y-126761904D01*
X187914571Y-127561904D02*
X187914571Y-126761904D01*
X187914571Y-127066666D02*
X187990761Y-127028571D01*
X188143142Y-127028571D01*
X188219333Y-127066666D01*
X188257428Y-127104761D01*
X188295523Y-127180952D01*
X188295523Y-127409523D01*
X188257428Y-127485714D01*
X188219333Y-127523809D01*
X188143142Y-127561904D01*
X187990761Y-127561904D01*
X187914571Y-127523809D01*
X188638380Y-127028571D02*
X188638380Y-127828571D01*
X188638380Y-127066666D02*
X188714571Y-127028571D01*
X188866952Y-127028571D01*
X188943142Y-127066666D01*
X188981238Y-127104761D01*
X189019333Y-127180952D01*
X189019333Y-127409523D01*
X188981238Y-127485714D01*
X188943142Y-127523809D01*
X188866952Y-127561904D01*
X188714571Y-127561904D01*
X188638380Y-127523809D01*
X189324095Y-127523809D02*
X189400285Y-127561904D01*
X189552666Y-127561904D01*
X189628857Y-127523809D01*
X189666952Y-127447619D01*
X189666952Y-127409523D01*
X189628857Y-127333333D01*
X189552666Y-127295238D01*
X189438380Y-127295238D01*
X189362190Y-127257142D01*
X189324095Y-127180952D01*
X189324095Y-127142857D01*
X189362190Y-127066666D01*
X189438380Y-127028571D01*
X189552666Y-127028571D01*
X189628857Y-127066666D01*
X161762190Y-127561904D02*
X161305047Y-127561904D01*
X161533619Y-127561904D02*
X161533619Y-126761904D01*
X161457428Y-126876190D01*
X161381238Y-126952380D01*
X161305047Y-126990476D01*
X162524095Y-127561904D02*
X162066952Y-127561904D01*
X162295523Y-127561904D02*
X162295523Y-126761904D01*
X162219333Y-126876190D01*
X162143142Y-126952380D01*
X162066952Y-126990476D01*
X163247904Y-126761904D02*
X162866952Y-126761904D01*
X162828857Y-127142857D01*
X162866952Y-127104761D01*
X162943142Y-127066666D01*
X163133619Y-127066666D01*
X163209809Y-127104761D01*
X163247904Y-127142857D01*
X163286000Y-127219047D01*
X163286000Y-127409523D01*
X163247904Y-127485714D01*
X163209809Y-127523809D01*
X163133619Y-127561904D01*
X162943142Y-127561904D01*
X162866952Y-127523809D01*
X162828857Y-127485714D01*
X163590761Y-126838095D02*
X163628857Y-126800000D01*
X163705047Y-126761904D01*
X163895523Y-126761904D01*
X163971714Y-126800000D01*
X164009809Y-126838095D01*
X164047904Y-126914285D01*
X164047904Y-126990476D01*
X164009809Y-127104761D01*
X163552666Y-127561904D01*
X164047904Y-127561904D01*
X164543142Y-126761904D02*
X164619333Y-126761904D01*
X164695523Y-126800000D01*
X164733619Y-126838095D01*
X164771714Y-126914285D01*
X164809809Y-127066666D01*
X164809809Y-127257142D01*
X164771714Y-127409523D01*
X164733619Y-127485714D01*
X164695523Y-127523809D01*
X164619333Y-127561904D01*
X164543142Y-127561904D01*
X164466952Y-127523809D01*
X164428857Y-127485714D01*
X164390761Y-127409523D01*
X164352666Y-127257142D01*
X164352666Y-127066666D01*
X164390761Y-126914285D01*
X164428857Y-126838095D01*
X164466952Y-126800000D01*
X164543142Y-126761904D01*
X165305047Y-126761904D02*
X165381238Y-126761904D01*
X165457428Y-126800000D01*
X165495523Y-126838095D01*
X165533619Y-126914285D01*
X165571714Y-127066666D01*
X165571714Y-127257142D01*
X165533619Y-127409523D01*
X165495523Y-127485714D01*
X165457428Y-127523809D01*
X165381238Y-127561904D01*
X165305047Y-127561904D01*
X165228857Y-127523809D01*
X165190761Y-127485714D01*
X165152666Y-127409523D01*
X165114571Y-127257142D01*
X165114571Y-127066666D01*
X165152666Y-126914285D01*
X165190761Y-126838095D01*
X165228857Y-126800000D01*
X165305047Y-126761904D01*
X165914571Y-127561904D02*
X165914571Y-126761904D01*
X165914571Y-127066666D02*
X165990761Y-127028571D01*
X166143142Y-127028571D01*
X166219333Y-127066666D01*
X166257428Y-127104761D01*
X166295523Y-127180952D01*
X166295523Y-127409523D01*
X166257428Y-127485714D01*
X166219333Y-127523809D01*
X166143142Y-127561904D01*
X165990761Y-127561904D01*
X165914571Y-127523809D01*
X166638380Y-127028571D02*
X166638380Y-127828571D01*
X166638380Y-127066666D02*
X166714571Y-127028571D01*
X166866952Y-127028571D01*
X166943142Y-127066666D01*
X166981238Y-127104761D01*
X167019333Y-127180952D01*
X167019333Y-127409523D01*
X166981238Y-127485714D01*
X166943142Y-127523809D01*
X166866952Y-127561904D01*
X166714571Y-127561904D01*
X166638380Y-127523809D01*
X167324095Y-127523809D02*
X167400285Y-127561904D01*
X167552666Y-127561904D01*
X167628857Y-127523809D01*
X167666952Y-127447619D01*
X167666952Y-127409523D01*
X167628857Y-127333333D01*
X167552666Y-127295238D01*
X167438380Y-127295238D01*
X167362190Y-127257142D01*
X167324095Y-127180952D01*
X167324095Y-127142857D01*
X167362190Y-127066666D01*
X167438380Y-127028571D01*
X167552666Y-127028571D01*
X167628857Y-127066666D01*
X139762190Y-127561904D02*
X139305047Y-127561904D01*
X139533619Y-127561904D02*
X139533619Y-126761904D01*
X139457428Y-126876190D01*
X139381238Y-126952380D01*
X139305047Y-126990476D01*
X140524095Y-127561904D02*
X140066952Y-127561904D01*
X140295523Y-127561904D02*
X140295523Y-126761904D01*
X140219333Y-126876190D01*
X140143142Y-126952380D01*
X140066952Y-126990476D01*
X141247904Y-126761904D02*
X140866952Y-126761904D01*
X140828857Y-127142857D01*
X140866952Y-127104761D01*
X140943142Y-127066666D01*
X141133619Y-127066666D01*
X141209809Y-127104761D01*
X141247904Y-127142857D01*
X141286000Y-127219047D01*
X141286000Y-127409523D01*
X141247904Y-127485714D01*
X141209809Y-127523809D01*
X141133619Y-127561904D01*
X140943142Y-127561904D01*
X140866952Y-127523809D01*
X140828857Y-127485714D01*
X141590761Y-126838095D02*
X141628857Y-126800000D01*
X141705047Y-126761904D01*
X141895523Y-126761904D01*
X141971714Y-126800000D01*
X142009809Y-126838095D01*
X142047904Y-126914285D01*
X142047904Y-126990476D01*
X142009809Y-127104761D01*
X141552666Y-127561904D01*
X142047904Y-127561904D01*
X142543142Y-126761904D02*
X142619333Y-126761904D01*
X142695523Y-126800000D01*
X142733619Y-126838095D01*
X142771714Y-126914285D01*
X142809809Y-127066666D01*
X142809809Y-127257142D01*
X142771714Y-127409523D01*
X142733619Y-127485714D01*
X142695523Y-127523809D01*
X142619333Y-127561904D01*
X142543142Y-127561904D01*
X142466952Y-127523809D01*
X142428857Y-127485714D01*
X142390761Y-127409523D01*
X142352666Y-127257142D01*
X142352666Y-127066666D01*
X142390761Y-126914285D01*
X142428857Y-126838095D01*
X142466952Y-126800000D01*
X142543142Y-126761904D01*
X143305047Y-126761904D02*
X143381238Y-126761904D01*
X143457428Y-126800000D01*
X143495523Y-126838095D01*
X143533619Y-126914285D01*
X143571714Y-127066666D01*
X143571714Y-127257142D01*
X143533619Y-127409523D01*
X143495523Y-127485714D01*
X143457428Y-127523809D01*
X143381238Y-127561904D01*
X143305047Y-127561904D01*
X143228857Y-127523809D01*
X143190761Y-127485714D01*
X143152666Y-127409523D01*
X143114571Y-127257142D01*
X143114571Y-127066666D01*
X143152666Y-126914285D01*
X143190761Y-126838095D01*
X143228857Y-126800000D01*
X143305047Y-126761904D01*
X143914571Y-127561904D02*
X143914571Y-126761904D01*
X143914571Y-127066666D02*
X143990761Y-127028571D01*
X144143142Y-127028571D01*
X144219333Y-127066666D01*
X144257428Y-127104761D01*
X144295523Y-127180952D01*
X144295523Y-127409523D01*
X144257428Y-127485714D01*
X144219333Y-127523809D01*
X144143142Y-127561904D01*
X143990761Y-127561904D01*
X143914571Y-127523809D01*
X144638380Y-127028571D02*
X144638380Y-127828571D01*
X144638380Y-127066666D02*
X144714571Y-127028571D01*
X144866952Y-127028571D01*
X144943142Y-127066666D01*
X144981238Y-127104761D01*
X145019333Y-127180952D01*
X145019333Y-127409523D01*
X144981238Y-127485714D01*
X144943142Y-127523809D01*
X144866952Y-127561904D01*
X144714571Y-127561904D01*
X144638380Y-127523809D01*
X145324095Y-127523809D02*
X145400285Y-127561904D01*
X145552666Y-127561904D01*
X145628857Y-127523809D01*
X145666952Y-127447619D01*
X145666952Y-127409523D01*
X145628857Y-127333333D01*
X145552666Y-127295238D01*
X145438380Y-127295238D01*
X145362190Y-127257142D01*
X145324095Y-127180952D01*
X145324095Y-127142857D01*
X145362190Y-127066666D01*
X145438380Y-127028571D01*
X145552666Y-127028571D01*
X145628857Y-127066666D01*
X117762190Y-127561904D02*
X117305047Y-127561904D01*
X117533619Y-127561904D02*
X117533619Y-126761904D01*
X117457428Y-126876190D01*
X117381238Y-126952380D01*
X117305047Y-126990476D01*
X118524095Y-127561904D02*
X118066952Y-127561904D01*
X118295523Y-127561904D02*
X118295523Y-126761904D01*
X118219333Y-126876190D01*
X118143142Y-126952380D01*
X118066952Y-126990476D01*
X119247904Y-126761904D02*
X118866952Y-126761904D01*
X118828857Y-127142857D01*
X118866952Y-127104761D01*
X118943142Y-127066666D01*
X119133619Y-127066666D01*
X119209809Y-127104761D01*
X119247904Y-127142857D01*
X119286000Y-127219047D01*
X119286000Y-127409523D01*
X119247904Y-127485714D01*
X119209809Y-127523809D01*
X119133619Y-127561904D01*
X118943142Y-127561904D01*
X118866952Y-127523809D01*
X118828857Y-127485714D01*
X119590761Y-126838095D02*
X119628857Y-126800000D01*
X119705047Y-126761904D01*
X119895523Y-126761904D01*
X119971714Y-126800000D01*
X120009809Y-126838095D01*
X120047904Y-126914285D01*
X120047904Y-126990476D01*
X120009809Y-127104761D01*
X119552666Y-127561904D01*
X120047904Y-127561904D01*
X120543142Y-126761904D02*
X120619333Y-126761904D01*
X120695523Y-126800000D01*
X120733619Y-126838095D01*
X120771714Y-126914285D01*
X120809809Y-127066666D01*
X120809809Y-127257142D01*
X120771714Y-127409523D01*
X120733619Y-127485714D01*
X120695523Y-127523809D01*
X120619333Y-127561904D01*
X120543142Y-127561904D01*
X120466952Y-127523809D01*
X120428857Y-127485714D01*
X120390761Y-127409523D01*
X120352666Y-127257142D01*
X120352666Y-127066666D01*
X120390761Y-126914285D01*
X120428857Y-126838095D01*
X120466952Y-126800000D01*
X120543142Y-126761904D01*
X121305047Y-126761904D02*
X121381238Y-126761904D01*
X121457428Y-126800000D01*
X121495523Y-126838095D01*
X121533619Y-126914285D01*
X121571714Y-127066666D01*
X121571714Y-127257142D01*
X121533619Y-127409523D01*
X121495523Y-127485714D01*
X121457428Y-127523809D01*
X121381238Y-127561904D01*
X121305047Y-127561904D01*
X121228857Y-127523809D01*
X121190761Y-127485714D01*
X121152666Y-127409523D01*
X121114571Y-127257142D01*
X121114571Y-127066666D01*
X121152666Y-126914285D01*
X121190761Y-126838095D01*
X121228857Y-126800000D01*
X121305047Y-126761904D01*
X121914571Y-127561904D02*
X121914571Y-126761904D01*
X121914571Y-127066666D02*
X121990761Y-127028571D01*
X122143142Y-127028571D01*
X122219333Y-127066666D01*
X122257428Y-127104761D01*
X122295523Y-127180952D01*
X122295523Y-127409523D01*
X122257428Y-127485714D01*
X122219333Y-127523809D01*
X122143142Y-127561904D01*
X121990761Y-127561904D01*
X121914571Y-127523809D01*
X122638380Y-127028571D02*
X122638380Y-127828571D01*
X122638380Y-127066666D02*
X122714571Y-127028571D01*
X122866952Y-127028571D01*
X122943142Y-127066666D01*
X122981238Y-127104761D01*
X123019333Y-127180952D01*
X123019333Y-127409523D01*
X122981238Y-127485714D01*
X122943142Y-127523809D01*
X122866952Y-127561904D01*
X122714571Y-127561904D01*
X122638380Y-127523809D01*
X123324095Y-127523809D02*
X123400285Y-127561904D01*
X123552666Y-127561904D01*
X123628857Y-127523809D01*
X123666952Y-127447619D01*
X123666952Y-127409523D01*
X123628857Y-127333333D01*
X123552666Y-127295238D01*
X123438380Y-127295238D01*
X123362190Y-127257142D01*
X123324095Y-127180952D01*
X123324095Y-127142857D01*
X123362190Y-127066666D01*
X123438380Y-127028571D01*
X123552666Y-127028571D01*
X123628857Y-127066666D01*
X183762190Y-83561904D02*
X183305047Y-83561904D01*
X183533619Y-83561904D02*
X183533619Y-82761904D01*
X183457428Y-82876190D01*
X183381238Y-82952380D01*
X183305047Y-82990476D01*
X184524095Y-83561904D02*
X184066952Y-83561904D01*
X184295523Y-83561904D02*
X184295523Y-82761904D01*
X184219333Y-82876190D01*
X184143142Y-82952380D01*
X184066952Y-82990476D01*
X185247904Y-82761904D02*
X184866952Y-82761904D01*
X184828857Y-83142857D01*
X184866952Y-83104761D01*
X184943142Y-83066666D01*
X185133619Y-83066666D01*
X185209809Y-83104761D01*
X185247904Y-83142857D01*
X185286000Y-83219047D01*
X185286000Y-83409523D01*
X185247904Y-83485714D01*
X185209809Y-83523809D01*
X185133619Y-83561904D01*
X184943142Y-83561904D01*
X184866952Y-83523809D01*
X184828857Y-83485714D01*
X185590761Y-82838095D02*
X185628857Y-82800000D01*
X185705047Y-82761904D01*
X185895523Y-82761904D01*
X185971714Y-82800000D01*
X186009809Y-82838095D01*
X186047904Y-82914285D01*
X186047904Y-82990476D01*
X186009809Y-83104761D01*
X185552666Y-83561904D01*
X186047904Y-83561904D01*
X186543142Y-82761904D02*
X186619333Y-82761904D01*
X186695523Y-82800000D01*
X186733619Y-82838095D01*
X186771714Y-82914285D01*
X186809809Y-83066666D01*
X186809809Y-83257142D01*
X186771714Y-83409523D01*
X186733619Y-83485714D01*
X186695523Y-83523809D01*
X186619333Y-83561904D01*
X186543142Y-83561904D01*
X186466952Y-83523809D01*
X186428857Y-83485714D01*
X186390761Y-83409523D01*
X186352666Y-83257142D01*
X186352666Y-83066666D01*
X186390761Y-82914285D01*
X186428857Y-82838095D01*
X186466952Y-82800000D01*
X186543142Y-82761904D01*
X187305047Y-82761904D02*
X187381238Y-82761904D01*
X187457428Y-82800000D01*
X187495523Y-82838095D01*
X187533619Y-82914285D01*
X187571714Y-83066666D01*
X187571714Y-83257142D01*
X187533619Y-83409523D01*
X187495523Y-83485714D01*
X187457428Y-83523809D01*
X187381238Y-83561904D01*
X187305047Y-83561904D01*
X187228857Y-83523809D01*
X187190761Y-83485714D01*
X187152666Y-83409523D01*
X187114571Y-83257142D01*
X187114571Y-83066666D01*
X187152666Y-82914285D01*
X187190761Y-82838095D01*
X187228857Y-82800000D01*
X187305047Y-82761904D01*
X187914571Y-83561904D02*
X187914571Y-82761904D01*
X187914571Y-83066666D02*
X187990761Y-83028571D01*
X188143142Y-83028571D01*
X188219333Y-83066666D01*
X188257428Y-83104761D01*
X188295523Y-83180952D01*
X188295523Y-83409523D01*
X188257428Y-83485714D01*
X188219333Y-83523809D01*
X188143142Y-83561904D01*
X187990761Y-83561904D01*
X187914571Y-83523809D01*
X188638380Y-83028571D02*
X188638380Y-83828571D01*
X188638380Y-83066666D02*
X188714571Y-83028571D01*
X188866952Y-83028571D01*
X188943142Y-83066666D01*
X188981238Y-83104761D01*
X189019333Y-83180952D01*
X189019333Y-83409523D01*
X188981238Y-83485714D01*
X188943142Y-83523809D01*
X188866952Y-83561904D01*
X188714571Y-83561904D01*
X188638380Y-83523809D01*
X189324095Y-83523809D02*
X189400285Y-83561904D01*
X189552666Y-83561904D01*
X189628857Y-83523809D01*
X189666952Y-83447619D01*
X189666952Y-83409523D01*
X189628857Y-83333333D01*
X189552666Y-83295238D01*
X189438380Y-83295238D01*
X189362190Y-83257142D01*
X189324095Y-83180952D01*
X189324095Y-83142857D01*
X189362190Y-83066666D01*
X189438380Y-83028571D01*
X189552666Y-83028571D01*
X189628857Y-83066666D01*
X161762190Y-83561904D02*
X161305047Y-83561904D01*
X161533619Y-83561904D02*
X161533619Y-82761904D01*
X161457428Y-82876190D01*
X161381238Y-82952380D01*
X161305047Y-82990476D01*
X162524095Y-83561904D02*
X162066952Y-83561904D01*
X162295523Y-83561904D02*
X162295523Y-82761904D01*
X162219333Y-82876190D01*
X162143142Y-82952380D01*
X162066952Y-82990476D01*
X163247904Y-82761904D02*
X162866952Y-82761904D01*
X162828857Y-83142857D01*
X162866952Y-83104761D01*
X162943142Y-83066666D01*
X163133619Y-83066666D01*
X163209809Y-83104761D01*
X163247904Y-83142857D01*
X163286000Y-83219047D01*
X163286000Y-83409523D01*
X163247904Y-83485714D01*
X163209809Y-83523809D01*
X163133619Y-83561904D01*
X162943142Y-83561904D01*
X162866952Y-83523809D01*
X162828857Y-83485714D01*
X163590761Y-82838095D02*
X163628857Y-82800000D01*
X163705047Y-82761904D01*
X163895523Y-82761904D01*
X163971714Y-82800000D01*
X164009809Y-82838095D01*
X164047904Y-82914285D01*
X164047904Y-82990476D01*
X164009809Y-83104761D01*
X163552666Y-83561904D01*
X164047904Y-83561904D01*
X164543142Y-82761904D02*
X164619333Y-82761904D01*
X164695523Y-82800000D01*
X164733619Y-82838095D01*
X164771714Y-82914285D01*
X164809809Y-83066666D01*
X164809809Y-83257142D01*
X164771714Y-83409523D01*
X164733619Y-83485714D01*
X164695523Y-83523809D01*
X164619333Y-83561904D01*
X164543142Y-83561904D01*
X164466952Y-83523809D01*
X164428857Y-83485714D01*
X164390761Y-83409523D01*
X164352666Y-83257142D01*
X164352666Y-83066666D01*
X164390761Y-82914285D01*
X164428857Y-82838095D01*
X164466952Y-82800000D01*
X164543142Y-82761904D01*
X165305047Y-82761904D02*
X165381238Y-82761904D01*
X165457428Y-82800000D01*
X165495523Y-82838095D01*
X165533619Y-82914285D01*
X165571714Y-83066666D01*
X165571714Y-83257142D01*
X165533619Y-83409523D01*
X165495523Y-83485714D01*
X165457428Y-83523809D01*
X165381238Y-83561904D01*
X165305047Y-83561904D01*
X165228857Y-83523809D01*
X165190761Y-83485714D01*
X165152666Y-83409523D01*
X165114571Y-83257142D01*
X165114571Y-83066666D01*
X165152666Y-82914285D01*
X165190761Y-82838095D01*
X165228857Y-82800000D01*
X165305047Y-82761904D01*
X165914571Y-83561904D02*
X165914571Y-82761904D01*
X165914571Y-83066666D02*
X165990761Y-83028571D01*
X166143142Y-83028571D01*
X166219333Y-83066666D01*
X166257428Y-83104761D01*
X166295523Y-83180952D01*
X166295523Y-83409523D01*
X166257428Y-83485714D01*
X166219333Y-83523809D01*
X166143142Y-83561904D01*
X165990761Y-83561904D01*
X165914571Y-83523809D01*
X166638380Y-83028571D02*
X166638380Y-83828571D01*
X166638380Y-83066666D02*
X166714571Y-83028571D01*
X166866952Y-83028571D01*
X166943142Y-83066666D01*
X166981238Y-83104761D01*
X167019333Y-83180952D01*
X167019333Y-83409523D01*
X166981238Y-83485714D01*
X166943142Y-83523809D01*
X166866952Y-83561904D01*
X166714571Y-83561904D01*
X166638380Y-83523809D01*
X167324095Y-83523809D02*
X167400285Y-83561904D01*
X167552666Y-83561904D01*
X167628857Y-83523809D01*
X167666952Y-83447619D01*
X167666952Y-83409523D01*
X167628857Y-83333333D01*
X167552666Y-83295238D01*
X167438380Y-83295238D01*
X167362190Y-83257142D01*
X167324095Y-83180952D01*
X167324095Y-83142857D01*
X167362190Y-83066666D01*
X167438380Y-83028571D01*
X167552666Y-83028571D01*
X167628857Y-83066666D01*
X139762190Y-83561904D02*
X139305047Y-83561904D01*
X139533619Y-83561904D02*
X139533619Y-82761904D01*
X139457428Y-82876190D01*
X139381238Y-82952380D01*
X139305047Y-82990476D01*
X140524095Y-83561904D02*
X140066952Y-83561904D01*
X140295523Y-83561904D02*
X140295523Y-82761904D01*
X140219333Y-82876190D01*
X140143142Y-82952380D01*
X140066952Y-82990476D01*
X141247904Y-82761904D02*
X140866952Y-82761904D01*
X140828857Y-83142857D01*
X140866952Y-83104761D01*
X140943142Y-83066666D01*
X141133619Y-83066666D01*
X141209809Y-83104761D01*
X141247904Y-83142857D01*
X141286000Y-83219047D01*
X141286000Y-83409523D01*
X141247904Y-83485714D01*
X141209809Y-83523809D01*
X141133619Y-83561904D01*
X140943142Y-83561904D01*
X140866952Y-83523809D01*
X140828857Y-83485714D01*
X141590761Y-82838095D02*
X141628857Y-82800000D01*
X141705047Y-82761904D01*
X141895523Y-82761904D01*
X141971714Y-82800000D01*
X142009809Y-82838095D01*
X142047904Y-82914285D01*
X142047904Y-82990476D01*
X142009809Y-83104761D01*
X141552666Y-83561904D01*
X142047904Y-83561904D01*
X142543142Y-82761904D02*
X142619333Y-82761904D01*
X142695523Y-82800000D01*
X142733619Y-82838095D01*
X142771714Y-82914285D01*
X142809809Y-83066666D01*
X142809809Y-83257142D01*
X142771714Y-83409523D01*
X142733619Y-83485714D01*
X142695523Y-83523809D01*
X142619333Y-83561904D01*
X142543142Y-83561904D01*
X142466952Y-83523809D01*
X142428857Y-83485714D01*
X142390761Y-83409523D01*
X142352666Y-83257142D01*
X142352666Y-83066666D01*
X142390761Y-82914285D01*
X142428857Y-82838095D01*
X142466952Y-82800000D01*
X142543142Y-82761904D01*
X143305047Y-82761904D02*
X143381238Y-82761904D01*
X143457428Y-82800000D01*
X143495523Y-82838095D01*
X143533619Y-82914285D01*
X143571714Y-83066666D01*
X143571714Y-83257142D01*
X143533619Y-83409523D01*
X143495523Y-83485714D01*
X143457428Y-83523809D01*
X143381238Y-83561904D01*
X143305047Y-83561904D01*
X143228857Y-83523809D01*
X143190761Y-83485714D01*
X143152666Y-83409523D01*
X143114571Y-83257142D01*
X143114571Y-83066666D01*
X143152666Y-82914285D01*
X143190761Y-82838095D01*
X143228857Y-82800000D01*
X143305047Y-82761904D01*
X143914571Y-83561904D02*
X143914571Y-82761904D01*
X143914571Y-83066666D02*
X143990761Y-83028571D01*
X144143142Y-83028571D01*
X144219333Y-83066666D01*
X144257428Y-83104761D01*
X144295523Y-83180952D01*
X144295523Y-83409523D01*
X144257428Y-83485714D01*
X144219333Y-83523809D01*
X144143142Y-83561904D01*
X143990761Y-83561904D01*
X143914571Y-83523809D01*
X144638380Y-83028571D02*
X144638380Y-83828571D01*
X144638380Y-83066666D02*
X144714571Y-83028571D01*
X144866952Y-83028571D01*
X144943142Y-83066666D01*
X144981238Y-83104761D01*
X145019333Y-83180952D01*
X145019333Y-83409523D01*
X144981238Y-83485714D01*
X144943142Y-83523809D01*
X144866952Y-83561904D01*
X144714571Y-83561904D01*
X144638380Y-83523809D01*
X145324095Y-83523809D02*
X145400285Y-83561904D01*
X145552666Y-83561904D01*
X145628857Y-83523809D01*
X145666952Y-83447619D01*
X145666952Y-83409523D01*
X145628857Y-83333333D01*
X145552666Y-83295238D01*
X145438380Y-83295238D01*
X145362190Y-83257142D01*
X145324095Y-83180952D01*
X145324095Y-83142857D01*
X145362190Y-83066666D01*
X145438380Y-83028571D01*
X145552666Y-83028571D01*
X145628857Y-83066666D01*
X169575904Y-132171904D02*
X169194952Y-132438571D01*
X169575904Y-132629047D02*
X168775904Y-132629047D01*
X168775904Y-132324285D01*
X168814000Y-132248095D01*
X168852095Y-132210000D01*
X168928285Y-132171904D01*
X169042571Y-132171904D01*
X169118761Y-132210000D01*
X169156857Y-132248095D01*
X169194952Y-132324285D01*
X169194952Y-132629047D01*
X169156857Y-131829047D02*
X169156857Y-131562380D01*
X169575904Y-131448095D02*
X169575904Y-131829047D01*
X168775904Y-131829047D01*
X168775904Y-131448095D01*
X169537809Y-131143333D02*
X169575904Y-131029047D01*
X169575904Y-130838571D01*
X169537809Y-130762380D01*
X169499714Y-130724285D01*
X169423523Y-130686190D01*
X169347333Y-130686190D01*
X169271142Y-130724285D01*
X169233047Y-130762380D01*
X169194952Y-130838571D01*
X169156857Y-130990952D01*
X169118761Y-131067142D01*
X169080666Y-131105238D01*
X169004476Y-131143333D01*
X168928285Y-131143333D01*
X168852095Y-131105238D01*
X168814000Y-131067142D01*
X168775904Y-130990952D01*
X168775904Y-130800476D01*
X168814000Y-130686190D01*
X169156857Y-130343333D02*
X169156857Y-130076666D01*
X169575904Y-129962380D02*
X169575904Y-130343333D01*
X168775904Y-130343333D01*
X168775904Y-129962380D01*
X168775904Y-129733809D02*
X168775904Y-129276666D01*
X169575904Y-129505238D02*
X168775904Y-129505238D01*
X147575904Y-132171904D02*
X147194952Y-132438571D01*
X147575904Y-132629047D02*
X146775904Y-132629047D01*
X146775904Y-132324285D01*
X146814000Y-132248095D01*
X146852095Y-132210000D01*
X146928285Y-132171904D01*
X147042571Y-132171904D01*
X147118761Y-132210000D01*
X147156857Y-132248095D01*
X147194952Y-132324285D01*
X147194952Y-132629047D01*
X147156857Y-131829047D02*
X147156857Y-131562380D01*
X147575904Y-131448095D02*
X147575904Y-131829047D01*
X146775904Y-131829047D01*
X146775904Y-131448095D01*
X147537809Y-131143333D02*
X147575904Y-131029047D01*
X147575904Y-130838571D01*
X147537809Y-130762380D01*
X147499714Y-130724285D01*
X147423523Y-130686190D01*
X147347333Y-130686190D01*
X147271142Y-130724285D01*
X147233047Y-130762380D01*
X147194952Y-130838571D01*
X147156857Y-130990952D01*
X147118761Y-131067142D01*
X147080666Y-131105238D01*
X147004476Y-131143333D01*
X146928285Y-131143333D01*
X146852095Y-131105238D01*
X146814000Y-131067142D01*
X146775904Y-130990952D01*
X146775904Y-130800476D01*
X146814000Y-130686190D01*
X147156857Y-130343333D02*
X147156857Y-130076666D01*
X147575904Y-129962380D02*
X147575904Y-130343333D01*
X146775904Y-130343333D01*
X146775904Y-129962380D01*
X146775904Y-129733809D02*
X146775904Y-129276666D01*
X147575904Y-129505238D02*
X146775904Y-129505238D01*
X125575904Y-132171904D02*
X125194952Y-132438571D01*
X125575904Y-132629047D02*
X124775904Y-132629047D01*
X124775904Y-132324285D01*
X124814000Y-132248095D01*
X124852095Y-132210000D01*
X124928285Y-132171904D01*
X125042571Y-132171904D01*
X125118761Y-132210000D01*
X125156857Y-132248095D01*
X125194952Y-132324285D01*
X125194952Y-132629047D01*
X125156857Y-131829047D02*
X125156857Y-131562380D01*
X125575904Y-131448095D02*
X125575904Y-131829047D01*
X124775904Y-131829047D01*
X124775904Y-131448095D01*
X125537809Y-131143333D02*
X125575904Y-131029047D01*
X125575904Y-130838571D01*
X125537809Y-130762380D01*
X125499714Y-130724285D01*
X125423523Y-130686190D01*
X125347333Y-130686190D01*
X125271142Y-130724285D01*
X125233047Y-130762380D01*
X125194952Y-130838571D01*
X125156857Y-130990952D01*
X125118761Y-131067142D01*
X125080666Y-131105238D01*
X125004476Y-131143333D01*
X124928285Y-131143333D01*
X124852095Y-131105238D01*
X124814000Y-131067142D01*
X124775904Y-130990952D01*
X124775904Y-130800476D01*
X124814000Y-130686190D01*
X125156857Y-130343333D02*
X125156857Y-130076666D01*
X125575904Y-129962380D02*
X125575904Y-130343333D01*
X124775904Y-130343333D01*
X124775904Y-129962380D01*
X124775904Y-129733809D02*
X124775904Y-129276666D01*
X125575904Y-129505238D02*
X124775904Y-129505238D01*
X103575904Y-132171904D02*
X103194952Y-132438571D01*
X103575904Y-132629047D02*
X102775904Y-132629047D01*
X102775904Y-132324285D01*
X102814000Y-132248095D01*
X102852095Y-132210000D01*
X102928285Y-132171904D01*
X103042571Y-132171904D01*
X103118761Y-132210000D01*
X103156857Y-132248095D01*
X103194952Y-132324285D01*
X103194952Y-132629047D01*
X103156857Y-131829047D02*
X103156857Y-131562380D01*
X103575904Y-131448095D02*
X103575904Y-131829047D01*
X102775904Y-131829047D01*
X102775904Y-131448095D01*
X103537809Y-131143333D02*
X103575904Y-131029047D01*
X103575904Y-130838571D01*
X103537809Y-130762380D01*
X103499714Y-130724285D01*
X103423523Y-130686190D01*
X103347333Y-130686190D01*
X103271142Y-130724285D01*
X103233047Y-130762380D01*
X103194952Y-130838571D01*
X103156857Y-130990952D01*
X103118761Y-131067142D01*
X103080666Y-131105238D01*
X103004476Y-131143333D01*
X102928285Y-131143333D01*
X102852095Y-131105238D01*
X102814000Y-131067142D01*
X102775904Y-130990952D01*
X102775904Y-130800476D01*
X102814000Y-130686190D01*
X103156857Y-130343333D02*
X103156857Y-130076666D01*
X103575904Y-129962380D02*
X103575904Y-130343333D01*
X102775904Y-130343333D01*
X102775904Y-129962380D01*
X102775904Y-129733809D02*
X102775904Y-129276666D01*
X103575904Y-129505238D02*
X102775904Y-129505238D01*
X169575904Y-88171904D02*
X169194952Y-88438571D01*
X169575904Y-88629047D02*
X168775904Y-88629047D01*
X168775904Y-88324285D01*
X168814000Y-88248095D01*
X168852095Y-88210000D01*
X168928285Y-88171904D01*
X169042571Y-88171904D01*
X169118761Y-88210000D01*
X169156857Y-88248095D01*
X169194952Y-88324285D01*
X169194952Y-88629047D01*
X169156857Y-87829047D02*
X169156857Y-87562380D01*
X169575904Y-87448095D02*
X169575904Y-87829047D01*
X168775904Y-87829047D01*
X168775904Y-87448095D01*
X169537809Y-87143333D02*
X169575904Y-87029047D01*
X169575904Y-86838571D01*
X169537809Y-86762380D01*
X169499714Y-86724285D01*
X169423523Y-86686190D01*
X169347333Y-86686190D01*
X169271142Y-86724285D01*
X169233047Y-86762380D01*
X169194952Y-86838571D01*
X169156857Y-86990952D01*
X169118761Y-87067142D01*
X169080666Y-87105238D01*
X169004476Y-87143333D01*
X168928285Y-87143333D01*
X168852095Y-87105238D01*
X168814000Y-87067142D01*
X168775904Y-86990952D01*
X168775904Y-86800476D01*
X168814000Y-86686190D01*
X169156857Y-86343333D02*
X169156857Y-86076666D01*
X169575904Y-85962380D02*
X169575904Y-86343333D01*
X168775904Y-86343333D01*
X168775904Y-85962380D01*
X168775904Y-85733809D02*
X168775904Y-85276666D01*
X169575904Y-85505238D02*
X168775904Y-85505238D01*
X147575904Y-88171904D02*
X147194952Y-88438571D01*
X147575904Y-88629047D02*
X146775904Y-88629047D01*
X146775904Y-88324285D01*
X146814000Y-88248095D01*
X146852095Y-88210000D01*
X146928285Y-88171904D01*
X147042571Y-88171904D01*
X147118761Y-88210000D01*
X147156857Y-88248095D01*
X147194952Y-88324285D01*
X147194952Y-88629047D01*
X147156857Y-87829047D02*
X147156857Y-87562380D01*
X147575904Y-87448095D02*
X147575904Y-87829047D01*
X146775904Y-87829047D01*
X146775904Y-87448095D01*
X147537809Y-87143333D02*
X147575904Y-87029047D01*
X147575904Y-86838571D01*
X147537809Y-86762380D01*
X147499714Y-86724285D01*
X147423523Y-86686190D01*
X147347333Y-86686190D01*
X147271142Y-86724285D01*
X147233047Y-86762380D01*
X147194952Y-86838571D01*
X147156857Y-86990952D01*
X147118761Y-87067142D01*
X147080666Y-87105238D01*
X147004476Y-87143333D01*
X146928285Y-87143333D01*
X146852095Y-87105238D01*
X146814000Y-87067142D01*
X146775904Y-86990952D01*
X146775904Y-86800476D01*
X146814000Y-86686190D01*
X147156857Y-86343333D02*
X147156857Y-86076666D01*
X147575904Y-85962380D02*
X147575904Y-86343333D01*
X146775904Y-86343333D01*
X146775904Y-85962380D01*
X146775904Y-85733809D02*
X146775904Y-85276666D01*
X147575904Y-85505238D02*
X146775904Y-85505238D01*
X125575904Y-88171904D02*
X125194952Y-88438571D01*
X125575904Y-88629047D02*
X124775904Y-88629047D01*
X124775904Y-88324285D01*
X124814000Y-88248095D01*
X124852095Y-88210000D01*
X124928285Y-88171904D01*
X125042571Y-88171904D01*
X125118761Y-88210000D01*
X125156857Y-88248095D01*
X125194952Y-88324285D01*
X125194952Y-88629047D01*
X125156857Y-87829047D02*
X125156857Y-87562380D01*
X125575904Y-87448095D02*
X125575904Y-87829047D01*
X124775904Y-87829047D01*
X124775904Y-87448095D01*
X125537809Y-87143333D02*
X125575904Y-87029047D01*
X125575904Y-86838571D01*
X125537809Y-86762380D01*
X125499714Y-86724285D01*
X125423523Y-86686190D01*
X125347333Y-86686190D01*
X125271142Y-86724285D01*
X125233047Y-86762380D01*
X125194952Y-86838571D01*
X125156857Y-86990952D01*
X125118761Y-87067142D01*
X125080666Y-87105238D01*
X125004476Y-87143333D01*
X124928285Y-87143333D01*
X124852095Y-87105238D01*
X124814000Y-87067142D01*
X124775904Y-86990952D01*
X124775904Y-86800476D01*
X124814000Y-86686190D01*
X125156857Y-86343333D02*
X125156857Y-86076666D01*
X125575904Y-85962380D02*
X125575904Y-86343333D01*
X124775904Y-86343333D01*
X124775904Y-85962380D01*
X124775904Y-85733809D02*
X124775904Y-85276666D01*
X125575904Y-85505238D02*
X124775904Y-85505238D01*
X189222857Y-132349714D02*
X189260952Y-132235428D01*
X189299047Y-132197333D01*
X189375238Y-132159238D01*
X189489523Y-132159238D01*
X189565714Y-132197333D01*
X189603809Y-132235428D01*
X189641904Y-132311619D01*
X189641904Y-132616380D01*
X188841904Y-132616380D01*
X188841904Y-132349714D01*
X188880000Y-132273523D01*
X188918095Y-132235428D01*
X188994285Y-132197333D01*
X189070476Y-132197333D01*
X189146666Y-132235428D01*
X189184761Y-132273523D01*
X189222857Y-132349714D01*
X189222857Y-132616380D01*
X188841904Y-131664000D02*
X188841904Y-131511619D01*
X188880000Y-131435428D01*
X188956190Y-131359238D01*
X189108571Y-131321142D01*
X189375238Y-131321142D01*
X189527619Y-131359238D01*
X189603809Y-131435428D01*
X189641904Y-131511619D01*
X189641904Y-131664000D01*
X189603809Y-131740190D01*
X189527619Y-131816380D01*
X189375238Y-131854476D01*
X189108571Y-131854476D01*
X188956190Y-131816380D01*
X188880000Y-131740190D01*
X188841904Y-131664000D01*
X188841904Y-130825904D02*
X188841904Y-130673523D01*
X188880000Y-130597333D01*
X188956190Y-130521142D01*
X189108571Y-130483047D01*
X189375238Y-130483047D01*
X189527619Y-130521142D01*
X189603809Y-130597333D01*
X189641904Y-130673523D01*
X189641904Y-130825904D01*
X189603809Y-130902095D01*
X189527619Y-130978285D01*
X189375238Y-131016380D01*
X189108571Y-131016380D01*
X188956190Y-130978285D01*
X188880000Y-130902095D01*
X188841904Y-130825904D01*
X188841904Y-130254476D02*
X188841904Y-129797333D01*
X189641904Y-130025904D02*
X188841904Y-130025904D01*
X167222857Y-132349714D02*
X167260952Y-132235428D01*
X167299047Y-132197333D01*
X167375238Y-132159238D01*
X167489523Y-132159238D01*
X167565714Y-132197333D01*
X167603809Y-132235428D01*
X167641904Y-132311619D01*
X167641904Y-132616380D01*
X166841904Y-132616380D01*
X166841904Y-132349714D01*
X166880000Y-132273523D01*
X166918095Y-132235428D01*
X166994285Y-132197333D01*
X167070476Y-132197333D01*
X167146666Y-132235428D01*
X167184761Y-132273523D01*
X167222857Y-132349714D01*
X167222857Y-132616380D01*
X166841904Y-131664000D02*
X166841904Y-131511619D01*
X166880000Y-131435428D01*
X166956190Y-131359238D01*
X167108571Y-131321142D01*
X167375238Y-131321142D01*
X167527619Y-131359238D01*
X167603809Y-131435428D01*
X167641904Y-131511619D01*
X167641904Y-131664000D01*
X167603809Y-131740190D01*
X167527619Y-131816380D01*
X167375238Y-131854476D01*
X167108571Y-131854476D01*
X166956190Y-131816380D01*
X166880000Y-131740190D01*
X166841904Y-131664000D01*
X166841904Y-130825904D02*
X166841904Y-130673523D01*
X166880000Y-130597333D01*
X166956190Y-130521142D01*
X167108571Y-130483047D01*
X167375238Y-130483047D01*
X167527619Y-130521142D01*
X167603809Y-130597333D01*
X167641904Y-130673523D01*
X167641904Y-130825904D01*
X167603809Y-130902095D01*
X167527619Y-130978285D01*
X167375238Y-131016380D01*
X167108571Y-131016380D01*
X166956190Y-130978285D01*
X166880000Y-130902095D01*
X166841904Y-130825904D01*
X166841904Y-130254476D02*
X166841904Y-129797333D01*
X167641904Y-130025904D02*
X166841904Y-130025904D01*
X145222857Y-132349714D02*
X145260952Y-132235428D01*
X145299047Y-132197333D01*
X145375238Y-132159238D01*
X145489523Y-132159238D01*
X145565714Y-132197333D01*
X145603809Y-132235428D01*
X145641904Y-132311619D01*
X145641904Y-132616380D01*
X144841904Y-132616380D01*
X144841904Y-132349714D01*
X144880000Y-132273523D01*
X144918095Y-132235428D01*
X144994285Y-132197333D01*
X145070476Y-132197333D01*
X145146666Y-132235428D01*
X145184761Y-132273523D01*
X145222857Y-132349714D01*
X145222857Y-132616380D01*
X144841904Y-131664000D02*
X144841904Y-131511619D01*
X144880000Y-131435428D01*
X144956190Y-131359238D01*
X145108571Y-131321142D01*
X145375238Y-131321142D01*
X145527619Y-131359238D01*
X145603809Y-131435428D01*
X145641904Y-131511619D01*
X145641904Y-131664000D01*
X145603809Y-131740190D01*
X145527619Y-131816380D01*
X145375238Y-131854476D01*
X145108571Y-131854476D01*
X144956190Y-131816380D01*
X144880000Y-131740190D01*
X144841904Y-131664000D01*
X144841904Y-130825904D02*
X144841904Y-130673523D01*
X144880000Y-130597333D01*
X144956190Y-130521142D01*
X145108571Y-130483047D01*
X145375238Y-130483047D01*
X145527619Y-130521142D01*
X145603809Y-130597333D01*
X145641904Y-130673523D01*
X145641904Y-130825904D01*
X145603809Y-130902095D01*
X145527619Y-130978285D01*
X145375238Y-131016380D01*
X145108571Y-131016380D01*
X144956190Y-130978285D01*
X144880000Y-130902095D01*
X144841904Y-130825904D01*
X144841904Y-130254476D02*
X144841904Y-129797333D01*
X145641904Y-130025904D02*
X144841904Y-130025904D01*
X123222857Y-132349714D02*
X123260952Y-132235428D01*
X123299047Y-132197333D01*
X123375238Y-132159238D01*
X123489523Y-132159238D01*
X123565714Y-132197333D01*
X123603809Y-132235428D01*
X123641904Y-132311619D01*
X123641904Y-132616380D01*
X122841904Y-132616380D01*
X122841904Y-132349714D01*
X122880000Y-132273523D01*
X122918095Y-132235428D01*
X122994285Y-132197333D01*
X123070476Y-132197333D01*
X123146666Y-132235428D01*
X123184761Y-132273523D01*
X123222857Y-132349714D01*
X123222857Y-132616380D01*
X122841904Y-131664000D02*
X122841904Y-131511619D01*
X122880000Y-131435428D01*
X122956190Y-131359238D01*
X123108571Y-131321142D01*
X123375238Y-131321142D01*
X123527619Y-131359238D01*
X123603809Y-131435428D01*
X123641904Y-131511619D01*
X123641904Y-131664000D01*
X123603809Y-131740190D01*
X123527619Y-131816380D01*
X123375238Y-131854476D01*
X123108571Y-131854476D01*
X122956190Y-131816380D01*
X122880000Y-131740190D01*
X122841904Y-131664000D01*
X122841904Y-130825904D02*
X122841904Y-130673523D01*
X122880000Y-130597333D01*
X122956190Y-130521142D01*
X123108571Y-130483047D01*
X123375238Y-130483047D01*
X123527619Y-130521142D01*
X123603809Y-130597333D01*
X123641904Y-130673523D01*
X123641904Y-130825904D01*
X123603809Y-130902095D01*
X123527619Y-130978285D01*
X123375238Y-131016380D01*
X123108571Y-131016380D01*
X122956190Y-130978285D01*
X122880000Y-130902095D01*
X122841904Y-130825904D01*
X122841904Y-130254476D02*
X122841904Y-129797333D01*
X123641904Y-130025904D02*
X122841904Y-130025904D01*
X189222857Y-88349714D02*
X189260952Y-88235428D01*
X189299047Y-88197333D01*
X189375238Y-88159238D01*
X189489523Y-88159238D01*
X189565714Y-88197333D01*
X189603809Y-88235428D01*
X189641904Y-88311619D01*
X189641904Y-88616380D01*
X188841904Y-88616380D01*
X188841904Y-88349714D01*
X188880000Y-88273523D01*
X188918095Y-88235428D01*
X188994285Y-88197333D01*
X189070476Y-88197333D01*
X189146666Y-88235428D01*
X189184761Y-88273523D01*
X189222857Y-88349714D01*
X189222857Y-88616380D01*
X188841904Y-87664000D02*
X188841904Y-87511619D01*
X188880000Y-87435428D01*
X188956190Y-87359238D01*
X189108571Y-87321142D01*
X189375238Y-87321142D01*
X189527619Y-87359238D01*
X189603809Y-87435428D01*
X189641904Y-87511619D01*
X189641904Y-87664000D01*
X189603809Y-87740190D01*
X189527619Y-87816380D01*
X189375238Y-87854476D01*
X189108571Y-87854476D01*
X188956190Y-87816380D01*
X188880000Y-87740190D01*
X188841904Y-87664000D01*
X188841904Y-86825904D02*
X188841904Y-86673523D01*
X188880000Y-86597333D01*
X188956190Y-86521142D01*
X189108571Y-86483047D01*
X189375238Y-86483047D01*
X189527619Y-86521142D01*
X189603809Y-86597333D01*
X189641904Y-86673523D01*
X189641904Y-86825904D01*
X189603809Y-86902095D01*
X189527619Y-86978285D01*
X189375238Y-87016380D01*
X189108571Y-87016380D01*
X188956190Y-86978285D01*
X188880000Y-86902095D01*
X188841904Y-86825904D01*
X188841904Y-86254476D02*
X188841904Y-85797333D01*
X189641904Y-86025904D02*
X188841904Y-86025904D01*
X167222857Y-88349714D02*
X167260952Y-88235428D01*
X167299047Y-88197333D01*
X167375238Y-88159238D01*
X167489523Y-88159238D01*
X167565714Y-88197333D01*
X167603809Y-88235428D01*
X167641904Y-88311619D01*
X167641904Y-88616380D01*
X166841904Y-88616380D01*
X166841904Y-88349714D01*
X166880000Y-88273523D01*
X166918095Y-88235428D01*
X166994285Y-88197333D01*
X167070476Y-88197333D01*
X167146666Y-88235428D01*
X167184761Y-88273523D01*
X167222857Y-88349714D01*
X167222857Y-88616380D01*
X166841904Y-87664000D02*
X166841904Y-87511619D01*
X166880000Y-87435428D01*
X166956190Y-87359238D01*
X167108571Y-87321142D01*
X167375238Y-87321142D01*
X167527619Y-87359238D01*
X167603809Y-87435428D01*
X167641904Y-87511619D01*
X167641904Y-87664000D01*
X167603809Y-87740190D01*
X167527619Y-87816380D01*
X167375238Y-87854476D01*
X167108571Y-87854476D01*
X166956190Y-87816380D01*
X166880000Y-87740190D01*
X166841904Y-87664000D01*
X166841904Y-86825904D02*
X166841904Y-86673523D01*
X166880000Y-86597333D01*
X166956190Y-86521142D01*
X167108571Y-86483047D01*
X167375238Y-86483047D01*
X167527619Y-86521142D01*
X167603809Y-86597333D01*
X167641904Y-86673523D01*
X167641904Y-86825904D01*
X167603809Y-86902095D01*
X167527619Y-86978285D01*
X167375238Y-87016380D01*
X167108571Y-87016380D01*
X166956190Y-86978285D01*
X166880000Y-86902095D01*
X166841904Y-86825904D01*
X166841904Y-86254476D02*
X166841904Y-85797333D01*
X167641904Y-86025904D02*
X166841904Y-86025904D01*
X145222857Y-88349714D02*
X145260952Y-88235428D01*
X145299047Y-88197333D01*
X145375238Y-88159238D01*
X145489523Y-88159238D01*
X145565714Y-88197333D01*
X145603809Y-88235428D01*
X145641904Y-88311619D01*
X145641904Y-88616380D01*
X144841904Y-88616380D01*
X144841904Y-88349714D01*
X144880000Y-88273523D01*
X144918095Y-88235428D01*
X144994285Y-88197333D01*
X145070476Y-88197333D01*
X145146666Y-88235428D01*
X145184761Y-88273523D01*
X145222857Y-88349714D01*
X145222857Y-88616380D01*
X144841904Y-87664000D02*
X144841904Y-87511619D01*
X144880000Y-87435428D01*
X144956190Y-87359238D01*
X145108571Y-87321142D01*
X145375238Y-87321142D01*
X145527619Y-87359238D01*
X145603809Y-87435428D01*
X145641904Y-87511619D01*
X145641904Y-87664000D01*
X145603809Y-87740190D01*
X145527619Y-87816380D01*
X145375238Y-87854476D01*
X145108571Y-87854476D01*
X144956190Y-87816380D01*
X144880000Y-87740190D01*
X144841904Y-87664000D01*
X144841904Y-86825904D02*
X144841904Y-86673523D01*
X144880000Y-86597333D01*
X144956190Y-86521142D01*
X145108571Y-86483047D01*
X145375238Y-86483047D01*
X145527619Y-86521142D01*
X145603809Y-86597333D01*
X145641904Y-86673523D01*
X145641904Y-86825904D01*
X145603809Y-86902095D01*
X145527619Y-86978285D01*
X145375238Y-87016380D01*
X145108571Y-87016380D01*
X144956190Y-86978285D01*
X144880000Y-86902095D01*
X144841904Y-86825904D01*
X144841904Y-86254476D02*
X144841904Y-85797333D01*
X145641904Y-86025904D02*
X144841904Y-86025904D01*
X117762190Y-83561904D02*
X117305047Y-83561904D01*
X117533619Y-83561904D02*
X117533619Y-82761904D01*
X117457428Y-82876190D01*
X117381238Y-82952380D01*
X117305047Y-82990476D01*
X118524095Y-83561904D02*
X118066952Y-83561904D01*
X118295523Y-83561904D02*
X118295523Y-82761904D01*
X118219333Y-82876190D01*
X118143142Y-82952380D01*
X118066952Y-82990476D01*
X119247904Y-82761904D02*
X118866952Y-82761904D01*
X118828857Y-83142857D01*
X118866952Y-83104761D01*
X118943142Y-83066666D01*
X119133619Y-83066666D01*
X119209809Y-83104761D01*
X119247904Y-83142857D01*
X119286000Y-83219047D01*
X119286000Y-83409523D01*
X119247904Y-83485714D01*
X119209809Y-83523809D01*
X119133619Y-83561904D01*
X118943142Y-83561904D01*
X118866952Y-83523809D01*
X118828857Y-83485714D01*
X119590761Y-82838095D02*
X119628857Y-82800000D01*
X119705047Y-82761904D01*
X119895523Y-82761904D01*
X119971714Y-82800000D01*
X120009809Y-82838095D01*
X120047904Y-82914285D01*
X120047904Y-82990476D01*
X120009809Y-83104761D01*
X119552666Y-83561904D01*
X120047904Y-83561904D01*
X120543142Y-82761904D02*
X120619333Y-82761904D01*
X120695523Y-82800000D01*
X120733619Y-82838095D01*
X120771714Y-82914285D01*
X120809809Y-83066666D01*
X120809809Y-83257142D01*
X120771714Y-83409523D01*
X120733619Y-83485714D01*
X120695523Y-83523809D01*
X120619333Y-83561904D01*
X120543142Y-83561904D01*
X120466952Y-83523809D01*
X120428857Y-83485714D01*
X120390761Y-83409523D01*
X120352666Y-83257142D01*
X120352666Y-83066666D01*
X120390761Y-82914285D01*
X120428857Y-82838095D01*
X120466952Y-82800000D01*
X120543142Y-82761904D01*
X121305047Y-82761904D02*
X121381238Y-82761904D01*
X121457428Y-82800000D01*
X121495523Y-82838095D01*
X121533619Y-82914285D01*
X121571714Y-83066666D01*
X121571714Y-83257142D01*
X121533619Y-83409523D01*
X121495523Y-83485714D01*
X121457428Y-83523809D01*
X121381238Y-83561904D01*
X121305047Y-83561904D01*
X121228857Y-83523809D01*
X121190761Y-83485714D01*
X121152666Y-83409523D01*
X121114571Y-83257142D01*
X121114571Y-83066666D01*
X121152666Y-82914285D01*
X121190761Y-82838095D01*
X121228857Y-82800000D01*
X121305047Y-82761904D01*
X121914571Y-83561904D02*
X121914571Y-82761904D01*
X121914571Y-83066666D02*
X121990761Y-83028571D01*
X122143142Y-83028571D01*
X122219333Y-83066666D01*
X122257428Y-83104761D01*
X122295523Y-83180952D01*
X122295523Y-83409523D01*
X122257428Y-83485714D01*
X122219333Y-83523809D01*
X122143142Y-83561904D01*
X121990761Y-83561904D01*
X121914571Y-83523809D01*
X122638380Y-83028571D02*
X122638380Y-83828571D01*
X122638380Y-83066666D02*
X122714571Y-83028571D01*
X122866952Y-83028571D01*
X122943142Y-83066666D01*
X122981238Y-83104761D01*
X123019333Y-83180952D01*
X123019333Y-83409523D01*
X122981238Y-83485714D01*
X122943142Y-83523809D01*
X122866952Y-83561904D01*
X122714571Y-83561904D01*
X122638380Y-83523809D01*
X123324095Y-83523809D02*
X123400285Y-83561904D01*
X123552666Y-83561904D01*
X123628857Y-83523809D01*
X123666952Y-83447619D01*
X123666952Y-83409523D01*
X123628857Y-83333333D01*
X123552666Y-83295238D01*
X123438380Y-83295238D01*
X123362190Y-83257142D01*
X123324095Y-83180952D01*
X123324095Y-83142857D01*
X123362190Y-83066666D01*
X123438380Y-83028571D01*
X123552666Y-83028571D01*
X123628857Y-83066666D01*
X117877142Y-75687904D02*
X118029523Y-75687904D01*
X118105714Y-75649809D01*
X118143809Y-75611714D01*
X118220000Y-75497428D01*
X118258095Y-75345047D01*
X118258095Y-75040285D01*
X118220000Y-74964095D01*
X118181904Y-74926000D01*
X118105714Y-74887904D01*
X117953333Y-74887904D01*
X117877142Y-74926000D01*
X117839047Y-74964095D01*
X117800952Y-75040285D01*
X117800952Y-75230761D01*
X117839047Y-75306952D01*
X117877142Y-75345047D01*
X117953333Y-75383142D01*
X118105714Y-75383142D01*
X118181904Y-75345047D01*
X118220000Y-75306952D01*
X118258095Y-75230761D01*
X118943809Y-74887904D02*
X118791428Y-74887904D01*
X118715238Y-74926000D01*
X118677142Y-74964095D01*
X118600952Y-75078380D01*
X118562857Y-75230761D01*
X118562857Y-75535523D01*
X118600952Y-75611714D01*
X118639047Y-75649809D01*
X118715238Y-75687904D01*
X118867619Y-75687904D01*
X118943809Y-75649809D01*
X118981904Y-75611714D01*
X119020000Y-75535523D01*
X119020000Y-75345047D01*
X118981904Y-75268857D01*
X118943809Y-75230761D01*
X118867619Y-75192666D01*
X118715238Y-75192666D01*
X118639047Y-75230761D01*
X118600952Y-75268857D01*
X118562857Y-75345047D01*
X119515238Y-74887904D02*
X119591428Y-74887904D01*
X119667619Y-74926000D01*
X119705714Y-74964095D01*
X119743809Y-75040285D01*
X119781904Y-75192666D01*
X119781904Y-75383142D01*
X119743809Y-75535523D01*
X119705714Y-75611714D01*
X119667619Y-75649809D01*
X119591428Y-75687904D01*
X119515238Y-75687904D01*
X119439047Y-75649809D01*
X119400952Y-75611714D01*
X119362857Y-75535523D01*
X119324761Y-75383142D01*
X119324761Y-75192666D01*
X119362857Y-75040285D01*
X119400952Y-74964095D01*
X119439047Y-74926000D01*
X119515238Y-74887904D01*
X120277142Y-74887904D02*
X120353333Y-74887904D01*
X120429523Y-74926000D01*
X120467619Y-74964095D01*
X120505714Y-75040285D01*
X120543809Y-75192666D01*
X120543809Y-75383142D01*
X120505714Y-75535523D01*
X120467619Y-75611714D01*
X120429523Y-75649809D01*
X120353333Y-75687904D01*
X120277142Y-75687904D01*
X120200952Y-75649809D01*
X120162857Y-75611714D01*
X120124761Y-75535523D01*
X120086666Y-75383142D01*
X120086666Y-75192666D01*
X120124761Y-75040285D01*
X120162857Y-74964095D01*
X120200952Y-74926000D01*
X120277142Y-74887904D01*
X120886666Y-75687904D02*
X120886666Y-74887904D01*
X120886666Y-75192666D02*
X120962857Y-75154571D01*
X121115238Y-75154571D01*
X121191428Y-75192666D01*
X121229523Y-75230761D01*
X121267619Y-75306952D01*
X121267619Y-75535523D01*
X121229523Y-75611714D01*
X121191428Y-75649809D01*
X121115238Y-75687904D01*
X120962857Y-75687904D01*
X120886666Y-75649809D01*
X121610476Y-75154571D02*
X121610476Y-75954571D01*
X121610476Y-75192666D02*
X121686666Y-75154571D01*
X121839047Y-75154571D01*
X121915238Y-75192666D01*
X121953333Y-75230761D01*
X121991428Y-75306952D01*
X121991428Y-75535523D01*
X121953333Y-75611714D01*
X121915238Y-75649809D01*
X121839047Y-75687904D01*
X121686666Y-75687904D01*
X121610476Y-75649809D01*
X122296190Y-75649809D02*
X122372380Y-75687904D01*
X122524761Y-75687904D01*
X122600952Y-75649809D01*
X122639047Y-75573619D01*
X122639047Y-75535523D01*
X122600952Y-75459333D01*
X122524761Y-75421238D01*
X122410476Y-75421238D01*
X122334285Y-75383142D01*
X122296190Y-75306952D01*
X122296190Y-75268857D01*
X122334285Y-75192666D01*
X122410476Y-75154571D01*
X122524761Y-75154571D01*
X122600952Y-75192666D01*
X123222857Y-88349714D02*
X123260952Y-88235428D01*
X123299047Y-88197333D01*
X123375238Y-88159238D01*
X123489523Y-88159238D01*
X123565714Y-88197333D01*
X123603809Y-88235428D01*
X123641904Y-88311619D01*
X123641904Y-88616380D01*
X122841904Y-88616380D01*
X122841904Y-88349714D01*
X122880000Y-88273523D01*
X122918095Y-88235428D01*
X122994285Y-88197333D01*
X123070476Y-88197333D01*
X123146666Y-88235428D01*
X123184761Y-88273523D01*
X123222857Y-88349714D01*
X123222857Y-88616380D01*
X122841904Y-87664000D02*
X122841904Y-87511619D01*
X122880000Y-87435428D01*
X122956190Y-87359238D01*
X123108571Y-87321142D01*
X123375238Y-87321142D01*
X123527619Y-87359238D01*
X123603809Y-87435428D01*
X123641904Y-87511619D01*
X123641904Y-87664000D01*
X123603809Y-87740190D01*
X123527619Y-87816380D01*
X123375238Y-87854476D01*
X123108571Y-87854476D01*
X122956190Y-87816380D01*
X122880000Y-87740190D01*
X122841904Y-87664000D01*
X122841904Y-86825904D02*
X122841904Y-86673523D01*
X122880000Y-86597333D01*
X122956190Y-86521142D01*
X123108571Y-86483047D01*
X123375238Y-86483047D01*
X123527619Y-86521142D01*
X123603809Y-86597333D01*
X123641904Y-86673523D01*
X123641904Y-86825904D01*
X123603809Y-86902095D01*
X123527619Y-86978285D01*
X123375238Y-87016380D01*
X123108571Y-87016380D01*
X122956190Y-86978285D01*
X122880000Y-86902095D01*
X122841904Y-86825904D01*
X122841904Y-86254476D02*
X122841904Y-85797333D01*
X123641904Y-86025904D02*
X122841904Y-86025904D01*
X103575904Y-88171904D02*
X103194952Y-88438571D01*
X103575904Y-88629047D02*
X102775904Y-88629047D01*
X102775904Y-88324285D01*
X102814000Y-88248095D01*
X102852095Y-88210000D01*
X102928285Y-88171904D01*
X103042571Y-88171904D01*
X103118761Y-88210000D01*
X103156857Y-88248095D01*
X103194952Y-88324285D01*
X103194952Y-88629047D01*
X103156857Y-87829047D02*
X103156857Y-87562380D01*
X103575904Y-87448095D02*
X103575904Y-87829047D01*
X102775904Y-87829047D01*
X102775904Y-87448095D01*
X103537809Y-87143333D02*
X103575904Y-87029047D01*
X103575904Y-86838571D01*
X103537809Y-86762380D01*
X103499714Y-86724285D01*
X103423523Y-86686190D01*
X103347333Y-86686190D01*
X103271142Y-86724285D01*
X103233047Y-86762380D01*
X103194952Y-86838571D01*
X103156857Y-86990952D01*
X103118761Y-87067142D01*
X103080666Y-87105238D01*
X103004476Y-87143333D01*
X102928285Y-87143333D01*
X102852095Y-87105238D01*
X102814000Y-87067142D01*
X102775904Y-86990952D01*
X102775904Y-86800476D01*
X102814000Y-86686190D01*
X103156857Y-86343333D02*
X103156857Y-86076666D01*
X103575904Y-85962380D02*
X103575904Y-86343333D01*
X102775904Y-86343333D01*
X102775904Y-85962380D01*
X102775904Y-85733809D02*
X102775904Y-85276666D01*
X103575904Y-85505238D02*
X102775904Y-85505238D01*
D11*
%TO.C,U1*%
X103984000Y-117250000D02*
X103984000Y-118030000D01*
X103984000Y-118030000D02*
X104984000Y-118030000D01*
X122224000Y-117250000D02*
X122224000Y-118030000D01*
X122224000Y-118030000D02*
X121224000Y-118030000D01*
X103984000Y-92285000D02*
X122224000Y-92285000D01*
X122224000Y-92285000D02*
X122224000Y-98705000D01*
X103984000Y-92285000D02*
X103984000Y-98705000D01*
X103984000Y-98705000D02*
X103604000Y-98705000D01*
%TO.C,R1*%
X172532742Y-125407500D02*
X173007258Y-125407500D01*
X172532742Y-126452500D02*
X173007258Y-126452500D01*
X150532742Y-125407500D02*
X151007258Y-125407500D01*
X150532742Y-126452500D02*
X151007258Y-126452500D01*
X128532742Y-125407500D02*
X129007258Y-125407500D01*
X128532742Y-126452500D02*
X129007258Y-126452500D01*
X106532742Y-125407500D02*
X107007258Y-125407500D01*
X106532742Y-126452500D02*
X107007258Y-126452500D01*
X172532742Y-81407500D02*
X173007258Y-81407500D01*
X172532742Y-82452500D02*
X173007258Y-82452500D01*
X150532742Y-81407500D02*
X151007258Y-81407500D01*
X150532742Y-82452500D02*
X151007258Y-82452500D01*
X128532742Y-81407500D02*
X129007258Y-81407500D01*
X128532742Y-82452500D02*
X129007258Y-82452500D01*
%TO.C,D1*%
X170965000Y-125942500D02*
X170965000Y-123657500D01*
X170965000Y-123657500D02*
X169495000Y-123657500D01*
X169495000Y-123657500D02*
X169495000Y-125942500D01*
X148965000Y-125942500D02*
X148965000Y-123657500D01*
X148965000Y-123657500D02*
X147495000Y-123657500D01*
X147495000Y-123657500D02*
X147495000Y-125942500D01*
X126965000Y-125942500D02*
X126965000Y-123657500D01*
X126965000Y-123657500D02*
X125495000Y-123657500D01*
X125495000Y-123657500D02*
X125495000Y-125942500D01*
X104965000Y-125942500D02*
X104965000Y-123657500D01*
X104965000Y-123657500D02*
X103495000Y-123657500D01*
X103495000Y-123657500D02*
X103495000Y-125942500D01*
X170965000Y-81942500D02*
X170965000Y-79657500D01*
X170965000Y-79657500D02*
X169495000Y-79657500D01*
X169495000Y-79657500D02*
X169495000Y-81942500D01*
X148965000Y-81942500D02*
X148965000Y-79657500D01*
X148965000Y-79657500D02*
X147495000Y-79657500D01*
X147495000Y-79657500D02*
X147495000Y-81942500D01*
X126965000Y-81942500D02*
X126965000Y-79657500D01*
X126965000Y-79657500D02*
X125495000Y-79657500D01*
X125495000Y-79657500D02*
X125495000Y-81942500D01*
%TO.C,C1*%
X181916000Y-123530580D02*
X181916000Y-123249420D01*
X180896000Y-123530580D02*
X180896000Y-123249420D01*
X159916000Y-123530580D02*
X159916000Y-123249420D01*
X158896000Y-123530580D02*
X158896000Y-123249420D01*
X137916000Y-123530580D02*
X137916000Y-123249420D01*
X136896000Y-123530580D02*
X136896000Y-123249420D01*
X115916000Y-123530580D02*
X115916000Y-123249420D01*
X114896000Y-123530580D02*
X114896000Y-123249420D01*
X181916000Y-79530580D02*
X181916000Y-79249420D01*
X180896000Y-79530580D02*
X180896000Y-79249420D01*
X159916000Y-79530580D02*
X159916000Y-79249420D01*
X158896000Y-79530580D02*
X158896000Y-79249420D01*
X137916000Y-79530580D02*
X137916000Y-79249420D01*
X136896000Y-79530580D02*
X136896000Y-79249420D01*
%TO.C,C3*%
X183060000Y-129599420D02*
X183060000Y-129880580D01*
X182040000Y-129599420D02*
X182040000Y-129880580D01*
X161060000Y-129599420D02*
X161060000Y-129880580D01*
X160040000Y-129599420D02*
X160040000Y-129880580D01*
X139060000Y-129599420D02*
X139060000Y-129880580D01*
X138040000Y-129599420D02*
X138040000Y-129880580D01*
X117060000Y-129599420D02*
X117060000Y-129880580D01*
X116040000Y-129599420D02*
X116040000Y-129880580D01*
X183060000Y-85599420D02*
X183060000Y-85880580D01*
X182040000Y-85599420D02*
X182040000Y-85880580D01*
X161060000Y-85599420D02*
X161060000Y-85880580D01*
X160040000Y-85599420D02*
X160040000Y-85880580D01*
X139060000Y-85599420D02*
X139060000Y-85880580D01*
X138040000Y-85599420D02*
X138040000Y-85880580D01*
%TO.C,C4*%
X175820000Y-129599420D02*
X175820000Y-129880580D01*
X174800000Y-129599420D02*
X174800000Y-129880580D01*
X153820000Y-129599420D02*
X153820000Y-129880580D01*
X152800000Y-129599420D02*
X152800000Y-129880580D01*
X131820000Y-129599420D02*
X131820000Y-129880580D01*
X130800000Y-129599420D02*
X130800000Y-129880580D01*
X109820000Y-129599420D02*
X109820000Y-129880580D01*
X108800000Y-129599420D02*
X108800000Y-129880580D01*
X175820000Y-85599420D02*
X175820000Y-85880580D01*
X174800000Y-85599420D02*
X174800000Y-85880580D01*
X153820000Y-85599420D02*
X153820000Y-85880580D01*
X152800000Y-85599420D02*
X152800000Y-85880580D01*
X131820000Y-85599420D02*
X131820000Y-85880580D01*
X130800000Y-85599420D02*
X130800000Y-85880580D01*
%TO.C,R2*%
X178089500Y-123627258D02*
X178089500Y-123152742D01*
X179134500Y-123627258D02*
X179134500Y-123152742D01*
X156089500Y-123627258D02*
X156089500Y-123152742D01*
X157134500Y-123627258D02*
X157134500Y-123152742D01*
X134089500Y-123627258D02*
X134089500Y-123152742D01*
X135134500Y-123627258D02*
X135134500Y-123152742D01*
X112089500Y-123627258D02*
X112089500Y-123152742D01*
X113134500Y-123627258D02*
X113134500Y-123152742D01*
X178089500Y-79627258D02*
X178089500Y-79152742D01*
X179134500Y-79627258D02*
X179134500Y-79152742D01*
X156089500Y-79627258D02*
X156089500Y-79152742D01*
X157134500Y-79627258D02*
X157134500Y-79152742D01*
X134089500Y-79627258D02*
X134089500Y-79152742D01*
X135134500Y-79627258D02*
X135134500Y-79152742D01*
%TO.C,C2*%
X175816000Y-123530580D02*
X175816000Y-123249420D01*
X176836000Y-123530580D02*
X176836000Y-123249420D01*
X153816000Y-123530580D02*
X153816000Y-123249420D01*
X154836000Y-123530580D02*
X154836000Y-123249420D01*
X131816000Y-123530580D02*
X131816000Y-123249420D01*
X132836000Y-123530580D02*
X132836000Y-123249420D01*
X109816000Y-123530580D02*
X109816000Y-123249420D01*
X110836000Y-123530580D02*
X110836000Y-123249420D01*
X175816000Y-79530580D02*
X175816000Y-79249420D01*
X176836000Y-79530580D02*
X176836000Y-79249420D01*
X153816000Y-79530580D02*
X153816000Y-79249420D01*
X154836000Y-79530580D02*
X154836000Y-79249420D01*
X131816000Y-79530580D02*
X131816000Y-79249420D01*
X132836000Y-79530580D02*
X132836000Y-79249420D01*
D12*
%TO.C,IC1*%
X177416000Y-129070000D02*
X177416000Y-127870000D01*
X177416000Y-127870000D02*
X180316000Y-127870000D01*
X180316000Y-127870000D02*
X180316000Y-129070000D01*
X180316000Y-129070000D02*
X177416000Y-129070000D01*
X177366000Y-130320000D02*
X177366000Y-129420000D01*
X155416000Y-129070000D02*
X155416000Y-127870000D01*
X155416000Y-127870000D02*
X158316000Y-127870000D01*
X158316000Y-127870000D02*
X158316000Y-129070000D01*
X158316000Y-129070000D02*
X155416000Y-129070000D01*
X155366000Y-130320000D02*
X155366000Y-129420000D01*
X133416000Y-129070000D02*
X133416000Y-127870000D01*
X133416000Y-127870000D02*
X136316000Y-127870000D01*
X136316000Y-127870000D02*
X136316000Y-129070000D01*
X136316000Y-129070000D02*
X133416000Y-129070000D01*
X133366000Y-130320000D02*
X133366000Y-129420000D01*
X111416000Y-129070000D02*
X111416000Y-127870000D01*
X111416000Y-127870000D02*
X114316000Y-127870000D01*
X114316000Y-127870000D02*
X114316000Y-129070000D01*
X114316000Y-129070000D02*
X111416000Y-129070000D01*
X111366000Y-130320000D02*
X111366000Y-129420000D01*
X177416000Y-85070000D02*
X177416000Y-83870000D01*
X177416000Y-83870000D02*
X180316000Y-83870000D01*
X180316000Y-83870000D02*
X180316000Y-85070000D01*
X180316000Y-85070000D02*
X177416000Y-85070000D01*
X177366000Y-86320000D02*
X177366000Y-85420000D01*
X155416000Y-85070000D02*
X155416000Y-83870000D01*
X155416000Y-83870000D02*
X158316000Y-83870000D01*
X158316000Y-83870000D02*
X158316000Y-85070000D01*
X158316000Y-85070000D02*
X155416000Y-85070000D01*
X155366000Y-86320000D02*
X155366000Y-85420000D01*
X133416000Y-85070000D02*
X133416000Y-83870000D01*
X133416000Y-83870000D02*
X136316000Y-83870000D01*
X136316000Y-83870000D02*
X136316000Y-85070000D01*
X136316000Y-85070000D02*
X133416000Y-85070000D01*
X133366000Y-86320000D02*
X133366000Y-85420000D01*
D11*
%TO.C,R3*%
X183072500Y-126517742D02*
X183072500Y-126992258D01*
X182027500Y-126517742D02*
X182027500Y-126992258D01*
X161072500Y-126517742D02*
X161072500Y-126992258D01*
X160027500Y-126517742D02*
X160027500Y-126992258D01*
X139072500Y-126517742D02*
X139072500Y-126992258D01*
X138027500Y-126517742D02*
X138027500Y-126992258D01*
X117072500Y-126517742D02*
X117072500Y-126992258D01*
X116027500Y-126517742D02*
X116027500Y-126992258D01*
X183072500Y-82517742D02*
X183072500Y-82992258D01*
X182027500Y-82517742D02*
X182027500Y-82992258D01*
X161072500Y-82517742D02*
X161072500Y-82992258D01*
X160027500Y-82517742D02*
X160027500Y-82992258D01*
X139072500Y-82517742D02*
X139072500Y-82992258D01*
X138027500Y-82517742D02*
X138027500Y-82992258D01*
%TO.C,R4*%
X175832500Y-126517742D02*
X175832500Y-126992258D01*
X174787500Y-126517742D02*
X174787500Y-126992258D01*
X153832500Y-126517742D02*
X153832500Y-126992258D01*
X152787500Y-126517742D02*
X152787500Y-126992258D01*
X131832500Y-126517742D02*
X131832500Y-126992258D01*
X130787500Y-126517742D02*
X130787500Y-126992258D01*
X109832500Y-126517742D02*
X109832500Y-126992258D01*
X108787500Y-126517742D02*
X108787500Y-126992258D01*
X175832500Y-82517742D02*
X175832500Y-82992258D01*
X174787500Y-82517742D02*
X174787500Y-82992258D01*
X153832500Y-82517742D02*
X153832500Y-82992258D01*
X152787500Y-82517742D02*
X152787500Y-82992258D01*
X131832500Y-82517742D02*
X131832500Y-82992258D01*
X130787500Y-82517742D02*
X130787500Y-82992258D01*
%TO.C,U1*%
X169984000Y-117250000D02*
X169984000Y-118030000D01*
X169984000Y-118030000D02*
X170984000Y-118030000D01*
X188224000Y-117250000D02*
X188224000Y-118030000D01*
X188224000Y-118030000D02*
X187224000Y-118030000D01*
X169984000Y-92285000D02*
X188224000Y-92285000D01*
X188224000Y-92285000D02*
X188224000Y-98705000D01*
X169984000Y-92285000D02*
X169984000Y-98705000D01*
X169984000Y-98705000D02*
X169604000Y-98705000D01*
X147984000Y-117250000D02*
X147984000Y-118030000D01*
X147984000Y-118030000D02*
X148984000Y-118030000D01*
X166224000Y-117250000D02*
X166224000Y-118030000D01*
X166224000Y-118030000D02*
X165224000Y-118030000D01*
X147984000Y-92285000D02*
X166224000Y-92285000D01*
X166224000Y-92285000D02*
X166224000Y-98705000D01*
X147984000Y-92285000D02*
X147984000Y-98705000D01*
X147984000Y-98705000D02*
X147604000Y-98705000D01*
X125984000Y-117250000D02*
X125984000Y-118030000D01*
X125984000Y-118030000D02*
X126984000Y-118030000D01*
X144224000Y-117250000D02*
X144224000Y-118030000D01*
X144224000Y-118030000D02*
X143224000Y-118030000D01*
X125984000Y-92285000D02*
X144224000Y-92285000D01*
X144224000Y-92285000D02*
X144224000Y-98705000D01*
X125984000Y-92285000D02*
X125984000Y-98705000D01*
X125984000Y-98705000D02*
X125604000Y-98705000D01*
X169984000Y-73250000D02*
X169984000Y-74030000D01*
X169984000Y-74030000D02*
X170984000Y-74030000D01*
X188224000Y-73250000D02*
X188224000Y-74030000D01*
X188224000Y-74030000D02*
X187224000Y-74030000D01*
X169984000Y-48285000D02*
X188224000Y-48285000D01*
X188224000Y-48285000D02*
X188224000Y-54705000D01*
X169984000Y-48285000D02*
X169984000Y-54705000D01*
X169984000Y-54705000D02*
X169604000Y-54705000D01*
X147984000Y-73250000D02*
X147984000Y-74030000D01*
X147984000Y-74030000D02*
X148984000Y-74030000D01*
X166224000Y-73250000D02*
X166224000Y-74030000D01*
X166224000Y-74030000D02*
X165224000Y-74030000D01*
X147984000Y-48285000D02*
X166224000Y-48285000D01*
X166224000Y-48285000D02*
X166224000Y-54705000D01*
X147984000Y-48285000D02*
X147984000Y-54705000D01*
X147984000Y-54705000D02*
X147604000Y-54705000D01*
X125984000Y-73250000D02*
X125984000Y-74030000D01*
X125984000Y-74030000D02*
X126984000Y-74030000D01*
X144224000Y-73250000D02*
X144224000Y-74030000D01*
X144224000Y-74030000D02*
X143224000Y-74030000D01*
X125984000Y-48285000D02*
X144224000Y-48285000D01*
X144224000Y-48285000D02*
X144224000Y-54705000D01*
X125984000Y-48285000D02*
X125984000Y-54705000D01*
X125984000Y-54705000D02*
X125604000Y-54705000D01*
D13*
%TO.C,S3*%
X173100000Y-129760000D02*
X173100000Y-132260000D01*
X172000000Y-133110000D02*
X171000000Y-133110000D01*
X169900000Y-129760000D02*
X169900000Y-132260000D01*
X172000000Y-128910000D02*
X171000000Y-128910000D01*
X172761803Y-128110000D02*
G75*
G03*
X172761803Y-128110000I-111803J0D01*
G01*
X172700000Y-128160000D02*
G75*
G03*
X172700000Y-128160000I-50000J0D01*
G01*
X151100000Y-129760000D02*
X151100000Y-132260000D01*
X150000000Y-133110000D02*
X149000000Y-133110000D01*
X147900000Y-129760000D02*
X147900000Y-132260000D01*
X150000000Y-128910000D02*
X149000000Y-128910000D01*
X150761803Y-128110000D02*
G75*
G03*
X150761803Y-128110000I-111803J0D01*
G01*
X150700000Y-128160000D02*
G75*
G03*
X150700000Y-128160000I-50000J0D01*
G01*
X129100000Y-129760000D02*
X129100000Y-132260000D01*
X128000000Y-133110000D02*
X127000000Y-133110000D01*
X125900000Y-129760000D02*
X125900000Y-132260000D01*
X128000000Y-128910000D02*
X127000000Y-128910000D01*
X128761803Y-128110000D02*
G75*
G03*
X128761803Y-128110000I-111803J0D01*
G01*
X128700000Y-128160000D02*
G75*
G03*
X128700000Y-128160000I-50000J0D01*
G01*
X107100000Y-129760000D02*
X107100000Y-132260000D01*
X106000000Y-133110000D02*
X105000000Y-133110000D01*
X103900000Y-129760000D02*
X103900000Y-132260000D01*
X106000000Y-128910000D02*
X105000000Y-128910000D01*
X106761803Y-128110000D02*
G75*
G03*
X106761803Y-128110000I-111803J0D01*
G01*
X106700000Y-128160000D02*
G75*
G03*
X106700000Y-128160000I-50000J0D01*
G01*
X173100000Y-85760000D02*
X173100000Y-88260000D01*
X172000000Y-89110000D02*
X171000000Y-89110000D01*
X169900000Y-85760000D02*
X169900000Y-88260000D01*
X172000000Y-84910000D02*
X171000000Y-84910000D01*
X172761803Y-84110000D02*
G75*
G03*
X172761803Y-84110000I-111803J0D01*
G01*
X172700000Y-84160000D02*
G75*
G03*
X172700000Y-84160000I-50000J0D01*
G01*
X151100000Y-85760000D02*
X151100000Y-88260000D01*
X150000000Y-89110000D02*
X149000000Y-89110000D01*
X147900000Y-85760000D02*
X147900000Y-88260000D01*
X150000000Y-84910000D02*
X149000000Y-84910000D01*
X150761803Y-84110000D02*
G75*
G03*
X150761803Y-84110000I-111803J0D01*
G01*
X150700000Y-84160000D02*
G75*
G03*
X150700000Y-84160000I-50000J0D01*
G01*
X129100000Y-85760000D02*
X129100000Y-88260000D01*
X128000000Y-89110000D02*
X127000000Y-89110000D01*
X125900000Y-85760000D02*
X125900000Y-88260000D01*
X128000000Y-84910000D02*
X127000000Y-84910000D01*
X128761803Y-84110000D02*
G75*
G03*
X128761803Y-84110000I-111803J0D01*
G01*
X128700000Y-84160000D02*
G75*
G03*
X128700000Y-84160000I-50000J0D01*
G01*
%TO.C,S2*%
X188350000Y-129760000D02*
X188350000Y-132260000D01*
X187250000Y-133110000D02*
X186250000Y-133110000D01*
X185150000Y-129760000D02*
X185150000Y-132260000D01*
X187250000Y-128910000D02*
X186250000Y-128910000D01*
X188011803Y-128110000D02*
G75*
G03*
X188011803Y-128110000I-111803J0D01*
G01*
X187950000Y-128160000D02*
G75*
G03*
X187950000Y-128160000I-50000J0D01*
G01*
X166350000Y-129760000D02*
X166350000Y-132260000D01*
X165250000Y-133110000D02*
X164250000Y-133110000D01*
X163150000Y-129760000D02*
X163150000Y-132260000D01*
X165250000Y-128910000D02*
X164250000Y-128910000D01*
X166011803Y-128110000D02*
G75*
G03*
X166011803Y-128110000I-111803J0D01*
G01*
X165950000Y-128160000D02*
G75*
G03*
X165950000Y-128160000I-50000J0D01*
G01*
X144350000Y-129760000D02*
X144350000Y-132260000D01*
X143250000Y-133110000D02*
X142250000Y-133110000D01*
X141150000Y-129760000D02*
X141150000Y-132260000D01*
X143250000Y-128910000D02*
X142250000Y-128910000D01*
X144011803Y-128110000D02*
G75*
G03*
X144011803Y-128110000I-111803J0D01*
G01*
X143950000Y-128160000D02*
G75*
G03*
X143950000Y-128160000I-50000J0D01*
G01*
X122350000Y-129760000D02*
X122350000Y-132260000D01*
X121250000Y-133110000D02*
X120250000Y-133110000D01*
X119150000Y-129760000D02*
X119150000Y-132260000D01*
X121250000Y-128910000D02*
X120250000Y-128910000D01*
X122011803Y-128110000D02*
G75*
G03*
X122011803Y-128110000I-111803J0D01*
G01*
X121950000Y-128160000D02*
G75*
G03*
X121950000Y-128160000I-50000J0D01*
G01*
X188350000Y-85760000D02*
X188350000Y-88260000D01*
X187250000Y-89110000D02*
X186250000Y-89110000D01*
X185150000Y-85760000D02*
X185150000Y-88260000D01*
X187250000Y-84910000D02*
X186250000Y-84910000D01*
X188011803Y-84110000D02*
G75*
G03*
X188011803Y-84110000I-111803J0D01*
G01*
X187950000Y-84160000D02*
G75*
G03*
X187950000Y-84160000I-50000J0D01*
G01*
X166350000Y-85760000D02*
X166350000Y-88260000D01*
X165250000Y-89110000D02*
X164250000Y-89110000D01*
X163150000Y-85760000D02*
X163150000Y-88260000D01*
X165250000Y-84910000D02*
X164250000Y-84910000D01*
X166011803Y-84110000D02*
G75*
G03*
X166011803Y-84110000I-111803J0D01*
G01*
X165950000Y-84160000D02*
G75*
G03*
X165950000Y-84160000I-50000J0D01*
G01*
X144350000Y-85760000D02*
X144350000Y-88260000D01*
X143250000Y-89110000D02*
X142250000Y-89110000D01*
X141150000Y-85760000D02*
X141150000Y-88260000D01*
X143250000Y-84910000D02*
X142250000Y-84910000D01*
X144011803Y-84110000D02*
G75*
G03*
X144011803Y-84110000I-111803J0D01*
G01*
X143950000Y-84160000D02*
G75*
G03*
X143950000Y-84160000I-50000J0D01*
G01*
D11*
%TO.C,J1*%
X176590000Y-135055000D02*
X176590000Y-132395000D01*
X176590000Y-135055000D02*
X184270000Y-135055000D01*
X184270000Y-135055000D02*
X184270000Y-132395000D01*
X176590000Y-132395000D02*
X184270000Y-132395000D01*
X173990000Y-132395000D02*
X175320000Y-132395000D01*
X173990000Y-133725000D02*
X173990000Y-132395000D01*
X154590000Y-135055000D02*
X154590000Y-132395000D01*
X154590000Y-135055000D02*
X162270000Y-135055000D01*
X162270000Y-135055000D02*
X162270000Y-132395000D01*
X154590000Y-132395000D02*
X162270000Y-132395000D01*
X151990000Y-132395000D02*
X153320000Y-132395000D01*
X151990000Y-133725000D02*
X151990000Y-132395000D01*
X132590000Y-135055000D02*
X132590000Y-132395000D01*
X132590000Y-135055000D02*
X140270000Y-135055000D01*
X140270000Y-135055000D02*
X140270000Y-132395000D01*
X132590000Y-132395000D02*
X140270000Y-132395000D01*
X129990000Y-132395000D02*
X131320000Y-132395000D01*
X129990000Y-133725000D02*
X129990000Y-132395000D01*
X110590000Y-135055000D02*
X110590000Y-132395000D01*
X110590000Y-135055000D02*
X118270000Y-135055000D01*
X118270000Y-135055000D02*
X118270000Y-132395000D01*
X110590000Y-132395000D02*
X118270000Y-132395000D01*
X107990000Y-132395000D02*
X109320000Y-132395000D01*
X107990000Y-133725000D02*
X107990000Y-132395000D01*
X176590000Y-91055000D02*
X176590000Y-88395000D01*
X176590000Y-91055000D02*
X184270000Y-91055000D01*
X184270000Y-91055000D02*
X184270000Y-88395000D01*
X176590000Y-88395000D02*
X184270000Y-88395000D01*
X173990000Y-88395000D02*
X175320000Y-88395000D01*
X173990000Y-89725000D02*
X173990000Y-88395000D01*
X154590000Y-91055000D02*
X154590000Y-88395000D01*
X154590000Y-91055000D02*
X162270000Y-91055000D01*
X162270000Y-91055000D02*
X162270000Y-88395000D01*
X154590000Y-88395000D02*
X162270000Y-88395000D01*
X151990000Y-88395000D02*
X153320000Y-88395000D01*
X151990000Y-89725000D02*
X151990000Y-88395000D01*
X132590000Y-91055000D02*
X132590000Y-88395000D01*
X132590000Y-91055000D02*
X140270000Y-91055000D01*
X140270000Y-91055000D02*
X140270000Y-88395000D01*
X132590000Y-88395000D02*
X140270000Y-88395000D01*
X129990000Y-88395000D02*
X131320000Y-88395000D01*
X129990000Y-89725000D02*
X129990000Y-88395000D01*
X107990000Y-89725000D02*
X107990000Y-88395000D01*
X107990000Y-88395000D02*
X109320000Y-88395000D01*
X110590000Y-88395000D02*
X118270000Y-88395000D01*
X118270000Y-91055000D02*
X118270000Y-88395000D01*
X110590000Y-91055000D02*
X118270000Y-91055000D01*
X110590000Y-91055000D02*
X110590000Y-88395000D01*
%TO.C,U1*%
X103984000Y-54705000D02*
X103604000Y-54705000D01*
X103984000Y-48285000D02*
X103984000Y-54705000D01*
X122224000Y-48285000D02*
X122224000Y-54705000D01*
X103984000Y-48285000D02*
X122224000Y-48285000D01*
X122224000Y-74030000D02*
X121224000Y-74030000D01*
X122224000Y-73250000D02*
X122224000Y-74030000D01*
X103984000Y-74030000D02*
X104984000Y-74030000D01*
X103984000Y-73250000D02*
X103984000Y-74030000D01*
%TO.C,D1*%
X103495000Y-79657500D02*
X103495000Y-81942500D01*
X104965000Y-79657500D02*
X103495000Y-79657500D01*
X104965000Y-81942500D02*
X104965000Y-79657500D01*
D13*
%TO.C,S3*%
X106700000Y-84160000D02*
G75*
G03*
X106700000Y-84160000I-50000J0D01*
G01*
X106761803Y-84110000D02*
G75*
G03*
X106761803Y-84110000I-111803J0D01*
G01*
X106000000Y-84910000D02*
X105000000Y-84910000D01*
X103900000Y-85760000D02*
X103900000Y-88260000D01*
X106000000Y-89110000D02*
X105000000Y-89110000D01*
X107100000Y-85760000D02*
X107100000Y-88260000D01*
%TO.C,S2*%
X121950000Y-84160000D02*
G75*
G03*
X121950000Y-84160000I-50000J0D01*
G01*
X122011803Y-84110000D02*
G75*
G03*
X122011803Y-84110000I-111803J0D01*
G01*
X121250000Y-84910000D02*
X120250000Y-84910000D01*
X119150000Y-85760000D02*
X119150000Y-88260000D01*
X121250000Y-89110000D02*
X120250000Y-89110000D01*
X122350000Y-85760000D02*
X122350000Y-88260000D01*
D11*
%TO.C,R4*%
X108787500Y-82517742D02*
X108787500Y-82992258D01*
X109832500Y-82517742D02*
X109832500Y-82992258D01*
%TO.C,R3*%
X116027500Y-82517742D02*
X116027500Y-82992258D01*
X117072500Y-82517742D02*
X117072500Y-82992258D01*
%TO.C,R2*%
X113134500Y-79627258D02*
X113134500Y-79152742D01*
X112089500Y-79627258D02*
X112089500Y-79152742D01*
%TO.C,R1*%
X106532742Y-82452500D02*
X107007258Y-82452500D01*
X106532742Y-81407500D02*
X107007258Y-81407500D01*
D12*
%TO.C,IC1*%
X111366000Y-86320000D02*
X111366000Y-85420000D01*
X114316000Y-85070000D02*
X111416000Y-85070000D01*
X114316000Y-83870000D02*
X114316000Y-85070000D01*
X111416000Y-83870000D02*
X114316000Y-83870000D01*
X111416000Y-85070000D02*
X111416000Y-83870000D01*
D11*
%TO.C,C4*%
X108800000Y-85599420D02*
X108800000Y-85880580D01*
X109820000Y-85599420D02*
X109820000Y-85880580D01*
%TO.C,C3*%
X116040000Y-85599420D02*
X116040000Y-85880580D01*
X117060000Y-85599420D02*
X117060000Y-85880580D01*
%TO.C,C2*%
X110836000Y-79530580D02*
X110836000Y-79249420D01*
X109816000Y-79530580D02*
X109816000Y-79249420D01*
%TO.C,C1*%
X114896000Y-79530580D02*
X114896000Y-79249420D01*
X115916000Y-79530580D02*
X115916000Y-79249420D01*
%TO.C,U1*%
D10*
X104890476Y-119141904D02*
X104890476Y-119789523D01*
X104928571Y-119865714D01*
X104966666Y-119903809D01*
X105042857Y-119941904D01*
X105195238Y-119941904D01*
X105271428Y-119903809D01*
X105309523Y-119865714D01*
X105347619Y-119789523D01*
X105347619Y-119141904D01*
X106147619Y-119941904D02*
X105690476Y-119941904D01*
X105919047Y-119941904D02*
X105919047Y-119141904D01*
X105842857Y-119256190D01*
X105766666Y-119332380D01*
X105690476Y-119370476D01*
%TO.C,SW1*%
X182853809Y-123948666D02*
X182891904Y-123834380D01*
X182891904Y-123643904D01*
X182853809Y-123567714D01*
X182815714Y-123529619D01*
X182739523Y-123491523D01*
X182663333Y-123491523D01*
X182587142Y-123529619D01*
X182549047Y-123567714D01*
X182510952Y-123643904D01*
X182472857Y-123796285D01*
X182434761Y-123872476D01*
X182396666Y-123910571D01*
X182320476Y-123948666D01*
X182244285Y-123948666D01*
X182168095Y-123910571D01*
X182130000Y-123872476D01*
X182091904Y-123796285D01*
X182091904Y-123605809D01*
X182130000Y-123491523D01*
X182091904Y-123224857D02*
X182891904Y-123034380D01*
X182320476Y-122882000D01*
X182891904Y-122729619D01*
X182091904Y-122539142D01*
X182891904Y-121815333D02*
X182891904Y-122272476D01*
X182891904Y-122043904D02*
X182091904Y-122043904D01*
X182206190Y-122120095D01*
X182282380Y-122196285D01*
X182320476Y-122272476D01*
X160853809Y-123948666D02*
X160891904Y-123834380D01*
X160891904Y-123643904D01*
X160853809Y-123567714D01*
X160815714Y-123529619D01*
X160739523Y-123491523D01*
X160663333Y-123491523D01*
X160587142Y-123529619D01*
X160549047Y-123567714D01*
X160510952Y-123643904D01*
X160472857Y-123796285D01*
X160434761Y-123872476D01*
X160396666Y-123910571D01*
X160320476Y-123948666D01*
X160244285Y-123948666D01*
X160168095Y-123910571D01*
X160130000Y-123872476D01*
X160091904Y-123796285D01*
X160091904Y-123605809D01*
X160130000Y-123491523D01*
X160091904Y-123224857D02*
X160891904Y-123034380D01*
X160320476Y-122882000D01*
X160891904Y-122729619D01*
X160091904Y-122539142D01*
X160891904Y-121815333D02*
X160891904Y-122272476D01*
X160891904Y-122043904D02*
X160091904Y-122043904D01*
X160206190Y-122120095D01*
X160282380Y-122196285D01*
X160320476Y-122272476D01*
X138853809Y-123948666D02*
X138891904Y-123834380D01*
X138891904Y-123643904D01*
X138853809Y-123567714D01*
X138815714Y-123529619D01*
X138739523Y-123491523D01*
X138663333Y-123491523D01*
X138587142Y-123529619D01*
X138549047Y-123567714D01*
X138510952Y-123643904D01*
X138472857Y-123796285D01*
X138434761Y-123872476D01*
X138396666Y-123910571D01*
X138320476Y-123948666D01*
X138244285Y-123948666D01*
X138168095Y-123910571D01*
X138130000Y-123872476D01*
X138091904Y-123796285D01*
X138091904Y-123605809D01*
X138130000Y-123491523D01*
X138091904Y-123224857D02*
X138891904Y-123034380D01*
X138320476Y-122882000D01*
X138891904Y-122729619D01*
X138091904Y-122539142D01*
X138891904Y-121815333D02*
X138891904Y-122272476D01*
X138891904Y-122043904D02*
X138091904Y-122043904D01*
X138206190Y-122120095D01*
X138282380Y-122196285D01*
X138320476Y-122272476D01*
X116853809Y-123948666D02*
X116891904Y-123834380D01*
X116891904Y-123643904D01*
X116853809Y-123567714D01*
X116815714Y-123529619D01*
X116739523Y-123491523D01*
X116663333Y-123491523D01*
X116587142Y-123529619D01*
X116549047Y-123567714D01*
X116510952Y-123643904D01*
X116472857Y-123796285D01*
X116434761Y-123872476D01*
X116396666Y-123910571D01*
X116320476Y-123948666D01*
X116244285Y-123948666D01*
X116168095Y-123910571D01*
X116130000Y-123872476D01*
X116091904Y-123796285D01*
X116091904Y-123605809D01*
X116130000Y-123491523D01*
X116091904Y-123224857D02*
X116891904Y-123034380D01*
X116320476Y-122882000D01*
X116891904Y-122729619D01*
X116091904Y-122539142D01*
X116891904Y-121815333D02*
X116891904Y-122272476D01*
X116891904Y-122043904D02*
X116091904Y-122043904D01*
X116206190Y-122120095D01*
X116282380Y-122196285D01*
X116320476Y-122272476D01*
X182853809Y-79948666D02*
X182891904Y-79834380D01*
X182891904Y-79643904D01*
X182853809Y-79567714D01*
X182815714Y-79529619D01*
X182739523Y-79491523D01*
X182663333Y-79491523D01*
X182587142Y-79529619D01*
X182549047Y-79567714D01*
X182510952Y-79643904D01*
X182472857Y-79796285D01*
X182434761Y-79872476D01*
X182396666Y-79910571D01*
X182320476Y-79948666D01*
X182244285Y-79948666D01*
X182168095Y-79910571D01*
X182130000Y-79872476D01*
X182091904Y-79796285D01*
X182091904Y-79605809D01*
X182130000Y-79491523D01*
X182091904Y-79224857D02*
X182891904Y-79034380D01*
X182320476Y-78882000D01*
X182891904Y-78729619D01*
X182091904Y-78539142D01*
X182891904Y-77815333D02*
X182891904Y-78272476D01*
X182891904Y-78043904D02*
X182091904Y-78043904D01*
X182206190Y-78120095D01*
X182282380Y-78196285D01*
X182320476Y-78272476D01*
X160853809Y-79948666D02*
X160891904Y-79834380D01*
X160891904Y-79643904D01*
X160853809Y-79567714D01*
X160815714Y-79529619D01*
X160739523Y-79491523D01*
X160663333Y-79491523D01*
X160587142Y-79529619D01*
X160549047Y-79567714D01*
X160510952Y-79643904D01*
X160472857Y-79796285D01*
X160434761Y-79872476D01*
X160396666Y-79910571D01*
X160320476Y-79948666D01*
X160244285Y-79948666D01*
X160168095Y-79910571D01*
X160130000Y-79872476D01*
X160091904Y-79796285D01*
X160091904Y-79605809D01*
X160130000Y-79491523D01*
X160091904Y-79224857D02*
X160891904Y-79034380D01*
X160320476Y-78882000D01*
X160891904Y-78729619D01*
X160091904Y-78539142D01*
X160891904Y-77815333D02*
X160891904Y-78272476D01*
X160891904Y-78043904D02*
X160091904Y-78043904D01*
X160206190Y-78120095D01*
X160282380Y-78196285D01*
X160320476Y-78272476D01*
X138853809Y-79948666D02*
X138891904Y-79834380D01*
X138891904Y-79643904D01*
X138853809Y-79567714D01*
X138815714Y-79529619D01*
X138739523Y-79491523D01*
X138663333Y-79491523D01*
X138587142Y-79529619D01*
X138549047Y-79567714D01*
X138510952Y-79643904D01*
X138472857Y-79796285D01*
X138434761Y-79872476D01*
X138396666Y-79910571D01*
X138320476Y-79948666D01*
X138244285Y-79948666D01*
X138168095Y-79910571D01*
X138130000Y-79872476D01*
X138091904Y-79796285D01*
X138091904Y-79605809D01*
X138130000Y-79491523D01*
X138091904Y-79224857D02*
X138891904Y-79034380D01*
X138320476Y-78882000D01*
X138891904Y-78729619D01*
X138091904Y-78539142D01*
X138891904Y-77815333D02*
X138891904Y-78272476D01*
X138891904Y-78043904D02*
X138091904Y-78043904D01*
X138206190Y-78120095D01*
X138282380Y-78196285D01*
X138320476Y-78272476D01*
%TO.C,R1*%
X172636666Y-127561904D02*
X172370000Y-127180952D01*
X172179523Y-127561904D02*
X172179523Y-126761904D01*
X172484285Y-126761904D01*
X172560476Y-126800000D01*
X172598571Y-126838095D01*
X172636666Y-126914285D01*
X172636666Y-127028571D01*
X172598571Y-127104761D01*
X172560476Y-127142857D01*
X172484285Y-127180952D01*
X172179523Y-127180952D01*
X173398571Y-127561904D02*
X172941428Y-127561904D01*
X173170000Y-127561904D02*
X173170000Y-126761904D01*
X173093809Y-126876190D01*
X173017619Y-126952380D01*
X172941428Y-126990476D01*
X150636666Y-127561904D02*
X150370000Y-127180952D01*
X150179523Y-127561904D02*
X150179523Y-126761904D01*
X150484285Y-126761904D01*
X150560476Y-126800000D01*
X150598571Y-126838095D01*
X150636666Y-126914285D01*
X150636666Y-127028571D01*
X150598571Y-127104761D01*
X150560476Y-127142857D01*
X150484285Y-127180952D01*
X150179523Y-127180952D01*
X151398571Y-127561904D02*
X150941428Y-127561904D01*
X151170000Y-127561904D02*
X151170000Y-126761904D01*
X151093809Y-126876190D01*
X151017619Y-126952380D01*
X150941428Y-126990476D01*
X128636666Y-127561904D02*
X128370000Y-127180952D01*
X128179523Y-127561904D02*
X128179523Y-126761904D01*
X128484285Y-126761904D01*
X128560476Y-126800000D01*
X128598571Y-126838095D01*
X128636666Y-126914285D01*
X128636666Y-127028571D01*
X128598571Y-127104761D01*
X128560476Y-127142857D01*
X128484285Y-127180952D01*
X128179523Y-127180952D01*
X129398571Y-127561904D02*
X128941428Y-127561904D01*
X129170000Y-127561904D02*
X129170000Y-126761904D01*
X129093809Y-126876190D01*
X129017619Y-126952380D01*
X128941428Y-126990476D01*
X106636666Y-127561904D02*
X106370000Y-127180952D01*
X106179523Y-127561904D02*
X106179523Y-126761904D01*
X106484285Y-126761904D01*
X106560476Y-126800000D01*
X106598571Y-126838095D01*
X106636666Y-126914285D01*
X106636666Y-127028571D01*
X106598571Y-127104761D01*
X106560476Y-127142857D01*
X106484285Y-127180952D01*
X106179523Y-127180952D01*
X107398571Y-127561904D02*
X106941428Y-127561904D01*
X107170000Y-127561904D02*
X107170000Y-126761904D01*
X107093809Y-126876190D01*
X107017619Y-126952380D01*
X106941428Y-126990476D01*
X172636666Y-83561904D02*
X172370000Y-83180952D01*
X172179523Y-83561904D02*
X172179523Y-82761904D01*
X172484285Y-82761904D01*
X172560476Y-82800000D01*
X172598571Y-82838095D01*
X172636666Y-82914285D01*
X172636666Y-83028571D01*
X172598571Y-83104761D01*
X172560476Y-83142857D01*
X172484285Y-83180952D01*
X172179523Y-83180952D01*
X173398571Y-83561904D02*
X172941428Y-83561904D01*
X173170000Y-83561904D02*
X173170000Y-82761904D01*
X173093809Y-82876190D01*
X173017619Y-82952380D01*
X172941428Y-82990476D01*
X150636666Y-83561904D02*
X150370000Y-83180952D01*
X150179523Y-83561904D02*
X150179523Y-82761904D01*
X150484285Y-82761904D01*
X150560476Y-82800000D01*
X150598571Y-82838095D01*
X150636666Y-82914285D01*
X150636666Y-83028571D01*
X150598571Y-83104761D01*
X150560476Y-83142857D01*
X150484285Y-83180952D01*
X150179523Y-83180952D01*
X151398571Y-83561904D02*
X150941428Y-83561904D01*
X151170000Y-83561904D02*
X151170000Y-82761904D01*
X151093809Y-82876190D01*
X151017619Y-82952380D01*
X150941428Y-82990476D01*
X128636666Y-83561904D02*
X128370000Y-83180952D01*
X128179523Y-83561904D02*
X128179523Y-82761904D01*
X128484285Y-82761904D01*
X128560476Y-82800000D01*
X128598571Y-82838095D01*
X128636666Y-82914285D01*
X128636666Y-83028571D01*
X128598571Y-83104761D01*
X128560476Y-83142857D01*
X128484285Y-83180952D01*
X128179523Y-83180952D01*
X129398571Y-83561904D02*
X128941428Y-83561904D01*
X129170000Y-83561904D02*
X129170000Y-82761904D01*
X129093809Y-82876190D01*
X129017619Y-82952380D01*
X128941428Y-82990476D01*
%TO.C,D1*%
X172115904Y-124742476D02*
X171315904Y-124742476D01*
X171315904Y-124552000D01*
X171354000Y-124437714D01*
X171430190Y-124361523D01*
X171506380Y-124323428D01*
X171658761Y-124285333D01*
X171773047Y-124285333D01*
X171925428Y-124323428D01*
X172001619Y-124361523D01*
X172077809Y-124437714D01*
X172115904Y-124552000D01*
X172115904Y-124742476D01*
X172115904Y-123523428D02*
X172115904Y-123980571D01*
X172115904Y-123752000D02*
X171315904Y-123752000D01*
X171430190Y-123828190D01*
X171506380Y-123904380D01*
X171544476Y-123980571D01*
X150115904Y-124742476D02*
X149315904Y-124742476D01*
X149315904Y-124552000D01*
X149354000Y-124437714D01*
X149430190Y-124361523D01*
X149506380Y-124323428D01*
X149658761Y-124285333D01*
X149773047Y-124285333D01*
X149925428Y-124323428D01*
X150001619Y-124361523D01*
X150077809Y-124437714D01*
X150115904Y-124552000D01*
X150115904Y-124742476D01*
X150115904Y-123523428D02*
X150115904Y-123980571D01*
X150115904Y-123752000D02*
X149315904Y-123752000D01*
X149430190Y-123828190D01*
X149506380Y-123904380D01*
X149544476Y-123980571D01*
X128115904Y-124742476D02*
X127315904Y-124742476D01*
X127315904Y-124552000D01*
X127354000Y-124437714D01*
X127430190Y-124361523D01*
X127506380Y-124323428D01*
X127658761Y-124285333D01*
X127773047Y-124285333D01*
X127925428Y-124323428D01*
X128001619Y-124361523D01*
X128077809Y-124437714D01*
X128115904Y-124552000D01*
X128115904Y-124742476D01*
X128115904Y-123523428D02*
X128115904Y-123980571D01*
X128115904Y-123752000D02*
X127315904Y-123752000D01*
X127430190Y-123828190D01*
X127506380Y-123904380D01*
X127544476Y-123980571D01*
X106115904Y-124742476D02*
X105315904Y-124742476D01*
X105315904Y-124552000D01*
X105354000Y-124437714D01*
X105430190Y-124361523D01*
X105506380Y-124323428D01*
X105658761Y-124285333D01*
X105773047Y-124285333D01*
X105925428Y-124323428D01*
X106001619Y-124361523D01*
X106077809Y-124437714D01*
X106115904Y-124552000D01*
X106115904Y-124742476D01*
X106115904Y-123523428D02*
X106115904Y-123980571D01*
X106115904Y-123752000D02*
X105315904Y-123752000D01*
X105430190Y-123828190D01*
X105506380Y-123904380D01*
X105544476Y-123980571D01*
X172115904Y-80742476D02*
X171315904Y-80742476D01*
X171315904Y-80552000D01*
X171354000Y-80437714D01*
X171430190Y-80361523D01*
X171506380Y-80323428D01*
X171658761Y-80285333D01*
X171773047Y-80285333D01*
X171925428Y-80323428D01*
X172001619Y-80361523D01*
X172077809Y-80437714D01*
X172115904Y-80552000D01*
X172115904Y-80742476D01*
X172115904Y-79523428D02*
X172115904Y-79980571D01*
X172115904Y-79752000D02*
X171315904Y-79752000D01*
X171430190Y-79828190D01*
X171506380Y-79904380D01*
X171544476Y-79980571D01*
X150115904Y-80742476D02*
X149315904Y-80742476D01*
X149315904Y-80552000D01*
X149354000Y-80437714D01*
X149430190Y-80361523D01*
X149506380Y-80323428D01*
X149658761Y-80285333D01*
X149773047Y-80285333D01*
X149925428Y-80323428D01*
X150001619Y-80361523D01*
X150077809Y-80437714D01*
X150115904Y-80552000D01*
X150115904Y-80742476D01*
X150115904Y-79523428D02*
X150115904Y-79980571D01*
X150115904Y-79752000D02*
X149315904Y-79752000D01*
X149430190Y-79828190D01*
X149506380Y-79904380D01*
X149544476Y-79980571D01*
X128115904Y-80742476D02*
X127315904Y-80742476D01*
X127315904Y-80552000D01*
X127354000Y-80437714D01*
X127430190Y-80361523D01*
X127506380Y-80323428D01*
X127658761Y-80285333D01*
X127773047Y-80285333D01*
X127925428Y-80323428D01*
X128001619Y-80361523D01*
X128077809Y-80437714D01*
X128115904Y-80552000D01*
X128115904Y-80742476D01*
X128115904Y-79523428D02*
X128115904Y-79980571D01*
X128115904Y-79752000D02*
X127315904Y-79752000D01*
X127430190Y-79828190D01*
X127506380Y-79904380D01*
X127544476Y-79980571D01*
%TO.C,C1*%
X180261714Y-123523333D02*
X180299809Y-123561428D01*
X180337904Y-123675714D01*
X180337904Y-123751904D01*
X180299809Y-123866190D01*
X180223619Y-123942380D01*
X180147428Y-123980476D01*
X179995047Y-124018571D01*
X179880761Y-124018571D01*
X179728380Y-123980476D01*
X179652190Y-123942380D01*
X179576000Y-123866190D01*
X179537904Y-123751904D01*
X179537904Y-123675714D01*
X179576000Y-123561428D01*
X179614095Y-123523333D01*
X180337904Y-122761428D02*
X180337904Y-123218571D01*
X180337904Y-122990000D02*
X179537904Y-122990000D01*
X179652190Y-123066190D01*
X179728380Y-123142380D01*
X179766476Y-123218571D01*
X158261714Y-123523333D02*
X158299809Y-123561428D01*
X158337904Y-123675714D01*
X158337904Y-123751904D01*
X158299809Y-123866190D01*
X158223619Y-123942380D01*
X158147428Y-123980476D01*
X157995047Y-124018571D01*
X157880761Y-124018571D01*
X157728380Y-123980476D01*
X157652190Y-123942380D01*
X157576000Y-123866190D01*
X157537904Y-123751904D01*
X157537904Y-123675714D01*
X157576000Y-123561428D01*
X157614095Y-123523333D01*
X158337904Y-122761428D02*
X158337904Y-123218571D01*
X158337904Y-122990000D02*
X157537904Y-122990000D01*
X157652190Y-123066190D01*
X157728380Y-123142380D01*
X157766476Y-123218571D01*
X136261714Y-123523333D02*
X136299809Y-123561428D01*
X136337904Y-123675714D01*
X136337904Y-123751904D01*
X136299809Y-123866190D01*
X136223619Y-123942380D01*
X136147428Y-123980476D01*
X135995047Y-124018571D01*
X135880761Y-124018571D01*
X135728380Y-123980476D01*
X135652190Y-123942380D01*
X135576000Y-123866190D01*
X135537904Y-123751904D01*
X135537904Y-123675714D01*
X135576000Y-123561428D01*
X135614095Y-123523333D01*
X136337904Y-122761428D02*
X136337904Y-123218571D01*
X136337904Y-122990000D02*
X135537904Y-122990000D01*
X135652190Y-123066190D01*
X135728380Y-123142380D01*
X135766476Y-123218571D01*
X114261714Y-123523333D02*
X114299809Y-123561428D01*
X114337904Y-123675714D01*
X114337904Y-123751904D01*
X114299809Y-123866190D01*
X114223619Y-123942380D01*
X114147428Y-123980476D01*
X113995047Y-124018571D01*
X113880761Y-124018571D01*
X113728380Y-123980476D01*
X113652190Y-123942380D01*
X113576000Y-123866190D01*
X113537904Y-123751904D01*
X113537904Y-123675714D01*
X113576000Y-123561428D01*
X113614095Y-123523333D01*
X114337904Y-122761428D02*
X114337904Y-123218571D01*
X114337904Y-122990000D02*
X113537904Y-122990000D01*
X113652190Y-123066190D01*
X113728380Y-123142380D01*
X113766476Y-123218571D01*
X180261714Y-79523333D02*
X180299809Y-79561428D01*
X180337904Y-79675714D01*
X180337904Y-79751904D01*
X180299809Y-79866190D01*
X180223619Y-79942380D01*
X180147428Y-79980476D01*
X179995047Y-80018571D01*
X179880761Y-80018571D01*
X179728380Y-79980476D01*
X179652190Y-79942380D01*
X179576000Y-79866190D01*
X179537904Y-79751904D01*
X179537904Y-79675714D01*
X179576000Y-79561428D01*
X179614095Y-79523333D01*
X180337904Y-78761428D02*
X180337904Y-79218571D01*
X180337904Y-78990000D02*
X179537904Y-78990000D01*
X179652190Y-79066190D01*
X179728380Y-79142380D01*
X179766476Y-79218571D01*
X158261714Y-79523333D02*
X158299809Y-79561428D01*
X158337904Y-79675714D01*
X158337904Y-79751904D01*
X158299809Y-79866190D01*
X158223619Y-79942380D01*
X158147428Y-79980476D01*
X157995047Y-80018571D01*
X157880761Y-80018571D01*
X157728380Y-79980476D01*
X157652190Y-79942380D01*
X157576000Y-79866190D01*
X157537904Y-79751904D01*
X157537904Y-79675714D01*
X157576000Y-79561428D01*
X157614095Y-79523333D01*
X158337904Y-78761428D02*
X158337904Y-79218571D01*
X158337904Y-78990000D02*
X157537904Y-78990000D01*
X157652190Y-79066190D01*
X157728380Y-79142380D01*
X157766476Y-79218571D01*
X136261714Y-79523333D02*
X136299809Y-79561428D01*
X136337904Y-79675714D01*
X136337904Y-79751904D01*
X136299809Y-79866190D01*
X136223619Y-79942380D01*
X136147428Y-79980476D01*
X135995047Y-80018571D01*
X135880761Y-80018571D01*
X135728380Y-79980476D01*
X135652190Y-79942380D01*
X135576000Y-79866190D01*
X135537904Y-79751904D01*
X135537904Y-79675714D01*
X135576000Y-79561428D01*
X135614095Y-79523333D01*
X136337904Y-78761428D02*
X136337904Y-79218571D01*
X136337904Y-78990000D02*
X135537904Y-78990000D01*
X135652190Y-79066190D01*
X135728380Y-79142380D01*
X135766476Y-79218571D01*
%TO.C,C3*%
X181691714Y-129619333D02*
X181729809Y-129657428D01*
X181767904Y-129771714D01*
X181767904Y-129847904D01*
X181729809Y-129962190D01*
X181653619Y-130038380D01*
X181577428Y-130076476D01*
X181425047Y-130114571D01*
X181310761Y-130114571D01*
X181158380Y-130076476D01*
X181082190Y-130038380D01*
X181006000Y-129962190D01*
X180967904Y-129847904D01*
X180967904Y-129771714D01*
X181006000Y-129657428D01*
X181044095Y-129619333D01*
X180967904Y-129352666D02*
X180967904Y-128857428D01*
X181272666Y-129124095D01*
X181272666Y-129009809D01*
X181310761Y-128933619D01*
X181348857Y-128895523D01*
X181425047Y-128857428D01*
X181615523Y-128857428D01*
X181691714Y-128895523D01*
X181729809Y-128933619D01*
X181767904Y-129009809D01*
X181767904Y-129238380D01*
X181729809Y-129314571D01*
X181691714Y-129352666D01*
X159691714Y-129619333D02*
X159729809Y-129657428D01*
X159767904Y-129771714D01*
X159767904Y-129847904D01*
X159729809Y-129962190D01*
X159653619Y-130038380D01*
X159577428Y-130076476D01*
X159425047Y-130114571D01*
X159310761Y-130114571D01*
X159158380Y-130076476D01*
X159082190Y-130038380D01*
X159006000Y-129962190D01*
X158967904Y-129847904D01*
X158967904Y-129771714D01*
X159006000Y-129657428D01*
X159044095Y-129619333D01*
X158967904Y-129352666D02*
X158967904Y-128857428D01*
X159272666Y-129124095D01*
X159272666Y-129009809D01*
X159310761Y-128933619D01*
X159348857Y-128895523D01*
X159425047Y-128857428D01*
X159615523Y-128857428D01*
X159691714Y-128895523D01*
X159729809Y-128933619D01*
X159767904Y-129009809D01*
X159767904Y-129238380D01*
X159729809Y-129314571D01*
X159691714Y-129352666D01*
X137691714Y-129619333D02*
X137729809Y-129657428D01*
X137767904Y-129771714D01*
X137767904Y-129847904D01*
X137729809Y-129962190D01*
X137653619Y-130038380D01*
X137577428Y-130076476D01*
X137425047Y-130114571D01*
X137310761Y-130114571D01*
X137158380Y-130076476D01*
X137082190Y-130038380D01*
X137006000Y-129962190D01*
X136967904Y-129847904D01*
X136967904Y-129771714D01*
X137006000Y-129657428D01*
X137044095Y-129619333D01*
X136967904Y-129352666D02*
X136967904Y-128857428D01*
X137272666Y-129124095D01*
X137272666Y-129009809D01*
X137310761Y-128933619D01*
X137348857Y-128895523D01*
X137425047Y-128857428D01*
X137615523Y-128857428D01*
X137691714Y-128895523D01*
X137729809Y-128933619D01*
X137767904Y-129009809D01*
X137767904Y-129238380D01*
X137729809Y-129314571D01*
X137691714Y-129352666D01*
X115691714Y-129619333D02*
X115729809Y-129657428D01*
X115767904Y-129771714D01*
X115767904Y-129847904D01*
X115729809Y-129962190D01*
X115653619Y-130038380D01*
X115577428Y-130076476D01*
X115425047Y-130114571D01*
X115310761Y-130114571D01*
X115158380Y-130076476D01*
X115082190Y-130038380D01*
X115006000Y-129962190D01*
X114967904Y-129847904D01*
X114967904Y-129771714D01*
X115006000Y-129657428D01*
X115044095Y-129619333D01*
X114967904Y-129352666D02*
X114967904Y-128857428D01*
X115272666Y-129124095D01*
X115272666Y-129009809D01*
X115310761Y-128933619D01*
X115348857Y-128895523D01*
X115425047Y-128857428D01*
X115615523Y-128857428D01*
X115691714Y-128895523D01*
X115729809Y-128933619D01*
X115767904Y-129009809D01*
X115767904Y-129238380D01*
X115729809Y-129314571D01*
X115691714Y-129352666D01*
X181691714Y-85619333D02*
X181729809Y-85657428D01*
X181767904Y-85771714D01*
X181767904Y-85847904D01*
X181729809Y-85962190D01*
X181653619Y-86038380D01*
X181577428Y-86076476D01*
X181425047Y-86114571D01*
X181310761Y-86114571D01*
X181158380Y-86076476D01*
X181082190Y-86038380D01*
X181006000Y-85962190D01*
X180967904Y-85847904D01*
X180967904Y-85771714D01*
X181006000Y-85657428D01*
X181044095Y-85619333D01*
X180967904Y-85352666D02*
X180967904Y-84857428D01*
X181272666Y-85124095D01*
X181272666Y-85009809D01*
X181310761Y-84933619D01*
X181348857Y-84895523D01*
X181425047Y-84857428D01*
X181615523Y-84857428D01*
X181691714Y-84895523D01*
X181729809Y-84933619D01*
X181767904Y-85009809D01*
X181767904Y-85238380D01*
X181729809Y-85314571D01*
X181691714Y-85352666D01*
X159691714Y-85619333D02*
X159729809Y-85657428D01*
X159767904Y-85771714D01*
X159767904Y-85847904D01*
X159729809Y-85962190D01*
X159653619Y-86038380D01*
X159577428Y-86076476D01*
X159425047Y-86114571D01*
X159310761Y-86114571D01*
X159158380Y-86076476D01*
X159082190Y-86038380D01*
X159006000Y-85962190D01*
X158967904Y-85847904D01*
X158967904Y-85771714D01*
X159006000Y-85657428D01*
X159044095Y-85619333D01*
X158967904Y-85352666D02*
X158967904Y-84857428D01*
X159272666Y-85124095D01*
X159272666Y-85009809D01*
X159310761Y-84933619D01*
X159348857Y-84895523D01*
X159425047Y-84857428D01*
X159615523Y-84857428D01*
X159691714Y-84895523D01*
X159729809Y-84933619D01*
X159767904Y-85009809D01*
X159767904Y-85238380D01*
X159729809Y-85314571D01*
X159691714Y-85352666D01*
X137691714Y-85619333D02*
X137729809Y-85657428D01*
X137767904Y-85771714D01*
X137767904Y-85847904D01*
X137729809Y-85962190D01*
X137653619Y-86038380D01*
X137577428Y-86076476D01*
X137425047Y-86114571D01*
X137310761Y-86114571D01*
X137158380Y-86076476D01*
X137082190Y-86038380D01*
X137006000Y-85962190D01*
X136967904Y-85847904D01*
X136967904Y-85771714D01*
X137006000Y-85657428D01*
X137044095Y-85619333D01*
X136967904Y-85352666D02*
X136967904Y-84857428D01*
X137272666Y-85124095D01*
X137272666Y-85009809D01*
X137310761Y-84933619D01*
X137348857Y-84895523D01*
X137425047Y-84857428D01*
X137615523Y-84857428D01*
X137691714Y-84895523D01*
X137729809Y-84933619D01*
X137767904Y-85009809D01*
X137767904Y-85238380D01*
X137729809Y-85314571D01*
X137691714Y-85352666D01*
%TO.C,C4*%
X176865714Y-129873333D02*
X176903809Y-129911428D01*
X176941904Y-130025714D01*
X176941904Y-130101904D01*
X176903809Y-130216190D01*
X176827619Y-130292380D01*
X176751428Y-130330476D01*
X176599047Y-130368571D01*
X176484761Y-130368571D01*
X176332380Y-130330476D01*
X176256190Y-130292380D01*
X176180000Y-130216190D01*
X176141904Y-130101904D01*
X176141904Y-130025714D01*
X176180000Y-129911428D01*
X176218095Y-129873333D01*
X176408571Y-129187619D02*
X176941904Y-129187619D01*
X176103809Y-129378095D02*
X176675238Y-129568571D01*
X176675238Y-129073333D01*
X154865714Y-129873333D02*
X154903809Y-129911428D01*
X154941904Y-130025714D01*
X154941904Y-130101904D01*
X154903809Y-130216190D01*
X154827619Y-130292380D01*
X154751428Y-130330476D01*
X154599047Y-130368571D01*
X154484761Y-130368571D01*
X154332380Y-130330476D01*
X154256190Y-130292380D01*
X154180000Y-130216190D01*
X154141904Y-130101904D01*
X154141904Y-130025714D01*
X154180000Y-129911428D01*
X154218095Y-129873333D01*
X154408571Y-129187619D02*
X154941904Y-129187619D01*
X154103809Y-129378095D02*
X154675238Y-129568571D01*
X154675238Y-129073333D01*
X132865714Y-129873333D02*
X132903809Y-129911428D01*
X132941904Y-130025714D01*
X132941904Y-130101904D01*
X132903809Y-130216190D01*
X132827619Y-130292380D01*
X132751428Y-130330476D01*
X132599047Y-130368571D01*
X132484761Y-130368571D01*
X132332380Y-130330476D01*
X132256190Y-130292380D01*
X132180000Y-130216190D01*
X132141904Y-130101904D01*
X132141904Y-130025714D01*
X132180000Y-129911428D01*
X132218095Y-129873333D01*
X132408571Y-129187619D02*
X132941904Y-129187619D01*
X132103809Y-129378095D02*
X132675238Y-129568571D01*
X132675238Y-129073333D01*
X110865714Y-129873333D02*
X110903809Y-129911428D01*
X110941904Y-130025714D01*
X110941904Y-130101904D01*
X110903809Y-130216190D01*
X110827619Y-130292380D01*
X110751428Y-130330476D01*
X110599047Y-130368571D01*
X110484761Y-130368571D01*
X110332380Y-130330476D01*
X110256190Y-130292380D01*
X110180000Y-130216190D01*
X110141904Y-130101904D01*
X110141904Y-130025714D01*
X110180000Y-129911428D01*
X110218095Y-129873333D01*
X110408571Y-129187619D02*
X110941904Y-129187619D01*
X110103809Y-129378095D02*
X110675238Y-129568571D01*
X110675238Y-129073333D01*
X176865714Y-85873333D02*
X176903809Y-85911428D01*
X176941904Y-86025714D01*
X176941904Y-86101904D01*
X176903809Y-86216190D01*
X176827619Y-86292380D01*
X176751428Y-86330476D01*
X176599047Y-86368571D01*
X176484761Y-86368571D01*
X176332380Y-86330476D01*
X176256190Y-86292380D01*
X176180000Y-86216190D01*
X176141904Y-86101904D01*
X176141904Y-86025714D01*
X176180000Y-85911428D01*
X176218095Y-85873333D01*
X176408571Y-85187619D02*
X176941904Y-85187619D01*
X176103809Y-85378095D02*
X176675238Y-85568571D01*
X176675238Y-85073333D01*
X154865714Y-85873333D02*
X154903809Y-85911428D01*
X154941904Y-86025714D01*
X154941904Y-86101904D01*
X154903809Y-86216190D01*
X154827619Y-86292380D01*
X154751428Y-86330476D01*
X154599047Y-86368571D01*
X154484761Y-86368571D01*
X154332380Y-86330476D01*
X154256190Y-86292380D01*
X154180000Y-86216190D01*
X154141904Y-86101904D01*
X154141904Y-86025714D01*
X154180000Y-85911428D01*
X154218095Y-85873333D01*
X154408571Y-85187619D02*
X154941904Y-85187619D01*
X154103809Y-85378095D02*
X154675238Y-85568571D01*
X154675238Y-85073333D01*
X132865714Y-85873333D02*
X132903809Y-85911428D01*
X132941904Y-86025714D01*
X132941904Y-86101904D01*
X132903809Y-86216190D01*
X132827619Y-86292380D01*
X132751428Y-86330476D01*
X132599047Y-86368571D01*
X132484761Y-86368571D01*
X132332380Y-86330476D01*
X132256190Y-86292380D01*
X132180000Y-86216190D01*
X132141904Y-86101904D01*
X132141904Y-86025714D01*
X132180000Y-85911428D01*
X132218095Y-85873333D01*
X132408571Y-85187619D02*
X132941904Y-85187619D01*
X132103809Y-85378095D02*
X132675238Y-85568571D01*
X132675238Y-85073333D01*
%TO.C,R2*%
X177957904Y-123523333D02*
X177576952Y-123790000D01*
X177957904Y-123980476D02*
X177157904Y-123980476D01*
X177157904Y-123675714D01*
X177196000Y-123599523D01*
X177234095Y-123561428D01*
X177310285Y-123523333D01*
X177424571Y-123523333D01*
X177500761Y-123561428D01*
X177538857Y-123599523D01*
X177576952Y-123675714D01*
X177576952Y-123980476D01*
X177234095Y-123218571D02*
X177196000Y-123180476D01*
X177157904Y-123104285D01*
X177157904Y-122913809D01*
X177196000Y-122837619D01*
X177234095Y-122799523D01*
X177310285Y-122761428D01*
X177386476Y-122761428D01*
X177500761Y-122799523D01*
X177957904Y-123256666D01*
X177957904Y-122761428D01*
X155957904Y-123523333D02*
X155576952Y-123790000D01*
X155957904Y-123980476D02*
X155157904Y-123980476D01*
X155157904Y-123675714D01*
X155196000Y-123599523D01*
X155234095Y-123561428D01*
X155310285Y-123523333D01*
X155424571Y-123523333D01*
X155500761Y-123561428D01*
X155538857Y-123599523D01*
X155576952Y-123675714D01*
X155576952Y-123980476D01*
X155234095Y-123218571D02*
X155196000Y-123180476D01*
X155157904Y-123104285D01*
X155157904Y-122913809D01*
X155196000Y-122837619D01*
X155234095Y-122799523D01*
X155310285Y-122761428D01*
X155386476Y-122761428D01*
X155500761Y-122799523D01*
X155957904Y-123256666D01*
X155957904Y-122761428D01*
X133957904Y-123523333D02*
X133576952Y-123790000D01*
X133957904Y-123980476D02*
X133157904Y-123980476D01*
X133157904Y-123675714D01*
X133196000Y-123599523D01*
X133234095Y-123561428D01*
X133310285Y-123523333D01*
X133424571Y-123523333D01*
X133500761Y-123561428D01*
X133538857Y-123599523D01*
X133576952Y-123675714D01*
X133576952Y-123980476D01*
X133234095Y-123218571D02*
X133196000Y-123180476D01*
X133157904Y-123104285D01*
X133157904Y-122913809D01*
X133196000Y-122837619D01*
X133234095Y-122799523D01*
X133310285Y-122761428D01*
X133386476Y-122761428D01*
X133500761Y-122799523D01*
X133957904Y-123256666D01*
X133957904Y-122761428D01*
X111957904Y-123523333D02*
X111576952Y-123790000D01*
X111957904Y-123980476D02*
X111157904Y-123980476D01*
X111157904Y-123675714D01*
X111196000Y-123599523D01*
X111234095Y-123561428D01*
X111310285Y-123523333D01*
X111424571Y-123523333D01*
X111500761Y-123561428D01*
X111538857Y-123599523D01*
X111576952Y-123675714D01*
X111576952Y-123980476D01*
X111234095Y-123218571D02*
X111196000Y-123180476D01*
X111157904Y-123104285D01*
X111157904Y-122913809D01*
X111196000Y-122837619D01*
X111234095Y-122799523D01*
X111310285Y-122761428D01*
X111386476Y-122761428D01*
X111500761Y-122799523D01*
X111957904Y-123256666D01*
X111957904Y-122761428D01*
X177957904Y-79523333D02*
X177576952Y-79790000D01*
X177957904Y-79980476D02*
X177157904Y-79980476D01*
X177157904Y-79675714D01*
X177196000Y-79599523D01*
X177234095Y-79561428D01*
X177310285Y-79523333D01*
X177424571Y-79523333D01*
X177500761Y-79561428D01*
X177538857Y-79599523D01*
X177576952Y-79675714D01*
X177576952Y-79980476D01*
X177234095Y-79218571D02*
X177196000Y-79180476D01*
X177157904Y-79104285D01*
X177157904Y-78913809D01*
X177196000Y-78837619D01*
X177234095Y-78799523D01*
X177310285Y-78761428D01*
X177386476Y-78761428D01*
X177500761Y-78799523D01*
X177957904Y-79256666D01*
X177957904Y-78761428D01*
X155957904Y-79523333D02*
X155576952Y-79790000D01*
X155957904Y-79980476D02*
X155157904Y-79980476D01*
X155157904Y-79675714D01*
X155196000Y-79599523D01*
X155234095Y-79561428D01*
X155310285Y-79523333D01*
X155424571Y-79523333D01*
X155500761Y-79561428D01*
X155538857Y-79599523D01*
X155576952Y-79675714D01*
X155576952Y-79980476D01*
X155234095Y-79218571D02*
X155196000Y-79180476D01*
X155157904Y-79104285D01*
X155157904Y-78913809D01*
X155196000Y-78837619D01*
X155234095Y-78799523D01*
X155310285Y-78761428D01*
X155386476Y-78761428D01*
X155500761Y-78799523D01*
X155957904Y-79256666D01*
X155957904Y-78761428D01*
X133957904Y-79523333D02*
X133576952Y-79790000D01*
X133957904Y-79980476D02*
X133157904Y-79980476D01*
X133157904Y-79675714D01*
X133196000Y-79599523D01*
X133234095Y-79561428D01*
X133310285Y-79523333D01*
X133424571Y-79523333D01*
X133500761Y-79561428D01*
X133538857Y-79599523D01*
X133576952Y-79675714D01*
X133576952Y-79980476D01*
X133234095Y-79218571D02*
X133196000Y-79180476D01*
X133157904Y-79104285D01*
X133157904Y-78913809D01*
X133196000Y-78837619D01*
X133234095Y-78799523D01*
X133310285Y-78761428D01*
X133386476Y-78761428D01*
X133500761Y-78799523D01*
X133957904Y-79256666D01*
X133957904Y-78761428D01*
%TO.C,C2*%
X175181714Y-123523333D02*
X175219809Y-123561428D01*
X175257904Y-123675714D01*
X175257904Y-123751904D01*
X175219809Y-123866190D01*
X175143619Y-123942380D01*
X175067428Y-123980476D01*
X174915047Y-124018571D01*
X174800761Y-124018571D01*
X174648380Y-123980476D01*
X174572190Y-123942380D01*
X174496000Y-123866190D01*
X174457904Y-123751904D01*
X174457904Y-123675714D01*
X174496000Y-123561428D01*
X174534095Y-123523333D01*
X174534095Y-123218571D02*
X174496000Y-123180476D01*
X174457904Y-123104285D01*
X174457904Y-122913809D01*
X174496000Y-122837619D01*
X174534095Y-122799523D01*
X174610285Y-122761428D01*
X174686476Y-122761428D01*
X174800761Y-122799523D01*
X175257904Y-123256666D01*
X175257904Y-122761428D01*
X153181714Y-123523333D02*
X153219809Y-123561428D01*
X153257904Y-123675714D01*
X153257904Y-123751904D01*
X153219809Y-123866190D01*
X153143619Y-123942380D01*
X153067428Y-123980476D01*
X152915047Y-124018571D01*
X152800761Y-124018571D01*
X152648380Y-123980476D01*
X152572190Y-123942380D01*
X152496000Y-123866190D01*
X152457904Y-123751904D01*
X152457904Y-123675714D01*
X152496000Y-123561428D01*
X152534095Y-123523333D01*
X152534095Y-123218571D02*
X152496000Y-123180476D01*
X152457904Y-123104285D01*
X152457904Y-122913809D01*
X152496000Y-122837619D01*
X152534095Y-122799523D01*
X152610285Y-122761428D01*
X152686476Y-122761428D01*
X152800761Y-122799523D01*
X153257904Y-123256666D01*
X153257904Y-122761428D01*
X131181714Y-123523333D02*
X131219809Y-123561428D01*
X131257904Y-123675714D01*
X131257904Y-123751904D01*
X131219809Y-123866190D01*
X131143619Y-123942380D01*
X131067428Y-123980476D01*
X130915047Y-124018571D01*
X130800761Y-124018571D01*
X130648380Y-123980476D01*
X130572190Y-123942380D01*
X130496000Y-123866190D01*
X130457904Y-123751904D01*
X130457904Y-123675714D01*
X130496000Y-123561428D01*
X130534095Y-123523333D01*
X130534095Y-123218571D02*
X130496000Y-123180476D01*
X130457904Y-123104285D01*
X130457904Y-122913809D01*
X130496000Y-122837619D01*
X130534095Y-122799523D01*
X130610285Y-122761428D01*
X130686476Y-122761428D01*
X130800761Y-122799523D01*
X131257904Y-123256666D01*
X131257904Y-122761428D01*
X109181714Y-123523333D02*
X109219809Y-123561428D01*
X109257904Y-123675714D01*
X109257904Y-123751904D01*
X109219809Y-123866190D01*
X109143619Y-123942380D01*
X109067428Y-123980476D01*
X108915047Y-124018571D01*
X108800761Y-124018571D01*
X108648380Y-123980476D01*
X108572190Y-123942380D01*
X108496000Y-123866190D01*
X108457904Y-123751904D01*
X108457904Y-123675714D01*
X108496000Y-123561428D01*
X108534095Y-123523333D01*
X108534095Y-123218571D02*
X108496000Y-123180476D01*
X108457904Y-123104285D01*
X108457904Y-122913809D01*
X108496000Y-122837619D01*
X108534095Y-122799523D01*
X108610285Y-122761428D01*
X108686476Y-122761428D01*
X108800761Y-122799523D01*
X109257904Y-123256666D01*
X109257904Y-122761428D01*
X175181714Y-79523333D02*
X175219809Y-79561428D01*
X175257904Y-79675714D01*
X175257904Y-79751904D01*
X175219809Y-79866190D01*
X175143619Y-79942380D01*
X175067428Y-79980476D01*
X174915047Y-80018571D01*
X174800761Y-80018571D01*
X174648380Y-79980476D01*
X174572190Y-79942380D01*
X174496000Y-79866190D01*
X174457904Y-79751904D01*
X174457904Y-79675714D01*
X174496000Y-79561428D01*
X174534095Y-79523333D01*
X174534095Y-79218571D02*
X174496000Y-79180476D01*
X174457904Y-79104285D01*
X174457904Y-78913809D01*
X174496000Y-78837619D01*
X174534095Y-78799523D01*
X174610285Y-78761428D01*
X174686476Y-78761428D01*
X174800761Y-78799523D01*
X175257904Y-79256666D01*
X175257904Y-78761428D01*
X153181714Y-79523333D02*
X153219809Y-79561428D01*
X153257904Y-79675714D01*
X153257904Y-79751904D01*
X153219809Y-79866190D01*
X153143619Y-79942380D01*
X153067428Y-79980476D01*
X152915047Y-80018571D01*
X152800761Y-80018571D01*
X152648380Y-79980476D01*
X152572190Y-79942380D01*
X152496000Y-79866190D01*
X152457904Y-79751904D01*
X152457904Y-79675714D01*
X152496000Y-79561428D01*
X152534095Y-79523333D01*
X152534095Y-79218571D02*
X152496000Y-79180476D01*
X152457904Y-79104285D01*
X152457904Y-78913809D01*
X152496000Y-78837619D01*
X152534095Y-78799523D01*
X152610285Y-78761428D01*
X152686476Y-78761428D01*
X152800761Y-78799523D01*
X153257904Y-79256666D01*
X153257904Y-78761428D01*
X131181714Y-79523333D02*
X131219809Y-79561428D01*
X131257904Y-79675714D01*
X131257904Y-79751904D01*
X131219809Y-79866190D01*
X131143619Y-79942380D01*
X131067428Y-79980476D01*
X130915047Y-80018571D01*
X130800761Y-80018571D01*
X130648380Y-79980476D01*
X130572190Y-79942380D01*
X130496000Y-79866190D01*
X130457904Y-79751904D01*
X130457904Y-79675714D01*
X130496000Y-79561428D01*
X130534095Y-79523333D01*
X130534095Y-79218571D02*
X130496000Y-79180476D01*
X130457904Y-79104285D01*
X130457904Y-78913809D01*
X130496000Y-78837619D01*
X130534095Y-78799523D01*
X130610285Y-78761428D01*
X130686476Y-78761428D01*
X130800761Y-78799523D01*
X131257904Y-79256666D01*
X131257904Y-78761428D01*
%TO.C,IC1*%
X178085047Y-126037904D02*
X178085047Y-125237904D01*
X178923142Y-125961714D02*
X178885047Y-125999809D01*
X178770761Y-126037904D01*
X178694571Y-126037904D01*
X178580285Y-125999809D01*
X178504095Y-125923619D01*
X178466000Y-125847428D01*
X178427904Y-125695047D01*
X178427904Y-125580761D01*
X178466000Y-125428380D01*
X178504095Y-125352190D01*
X178580285Y-125276000D01*
X178694571Y-125237904D01*
X178770761Y-125237904D01*
X178885047Y-125276000D01*
X178923142Y-125314095D01*
X179685047Y-126037904D02*
X179227904Y-126037904D01*
X179456476Y-126037904D02*
X179456476Y-125237904D01*
X179380285Y-125352190D01*
X179304095Y-125428380D01*
X179227904Y-125466476D01*
X156085047Y-126037904D02*
X156085047Y-125237904D01*
X156923142Y-125961714D02*
X156885047Y-125999809D01*
X156770761Y-126037904D01*
X156694571Y-126037904D01*
X156580285Y-125999809D01*
X156504095Y-125923619D01*
X156466000Y-125847428D01*
X156427904Y-125695047D01*
X156427904Y-125580761D01*
X156466000Y-125428380D01*
X156504095Y-125352190D01*
X156580285Y-125276000D01*
X156694571Y-125237904D01*
X156770761Y-125237904D01*
X156885047Y-125276000D01*
X156923142Y-125314095D01*
X157685047Y-126037904D02*
X157227904Y-126037904D01*
X157456476Y-126037904D02*
X157456476Y-125237904D01*
X157380285Y-125352190D01*
X157304095Y-125428380D01*
X157227904Y-125466476D01*
X134085047Y-126037904D02*
X134085047Y-125237904D01*
X134923142Y-125961714D02*
X134885047Y-125999809D01*
X134770761Y-126037904D01*
X134694571Y-126037904D01*
X134580285Y-125999809D01*
X134504095Y-125923619D01*
X134466000Y-125847428D01*
X134427904Y-125695047D01*
X134427904Y-125580761D01*
X134466000Y-125428380D01*
X134504095Y-125352190D01*
X134580285Y-125276000D01*
X134694571Y-125237904D01*
X134770761Y-125237904D01*
X134885047Y-125276000D01*
X134923142Y-125314095D01*
X135685047Y-126037904D02*
X135227904Y-126037904D01*
X135456476Y-126037904D02*
X135456476Y-125237904D01*
X135380285Y-125352190D01*
X135304095Y-125428380D01*
X135227904Y-125466476D01*
X112085047Y-126037904D02*
X112085047Y-125237904D01*
X112923142Y-125961714D02*
X112885047Y-125999809D01*
X112770761Y-126037904D01*
X112694571Y-126037904D01*
X112580285Y-125999809D01*
X112504095Y-125923619D01*
X112466000Y-125847428D01*
X112427904Y-125695047D01*
X112427904Y-125580761D01*
X112466000Y-125428380D01*
X112504095Y-125352190D01*
X112580285Y-125276000D01*
X112694571Y-125237904D01*
X112770761Y-125237904D01*
X112885047Y-125276000D01*
X112923142Y-125314095D01*
X113685047Y-126037904D02*
X113227904Y-126037904D01*
X113456476Y-126037904D02*
X113456476Y-125237904D01*
X113380285Y-125352190D01*
X113304095Y-125428380D01*
X113227904Y-125466476D01*
X178085047Y-82037904D02*
X178085047Y-81237904D01*
X178923142Y-81961714D02*
X178885047Y-81999809D01*
X178770761Y-82037904D01*
X178694571Y-82037904D01*
X178580285Y-81999809D01*
X178504095Y-81923619D01*
X178466000Y-81847428D01*
X178427904Y-81695047D01*
X178427904Y-81580761D01*
X178466000Y-81428380D01*
X178504095Y-81352190D01*
X178580285Y-81276000D01*
X178694571Y-81237904D01*
X178770761Y-81237904D01*
X178885047Y-81276000D01*
X178923142Y-81314095D01*
X179685047Y-82037904D02*
X179227904Y-82037904D01*
X179456476Y-82037904D02*
X179456476Y-81237904D01*
X179380285Y-81352190D01*
X179304095Y-81428380D01*
X179227904Y-81466476D01*
X156085047Y-82037904D02*
X156085047Y-81237904D01*
X156923142Y-81961714D02*
X156885047Y-81999809D01*
X156770761Y-82037904D01*
X156694571Y-82037904D01*
X156580285Y-81999809D01*
X156504095Y-81923619D01*
X156466000Y-81847428D01*
X156427904Y-81695047D01*
X156427904Y-81580761D01*
X156466000Y-81428380D01*
X156504095Y-81352190D01*
X156580285Y-81276000D01*
X156694571Y-81237904D01*
X156770761Y-81237904D01*
X156885047Y-81276000D01*
X156923142Y-81314095D01*
X157685047Y-82037904D02*
X157227904Y-82037904D01*
X157456476Y-82037904D02*
X157456476Y-81237904D01*
X157380285Y-81352190D01*
X157304095Y-81428380D01*
X157227904Y-81466476D01*
X134085047Y-82037904D02*
X134085047Y-81237904D01*
X134923142Y-81961714D02*
X134885047Y-81999809D01*
X134770761Y-82037904D01*
X134694571Y-82037904D01*
X134580285Y-81999809D01*
X134504095Y-81923619D01*
X134466000Y-81847428D01*
X134427904Y-81695047D01*
X134427904Y-81580761D01*
X134466000Y-81428380D01*
X134504095Y-81352190D01*
X134580285Y-81276000D01*
X134694571Y-81237904D01*
X134770761Y-81237904D01*
X134885047Y-81276000D01*
X134923142Y-81314095D01*
X135685047Y-82037904D02*
X135227904Y-82037904D01*
X135456476Y-82037904D02*
X135456476Y-81237904D01*
X135380285Y-81352190D01*
X135304095Y-81428380D01*
X135227904Y-81466476D01*
%TO.C,R3*%
X181767904Y-127079333D02*
X181386952Y-127346000D01*
X181767904Y-127536476D02*
X180967904Y-127536476D01*
X180967904Y-127231714D01*
X181006000Y-127155523D01*
X181044095Y-127117428D01*
X181120285Y-127079333D01*
X181234571Y-127079333D01*
X181310761Y-127117428D01*
X181348857Y-127155523D01*
X181386952Y-127231714D01*
X181386952Y-127536476D01*
X180967904Y-126812666D02*
X180967904Y-126317428D01*
X181272666Y-126584095D01*
X181272666Y-126469809D01*
X181310761Y-126393619D01*
X181348857Y-126355523D01*
X181425047Y-126317428D01*
X181615523Y-126317428D01*
X181691714Y-126355523D01*
X181729809Y-126393619D01*
X181767904Y-126469809D01*
X181767904Y-126698380D01*
X181729809Y-126774571D01*
X181691714Y-126812666D01*
X159767904Y-127079333D02*
X159386952Y-127346000D01*
X159767904Y-127536476D02*
X158967904Y-127536476D01*
X158967904Y-127231714D01*
X159006000Y-127155523D01*
X159044095Y-127117428D01*
X159120285Y-127079333D01*
X159234571Y-127079333D01*
X159310761Y-127117428D01*
X159348857Y-127155523D01*
X159386952Y-127231714D01*
X159386952Y-127536476D01*
X158967904Y-126812666D02*
X158967904Y-126317428D01*
X159272666Y-126584095D01*
X159272666Y-126469809D01*
X159310761Y-126393619D01*
X159348857Y-126355523D01*
X159425047Y-126317428D01*
X159615523Y-126317428D01*
X159691714Y-126355523D01*
X159729809Y-126393619D01*
X159767904Y-126469809D01*
X159767904Y-126698380D01*
X159729809Y-126774571D01*
X159691714Y-126812666D01*
X137767904Y-127079333D02*
X137386952Y-127346000D01*
X137767904Y-127536476D02*
X136967904Y-127536476D01*
X136967904Y-127231714D01*
X137006000Y-127155523D01*
X137044095Y-127117428D01*
X137120285Y-127079333D01*
X137234571Y-127079333D01*
X137310761Y-127117428D01*
X137348857Y-127155523D01*
X137386952Y-127231714D01*
X137386952Y-127536476D01*
X136967904Y-126812666D02*
X136967904Y-126317428D01*
X137272666Y-126584095D01*
X137272666Y-126469809D01*
X137310761Y-126393619D01*
X137348857Y-126355523D01*
X137425047Y-126317428D01*
X137615523Y-126317428D01*
X137691714Y-126355523D01*
X137729809Y-126393619D01*
X137767904Y-126469809D01*
X137767904Y-126698380D01*
X137729809Y-126774571D01*
X137691714Y-126812666D01*
X115767904Y-127079333D02*
X115386952Y-127346000D01*
X115767904Y-127536476D02*
X114967904Y-127536476D01*
X114967904Y-127231714D01*
X115006000Y-127155523D01*
X115044095Y-127117428D01*
X115120285Y-127079333D01*
X115234571Y-127079333D01*
X115310761Y-127117428D01*
X115348857Y-127155523D01*
X115386952Y-127231714D01*
X115386952Y-127536476D01*
X114967904Y-126812666D02*
X114967904Y-126317428D01*
X115272666Y-126584095D01*
X115272666Y-126469809D01*
X115310761Y-126393619D01*
X115348857Y-126355523D01*
X115425047Y-126317428D01*
X115615523Y-126317428D01*
X115691714Y-126355523D01*
X115729809Y-126393619D01*
X115767904Y-126469809D01*
X115767904Y-126698380D01*
X115729809Y-126774571D01*
X115691714Y-126812666D01*
X181767904Y-83079333D02*
X181386952Y-83346000D01*
X181767904Y-83536476D02*
X180967904Y-83536476D01*
X180967904Y-83231714D01*
X181006000Y-83155523D01*
X181044095Y-83117428D01*
X181120285Y-83079333D01*
X181234571Y-83079333D01*
X181310761Y-83117428D01*
X181348857Y-83155523D01*
X181386952Y-83231714D01*
X181386952Y-83536476D01*
X180967904Y-82812666D02*
X180967904Y-82317428D01*
X181272666Y-82584095D01*
X181272666Y-82469809D01*
X181310761Y-82393619D01*
X181348857Y-82355523D01*
X181425047Y-82317428D01*
X181615523Y-82317428D01*
X181691714Y-82355523D01*
X181729809Y-82393619D01*
X181767904Y-82469809D01*
X181767904Y-82698380D01*
X181729809Y-82774571D01*
X181691714Y-82812666D01*
X159767904Y-83079333D02*
X159386952Y-83346000D01*
X159767904Y-83536476D02*
X158967904Y-83536476D01*
X158967904Y-83231714D01*
X159006000Y-83155523D01*
X159044095Y-83117428D01*
X159120285Y-83079333D01*
X159234571Y-83079333D01*
X159310761Y-83117428D01*
X159348857Y-83155523D01*
X159386952Y-83231714D01*
X159386952Y-83536476D01*
X158967904Y-82812666D02*
X158967904Y-82317428D01*
X159272666Y-82584095D01*
X159272666Y-82469809D01*
X159310761Y-82393619D01*
X159348857Y-82355523D01*
X159425047Y-82317428D01*
X159615523Y-82317428D01*
X159691714Y-82355523D01*
X159729809Y-82393619D01*
X159767904Y-82469809D01*
X159767904Y-82698380D01*
X159729809Y-82774571D01*
X159691714Y-82812666D01*
X137767904Y-83079333D02*
X137386952Y-83346000D01*
X137767904Y-83536476D02*
X136967904Y-83536476D01*
X136967904Y-83231714D01*
X137006000Y-83155523D01*
X137044095Y-83117428D01*
X137120285Y-83079333D01*
X137234571Y-83079333D01*
X137310761Y-83117428D01*
X137348857Y-83155523D01*
X137386952Y-83231714D01*
X137386952Y-83536476D01*
X136967904Y-82812666D02*
X136967904Y-82317428D01*
X137272666Y-82584095D01*
X137272666Y-82469809D01*
X137310761Y-82393619D01*
X137348857Y-82355523D01*
X137425047Y-82317428D01*
X137615523Y-82317428D01*
X137691714Y-82355523D01*
X137729809Y-82393619D01*
X137767904Y-82469809D01*
X137767904Y-82698380D01*
X137729809Y-82774571D01*
X137691714Y-82812666D01*
%TO.C,R4*%
X176941904Y-127079333D02*
X176560952Y-127346000D01*
X176941904Y-127536476D02*
X176141904Y-127536476D01*
X176141904Y-127231714D01*
X176180000Y-127155523D01*
X176218095Y-127117428D01*
X176294285Y-127079333D01*
X176408571Y-127079333D01*
X176484761Y-127117428D01*
X176522857Y-127155523D01*
X176560952Y-127231714D01*
X176560952Y-127536476D01*
X176408571Y-126393619D02*
X176941904Y-126393619D01*
X176103809Y-126584095D02*
X176675238Y-126774571D01*
X176675238Y-126279333D01*
X154941904Y-127079333D02*
X154560952Y-127346000D01*
X154941904Y-127536476D02*
X154141904Y-127536476D01*
X154141904Y-127231714D01*
X154180000Y-127155523D01*
X154218095Y-127117428D01*
X154294285Y-127079333D01*
X154408571Y-127079333D01*
X154484761Y-127117428D01*
X154522857Y-127155523D01*
X154560952Y-127231714D01*
X154560952Y-127536476D01*
X154408571Y-126393619D02*
X154941904Y-126393619D01*
X154103809Y-126584095D02*
X154675238Y-126774571D01*
X154675238Y-126279333D01*
X132941904Y-127079333D02*
X132560952Y-127346000D01*
X132941904Y-127536476D02*
X132141904Y-127536476D01*
X132141904Y-127231714D01*
X132180000Y-127155523D01*
X132218095Y-127117428D01*
X132294285Y-127079333D01*
X132408571Y-127079333D01*
X132484761Y-127117428D01*
X132522857Y-127155523D01*
X132560952Y-127231714D01*
X132560952Y-127536476D01*
X132408571Y-126393619D02*
X132941904Y-126393619D01*
X132103809Y-126584095D02*
X132675238Y-126774571D01*
X132675238Y-126279333D01*
X110941904Y-127079333D02*
X110560952Y-127346000D01*
X110941904Y-127536476D02*
X110141904Y-127536476D01*
X110141904Y-127231714D01*
X110180000Y-127155523D01*
X110218095Y-127117428D01*
X110294285Y-127079333D01*
X110408571Y-127079333D01*
X110484761Y-127117428D01*
X110522857Y-127155523D01*
X110560952Y-127231714D01*
X110560952Y-127536476D01*
X110408571Y-126393619D02*
X110941904Y-126393619D01*
X110103809Y-126584095D02*
X110675238Y-126774571D01*
X110675238Y-126279333D01*
X176941904Y-83079333D02*
X176560952Y-83346000D01*
X176941904Y-83536476D02*
X176141904Y-83536476D01*
X176141904Y-83231714D01*
X176180000Y-83155523D01*
X176218095Y-83117428D01*
X176294285Y-83079333D01*
X176408571Y-83079333D01*
X176484761Y-83117428D01*
X176522857Y-83155523D01*
X176560952Y-83231714D01*
X176560952Y-83536476D01*
X176408571Y-82393619D02*
X176941904Y-82393619D01*
X176103809Y-82584095D02*
X176675238Y-82774571D01*
X176675238Y-82279333D01*
X154941904Y-83079333D02*
X154560952Y-83346000D01*
X154941904Y-83536476D02*
X154141904Y-83536476D01*
X154141904Y-83231714D01*
X154180000Y-83155523D01*
X154218095Y-83117428D01*
X154294285Y-83079333D01*
X154408571Y-83079333D01*
X154484761Y-83117428D01*
X154522857Y-83155523D01*
X154560952Y-83231714D01*
X154560952Y-83536476D01*
X154408571Y-82393619D02*
X154941904Y-82393619D01*
X154103809Y-82584095D02*
X154675238Y-82774571D01*
X154675238Y-82279333D01*
X132941904Y-83079333D02*
X132560952Y-83346000D01*
X132941904Y-83536476D02*
X132141904Y-83536476D01*
X132141904Y-83231714D01*
X132180000Y-83155523D01*
X132218095Y-83117428D01*
X132294285Y-83079333D01*
X132408571Y-83079333D01*
X132484761Y-83117428D01*
X132522857Y-83155523D01*
X132560952Y-83231714D01*
X132560952Y-83536476D01*
X132408571Y-82393619D02*
X132941904Y-82393619D01*
X132103809Y-82584095D02*
X132675238Y-82774571D01*
X132675238Y-82279333D01*
%TO.C,U1*%
X170890476Y-119141904D02*
X170890476Y-119789523D01*
X170928571Y-119865714D01*
X170966666Y-119903809D01*
X171042857Y-119941904D01*
X171195238Y-119941904D01*
X171271428Y-119903809D01*
X171309523Y-119865714D01*
X171347619Y-119789523D01*
X171347619Y-119141904D01*
X172147619Y-119941904D02*
X171690476Y-119941904D01*
X171919047Y-119941904D02*
X171919047Y-119141904D01*
X171842857Y-119256190D01*
X171766666Y-119332380D01*
X171690476Y-119370476D01*
X148890476Y-119141904D02*
X148890476Y-119789523D01*
X148928571Y-119865714D01*
X148966666Y-119903809D01*
X149042857Y-119941904D01*
X149195238Y-119941904D01*
X149271428Y-119903809D01*
X149309523Y-119865714D01*
X149347619Y-119789523D01*
X149347619Y-119141904D01*
X150147619Y-119941904D02*
X149690476Y-119941904D01*
X149919047Y-119941904D02*
X149919047Y-119141904D01*
X149842857Y-119256190D01*
X149766666Y-119332380D01*
X149690476Y-119370476D01*
X126890476Y-119141904D02*
X126890476Y-119789523D01*
X126928571Y-119865714D01*
X126966666Y-119903809D01*
X127042857Y-119941904D01*
X127195238Y-119941904D01*
X127271428Y-119903809D01*
X127309523Y-119865714D01*
X127347619Y-119789523D01*
X127347619Y-119141904D01*
X128147619Y-119941904D02*
X127690476Y-119941904D01*
X127919047Y-119941904D02*
X127919047Y-119141904D01*
X127842857Y-119256190D01*
X127766666Y-119332380D01*
X127690476Y-119370476D01*
X170890476Y-75141904D02*
X170890476Y-75789523D01*
X170928571Y-75865714D01*
X170966666Y-75903809D01*
X171042857Y-75941904D01*
X171195238Y-75941904D01*
X171271428Y-75903809D01*
X171309523Y-75865714D01*
X171347619Y-75789523D01*
X171347619Y-75141904D01*
X172147619Y-75941904D02*
X171690476Y-75941904D01*
X171919047Y-75941904D02*
X171919047Y-75141904D01*
X171842857Y-75256190D01*
X171766666Y-75332380D01*
X171690476Y-75370476D01*
X148890476Y-75141904D02*
X148890476Y-75789523D01*
X148928571Y-75865714D01*
X148966666Y-75903809D01*
X149042857Y-75941904D01*
X149195238Y-75941904D01*
X149271428Y-75903809D01*
X149309523Y-75865714D01*
X149347619Y-75789523D01*
X149347619Y-75141904D01*
X150147619Y-75941904D02*
X149690476Y-75941904D01*
X149919047Y-75941904D02*
X149919047Y-75141904D01*
X149842857Y-75256190D01*
X149766666Y-75332380D01*
X149690476Y-75370476D01*
X126890476Y-75141904D02*
X126890476Y-75789523D01*
X126928571Y-75865714D01*
X126966666Y-75903809D01*
X127042857Y-75941904D01*
X127195238Y-75941904D01*
X127271428Y-75903809D01*
X127309523Y-75865714D01*
X127347619Y-75789523D01*
X127347619Y-75141904D01*
X128147619Y-75941904D02*
X127690476Y-75941904D01*
X127919047Y-75941904D02*
X127919047Y-75141904D01*
X127842857Y-75256190D01*
X127766666Y-75332380D01*
X127690476Y-75370476D01*
%TO.C,S3*%
X169537809Y-134921523D02*
X169575904Y-134807238D01*
X169575904Y-134616761D01*
X169537809Y-134540571D01*
X169499714Y-134502476D01*
X169423523Y-134464380D01*
X169347333Y-134464380D01*
X169271142Y-134502476D01*
X169233047Y-134540571D01*
X169194952Y-134616761D01*
X169156857Y-134769142D01*
X169118761Y-134845333D01*
X169080666Y-134883428D01*
X169004476Y-134921523D01*
X168928285Y-134921523D01*
X168852095Y-134883428D01*
X168814000Y-134845333D01*
X168775904Y-134769142D01*
X168775904Y-134578666D01*
X168814000Y-134464380D01*
X168775904Y-134197714D02*
X168775904Y-133702476D01*
X169080666Y-133969142D01*
X169080666Y-133854857D01*
X169118761Y-133778666D01*
X169156857Y-133740571D01*
X169233047Y-133702476D01*
X169423523Y-133702476D01*
X169499714Y-133740571D01*
X169537809Y-133778666D01*
X169575904Y-133854857D01*
X169575904Y-134083428D01*
X169537809Y-134159619D01*
X169499714Y-134197714D01*
X147537809Y-134921523D02*
X147575904Y-134807238D01*
X147575904Y-134616761D01*
X147537809Y-134540571D01*
X147499714Y-134502476D01*
X147423523Y-134464380D01*
X147347333Y-134464380D01*
X147271142Y-134502476D01*
X147233047Y-134540571D01*
X147194952Y-134616761D01*
X147156857Y-134769142D01*
X147118761Y-134845333D01*
X147080666Y-134883428D01*
X147004476Y-134921523D01*
X146928285Y-134921523D01*
X146852095Y-134883428D01*
X146814000Y-134845333D01*
X146775904Y-134769142D01*
X146775904Y-134578666D01*
X146814000Y-134464380D01*
X146775904Y-134197714D02*
X146775904Y-133702476D01*
X147080666Y-133969142D01*
X147080666Y-133854857D01*
X147118761Y-133778666D01*
X147156857Y-133740571D01*
X147233047Y-133702476D01*
X147423523Y-133702476D01*
X147499714Y-133740571D01*
X147537809Y-133778666D01*
X147575904Y-133854857D01*
X147575904Y-134083428D01*
X147537809Y-134159619D01*
X147499714Y-134197714D01*
X125537809Y-134921523D02*
X125575904Y-134807238D01*
X125575904Y-134616761D01*
X125537809Y-134540571D01*
X125499714Y-134502476D01*
X125423523Y-134464380D01*
X125347333Y-134464380D01*
X125271142Y-134502476D01*
X125233047Y-134540571D01*
X125194952Y-134616761D01*
X125156857Y-134769142D01*
X125118761Y-134845333D01*
X125080666Y-134883428D01*
X125004476Y-134921523D01*
X124928285Y-134921523D01*
X124852095Y-134883428D01*
X124814000Y-134845333D01*
X124775904Y-134769142D01*
X124775904Y-134578666D01*
X124814000Y-134464380D01*
X124775904Y-134197714D02*
X124775904Y-133702476D01*
X125080666Y-133969142D01*
X125080666Y-133854857D01*
X125118761Y-133778666D01*
X125156857Y-133740571D01*
X125233047Y-133702476D01*
X125423523Y-133702476D01*
X125499714Y-133740571D01*
X125537809Y-133778666D01*
X125575904Y-133854857D01*
X125575904Y-134083428D01*
X125537809Y-134159619D01*
X125499714Y-134197714D01*
X103537809Y-134921523D02*
X103575904Y-134807238D01*
X103575904Y-134616761D01*
X103537809Y-134540571D01*
X103499714Y-134502476D01*
X103423523Y-134464380D01*
X103347333Y-134464380D01*
X103271142Y-134502476D01*
X103233047Y-134540571D01*
X103194952Y-134616761D01*
X103156857Y-134769142D01*
X103118761Y-134845333D01*
X103080666Y-134883428D01*
X103004476Y-134921523D01*
X102928285Y-134921523D01*
X102852095Y-134883428D01*
X102814000Y-134845333D01*
X102775904Y-134769142D01*
X102775904Y-134578666D01*
X102814000Y-134464380D01*
X102775904Y-134197714D02*
X102775904Y-133702476D01*
X103080666Y-133969142D01*
X103080666Y-133854857D01*
X103118761Y-133778666D01*
X103156857Y-133740571D01*
X103233047Y-133702476D01*
X103423523Y-133702476D01*
X103499714Y-133740571D01*
X103537809Y-133778666D01*
X103575904Y-133854857D01*
X103575904Y-134083428D01*
X103537809Y-134159619D01*
X103499714Y-134197714D01*
X169537809Y-90921523D02*
X169575904Y-90807238D01*
X169575904Y-90616761D01*
X169537809Y-90540571D01*
X169499714Y-90502476D01*
X169423523Y-90464380D01*
X169347333Y-90464380D01*
X169271142Y-90502476D01*
X169233047Y-90540571D01*
X169194952Y-90616761D01*
X169156857Y-90769142D01*
X169118761Y-90845333D01*
X169080666Y-90883428D01*
X169004476Y-90921523D01*
X168928285Y-90921523D01*
X168852095Y-90883428D01*
X168814000Y-90845333D01*
X168775904Y-90769142D01*
X168775904Y-90578666D01*
X168814000Y-90464380D01*
X168775904Y-90197714D02*
X168775904Y-89702476D01*
X169080666Y-89969142D01*
X169080666Y-89854857D01*
X169118761Y-89778666D01*
X169156857Y-89740571D01*
X169233047Y-89702476D01*
X169423523Y-89702476D01*
X169499714Y-89740571D01*
X169537809Y-89778666D01*
X169575904Y-89854857D01*
X169575904Y-90083428D01*
X169537809Y-90159619D01*
X169499714Y-90197714D01*
X147537809Y-90921523D02*
X147575904Y-90807238D01*
X147575904Y-90616761D01*
X147537809Y-90540571D01*
X147499714Y-90502476D01*
X147423523Y-90464380D01*
X147347333Y-90464380D01*
X147271142Y-90502476D01*
X147233047Y-90540571D01*
X147194952Y-90616761D01*
X147156857Y-90769142D01*
X147118761Y-90845333D01*
X147080666Y-90883428D01*
X147004476Y-90921523D01*
X146928285Y-90921523D01*
X146852095Y-90883428D01*
X146814000Y-90845333D01*
X146775904Y-90769142D01*
X146775904Y-90578666D01*
X146814000Y-90464380D01*
X146775904Y-90197714D02*
X146775904Y-89702476D01*
X147080666Y-89969142D01*
X147080666Y-89854857D01*
X147118761Y-89778666D01*
X147156857Y-89740571D01*
X147233047Y-89702476D01*
X147423523Y-89702476D01*
X147499714Y-89740571D01*
X147537809Y-89778666D01*
X147575904Y-89854857D01*
X147575904Y-90083428D01*
X147537809Y-90159619D01*
X147499714Y-90197714D01*
X125537809Y-90921523D02*
X125575904Y-90807238D01*
X125575904Y-90616761D01*
X125537809Y-90540571D01*
X125499714Y-90502476D01*
X125423523Y-90464380D01*
X125347333Y-90464380D01*
X125271142Y-90502476D01*
X125233047Y-90540571D01*
X125194952Y-90616761D01*
X125156857Y-90769142D01*
X125118761Y-90845333D01*
X125080666Y-90883428D01*
X125004476Y-90921523D01*
X124928285Y-90921523D01*
X124852095Y-90883428D01*
X124814000Y-90845333D01*
X124775904Y-90769142D01*
X124775904Y-90578666D01*
X124814000Y-90464380D01*
X124775904Y-90197714D02*
X124775904Y-89702476D01*
X125080666Y-89969142D01*
X125080666Y-89854857D01*
X125118761Y-89778666D01*
X125156857Y-89740571D01*
X125233047Y-89702476D01*
X125423523Y-89702476D01*
X125499714Y-89740571D01*
X125537809Y-89778666D01*
X125575904Y-89854857D01*
X125575904Y-90083428D01*
X125537809Y-90159619D01*
X125499714Y-90197714D01*
%TO.C,S2*%
X189349809Y-134921523D02*
X189387904Y-134807238D01*
X189387904Y-134616761D01*
X189349809Y-134540571D01*
X189311714Y-134502476D01*
X189235523Y-134464380D01*
X189159333Y-134464380D01*
X189083142Y-134502476D01*
X189045047Y-134540571D01*
X189006952Y-134616761D01*
X188968857Y-134769142D01*
X188930761Y-134845333D01*
X188892666Y-134883428D01*
X188816476Y-134921523D01*
X188740285Y-134921523D01*
X188664095Y-134883428D01*
X188626000Y-134845333D01*
X188587904Y-134769142D01*
X188587904Y-134578666D01*
X188626000Y-134464380D01*
X188664095Y-134159619D02*
X188626000Y-134121523D01*
X188587904Y-134045333D01*
X188587904Y-133854857D01*
X188626000Y-133778666D01*
X188664095Y-133740571D01*
X188740285Y-133702476D01*
X188816476Y-133702476D01*
X188930761Y-133740571D01*
X189387904Y-134197714D01*
X189387904Y-133702476D01*
X167349809Y-134921523D02*
X167387904Y-134807238D01*
X167387904Y-134616761D01*
X167349809Y-134540571D01*
X167311714Y-134502476D01*
X167235523Y-134464380D01*
X167159333Y-134464380D01*
X167083142Y-134502476D01*
X167045047Y-134540571D01*
X167006952Y-134616761D01*
X166968857Y-134769142D01*
X166930761Y-134845333D01*
X166892666Y-134883428D01*
X166816476Y-134921523D01*
X166740285Y-134921523D01*
X166664095Y-134883428D01*
X166626000Y-134845333D01*
X166587904Y-134769142D01*
X166587904Y-134578666D01*
X166626000Y-134464380D01*
X166664095Y-134159619D02*
X166626000Y-134121523D01*
X166587904Y-134045333D01*
X166587904Y-133854857D01*
X166626000Y-133778666D01*
X166664095Y-133740571D01*
X166740285Y-133702476D01*
X166816476Y-133702476D01*
X166930761Y-133740571D01*
X167387904Y-134197714D01*
X167387904Y-133702476D01*
X145349809Y-134921523D02*
X145387904Y-134807238D01*
X145387904Y-134616761D01*
X145349809Y-134540571D01*
X145311714Y-134502476D01*
X145235523Y-134464380D01*
X145159333Y-134464380D01*
X145083142Y-134502476D01*
X145045047Y-134540571D01*
X145006952Y-134616761D01*
X144968857Y-134769142D01*
X144930761Y-134845333D01*
X144892666Y-134883428D01*
X144816476Y-134921523D01*
X144740285Y-134921523D01*
X144664095Y-134883428D01*
X144626000Y-134845333D01*
X144587904Y-134769142D01*
X144587904Y-134578666D01*
X144626000Y-134464380D01*
X144664095Y-134159619D02*
X144626000Y-134121523D01*
X144587904Y-134045333D01*
X144587904Y-133854857D01*
X144626000Y-133778666D01*
X144664095Y-133740571D01*
X144740285Y-133702476D01*
X144816476Y-133702476D01*
X144930761Y-133740571D01*
X145387904Y-134197714D01*
X145387904Y-133702476D01*
X123349809Y-134921523D02*
X123387904Y-134807238D01*
X123387904Y-134616761D01*
X123349809Y-134540571D01*
X123311714Y-134502476D01*
X123235523Y-134464380D01*
X123159333Y-134464380D01*
X123083142Y-134502476D01*
X123045047Y-134540571D01*
X123006952Y-134616761D01*
X122968857Y-134769142D01*
X122930761Y-134845333D01*
X122892666Y-134883428D01*
X122816476Y-134921523D01*
X122740285Y-134921523D01*
X122664095Y-134883428D01*
X122626000Y-134845333D01*
X122587904Y-134769142D01*
X122587904Y-134578666D01*
X122626000Y-134464380D01*
X122664095Y-134159619D02*
X122626000Y-134121523D01*
X122587904Y-134045333D01*
X122587904Y-133854857D01*
X122626000Y-133778666D01*
X122664095Y-133740571D01*
X122740285Y-133702476D01*
X122816476Y-133702476D01*
X122930761Y-133740571D01*
X123387904Y-134197714D01*
X123387904Y-133702476D01*
X189349809Y-90921523D02*
X189387904Y-90807238D01*
X189387904Y-90616761D01*
X189349809Y-90540571D01*
X189311714Y-90502476D01*
X189235523Y-90464380D01*
X189159333Y-90464380D01*
X189083142Y-90502476D01*
X189045047Y-90540571D01*
X189006952Y-90616761D01*
X188968857Y-90769142D01*
X188930761Y-90845333D01*
X188892666Y-90883428D01*
X188816476Y-90921523D01*
X188740285Y-90921523D01*
X188664095Y-90883428D01*
X188626000Y-90845333D01*
X188587904Y-90769142D01*
X188587904Y-90578666D01*
X188626000Y-90464380D01*
X188664095Y-90159619D02*
X188626000Y-90121523D01*
X188587904Y-90045333D01*
X188587904Y-89854857D01*
X188626000Y-89778666D01*
X188664095Y-89740571D01*
X188740285Y-89702476D01*
X188816476Y-89702476D01*
X188930761Y-89740571D01*
X189387904Y-90197714D01*
X189387904Y-89702476D01*
X167349809Y-90921523D02*
X167387904Y-90807238D01*
X167387904Y-90616761D01*
X167349809Y-90540571D01*
X167311714Y-90502476D01*
X167235523Y-90464380D01*
X167159333Y-90464380D01*
X167083142Y-90502476D01*
X167045047Y-90540571D01*
X167006952Y-90616761D01*
X166968857Y-90769142D01*
X166930761Y-90845333D01*
X166892666Y-90883428D01*
X166816476Y-90921523D01*
X166740285Y-90921523D01*
X166664095Y-90883428D01*
X166626000Y-90845333D01*
X166587904Y-90769142D01*
X166587904Y-90578666D01*
X166626000Y-90464380D01*
X166664095Y-90159619D02*
X166626000Y-90121523D01*
X166587904Y-90045333D01*
X166587904Y-89854857D01*
X166626000Y-89778666D01*
X166664095Y-89740571D01*
X166740285Y-89702476D01*
X166816476Y-89702476D01*
X166930761Y-89740571D01*
X167387904Y-90197714D01*
X167387904Y-89702476D01*
X145349809Y-90921523D02*
X145387904Y-90807238D01*
X145387904Y-90616761D01*
X145349809Y-90540571D01*
X145311714Y-90502476D01*
X145235523Y-90464380D01*
X145159333Y-90464380D01*
X145083142Y-90502476D01*
X145045047Y-90540571D01*
X145006952Y-90616761D01*
X144968857Y-90769142D01*
X144930761Y-90845333D01*
X144892666Y-90883428D01*
X144816476Y-90921523D01*
X144740285Y-90921523D01*
X144664095Y-90883428D01*
X144626000Y-90845333D01*
X144587904Y-90769142D01*
X144587904Y-90578666D01*
X144626000Y-90464380D01*
X144664095Y-90159619D02*
X144626000Y-90121523D01*
X144587904Y-90045333D01*
X144587904Y-89854857D01*
X144626000Y-89778666D01*
X144664095Y-89740571D01*
X144740285Y-89702476D01*
X144816476Y-89702476D01*
X144930761Y-89740571D01*
X145387904Y-90197714D01*
X145387904Y-89702476D01*
%TO.C,J1*%
X183689333Y-131000904D02*
X183689333Y-131572333D01*
X183651238Y-131686619D01*
X183575047Y-131762809D01*
X183460761Y-131800904D01*
X183384571Y-131800904D01*
X184489333Y-131800904D02*
X184032190Y-131800904D01*
X184260761Y-131800904D02*
X184260761Y-131000904D01*
X184184571Y-131115190D01*
X184108380Y-131191380D01*
X184032190Y-131229476D01*
X161689333Y-131000904D02*
X161689333Y-131572333D01*
X161651238Y-131686619D01*
X161575047Y-131762809D01*
X161460761Y-131800904D01*
X161384571Y-131800904D01*
X162489333Y-131800904D02*
X162032190Y-131800904D01*
X162260761Y-131800904D02*
X162260761Y-131000904D01*
X162184571Y-131115190D01*
X162108380Y-131191380D01*
X162032190Y-131229476D01*
X139689333Y-131000904D02*
X139689333Y-131572333D01*
X139651238Y-131686619D01*
X139575047Y-131762809D01*
X139460761Y-131800904D01*
X139384571Y-131800904D01*
X140489333Y-131800904D02*
X140032190Y-131800904D01*
X140260761Y-131800904D02*
X140260761Y-131000904D01*
X140184571Y-131115190D01*
X140108380Y-131191380D01*
X140032190Y-131229476D01*
X117689333Y-131000904D02*
X117689333Y-131572333D01*
X117651238Y-131686619D01*
X117575047Y-131762809D01*
X117460761Y-131800904D01*
X117384571Y-131800904D01*
X118489333Y-131800904D02*
X118032190Y-131800904D01*
X118260761Y-131800904D02*
X118260761Y-131000904D01*
X118184571Y-131115190D01*
X118108380Y-131191380D01*
X118032190Y-131229476D01*
X183689333Y-87000904D02*
X183689333Y-87572333D01*
X183651238Y-87686619D01*
X183575047Y-87762809D01*
X183460761Y-87800904D01*
X183384571Y-87800904D01*
X184489333Y-87800904D02*
X184032190Y-87800904D01*
X184260761Y-87800904D02*
X184260761Y-87000904D01*
X184184571Y-87115190D01*
X184108380Y-87191380D01*
X184032190Y-87229476D01*
X161689333Y-87000904D02*
X161689333Y-87572333D01*
X161651238Y-87686619D01*
X161575047Y-87762809D01*
X161460761Y-87800904D01*
X161384571Y-87800904D01*
X162489333Y-87800904D02*
X162032190Y-87800904D01*
X162260761Y-87800904D02*
X162260761Y-87000904D01*
X162184571Y-87115190D01*
X162108380Y-87191380D01*
X162032190Y-87229476D01*
X139689333Y-87000904D02*
X139689333Y-87572333D01*
X139651238Y-87686619D01*
X139575047Y-87762809D01*
X139460761Y-87800904D01*
X139384571Y-87800904D01*
X140489333Y-87800904D02*
X140032190Y-87800904D01*
X140260761Y-87800904D02*
X140260761Y-87000904D01*
X140184571Y-87115190D01*
X140108380Y-87191380D01*
X140032190Y-87229476D01*
X117689333Y-87000904D02*
X117689333Y-87572333D01*
X117651238Y-87686619D01*
X117575047Y-87762809D01*
X117460761Y-87800904D01*
X117384571Y-87800904D01*
X118489333Y-87800904D02*
X118032190Y-87800904D01*
X118260761Y-87800904D02*
X118260761Y-87000904D01*
X118184571Y-87115190D01*
X118108380Y-87191380D01*
X118032190Y-87229476D01*
%TO.C,U1*%
X104890476Y-75141904D02*
X104890476Y-75789523D01*
X104928571Y-75865714D01*
X104966666Y-75903809D01*
X105042857Y-75941904D01*
X105195238Y-75941904D01*
X105271428Y-75903809D01*
X105309523Y-75865714D01*
X105347619Y-75789523D01*
X105347619Y-75141904D01*
X106147619Y-75941904D02*
X105690476Y-75941904D01*
X105919047Y-75941904D02*
X105919047Y-75141904D01*
X105842857Y-75256190D01*
X105766666Y-75332380D01*
X105690476Y-75370476D01*
%TO.C,D1*%
X106115904Y-80742476D02*
X105315904Y-80742476D01*
X105315904Y-80552000D01*
X105354000Y-80437714D01*
X105430190Y-80361523D01*
X105506380Y-80323428D01*
X105658761Y-80285333D01*
X105773047Y-80285333D01*
X105925428Y-80323428D01*
X106001619Y-80361523D01*
X106077809Y-80437714D01*
X106115904Y-80552000D01*
X106115904Y-80742476D01*
X106115904Y-79523428D02*
X106115904Y-79980571D01*
X106115904Y-79752000D02*
X105315904Y-79752000D01*
X105430190Y-79828190D01*
X105506380Y-79904380D01*
X105544476Y-79980571D01*
%TO.C,SW1*%
X116853809Y-79948666D02*
X116891904Y-79834380D01*
X116891904Y-79643904D01*
X116853809Y-79567714D01*
X116815714Y-79529619D01*
X116739523Y-79491523D01*
X116663333Y-79491523D01*
X116587142Y-79529619D01*
X116549047Y-79567714D01*
X116510952Y-79643904D01*
X116472857Y-79796285D01*
X116434761Y-79872476D01*
X116396666Y-79910571D01*
X116320476Y-79948666D01*
X116244285Y-79948666D01*
X116168095Y-79910571D01*
X116130000Y-79872476D01*
X116091904Y-79796285D01*
X116091904Y-79605809D01*
X116130000Y-79491523D01*
X116091904Y-79224857D02*
X116891904Y-79034380D01*
X116320476Y-78882000D01*
X116891904Y-78729619D01*
X116091904Y-78539142D01*
X116891904Y-77815333D02*
X116891904Y-78272476D01*
X116891904Y-78043904D02*
X116091904Y-78043904D01*
X116206190Y-78120095D01*
X116282380Y-78196285D01*
X116320476Y-78272476D01*
%TO.C,S3*%
X103537809Y-90921523D02*
X103575904Y-90807238D01*
X103575904Y-90616761D01*
X103537809Y-90540571D01*
X103499714Y-90502476D01*
X103423523Y-90464380D01*
X103347333Y-90464380D01*
X103271142Y-90502476D01*
X103233047Y-90540571D01*
X103194952Y-90616761D01*
X103156857Y-90769142D01*
X103118761Y-90845333D01*
X103080666Y-90883428D01*
X103004476Y-90921523D01*
X102928285Y-90921523D01*
X102852095Y-90883428D01*
X102814000Y-90845333D01*
X102775904Y-90769142D01*
X102775904Y-90578666D01*
X102814000Y-90464380D01*
X102775904Y-90197714D02*
X102775904Y-89702476D01*
X103080666Y-89969142D01*
X103080666Y-89854857D01*
X103118761Y-89778666D01*
X103156857Y-89740571D01*
X103233047Y-89702476D01*
X103423523Y-89702476D01*
X103499714Y-89740571D01*
X103537809Y-89778666D01*
X103575904Y-89854857D01*
X103575904Y-90083428D01*
X103537809Y-90159619D01*
X103499714Y-90197714D01*
%TO.C,S2*%
X123349809Y-90921523D02*
X123387904Y-90807238D01*
X123387904Y-90616761D01*
X123349809Y-90540571D01*
X123311714Y-90502476D01*
X123235523Y-90464380D01*
X123159333Y-90464380D01*
X123083142Y-90502476D01*
X123045047Y-90540571D01*
X123006952Y-90616761D01*
X122968857Y-90769142D01*
X122930761Y-90845333D01*
X122892666Y-90883428D01*
X122816476Y-90921523D01*
X122740285Y-90921523D01*
X122664095Y-90883428D01*
X122626000Y-90845333D01*
X122587904Y-90769142D01*
X122587904Y-90578666D01*
X122626000Y-90464380D01*
X122664095Y-90159619D02*
X122626000Y-90121523D01*
X122587904Y-90045333D01*
X122587904Y-89854857D01*
X122626000Y-89778666D01*
X122664095Y-89740571D01*
X122740285Y-89702476D01*
X122816476Y-89702476D01*
X122930761Y-89740571D01*
X123387904Y-90197714D01*
X123387904Y-89702476D01*
%TO.C,R4*%
X110941904Y-83079333D02*
X110560952Y-83346000D01*
X110941904Y-83536476D02*
X110141904Y-83536476D01*
X110141904Y-83231714D01*
X110180000Y-83155523D01*
X110218095Y-83117428D01*
X110294285Y-83079333D01*
X110408571Y-83079333D01*
X110484761Y-83117428D01*
X110522857Y-83155523D01*
X110560952Y-83231714D01*
X110560952Y-83536476D01*
X110408571Y-82393619D02*
X110941904Y-82393619D01*
X110103809Y-82584095D02*
X110675238Y-82774571D01*
X110675238Y-82279333D01*
%TO.C,R3*%
X115767904Y-83079333D02*
X115386952Y-83346000D01*
X115767904Y-83536476D02*
X114967904Y-83536476D01*
X114967904Y-83231714D01*
X115006000Y-83155523D01*
X115044095Y-83117428D01*
X115120285Y-83079333D01*
X115234571Y-83079333D01*
X115310761Y-83117428D01*
X115348857Y-83155523D01*
X115386952Y-83231714D01*
X115386952Y-83536476D01*
X114967904Y-82812666D02*
X114967904Y-82317428D01*
X115272666Y-82584095D01*
X115272666Y-82469809D01*
X115310761Y-82393619D01*
X115348857Y-82355523D01*
X115425047Y-82317428D01*
X115615523Y-82317428D01*
X115691714Y-82355523D01*
X115729809Y-82393619D01*
X115767904Y-82469809D01*
X115767904Y-82698380D01*
X115729809Y-82774571D01*
X115691714Y-82812666D01*
%TO.C,R2*%
X111957904Y-79523333D02*
X111576952Y-79790000D01*
X111957904Y-79980476D02*
X111157904Y-79980476D01*
X111157904Y-79675714D01*
X111196000Y-79599523D01*
X111234095Y-79561428D01*
X111310285Y-79523333D01*
X111424571Y-79523333D01*
X111500761Y-79561428D01*
X111538857Y-79599523D01*
X111576952Y-79675714D01*
X111576952Y-79980476D01*
X111234095Y-79218571D02*
X111196000Y-79180476D01*
X111157904Y-79104285D01*
X111157904Y-78913809D01*
X111196000Y-78837619D01*
X111234095Y-78799523D01*
X111310285Y-78761428D01*
X111386476Y-78761428D01*
X111500761Y-78799523D01*
X111957904Y-79256666D01*
X111957904Y-78761428D01*
%TO.C,R1*%
X106636666Y-83561904D02*
X106370000Y-83180952D01*
X106179523Y-83561904D02*
X106179523Y-82761904D01*
X106484285Y-82761904D01*
X106560476Y-82800000D01*
X106598571Y-82838095D01*
X106636666Y-82914285D01*
X106636666Y-83028571D01*
X106598571Y-83104761D01*
X106560476Y-83142857D01*
X106484285Y-83180952D01*
X106179523Y-83180952D01*
X107398571Y-83561904D02*
X106941428Y-83561904D01*
X107170000Y-83561904D02*
X107170000Y-82761904D01*
X107093809Y-82876190D01*
X107017619Y-82952380D01*
X106941428Y-82990476D01*
%TO.C,IC1*%
X112085047Y-82037904D02*
X112085047Y-81237904D01*
X112923142Y-81961714D02*
X112885047Y-81999809D01*
X112770761Y-82037904D01*
X112694571Y-82037904D01*
X112580285Y-81999809D01*
X112504095Y-81923619D01*
X112466000Y-81847428D01*
X112427904Y-81695047D01*
X112427904Y-81580761D01*
X112466000Y-81428380D01*
X112504095Y-81352190D01*
X112580285Y-81276000D01*
X112694571Y-81237904D01*
X112770761Y-81237904D01*
X112885047Y-81276000D01*
X112923142Y-81314095D01*
X113685047Y-82037904D02*
X113227904Y-82037904D01*
X113456476Y-82037904D02*
X113456476Y-81237904D01*
X113380285Y-81352190D01*
X113304095Y-81428380D01*
X113227904Y-81466476D01*
%TO.C,C4*%
X110865714Y-85873333D02*
X110903809Y-85911428D01*
X110941904Y-86025714D01*
X110941904Y-86101904D01*
X110903809Y-86216190D01*
X110827619Y-86292380D01*
X110751428Y-86330476D01*
X110599047Y-86368571D01*
X110484761Y-86368571D01*
X110332380Y-86330476D01*
X110256190Y-86292380D01*
X110180000Y-86216190D01*
X110141904Y-86101904D01*
X110141904Y-86025714D01*
X110180000Y-85911428D01*
X110218095Y-85873333D01*
X110408571Y-85187619D02*
X110941904Y-85187619D01*
X110103809Y-85378095D02*
X110675238Y-85568571D01*
X110675238Y-85073333D01*
%TO.C,C3*%
X115691714Y-85619333D02*
X115729809Y-85657428D01*
X115767904Y-85771714D01*
X115767904Y-85847904D01*
X115729809Y-85962190D01*
X115653619Y-86038380D01*
X115577428Y-86076476D01*
X115425047Y-86114571D01*
X115310761Y-86114571D01*
X115158380Y-86076476D01*
X115082190Y-86038380D01*
X115006000Y-85962190D01*
X114967904Y-85847904D01*
X114967904Y-85771714D01*
X115006000Y-85657428D01*
X115044095Y-85619333D01*
X114967904Y-85352666D02*
X114967904Y-84857428D01*
X115272666Y-85124095D01*
X115272666Y-85009809D01*
X115310761Y-84933619D01*
X115348857Y-84895523D01*
X115425047Y-84857428D01*
X115615523Y-84857428D01*
X115691714Y-84895523D01*
X115729809Y-84933619D01*
X115767904Y-85009809D01*
X115767904Y-85238380D01*
X115729809Y-85314571D01*
X115691714Y-85352666D01*
%TO.C,C2*%
X109181714Y-79523333D02*
X109219809Y-79561428D01*
X109257904Y-79675714D01*
X109257904Y-79751904D01*
X109219809Y-79866190D01*
X109143619Y-79942380D01*
X109067428Y-79980476D01*
X108915047Y-80018571D01*
X108800761Y-80018571D01*
X108648380Y-79980476D01*
X108572190Y-79942380D01*
X108496000Y-79866190D01*
X108457904Y-79751904D01*
X108457904Y-79675714D01*
X108496000Y-79561428D01*
X108534095Y-79523333D01*
X108534095Y-79218571D02*
X108496000Y-79180476D01*
X108457904Y-79104285D01*
X108457904Y-78913809D01*
X108496000Y-78837619D01*
X108534095Y-78799523D01*
X108610285Y-78761428D01*
X108686476Y-78761428D01*
X108800761Y-78799523D01*
X109257904Y-79256666D01*
X109257904Y-78761428D01*
%TO.C,C1*%
X114261714Y-79523333D02*
X114299809Y-79561428D01*
X114337904Y-79675714D01*
X114337904Y-79751904D01*
X114299809Y-79866190D01*
X114223619Y-79942380D01*
X114147428Y-79980476D01*
X113995047Y-80018571D01*
X113880761Y-80018571D01*
X113728380Y-79980476D01*
X113652190Y-79942380D01*
X113576000Y-79866190D01*
X113537904Y-79751904D01*
X113537904Y-79675714D01*
X113576000Y-79561428D01*
X113614095Y-79523333D01*
X114337904Y-78761428D02*
X114337904Y-79218571D01*
X114337904Y-78990000D02*
X113537904Y-78990000D01*
X113652190Y-79066190D01*
X113728380Y-79142380D01*
X113766476Y-79218571D01*
%TD*%
M02*
