M48
; DRILL file {KiCad (5.1.7)-1} date 10/21/20 06:22:52
; FORMAT={-:-/ absolute / inch / decimal}
; #@! TF.CreationDate,2020-10-21T06:22:52+09:00
; #@! TF.GenerationSoftware,Kicad,Pcbnew,(5.1.7)-1
FMAT,2
INCH
T1C0.0157
T2C0.0394
%
G90
G05
T1
X4.151Y-3.3104
X4.151Y-5.0427
X4.2185Y-2.3543
X4.2185Y-4.0866
X4.6538Y-2.7506
X4.6538Y-4.4829
X4.6746Y-3.3104
X4.6746Y-5.0427
X4.7035Y-2.4256
X4.7035Y-4.1579
X4.7354Y-3.0004
X4.7354Y-4.7327
X5.0171Y-3.3104
X5.0171Y-5.0427
X5.0846Y-2.3543
X5.0846Y-4.0866
X5.5199Y-2.7506
X5.5199Y-4.4829
X5.5407Y-3.3104
X5.5407Y-5.0427
X5.5697Y-2.4256
X5.5697Y-4.1579
X5.6015Y-3.0004
X5.6015Y-4.7327
X5.8833Y-3.3104
X5.8833Y-5.0427
X5.9508Y-2.3543
X5.9508Y-4.0866
X6.3861Y-2.7506
X6.3861Y-4.4829
X6.4068Y-3.3104
X6.4068Y-5.0427
X6.4358Y-2.4256
X6.4358Y-4.1579
X6.4677Y-3.0004
X6.4677Y-4.7327
X6.7494Y-3.3104
X6.7494Y-5.0427
X6.8169Y-2.3543
X6.8169Y-4.0866
X7.2522Y-2.7506
X7.2522Y-4.4829
X7.273Y-3.3104
X7.273Y-5.0427
X7.302Y-2.4256
X7.302Y-4.1579
X7.3338Y-3.0004
X7.3338Y-4.7327
T2
X5.1701Y-3.5325
X5.2701Y-3.5325
X5.3701Y-3.5325
X5.4701Y-3.5325
X6.9024Y-3.5325
X7.0024Y-3.5325
X7.1024Y-3.5325
X7.2024Y-3.5325
X4.3039Y-3.5325
X4.4039Y-3.5325
X4.5039Y-3.5325
X4.6039Y-3.5325
X4.3039Y-5.2648
X4.4039Y-5.2648
X4.5039Y-5.2648
X4.6039Y-5.2648
X5.1701Y-5.2648
X5.2701Y-5.2648
X5.3701Y-5.2648
X5.4701Y-5.2648
X6.0362Y-5.2648
X6.1362Y-5.2648
X6.2362Y-5.2648
X6.3362Y-5.2648
X6.0362Y-3.5325
X6.1362Y-3.5325
X6.2362Y-3.5325
X6.3362Y-3.5325
X6.9024Y-5.2648
X7.0024Y-5.2648
X7.1024Y-5.2648
X7.2024Y-5.2648
T0
M30
